0
SECTION
2
HEADER
9
$INSUNITS
70
4
9
$ACADVER
1
AC1014
9
$HANDSEED
5
FFFF
0
ENDSEC
0
SECTION
2
TABLES
0
TABLE
2
VPORT
5
8
100
AcDbSymbolTable
0
ENDTAB
0
TABLE
2
LTYPE
5
5
100
AcDbSymbolTable
0
LTYPE
5
14
100
AcDbSymbolTableRecord
100
AcDbLinetypeTableRecord
2
BYBLOCK
70
0
0
LTYPE
5
15
100
AcDbSymbolTableRecord
100
AcDbLinetypeTableRecord
2
BYLAYER
70
0
0
ENDTAB
0
TABLE
2
LAYER
5
2
100
AcDbSymbolTable
70
2
0
LAYER
5
50
100
AcDbSymbolTableRecord
100
AcDbLayerTableRecord
2
0
70
0
6
CONTINUOUS
0
ENDTAB
0
TABLE
2
STYLE
5
3
100
AcDbSymbolTable
70
1
0
STYLE
5
11
100
AcDbSymbolTableRecord
100
AcDbTextStyleTableRecord
2
STANDARD
70
0
0
ENDTAB
0
TABLE
2
VIEW
5
6
100
AcDbSymbolTable
70
0
0
ENDTAB
0
TABLE
2
UCS
5
7
100
AcDbSymbolTable
70
0
0
ENDTAB
0
TABLE
2
APPID
5
9
100
AcDbSymbolTable
70
2
0
APPID
5
12
100
AcDbSymbolTableRecord
100
AcDbRegAppTableRecord
2
ACAD
70
0
0
ENDTAB
0
TABLE
2
DIMSTYLE
5
A
100
AcDbSymbolTable
70
1
0
ENDTAB
0
TABLE
2
BLOCK_RECORD
5
1
100
AcDbSymbolTable
70
1
0
BLOCK_RECORD
5
1F
100
AcDbSymbolTableRecord
100
AcDbBlockTableRecord
2
*MODEL_SPACE
0
BLOCK_RECORD
5
1B
100
AcDbSymbolTableRecord
100
AcDbBlockTableRecord
2
*PAPER_SPACE
0
ENDTAB
0
ENDSEC
0
SECTION
2
BLOCKS
0
BLOCK
5
20
100
AcDbEntity
100
AcDbBlockBegin
2
*MODEL_SPACE
0
ENDBLK
5
21
100
AcDbEntity
100
AcDbBlockEnd
0
BLOCK
5
1C
100
AcDbEntity
100
AcDbBlockBegin
2
*PAPER_SPACE
0
ENDBLK
5
1D
100
AcDbEntity
100
AcDbBlockEnd
0
ENDSEC
0
SECTION
2
ENTITIES
0
CIRCLE
5
100
100
AcDbEntity
8
0
100
AcDbCircle
10
-70.590825347898928
20
85.979656616500648
30
0
40
0.99999999999999645
210
0
220
-0
230
1
0
CIRCLE
5
101
100
AcDbEntity
8
0
100
AcDbCircle
10
-92.724999999999994
20
-5.608786766998568
30
0
40
0.99999999999999645
210
0
220
-0
230
1
0
CIRCLE
5
102
100
AcDbEntity
8
0
100
AcDbCircle
10
-5.9999999999999787
20
1.9999999848322414
30
0
40
1.9999999999999996
210
0
220
-0
230
1
0
CIRCLE
5
103
100
AcDbEntity
8
0
100
AcDbCircle
10
-149.875
20
-5.6087867669985698
30
0
40
0.99999999999999645
210
0
220
-0
230
1
0
CIRCLE
5
104
100
AcDbEntity
8
0
100
AcDbCircle
10
-245.125
20
-5.6087867669985503
30
0
40
1.0000000000000142
210
0
220
-0
230
1
0
CIRCLE
5
105
100
AcDbEntity
8
0
100
AcDbCircle
10
-191.05882534789887
20
85.979656616500648
30
0
40
1.0000000000000142
210
0
220
-0
230
1
0
CIRCLE
5
106
100
AcDbEntity
8
0
100
AcDbCircle
10
-258.2133452205457
20
1.9999999892756026
30
0
40
1.9999999999999929
210
0
220
-0
230
1
0
CIRCLE
5
107
100
AcDbEntity
8
0
100
AcDbCircle
10
-277.78392534789879
20
50.541313233001375
30
0
40
1.0000000000000142
210
0
220
-0
230
1
0
CIRCLE
5
108
100
AcDbEntity
8
0
100
AcDbCircle
10
-268.25892534789881
20
12.441313233001408
30
0
40
1.0000000000000142
210
0
220
-0
230
1
0
CIRCLE
5
109
100
AcDbEntity
8
0
100
AcDbCircle
10
-16.524999999999984
20
-5.6087867669985627
30
0
40
1.0000000000000009
210
0
220
-0
230
1
0
CIRCLE
5
110
100
AcDbEntity
8
0
100
AcDbCircle
10
1.8471746521010317
20
20.609313233001416
30
0
40
1
210
0
220
-0
230
1
0
CIRCLE
5
111
100
AcDbEntity
8
0
100
AcDbCircle
10
-7.6778253478989731
20
58.709313233001403
30
0
40
0.99999999999999978
210
0
220
-0
230
1
0
LWPOLYLINE
5
112
100
AcDbEntity
8
0
100
AcDbPolyline
90
26
70
1
43
0.0
10
-111.89082534789891
20
18.89121323300143
10
-111.89082534789891
20
-10.000000149011614
10
6.0000000000000142
20
-10
42
0.4142135623730947
10
8.000000000000016
20
-8.0000000000000036
10
8.0000000000000107
20
21.232044607591977
42
0.061162620150484188
10
7.8514786313799956
20
22.441654085590308
10
-5.9094798004614324
20
77.633843791199325
42
0.34432761328966471
10
-7.8500712530134198
20
79.149999999999991
10
-64.199999999999989
20
79.149999999999991
42
-0.41421356237309637
10
-66.199999999999989
20
81.149999999999977
10
-66.199999999999989
20
96.199999999999932
42
0.4142135623730977
10
-68.19999999999996
20
98.199999999999932
10
-193.44999999999999
20
98.199999999999932
42
0.4142135623730977
10
-195.44999999999993
20
96.199999999999932
10
-195.44999999999999
20
81.150000000000006
42
-0.4142135623730977
10
-197.44999999999999
20
79.149999999999991
10
-281.9375
20
79.149999999999991
42
0.4142135623730977
10
-283.9375
20
77.149999999999977
10
-283.9375
20
47.917955392408871
42
0.061162620150470373
10
-283.78897863137996
20
46.708345914410557
10
-270.02802019953862
20
-8.4838437911993125
42
0.34432761328968919
10
-268.08742874698657
20
-10.000000000000027
10
-130.89082534789893
20
-10.000000149011612
10
-130.89082534789893
20
18.891213233001434
42
-0.4142135623730967
10
-128.89082534789893
20
20.89121323300143
10
-113.89082534789891
20
20.891213233001437
42
-0.41421356237309698
0
ENDSEC
0
SECTION
2
OBJECTS
0
DICTIONARY
5
C
100
AcDbDictionary
3
ACAD_GROUP
350
D
3
ACAD_MLINESTYLE
350
17
0
DICTIONARY
5
D
100
AcDbDictionary
0
DICTIONARY
5
1A
330
C
100
AcDbDictionary
0
DICTIONARY
5
17
100
AcDbDictionary
0
ENDSEC
0
EOF
