0
SECTION
2
HEADER
9
$INSUNITS
70
4
9
$ACADVER
1
AC1014
9
$HANDSEED
5
FFFF
0
ENDSEC
0
SECTION
2
TABLES
0
TABLE
2
VPORT
5
8
100
AcDbSymbolTable
0
ENDTAB
0
TABLE
2
LTYPE
5
5
100
AcDbSymbolTable
0
LTYPE
5
14
100
AcDbSymbolTableRecord
100
AcDbLinetypeTableRecord
2
BYBLOCK
70
0
0
LTYPE
5
15
100
AcDbSymbolTableRecord
100
AcDbLinetypeTableRecord
2
BYLAYER
70
0
0
ENDTAB
0
TABLE
2
LAYER
5
2
100
AcDbSymbolTable
70
2
0
LAYER
5
50
100
AcDbSymbolTableRecord
100
AcDbLayerTableRecord
2
0
70
0
6
CONTINUOUS
0
ENDTAB
0
TABLE
2
STYLE
5
3
100
AcDbSymbolTable
70
1
0
STYLE
5
11
100
AcDbSymbolTableRecord
100
AcDbTextStyleTableRecord
2
STANDARD
70
0
0
ENDTAB
0
TABLE
2
VIEW
5
6
100
AcDbSymbolTable
70
0
0
ENDTAB
0
TABLE
2
UCS
5
7
100
AcDbSymbolTable
70
0
0
ENDTAB
0
TABLE
2
APPID
5
9
100
AcDbSymbolTable
70
2
0
APPID
5
12
100
AcDbSymbolTableRecord
100
AcDbRegAppTableRecord
2
ACAD
70
0
0
ENDTAB
0
TABLE
2
DIMSTYLE
5
A
100
AcDbSymbolTable
70
1
0
ENDTAB
0
TABLE
2
BLOCK_RECORD
5
1
100
AcDbSymbolTable
70
1
0
BLOCK_RECORD
5
1F
100
AcDbSymbolTableRecord
100
AcDbBlockTableRecord
2
*MODEL_SPACE
0
BLOCK_RECORD
5
1B
100
AcDbSymbolTableRecord
100
AcDbBlockTableRecord
2
*PAPER_SPACE
0
ENDTAB
0
ENDSEC
0
SECTION
2
BLOCKS
0
BLOCK
5
20
100
AcDbEntity
100
AcDbBlockBegin
2
*MODEL_SPACE
0
ENDBLK
5
21
100
AcDbEntity
100
AcDbBlockEnd
0
BLOCK
5
1C
100
AcDbEntity
100
AcDbBlockBegin
2
*PAPER_SPACE
0
ENDBLK
5
1D
100
AcDbEntity
100
AcDbBlockEnd
0
ENDSEC
0
SECTION
2
ENTITIES
0
CIRCLE
5
100
100
AcDbEntity
8
0
100
AcDbCircle
10
-245.125
20
-5.6087867669985503
30
0
40
1.5749999999999886
210
0
220
-0
230
1
0
CIRCLE
5
101
100
AcDbEntity
8
0
100
AcDbCircle
10
-70.590825347898928
20
85.979656616500648
30
0
40
1.5749999999999975
210
0
220
-0
230
1
0
CIRCLE
5
102
100
AcDbEntity
8
0
100
AcDbCircle
10
-277.78392534789879
20
50.541313233001375
30
0
40
1.5749999999999886
210
0
220
-0
230
1
0
CIRCLE
5
103
100
AcDbEntity
8
0
100
AcDbCircle
10
-92.724999999999994
20
-5.608786766998568
30
0
40
1.5750000000000064
210
-1.2325951644078309e-32
220
-0
230
1
0
CIRCLE
5
104
100
AcDbEntity
8
0
100
AcDbCircle
10
-149.875
20
-5.6087867669985698
30
0
40
1.5750000000000064
210
-1.2325951644078309e-32
220
-0
230
1
0
CIRCLE
5
105
100
AcDbEntity
8
0
100
AcDbCircle
10
-268.25892534789881
20
12.441313233001408
30
0
40
1.5749999999999886
210
0
220
-0
230
1
0
CIRCLE
5
106
100
AcDbEntity
8
0
100
AcDbCircle
10
-16.524999999999984
20
-5.6087867669985627
30
0
40
1.5749999999999997
210
1.2325951644078309e-32
220
-0
230
1
0
CIRCLE
5
107
100
AcDbEntity
8
0
100
AcDbCircle
10
-7.6778253478989731
20
58.709313233001403
30
0
40
1.5749999999999997
210
1.2325951644078309e-32
220
-0
230
1
0
CIRCLE
5
108
100
AcDbEntity
8
0
100
AcDbCircle
10
1.8471746521010317
20
20.609313233001416
30
0
40
1.575
210
-5.3623218395736845e-66
220
3.0814879110195774e-33
230
1
0
CIRCLE
5
109
100
AcDbEntity
8
0
100
AcDbCircle
10
-191.05882534789887
20
85.979656616500648
30
0
40
1.5749999999999886
210
0
220
-0
230
1
0
LWPOLYLINE
5
110
100
AcDbEntity
8
0
100
AcDbPolyline
90
256
70
1
43
0.0
10
-130.89082534789893
20
-10.000000149011612
10
-130.89082534789893
20
-2.608786766998572
10
-262.487532833302
20
-2.6087867669985805
10
-262.51759471061541
20
-2.6212844013872734
10
-262.87875220292625
20
-2.5896623168070447
10
-263.16119521125819
20
-2.5139162372998469
10
-263.42621204650152
20
-2.3903938587633915
10
-263.66599320639898
20
-2.2225470468351842
10
-263.87273547914037
20
-2.0156620948165198
10
-264.04050266698073
20
-1.7761373427893303
10
-264.16405481820004
20
-1.5110566303580173
10
-264.23980089770731
20
-1.2286136220259203
10
-264.27142298228756
20
-0.86745612971502462
10
-264.25892534789887
20
-0.83739425240166132
10
-264.25892534789887
20
15.71163476689698
10
-264.26920032362017
20
15.841968351549697
10
-264.29514823566711
20
15.95032870659896
10
-264.33756590879864
20
16.052575163872042
10
-264.39602299837139
20
16.148039362569403
10
-264.4681265964245
20
16.232832726054433
10
-264.55193428766017
20
16.304269635423701
10
-264.64730612278714
20
16.362588422808322
10
-264.74979471789618
20
16.405267643817801
10
-264.85751606123131
20
16.430943370289885
10
-264.98831459623267
20
16.441313233001409
10
-267.24263020156144
20
16.441313233001409
10
-267.27244699632604
20
16.427912426365673
10
-267.64101029062363
20
16.459994228736644
10
-267.92401768965465
20
16.535748734537876
10
-268.18944084365211
20
16.660031912136237
10
-268.42877742556664
20
16.828137368481009
10
-268.63478541302237
20
17.034287528460872
10
-268.80279335118706
20
17.27287022976622
10
-268.9265816884797
20
17.538743563905015
10
-269.00232114849058
20
17.821161889369446
10
-269.0347990498754
20
18.193423215182744
10
-269.02142534789886
20
18.222339327564477
10
-269.02142534789886
20
34.761634766896961
10
-269.03170032362016
20
34.891968351549494
10
-269.05764823566716
20
35.000328706599191
10
-269.10006590879851
20
35.102575163871784
10
-269.15852299837138
20
35.198039362569411
10
-269.2306265964246
20
35.282832726054487
10
-269.31443428766022
20
35.354269635423719
10
-269.40980612278719
20
35.412588422808355
10
-269.51229471789611
20
35.455267643817791
10
-269.6200160612313
20
35.480943370289857
10
-269.75081459623266
20
35.491313233001385
10
-272.00513020156103
20
35.491313233001385
10
-272.03494699632569
20
35.477912426365606
10
-272.40351029062367
20
35.509994228736645
10
-272.68651768965464
20
35.585748734537894
10
-272.9519408436521
20
35.710031912136209
10
-273.19127742556668
20
35.878137368480992
10
-273.39728541302242
20
36.084287528460941
10
-273.56529335118705
20
36.322870229766153
10
-273.68908168847969
20
36.588743563905027
10
-273.76482114849057
20
36.871161889369461
10
-273.79729904987551
20
37.243423215184222
10
-273.78392534789884
20
37.272339327565874
10
-273.78392534789884
20
53.811634766896965
10
-273.79420032362009
20
53.941968351549519
10
-273.82014823566709
20
54.050328706599046
10
-273.8625659087985
20
54.152575163871774
10
-273.92102299837143
20
54.248039362569386
10
-273.99312659642459
20
54.332832726054491
10
-274.07693428766015
20
54.404269635423688
10
-274.17230612278712
20
54.462588422808295
10
-274.27479471789616
20
54.50526764381776
10
-274.38251606123129
20
54.530943370289854
10
-274.5133145962327
20
54.541313233001382
10
-276.76763020156108
20
54.541313233001382
10
-276.79744699632568
20
54.527912426365603
10
-277.16601029062366
20
54.559994228736635
10
-277.44901768965468
20
54.635748734537842
10
-277.71444084365214
20
54.760031912136249
10
-277.95377742556667
20
54.928137368480989
10
-278.15978541302241
20
55.134287528460845
10
-278.3277933511871
20
55.372870229766221
10
-278.45158168847968
20
55.638743563904967
10
-278.52732114849056
20
55.921161889369372
10
-278.55880057581987
20
56.281978717236882
10
-278.54642534789883
20
56.312080622990514
10
-278.54642534789883
20
71.978287138438731
10
-278.55979904987527
20
72.007203250820425
10
-278.52732114849056
20
72.379464576633424
10
-278.45158168847973
20
72.661882902097744
10
-278.32779335118704
20
72.927756236236633
10
-278.15978541302241
20
73.166338937541909
10
-277.95377742556667
20
73.372489097521765
10
-277.71444084365208
20
73.540594553866555
10
-277.44901768965468
20
73.664877731464856
10
-277.16601029062372
20
73.740632237266141
10
-276.79744699632568
20
73.772714039637194
10
-276.76763020156108
20
73.759313233001407
10
-188.78863547162894
20
73.759313233001336
10
-188.65791418396302
20
73.769687938371646
10
-188.54993032570223
20
73.795370585741807
10
-188.44777284402869
20
73.837984849525625
10
-188.35166911848643
20
73.896714904023696
10
-188.26756798252757
20
73.968055867630156
10
-188.19622701892118
20
74.052157003588889
10
-188.13749696442318
20
74.148260729131124
10
-188.09488270063929
20
74.250418210804725
10
-188.06920005326913
20
74.358402069065733
10
-188.05882534789887
20
74.489123356731298
10
-188.05882534789887
20
91.031206007776504
10
-188.07209644542382
20
91.061065977207562
10
-188.04016445098478
20
91.429223089564132
10
-187.96441675418538
20
91.712205051192015
10
-187.83986641976355
20
91.978485076507724
10
-187.67155057963637
20
92.216694782450404
10
-187.46620689734786
20
92.422038464738918
10
-187.22799719140514
20
92.590354304866025
10
-186.96171716608984
20
92.714904639287738
10
-186.67873520446162
20
92.790652336087319
10
-186.29843926850043
20
92.823637187675629
10
-186.26979135915133
20
92.80931323300139
10
-75.379859336648778
20
92.80931323300139
10
-75.351211427299575
20
92.823637187675985
10
-74.970915491336058
20
92.790652336087192
10
-74.687933529708104
20
92.714904639287823
10
-74.421653504392623
20
92.590354304866068
10
-74.183443798449957
20
92.422038464738932
10
-73.978100116161329
20
92.216694782450318
10
-73.80978427603425
20
91.978485076507752
10
-73.685233941612395
20
91.712205051192115
10
-73.609486244813027
20
91.429223089564061
10
-73.577554250373808
20
91.061065977206695
10
-73.590825347898928
20
91.03120600777558
10
-73.590825347898928
20
74.489123356731454
10
-73.580450642528561
20
74.358402069065548
10
-73.554767995158414
20
74.250418210804639
10
-73.51215373137461
20
74.148260729131081
10
-73.453423676876668
20
74.052157003588974
10
-73.38208271327025
20
73.968055867630213
10
-73.297981577311276
20
73.896714904023668
10
-73.201877851769041
20
73.837984849525625
10
-73.099720370095525
20
73.795370585741807
10
-72.991736511834702
20
73.769687938371646
10
-72.86101522416881
20
73.759313233001336
10
-13.455932573124816
20
73.759313233001336
10
-13.42596503955642
20
73.77263213680969
10
-13.058808062233265
20
73.740623579812294
10
-12.775933529707972
20
73.664904639287784
10
-12.510294996443772
20
73.540654357599678
10
-12.270944371196702
20
73.372539037485694
10
-12.064386801133127
20
73.165981467422114
10
-11.897356746095868
20
72.927571046984411
10
-11.773233941612471
20
72.662205051192245
10
-11.697486244812945
20
72.379223089564078
10
-11.66691398445357
20
72.02674291130154
10
-11.677825347898974
20
71.997645942114147
10
-11.677825347898974
20
55.43780641834185
10
-11.668239479219608
20
55.308397191170798
10
-11.64197302060199
20
55.200412861298354
10
-11.599943147175622
20
55.098256918942674
10
-11.541152760239612
20
55.003016492106333
10
-11.468526661017906
20
54.917400358877451
10
-11.385248428653123
20
54.846266868732549
10
-11.28987785176912
20
54.787984849525657
10
-11.187720370095636
20
54.745370585741853
10
-11.079736511834792
20
54.719687938371706
10
-10.949015224168896
20
54.709313233001396
10
-8.6939325731230994
20
54.709313233001396
10
-8.6640726036919187
20
54.72258433052631
10
-8.295915491336272
20
54.690652336087311
10
-8.0129335297081639
20
54.6149046392879
10
-7.7466535043925608
20
54.490354304866116
10
-7.5084437984499752
20
54.322038464738959
10
-7.3031001161612963
20
54.116694782450381
10
-7.1347842760342619
20
53.878485076507758
10
-7.0102339416124071
20
53.61220505119217
10
-6.9344862448130984
20
53.329223089564138
10
-6.9025542503738997
20
52.961065977207696
10
-6.9158253478989185
20
52.931206007776524
10
-6.9158253478989167
20
36.38912335673141
10
-6.905450642528618
20
36.258402069065639
10
-6.8797679951584261
20
36.150418210804723
10
-6.8371537313746327
20
36.048260729131123
10
-6.7784236768767068
20
35.952157003589093
10
-6.7070827132701485
20
35.868055867630176
10
-6.6229815773112479
20
35.796714904023631
10
-6.5268778517691359
20
35.737984849525681
10
-6.4247203700956046
20
35.695370585741856
10
-6.3167365118347529
20
35.669687938371709
10
-6.1860152241689121
20
35.659313233001406
10
-3.9309325731230698
20
35.659313233001406
10
-3.9009650395546491
20
35.67263213680954
10
-3.533808062233323
20
35.640623579812299
10
-3.250933529708206
20
35.564904639287917
10
-2.9852949964436899
20
35.440654357599747
10
-2.745944371196634
20
35.2725390374857
10
-2.5393868011331113
20
35.065981467422127
10
-2.372356746095829
20
34.827571046984438
10
-2.2482339416125159
20
34.562205051192194
10
-2.1724862448130331
20
34.279223089564226
10
-2.142751291713318
20
33.936396571473331
10
-2.1528253478989687
20
33.906174402916619
10
-2.1528253478989683
20
17.337806418341913
10
-2.1432394792196026
20
17.208397191170825
10
-2.1169730206019635
20
17.100412861298313
10
-2.0749431471756594
20
16.998256918942676
10
-2.0161527602396463
20
16.903016492106374
10
-1.9435266610179112
20
16.817400358877475
10
-1.8602484286530874
20
16.74626686873254
10
-1.7648778517691666
20
16.68798484952567
10
-1.6627203700956454
20
16.645370585741865
10
-1.55473651183482
20
16.619687938371715
10
-1.4240152241690072
20
16.609313233001412
10
0.83106742687648705
20
16.609313233001412
10
0.86092739630765003
20
16.622584330526379
10
1.2290845086637852
20
16.590652336087331
10
1.5120664702919075
20
16.51490463928787
10
1.7783464956073927
20
16.390354304866118
10
2.0165562015500695
20
16.222038464739018
10
2.2218998838387418
20
16.016694782450344
10
2.3902157239657367
20
15.778485076507776
10
2.5147660583875653
20
15.512205051192291
10
2.5905137551869704
20
15.229223089564234
10
2.6234986067758932
20
14.84892715359933
10
2.609174652101089
20
14.820279244250102
10
2.609174652101089
20
-0.82999162065925391
10
2.6225754587371144
20
-0.85980841542395114
10
2.5904936563658092
20
-1.2283717097234597
10
2.5147391505646066
20
-1.5113791087544333
10
2.3904260533197972
20
-1.7768661601115989
10
2.2223505733828395
20
-2.0160176269033823
10
2.0162713874969009
20
-2.2220968127893466
10
1.7776176553361744
20
-2.3901547702868959
10
1.5117443211974164
20
-2.5139431075794483
10
1.2293259957331411
20
-2.5896825675903039
10
0.86850916786631949
20
-2.6211619949195244
10
0.83840726211259697
20
-2.6087867669985627
10
-111.89082534789891
20
-2.6087867669985703
10
-111.89082534789891
20
-10.000000149011612
10
6.0000000000000142
20
-10
42
0.4142135623730947
10
8.000000000000016
20
-8.0000000000000036
10
8.0000000000000107
20
21.232044607591977
42
0.061162620150484188
10
7.8514786313799956
20
22.441654085590308
10
-5.9094798004614324
20
77.633843791199325
42
0.34432761328966471
10
-7.8500712530134198
20
79.149999999999991
10
-64.199999999999989
20
79.149999999999991
42
-0.41421356237309637
10
-66.199999999999989
20
81.149999999999977
10
-66.199999999999989
20
96.199999999999932
42
0.4142135623730977
10
-68.19999999999996
20
98.199999999999932
10
-193.44999999999999
20
98.199999999999932
42
0.4142135623730977
10
-195.44999999999993
20
96.199999999999932
10
-195.44999999999999
20
81.150000000000006
42
-0.4142135623730977
10
-197.44999999999999
20
79.149999999999991
10
-281.9375
20
79.149999999999991
42
0.4142135623730977
10
-283.9375
20
77.149999999999977
10
-283.9375
20
47.917955392408871
42
0.061162620150470373
10
-283.78897863137996
20
46.708345914410557
10
-270.02802019953862
20
-8.4838437911993125
42
0.34432761328968919
10
-268.08742874698657
20
-10.000000000000027
0
ENDSEC
0
SECTION
2
OBJECTS
0
DICTIONARY
5
C
100
AcDbDictionary
3
ACAD_GROUP
350
D
3
ACAD_MLINESTYLE
350
17
0
DICTIONARY
5
D
100
AcDbDictionary
0
DICTIONARY
5
1A
330
C
100
AcDbDictionary
0
DICTIONARY
5
17
100
AcDbDictionary
0
ENDSEC
0
EOF
