0
SECTION
2
HEADER
9
$INSUNITS
70
4
9
$ACADVER
1
AC1014
9
$HANDSEED
5
FFFF
0
ENDSEC
0
SECTION
2
TABLES
0
TABLE
2
VPORT
5
8
100
AcDbSymbolTable
0
ENDTAB
0
TABLE
2
LTYPE
5
5
100
AcDbSymbolTable
0
LTYPE
5
14
100
AcDbSymbolTableRecord
100
AcDbLinetypeTableRecord
2
BYBLOCK
70
0
0
LTYPE
5
15
100
AcDbSymbolTableRecord
100
AcDbLinetypeTableRecord
2
BYLAYER
70
0
0
ENDTAB
0
TABLE
2
LAYER
5
2
100
AcDbSymbolTable
70
2
0
LAYER
5
50
100
AcDbSymbolTableRecord
100
AcDbLayerTableRecord
2
0
70
0
6
CONTINUOUS
0
ENDTAB
0
TABLE
2
STYLE
5
3
100
AcDbSymbolTable
70
1
0
STYLE
5
11
100
AcDbSymbolTableRecord
100
AcDbTextStyleTableRecord
2
STANDARD
70
0
0
ENDTAB
0
TABLE
2
VIEW
5
6
100
AcDbSymbolTable
70
0
0
ENDTAB
0
TABLE
2
UCS
5
7
100
AcDbSymbolTable
70
0
0
ENDTAB
0
TABLE
2
APPID
5
9
100
AcDbSymbolTable
70
2
0
APPID
5
12
100
AcDbSymbolTableRecord
100
AcDbRegAppTableRecord
2
ACAD
70
0
0
ENDTAB
0
TABLE
2
DIMSTYLE
5
A
100
AcDbSymbolTable
70
1
0
ENDTAB
0
TABLE
2
BLOCK_RECORD
5
1
100
AcDbSymbolTable
70
1
0
BLOCK_RECORD
5
1F
100
AcDbSymbolTableRecord
100
AcDbBlockTableRecord
2
*MODEL_SPACE
0
BLOCK_RECORD
5
1B
100
AcDbSymbolTableRecord
100
AcDbBlockTableRecord
2
*PAPER_SPACE
0
ENDTAB
0
ENDSEC
0
SECTION
2
BLOCKS
0
BLOCK
5
20
100
AcDbEntity
100
AcDbBlockBegin
2
*MODEL_SPACE
0
ENDBLK
5
21
100
AcDbEntity
100
AcDbBlockEnd
0
BLOCK
5
1C
100
AcDbEntity
100
AcDbBlockBegin
2
*PAPER_SPACE
0
ENDBLK
5
1D
100
AcDbEntity
100
AcDbBlockEnd
0
ENDSEC
0
SECTION
2
ENTITIES
0
LWPOLYLINE
5
100
100
AcDbEntity
8
0
100
AcDbPolyline
90
8
70
1
43
0.0
10
-124.32499999999999
20
38.100000000000001
10
-137.32499999999999
20
38.099999999999994
42
-0.41421356237309509
10
-137.82499999999999
20
38.600000000000001
10
-137.82499999999999
20
51.600000000000001
42
-0.41421356237310542
10
-137.32499999999999
20
52.100000000000001
10
-124.32500000000002
20
52.100000000000016
42
-0.41421356237307944
10
-123.82499999999999
20
51.600000000000001
10
-123.825
20
38.600000000000001
42
-0.41421356237308465
0
LWPOLYLINE
5
101
100
AcDbEntity
8
0
100
AcDbPolyline
90
8
70
1
43
0.0
10
-103.9875
20
71.149999999999991
10
-90.987499999999983
20
71.149999999999977
42
-0.41421356237311063
10
-90.487499999999997
20
70.649999999999991
10
-90.487499999999983
20
57.649999999999999
42
-0.41421356237308982
10
-90.987499999999983
20
57.149999999999999
10
-103.9875
20
57.149999999999991
42
-0.41421356237309509
10
-104.48750000000001
20
57.649999999999999
10
-104.48750000000001
20
70.649999999999991
42
-0.41421356237310542
0
LWPOLYLINE
5
102
100
AcDbEntity
8
0
100
AcDbPolyline
90
8
70
1
43
0.0
10
-142.875
20
51.600000000000001
10
-142.875
20
38.600000000000001
42
-0.41421356237308465
10
-143.375
20
38.100000000000001
10
-156.375
20
38.099999999999994
42
-0.41421356237309509
10
-156.875
20
38.600000000000001
10
-156.875
20
51.600000000000001
42
-0.41421356237310542
10
-156.375
20
52.100000000000001
10
-143.37500000000003
20
52.100000000000016
42
-0.41421356237307944
0
LWPOLYLINE
5
103
100
AcDbEntity
8
0
100
AcDbPolyline
90
8
70
1
43
0.0
10
-180.6875
20
57.649999999999999
10
-180.68750000000006
20
70.649999999999991
42
-0.41421356237307422
10
-180.1875
20
71.149999999999991
10
-167.1875
20
71.149999999999977
42
-0.41421356237312629
10
-166.6875
20
70.649999999999991
10
-166.68750000000003
20
57.649999999999999
42
-0.4142135623730222
10
-167.1875
20
57.149999999999999
10
-180.1875
20
57.149999999999999
42
-0.41421356237313145
0
LWPOLYLINE
5
104
100
AcDbEntity
8
0
100
AcDbPolyline
90
8
70
1
43
0.0
10
-90.199999999999974
20
76.699999999999989
42
0.41421356237311585
10
-89.699999999999989
20
76.200000000000003
10
-76.699999999999989
20
76.199999999999989
42
0.41421356237309509
10
-76.199999999999989
20
76.699999999999989
10
-76.199999999999989
20
89.700000000000003
42
0.41421356237310542
10
-76.699999999999989
20
90.200000000000017
10
-89.699999999999989
20
90.199999999999989
42
0.41421356237312629
10
-90.199999999999989
20
89.700000000000003
0
LWPOLYLINE
5
105
100
AcDbEntity
8
0
100
AcDbPolyline
90
8
70
1
43
0.0
10
-145.76299999999998
20
92.200000000000003
10
-139.76299999999998
20
92.200000000000003
42
-0.41421356237307422
10
-139.26299999999998
20
91.700000000000003
10
-139.26299999999998
20
73.199999999999989
42
-0.41421356237308982
10
-139.76299999999998
20
72.699999999999989
10
-145.76299999999998
20
72.699999999999989
42
-0.4142135623731002
10
-146.26299999999998
20
73.199999999999989
10
-146.26299999999998
20
91.700000000000003
42
-0.4142135623730534
0
LWPOLYLINE
5
106
100
AcDbEntity
8
0
100
AcDbPolyline
90
8
70
1
43
0.0
10
-152.40000000000001
20
13.5
42
0.41421356237307549
10
-152.90000000000001
20
14.000000000000011
10
-165.90000000000001
20
14
42
0.41421356237307683
10
-166.40000000000001
20
13.5
10
-166.40000000000001
20
0.49999999999999989
42
0.414213562373133
10
-165.90000000000001
20
0
10
-152.90000000000001
20
0
42
0.41421356237307322
10
-152.40000000000001
20
0.49999999999999822
0
LWPOLYLINE
5
107
100
AcDbEntity
8
0
100
AcDbPolyline
90
8
70
1
43
0.0
10
-109.25
20
76.699999999999989
10
-109.25
20
89.700000000000003
42
-0.41421356237312629
10
-108.75
20
90.199999999999989
10
-95.75
20
90.199999999999974
42
-0.41421356237312629
10
-95.25
20
89.700000000000003
10
-95.249999999999986
20
76.699999999999989
42
-0.41421356237308982
10
-95.75
20
76.199999999999989
10
-108.75
20
76.199999999999989
42
-0.41421356237309509
0
LWPOLYLINE
5
108
100
AcDbEntity
8
0
100
AcDbPolyline
90
8
70
1
43
0.0
10
-152.40000000000001
20
89.700000000000003
10
-152.40000000000003
20
76.699999999999989
42
-0.4142135623731002
10
-152.90000000000001
20
76.199999999999989
10
-165.90000000000001
20
76.199999999999989
42
-0.41421356237313145
10
-166.40000000000001
20
76.699999999999989
10
-166.40000000000001
20
89.700000000000003
42
-0.41421356237307422
10
-165.90000000000001
20
90.199999999999989
10
-152.90000000000001
20
90.200000000000017
42
-0.4142135623730534
0
CIRCLE
5
109
100
AcDbEntity
8
0
100
AcDbCircle
10
1.8471746521010317
20
20.609313233001416
30
0
40
0.99999999999999911
210
0
220
-0
230
1
0
LWPOLYLINE
5
110
100
AcDbEntity
8
0
100
AcDbPolyline
90
8
70
1
43
0.0
10
-247.36249999999998
20
19.550000000000001
10
-247.36249999999998
20
32.550000000000004
42
-0.41421356237308204
10
-246.86249999999998
20
33.050000000000004
10
-233.86250000000001
20
33.050000000000004
42
-0.414213562373134
10
-233.36250000000001
20
32.550000000000004
10
-233.36249999999995
20
19.550000000000001
42
-0.41421356237307683
10
-233.86250000000001
20
19.050000000000004
10
-246.86249999999998
20
19.049999999999997
42
-0.414213562373134
0
LWPOLYLINE
5
111
100
AcDbEntity
8
0
100
AcDbPolyline
90
8
70
1
43
0.0
10
-195.76249999999999
20
19.050000000000004
42
0.41421356237307683
10
-195.26249999999993
20
19.550000000000001
10
-195.26249999999999
20
32.550000000000004
42
0.414213562373134
10
-195.76249999999999
20
33.050000000000011
10
-208.76249999999999
20
33.050000000000004
42
0.41421356237305079
10
-209.26249999999999
20
32.550000000000004
10
-209.26249999999999
20
19.550000000000001
42
0.41421356237312362
10
-208.76249999999999
20
19.050000000000004
0
CIRCLE
5
112
100
AcDbEntity
8
0
100
AcDbCircle
10
-268.25892534789881
20
12.441313233001408
30
0
40
1.0000000000000142
210
0
220
-0
230
1
0
LWPOLYLINE
5
113
100
AcDbEntity
8
0
100
AcDbPolyline
90
8
70
1
43
0.0
10
-85.72499999999998
20
51.600000000000001
10
-85.72499999999998
20
38.600000000000001
42
-0.41421356237310802
10
-86.224999999999994
20
38.100000000000001
10
-99.224999999999994
20
38.099999999999994
42
-0.41421356237309509
10
-99.724999999999994
20
38.600000000000001
10
-99.724999999999994
20
51.600000000000001
42
-0.41421356237310542
10
-99.224999999999994
20
52.100000000000001
10
-86.224999999999994
20
52.100000000000016
42
-0.4142135623731002
0
LWPOLYLINE
5
114
100
AcDbEntity
8
0
100
AcDbPolyline
90
8
70
1
43
0.0
10
-38.099999999999987
20
13.5
10
-38.099999999999987
20
0.49999999999999828
42
-0.41421356237309448
10
-38.599999999999987
20
0
10
-51.599999999999994
20
2.9143354396410359e-15
42
-0.41421356237309431
10
-52.099999999999994
20
0.49999999999999989
10
-52.099999999999994
20
13.5
42
-0.4142135623730937
10
-51.599999999999994
20
14.000000000000002
10
-38.59999999999998
20
14.000000000000002
42
-0.41421356237309109
0
LWPOLYLINE
5
115
100
AcDbEntity
8
0
100
AcDbPolyline
90
8
70
1
43
0.0
10
-27.787499999999987
20
71.149999999999991
10
-14.787499999999998
20
71.149999999999991
42
-0.41421356237310153
10
-14.287499999999989
20
70.649999999999991
10
-14.287499999999991
20
57.649999999999999
42
-0.41421356237309509
10
-14.787499999999989
20
57.149999999999999
10
-27.787499999999987
20
57.149999999999999
42
-0.41421356237309509
10
-28.287499999999987
20
57.649999999999999
10
-28.287499999999991
20
70.649999999999991
42
-0.4142135623730977
0
CIRCLE
5
116
100
AcDbEntity
8
0
100
AcDbCircle
10
-277.78392534789879
20
50.541313233001375
30
0
40
1.0000000000000142
210
0
220
-0
230
1
0
LWPOLYLINE
5
117
100
AcDbEntity
8
0
100
AcDbPolyline
90
8
70
1
43
0.0
10
-184.94999999999999
20
90.200000000000017
10
-171.94999999999999
20
90.199999999999989
42
-0.41421356237308465
10
-171.44999999999999
20
89.700000000000003
10
-171.45000000000005
20
76.699999999999989
42
-0.4142135623730222
10
-171.94999999999999
20
76.199999999999989
10
-184.94999999999999
20
76.200000000000017
42
-0.41421356237312101
10
-185.44999999999999
20
76.699999999999989
10
-185.45000000000002
20
89.700000000000003
42
-0.41421356237308465
0
CIRCLE
5
118
100
AcDbEntity
8
0
100
AcDbCircle
10
-149.875
20
-5.6087867669985698
30
0
40
1.0000000000000142
210
0
220
-0
230
1
0
CIRCLE
5
119
100
AcDbEntity
8
0
100
AcDbCircle
10
-245.125
20
-5.6087867669985503
30
0
40
1.0000000000000142
210
0
220
-0
230
1
0
LWPOLYLINE
5
120
100
AcDbEntity
8
0
100
AcDbPolyline
90
8
70
1
43
0.0
10
-124.32499999999999
20
76.199999999999989
10
-137.32499999999999
20
76.199999999999989
42
-0.41421356237309509
10
-137.82499999999999
20
76.699999999999989
10
-137.82499999999999
20
89.700000000000003
42
-0.41421356237312629
10
-137.32499999999999
20
90.199999999999989
10
-124.32499999999999
20
90.200000000000017
42
-0.4142135623730534
10
-123.82499999999999
20
89.700000000000003
10
-123.825
20
76.699999999999989
42
-0.4142135623731002
0
LWPOLYLINE
5
121
100
AcDbEntity
8
0
100
AcDbPolyline
90
8
70
1
43
0.0
10
-248.15000000000001
20
0
10
-261.15000000000003
20
-1.8804402479588589e-14
42
-0.41421356237310181
10
-261.65000000000003
20
0.49999999999999989
10
-261.65000000000003
20
13.5
42
-0.41421356237304557
10
-261.15000000000003
20
14
10
-248.15000000000001
20
14.000000000000004
42
-0.414213562373134
10
-247.65000000000001
20
13.5
10
-247.64999999999998
20
0.49999999999999828
42
-0.41421356237307622
0
LWPOLYLINE
5
122
100
AcDbEntity
8
0
100
AcDbPolyline
90
8
70
1
43
0.0
10
-161.92499999999998
20
51.600000000000001
42
0.41421356237312629
10
-162.42500000000001
20
52.099999999999994
10
-175.42499999999995
20
52.100000000000001
42
0.4142135623730222
10
-175.92499999999998
20
51.600000000000001
10
-175.92499999999998
20
38.600000000000001
42
0.41421356237310281
10
-175.42499999999995
20
38.100000000000001
10
-162.42500000000001
20
38.100000000000001
42
0.41421356237305079
10
-161.92499999999998
20
38.600000000000001
0
CIRCLE
5
123
100
AcDbEntity
8
0
100
AcDbCircle
10
-7.6778253478989731
20
58.709313233001403
30
0
40
0.99999999999999756
210
0
220
-0
230
1
0
CIRCLE
5
124
100
AcDbEntity
8
0
100
AcDbCircle
10
-70.590825347898928
20
85.979656616500648
30
0
40
0.99999999999999645
210
0
220
-0
230
1
0
LWPOLYLINE
5
125
100
AcDbEntity
8
0
100
AcDbPolyline
90
8
70
1
43
0.0
10
-243.38750000000002
20
57.149999999999999
10
-256.38750000000005
20
57.15000000000002
42
-0.41421356237312101
10
-256.88750000000005
20
57.649999999999999
10
-256.88749999999999
20
70.649999999999991
42
-0.4142135623730222
10
-256.38750000000005
20
71.149999999999991
10
-243.38750000000002
20
71.150000000000006
42
-0.41421356237313667
10
-242.88749999999999
20
70.649999999999991
10
-242.88749999999996
20
57.649999999999999
42
-0.41421356237307422
0
LWPOLYLINE
5
126
100
AcDbEntity
8
0
100
AcDbPolyline
90
8
70
1
43
0.0
10
-123.53749999999999
20
57.649999999999999
10
-123.53749999999998
20
70.649999999999991
42
-0.41421356237310542
10
-123.03749999999999
20
71.149999999999991
10
-110.03749999999999
20
71.150000000000006
42
-0.4142135623731002
10
-109.53749999999999
20
70.649999999999991
10
-109.53749999999999
20
57.649999999999999
42
-0.41421356237308982
10
-110.03749999999999
20
57.149999999999999
10
-123.03749999999999
20
57.149999999999991
42
-0.41421356237307422
0
LWPOLYLINE
5
127
100
AcDbEntity
8
0
100
AcDbPolyline
90
8
70
1
43
0.0
10
-142.58750000000001
20
57.649999999999999
10
-142.58749999999998
20
70.649999999999991
42
-0.41421356237310542
10
-142.08750000000001
20
71.149999999999991
10
-129.08750000000001
20
71.150000000000006
42
-0.4142135623731002
10
-128.58750000000001
20
70.649999999999991
10
-128.58750000000001
20
57.649999999999999
42
-0.41421356237308982
10
-129.08750000000001
20
57.149999999999999
10
-142.08750000000001
20
57.149999999999991
42
-0.41421356237307422
0
LWPOLYLINE
5
128
100
AcDbEntity
8
0
100
AcDbPolyline
90
8
70
1
43
0.0
10
-199.73749999999998
20
57.649999999999999
10
-199.73749999999995
20
70.649999999999991
42
-0.4142135623730222
10
-199.23749999999998
20
71.149999999999991
10
-186.23749999999998
20
71.150000000000006
42
-0.41421356237313667
10
-185.73749999999995
20
70.649999999999991
10
-185.73749999999993
20
57.649999999999999
42
-0.41421356237307422
10
-186.23749999999998
20
57.149999999999999
10
-199.23749999999998
20
57.15000000000002
42
-0.41421356237312101
0
LWPOLYLINE
5
129
100
AcDbEntity
8
0
100
AcDbPolyline
90
8
70
1
43
0.0
10
-261.9375
20
70.649999999999991
10
-261.9375
20
57.649999999999999
42
-0.4142135623730222
10
-262.4375
20
57.149999999999999
10
-275.4375
20
57.150000000000048
42
-0.41421356237312101
10
-275.93749999999994
20
57.649999999999999
10
-275.93750000000006
20
70.649999999999991
42
-0.41421356237307422
10
-275.4375
20
71.149999999999991
10
-262.4375
20
71.149999999999977
42
-0.41421356237312629
0
LWPOLYLINE
5
130
100
AcDbEntity
8
0
100
AcDbPolyline
90
8
70
1
43
0.0
10
-121.887
20
92.200000000000003
42
0.41421356237307422
10
-122.38700000000001
20
91.700000000000003
10
-122.38700000000001
20
73.199999999999989
42
0.41421356237309509
10
-121.887
20
72.699999999999989
10
-115.887
20
72.699999999999989
42
0.41421356237308982
10
-115.38699999999999
20
73.199999999999989
10
-115.38699999999999
20
91.700000000000003
42
0.41421356237307422
10
-115.887
20
92.200000000000003
0
LWPOLYLINE
5
131
100
AcDbEntity
8
0
100
AcDbPolyline
90
8
70
1
43
0.0
10
-194.47500000000002
20
52.100000000000001
10
-181.47500000000002
20
52.099999999999994
42
-0.41421356237312629
10
-180.97499999999999
20
51.600000000000001
10
-180.97499999999999
20
38.600000000000001
42
-0.41421356237305079
10
-181.47500000000002
20
38.100000000000001
10
-194.47500000000002
20
38.100000000000058
42
-0.41421356237311846
10
-194.97499999999999
20
38.600000000000001
10
-194.97500000000005
20
51.600000000000001
42
-0.41421356237307422
0
CIRCLE
5
132
100
AcDbEntity
8
0
100
AcDbCircle
10
-191.05882534789887
20
85.979656616500648
30
0
40
1.0000000000000142
210
0
220
-0
230
1
0
LWPOLYLINE
5
133
100
AcDbEntity
8
0
100
AcDbPolyline
90
8
70
1
43
0.0
10
-23.524999999999991
20
38.600000000000001
10
-23.524999999999991
20
51.600000000000001
42
-0.4142135623730977
10
-23.024999999999988
20
52.100000000000001
10
-10.024999999999995
20
52.100000000000001
42
-0.4142135623731002
10
-9.5249999999999879
20
51.600000000000001
10
-9.5249999999999879
20
38.600000000000001
42
-0.41421356237309637
10
-10.024999999999988
20
38.100000000000001
10
-23.024999999999984
20
38.099999999999994
42
-0.4142135623730977
0
LWPOLYLINE
5
134
100
AcDbEntity
8
0
100
AcDbPolyline
90
8
70
1
43
0.0
10
-100.51249999999999
20
19.050000000000004
42
0.41421356237310414
10
-100.01249999999997
20
19.550000000000001
10
-100.01249999999999
20
32.550000000000004
42
0.41421356237309509
10
-100.51249999999999
20
33.050000000000011
10
-113.51249999999999
20
33.050000000000004
42
0.41421356237307683
10
-114.01249999999999
20
32.550000000000004
10
-114.01249999999999
20
19.550000000000001
42
0.41421356237307549
10
-113.51249999999999
20
19.050000000000004
0
LWPOLYLINE
5
135
100
AcDbEntity
8
0
100
AcDbPolyline
90
8
70
1
43
0.0
10
-270.67500000000001
20
52.100000000000001
42
0.41421356237307422
10
-271.17500000000001
20
51.600000000000001
10
-271.17500000000001
20
38.600000000000001
42
0.414213562373134
10
-270.67500000000001
20
38.100000000000001
10
-257.67499999999995
20
38.100000000000001
42
0.41421356237305079
10
-257.17499999999995
20
38.600000000000001
10
-257.17499999999995
20
51.600000000000001
42
0.41421356237312629
10
-257.67499999999995
20
52.100000000000009
0
LWPOLYLINE
5
136
100
AcDbEntity
8
0
100
AcDbPolyline
90
8
70
1
43
0.0
10
-4.7624999999999869
20
32.550000000000004
42
0.41421356237309309
10
-5.2624999999999877
20
33.050000000000004
10
-18.262499999999989
20
33.050000000000004
42
0.41421356237309892
10
-18.762499999999989
20
32.550000000000004
10
-18.762499999999989
20
19.550000000000001
42
0.41421356237309243
10
-18.262499999999999
20
19.050000000000004
10
-5.2624999999999877
20
19.050000000000004
42
0.4142135623730957
10
-4.7624999999999851
20
19.550000000000001
0
LWPOLYLINE
5
137
100
AcDbEntity
8
0
100
AcDbPolyline
90
8
70
1
43
0.0
10
-52.887499999999996
20
57.149999999999999
42
0.41421356237309509
10
-52.387499999999996
20
57.649999999999999
10
-52.387499999999996
20
70.649999999999991
42
0.41421356237309509
10
-52.887499999999996
20
71.149999999999991
10
-65.887499999999989
20
71.149999999999991
42
0.41421356237309509
10
-66.387499999999989
20
70.649999999999991
10
-66.387499999999989
20
57.649999999999999
42
0.41421356237309509
10
-65.887499999999989
20
57.149999999999999
0
LWPOLYLINE
5
138
100
AcDbEntity
8
0
100
AcDbPolyline
90
8
70
1
43
0.0
10
-223.55000000000001
20
0.49999999999999989
42
0.41421356237310181
10
-223.05000000000001
20
-1.8804402479588589e-14
10
-210.04999999999998
20
0
42
0.41421356237307622
10
-209.54999999999998
20
0.49999999999999822
10
-209.54999999999998
20
13.5
42
0.414213562373134
10
-210.04999999999998
20
14.000000000000007
10
-223.05000000000001
20
14.000000000000002
42
0.41421356237304691
10
-223.55000000000001
20
13.5
0
LWPOLYLINE
5
139
100
AcDbEntity
8
0
100
AcDbPolyline
90
8
70
1
43
0.0
10
-94.962500000000006
20
19.550000000000001
42
0.41421356237309637
10
-94.462499999999991
20
19.04999999999999
10
-81.462499999999977
20
19.050000000000004
42
0.41421356237310414
10
-80.962499999999977
20
19.550000000000001
10
-80.962499999999977
20
32.550000000000004
42
0.41421356237309509
10
-81.462499999999977
20
33.050000000000004
10
-94.462499999999991
20
33.050000000000004
42
0.41421356237310802
10
-94.962500000000006
20
32.550000000000004
0
LWPOLYLINE
5
140
100
AcDbEntity
8
0
100
AcDbPolyline
90
8
70
1
43
0.0
10
-95.249999999999986
20
13.5
10
-95.249999999999972
20
0.49999999999999828
42
-0.41421356237310442
10
-95.75
20
0
10
-108.75
20
-6.3143934525555778e-15
42
-0.41421356237309448
10
-109.25
20
0.49999999999999989
10
-109.25000000000003
20
13.5
42
-0.41421356237310414
10
-108.75
20
14
10
-95.75
20
14.000000000000011
42
-0.41421356237309637
0
LWPOLYLINE
5
141
100
AcDbEntity
8
0
100
AcDbPolyline
90
8
70
1
43
0.0
10
-200.02500000000001
20
51.600000000000001
42
0.41421356237312629
10
-200.52500000000003
20
52.099999999999994
10
-213.52500000000003
20
52.100000000000001
42
0.41421356237307422
10
-214.02500000000003
20
51.600000000000001
10
-214.02500000000001
20
38.600000000000001
42
0.41421356237311846
10
-213.52500000000003
20
38.10000000000003
10
-200.52500000000003
20
38.100000000000001
42
0.41421356237305079
10
-200.02500000000001
20
38.600000000000001
0
LWPOLYLINE
5
142
100
AcDbEntity
8
0
100
AcDbPolyline
90
8
70
1
43
0.0
10
-23.812499999999986
20
32.550000000000004
42
0.41421356237309509
10
-24.312499999999986
20
33.050000000000004
10
-37.312499999999986
20
33.050000000000004
42
0.41421356237309509
10
-37.812499999999986
20
32.550000000000004
10
-37.812499999999993
20
19.550000000000001
42
0.41421356237309637
10
-37.312499999999993
20
19.049999999999997
10
-24.312499999999986
20
19.050000000000004
42
0.41421356237309637
10
-23.812499999999996
20
19.550000000000001
0
LWPOLYLINE
5
143
100
AcDbEntity
8
0
100
AcDbPolyline
90
8
70
1
43
0.0
10
-61.625
20
38.600000000000001
42
0.41421356237310281
10
-61.124999999999986
20
38.099999999999994
10
-48.124999999999993
20
38.100000000000001
42
0.41421356237309509
10
-47.624999999999993
20
38.600000000000001
10
-47.624999999999993
20
51.600000000000001
42
0.41421356237309509
10
-48.124999999999993
20
52.100000000000001
10
-61.124999999999986
20
52.100000000000001
42
0.41421356237310542
10
-61.624999999999986
20
51.600000000000001
0
LWPOLYLINE
5
144
100
AcDbEntity
8
0
100
AcDbPolyline
90
8
70
1
43
0.0
10
-138.11249999999998
20
32.550000000000004
42
0.41421356237309509
10
-138.61249999999998
20
33.050000000000011
10
-151.61249999999998
20
33.050000000000004
42
0.41421356237310802
10
-152.11250000000001
20
32.550000000000004
10
-152.11249999999998
20
19.550000000000001
42
0.41421356237311457
10
-151.61249999999998
20
19.050000000000011
10
-138.61249999999998
20
19.050000000000004
42
0.41421356237310414
10
-138.11249999999998
20
19.550000000000001
0
LWPOLYLINE
5
145
100
AcDbEntity
8
0
100
AcDbPolyline
90
8
70
1
43
0.0
10
-133.34999999999999
20
13.5
10
-133.34999999999999
20
0.49999999999999828
42
-0.41421356237307322
10
-133.84999999999999
20
0
10
-146.84999999999999
20
-6.3143934525555778e-15
42
-0.41421356237309448
10
-147.34999999999999
20
0.49999999999999989
10
-147.34999999999999
20
13.5
42
-0.41421356237310675
10
-146.84999999999999
20
14.000000000000002
10
-133.84999999999999
20
14.000000000000011
42
-0.41421356237307549
0
LWPOLYLINE
5
146
100
AcDbEntity
8
0
100
AcDbPolyline
90
8
70
1
43
0.0
10
-33.837499999999991
20
57.149999999999999
10
-46.837499999999991
20
57.149999999999999
42
-0.41421356237309509
10
-47.337499999999991
20
57.649999999999999
10
-47.337499999999991
20
70.649999999999991
42
-0.41421356237309509
10
-46.837499999999991
20
71.149999999999991
10
-33.837499999999991
20
71.150000000000006
42
-0.41421356237309509
10
-33.337499999999984
20
70.649999999999991
10
-33.337499999999991
20
57.650000000000006
42
-0.4142135623730977
0
LWPOLYLINE
5
147
100
AcDbEntity
8
0
100
AcDbPolyline
90
8
70
1
43
0.0
10
1.7763568394002505e-14
20
13.5
10
1.2628786905111156e-14
20
0.49999999999999822
42
-0.41421356237309392
10
-0.49999999999998712
20
6.9388939039072284e-17
10
-13.499999999999996
20
7.6327832942979512e-16
42
-0.41421356237309037
10
-13.999999999999986
20
0.49999999999999989
10
-13.999999999999986
20
13.5
42
-0.4142135623730977
10
-13.499999999999988
20
14
10
-0.4999999999999894
20
14.000000000000005
42
-0.41421356237309576
0
LWPOLYLINE
5
148
100
AcDbEntity
8
0
100
AcDbPolyline
90
8
70
1
43
0.0
10
-233.07500000000002
20
38.600000000000001
42
0.41421356237310281
10
-232.57499999999999
20
38.09999999999998
10
-219.57499999999999
20
38.100000000000001
42
0.41421356237308204
10
-219.07499999999999
20
38.600000000000001
10
-219.07499999999999
20
51.600000000000001
42
0.41421356237313667
10
-219.57499999999999
20
52.100000000000009
10
-232.57499999999999
20
52.100000000000001
42
0.4142135623730222
10
-233.07500000000002
20
51.600000000000001
0
LWPOLYLINE
5
149
100
AcDbEntity
8
0
100
AcDbPolyline
90
8
70
1
43
0.0
10
-176.21250000000001
20
32.550000000000004
10
-176.21250000000001
20
19.550000000000001
42
-0.41421356237304557
10
-176.71250000000001
20
19.050000000000004
10
-189.71250000000001
20
19.049999999999997
42
-0.414213562373134
10
-190.21250000000003
20
19.550000000000001
10
-190.21250000000003
20
32.550000000000004
42
-0.41421356237308204
10
-189.71250000000001
20
33.050000000000004
10
-176.71250000000001
20
33.050000000000026
42
-0.41421356237310281
0
LWPOLYLINE
5
150
100
AcDbEntity
8
0
100
AcDbPolyline
90
8
70
1
43
0.0
10
-228.59999999999999
20
13.5
10
-228.59999999999997
20
0.49999999999999828
42
-0.41421356237307622
10
-229.09999999999999
20
0
10
-242.10000000000002
20
-1.8804402479588589e-14
42
-0.41421356237310181
10
-242.60000000000002
20
0.49999999999999989
10
-242.60000000000002
20
13.5
42
-0.41421356237304691
10
-242.10000000000002
20
14.000000000000002
10
-229.09999999999999
20
14.000000000000004
42
-0.414213562373134
0
LWPOLYLINE
5
151
100
AcDbEntity
8
0
100
AcDbPolyline
90
8
70
1
43
0.0
10
-57.149999999999991
20
13.5
42
0.4142135623730977
10
-57.649999999999991
20
14.000000000000004
10
-70.649999999999991
20
14.000000000000002
42
0.4142135623730937
10
-71.149999999999977
20
13.5
10
-71.149999999999977
20
0.49999999999999989
42
0.41421356237309431
10
-70.649999999999991
20
0
10
-57.649999999999991
20
0
42
0.41421356237309587
10
-57.149999999999991
20
0.49999999999999822
0
LWPOLYLINE
5
152
100
AcDbEntity
8
0
100
AcDbPolyline
90
8
70
1
43
0.0
10
-204.00000000000003
20
14
42
0.41421356237307683
10
-204.50000000000006
20
13.5
10
-204.5
20
0.49999999999999989
42
0.41421356237311746
10
-204.00000000000003
20
2.6645352591003757e-14
10
-191
20
0
42
0.41421356237302415
10
-190.5
20
0.49999999999999822
10
-190.5
20
13.5
42
0.41421356237312362
10
-191
20
14
0
LWPOLYLINE
5
153
100
AcDbEntity
8
0
100
AcDbPolyline
90
8
70
1
43
0.0
10
-157.66249999999999
20
19.050000000000004
10
-170.66249999999999
20
19.049999999999997
42
-0.414213562373134
10
-171.16250000000002
20
19.550000000000001
10
-171.16250000000002
20
32.550000000000004
42
-0.414213562373134
10
-170.66249999999999
20
33.050000000000004
10
-157.66249999999999
20
33.050000000000011
42
-0.41421356237309509
10
-157.16249999999999
20
32.550000000000004
10
-157.16249999999997
20
19.550000000000001
42
-0.41421356237310414
0
LWPOLYLINE
5
154
100
AcDbEntity
8
0
100
AcDbPolyline
90
8
70
1
43
0.0
10
-43.362499999999983
20
19.050000000000004
10
-56.362499999999997
20
19.050000000000004
42
-0.41421356237309509
10
-56.862499999999997
20
19.550000000000001
10
-56.862499999999997
20
32.550000000000004
42
-0.41421356237309509
10
-56.362499999999997
20
33.050000000000004
10
-43.362499999999983
20
33.050000000000004
42
-0.41421356237308982
10
-42.86249999999999
20
32.550000000000004
10
-42.86249999999999
20
19.550000000000001
42
-0.41421356237308982
0
LWPOLYLINE
5
155
100
AcDbEntity
8
0
100
AcDbPolyline
90
8
70
1
43
0.0
10
-84.9375
20
71.149999999999991
42
0.41421356237310542
10
-85.4375
20
70.649999999999991
10
-85.4375
20
57.649999999999999
42
0.4142135623731002
10
-84.9375
20
57.150000000000006
10
-71.9375
20
57.149999999999999
42
0.41421356237309509
10
-71.4375
20
57.649999999999999
10
-71.4375
20
70.649999999999991
42
0.41421356237310542
10
-71.9375
20
71.149999999999991
0
LWPOLYLINE
5
156
100
AcDbEntity
8
0
100
AcDbPolyline
90
8
70
1
43
0.0
10
-80.674999999999983
20
38.600000000000001
42
0.4142135623730977
10
-80.174999999999997
20
38.100000000000009
10
-67.174999999999997
20
38.100000000000001
42
0.4142135623730977
10
-66.674999999999997
20
38.600000000000001
10
-66.674999999999997
20
51.600000000000001
42
0.41421356237310542
10
-67.174999999999997
20
52.100000000000001
10
-80.174999999999997
20
52.100000000000001
42
0.41421356237310542
10
-80.675000000000011
20
51.600000000000001
0
LWPOLYLINE
5
157
100
AcDbEntity
8
0
100
AcDbPolyline
90
8
70
1
43
0.0
10
-118.27499999999999
20
52.100000000000001
42
0.41421356237310542
10
-118.77499999999998
20
51.600000000000001
10
-118.77499999999999
20
38.600000000000001
42
0.41421356237307422
10
-118.27499999999999
20
38.100000000000001
10
-105.27500000000001
20
38.100000000000001
42
0.41421356237310802
10
-104.77499999999999
20
38.600000000000001
10
-104.77499999999999
20
51.600000000000001
42
0.4142135623731002
10
-105.27500000000001
20
52.100000000000001
0
LWPOLYLINE
5
158
100
AcDbEntity
8
0
100
AcDbPolyline
90
8
70
1
43
0.0
10
-184.94999999999999
20
14
10
-171.94999999999999
20
13.999999999999986
42
-0.41421356237312362
10
-171.44999999999999
20
13.5
10
-171.45000000000005
20
0.49999999999999828
42
-0.41421356237302415
10
-171.94999999999999
20
0
10
-184.94999999999999
20
-1.8804402479588589e-14
42
-0.41421356237310181
10
-185.44999999999999
20
0.49999999999999989
10
-185.44999999999999
20
13.5
42
-0.41421356237304691
0
LWPOLYLINE
5
159
100
AcDbEntity
8
0
100
AcDbPolyline
90
8
70
1
43
0.0
10
-32.54999999999999
20
14
10
-19.549999999999983
20
14
42
-0.41421356237309509
10
-19.04999999999999
20
13.5
10
-19.049999999999986
20
0.49999999999999828
42
-0.41421356237309342
10
-19.549999999999986
20
0
10
-32.54999999999999
20
-5.0653925498522767e-15
42
-0.41421356237309642
10
-33.04999999999999
20
0.49999999999999989
10
-33.04999999999999
20
13.5
42
-0.41421356237309509
0
LWPOLYLINE
5
160
100
AcDbEntity
8
0
100
AcDbPolyline
90
8
70
1
43
0.0
10
-75.912499999999994
20
19.550000000000001
10
-75.912499999999994
20
32.550000000000004
42
-0.41421356237309509
10
-75.412499999999994
20
33.050000000000004
10
-62.412499999999994
20
33.050000000000004
42
-0.4142135623730977
10
-61.912499999999994
20
32.550000000000004
10
-61.912500000000001
20
19.550000000000001
42
-0.4142135623730977
10
-62.412499999999994
20
19.050000000000004
10
-75.412499999999994
20
19.050000000000004
42
-0.41421356237309509
0
LWPOLYLINE
5
161
100
AcDbEntity
8
0
100
AcDbPolyline
90
8
70
1
43
0.0
10
-29.074999999999989
20
38.100000000000001
10
-42.074999999999974
20
38.100000000000001
42
-0.4142135623731002
10
-42.574999999999989
20
38.600000000000001
10
-42.574999999999989
20
51.600000000000001
42
-0.41421356237309509
10
-42.074999999999989
20
52.100000000000001
10
-29.074999999999989
20
52.099999999999994
42
-0.4142135623730977
10
-28.574999999999989
20
51.600000000000001
10
-28.574999999999989
20
38.600000000000001
42
-0.41421356237309509
0
CIRCLE
5
162
100
AcDbEntity
8
0
100
AcDbCircle
10
-16.524999999999984
20
-5.6087867669985627
30
0
40
0.99999999999999867
210
0
220
-0
230
1
0
CIRCLE
5
163
100
AcDbEntity
8
0
100
AcDbCircle
10
-92.724999999999994
20
-5.608786766998568
30
0
40
0.99999999999999645
210
0
220
-0
230
1
0
LWPOLYLINE
5
164
100
AcDbEntity
8
0
100
AcDbPolyline
90
8
70
1
43
0.0
10
-252.91250000000002
20
19.050000000000004
10
-265.91249999999997
20
19.049999999999997
42
-0.414213562373134
10
-266.41250000000002
20
19.550000000000001
10
-266.41250000000002
20
32.550000000000004
42
-0.41421356237308204
10
-265.91249999999997
20
33.050000000000004
10
-252.91250000000002
20
33.050000000000004
42
-0.414213562373134
10
-252.41250000000002
20
32.550000000000004
10
-252.41249999999997
20
19.550000000000001
42
-0.41421356237307683
0
LWPOLYLINE
5
165
100
AcDbEntity
8
0
100
AcDbPolyline
90
8
70
1
43
0.0
10
-204.78750000000002
20
70.649999999999991
42
0.41421356237312101
10
-205.28749999999999
20
71.149999999999935
10
-218.28749999999999
20
71.149999999999991
42
0.4142135623730222
10
-218.78749999999999
20
70.649999999999991
10
-218.78749999999999
20
57.649999999999999
42
0.41421356237312101
10
-218.28749999999999
20
57.149999999999991
10
-205.28749999999999
20
57.149999999999999
42
0.41421356237307422
10
-204.78749999999997
20
57.649999999999999
0
LWPOLYLINE
5
166
100
AcDbEntity
8
0
100
AcDbPolyline
90
8
70
1
43
0.0
10
-161.13749999999999
20
71.149999999999991
42
0.41421356237307422
10
-161.63750000000005
20
70.649999999999991
10
-161.63749999999999
20
57.649999999999999
42
0.41421356237313145
10
-161.13749999999999
20
57.149999999999991
10
-148.13749999999999
20
57.149999999999999
42
0.41421356237308982
10
-147.63749999999999
20
57.649999999999999
10
-147.63749999999999
20
70.649999999999991
42
0.4142135623731002
10
-148.13749999999999
20
71.149999999999991
0
LWPOLYLINE
5
167
100
AcDbEntity
8
0
100
AcDbPolyline
90
8
70
1
43
0.0
10
-228.3125
20
19.550000000000001
42
0.41421356237312362
10
-227.8125
20
19.050000000000015
10
-214.8125
20
19.050000000000004
42
0.41421356237307683
10
-214.3125
20
19.550000000000001
10
-214.31250000000003
20
32.550000000000004
42
0.41421356237311846
10
-214.8125
20
33.049999999999976
10
-227.8125
20
33.050000000000004
42
0.41421356237312362
10
-228.3125
20
32.550000000000004
0
LWPOLYLINE
5
168
100
AcDbEntity
8
0
100
AcDbPolyline
90
8
70
1
43
0.0
10
-119.0625
20
32.550000000000004
42
0.41421356237309509
10
-119.5625
20
33.050000000000011
10
-132.5625
20
33.050000000000004
42
0.41421356237308465
10
-133.0625
20
32.550000000000004
10
-133.0625
20
19.550000000000001
42
0.41421356237307549
10
-132.5625
20
19.050000000000004
10
-119.5625
20
19.050000000000004
42
0.41421356237310414
10
-119.0625
20
19.550000000000001
0
LWPOLYLINE
5
169
100
AcDbEntity
8
0
100
AcDbPolyline
90
8
70
1
43
0.0
10
-237.33750000000001
20
71.149999999999991
10
-224.33750000000001
20
71.149999999999935
42
-0.41421356237312101
10
-223.83750000000003
20
70.649999999999991
10
-223.83749999999995
20
57.649999999999999
42
-0.41421356237307422
10
-224.33750000000001
20
57.149999999999999
10
-237.33750000000001
20
57.15000000000002
42
-0.41421356237312101
10
-237.83750000000001
20
57.649999999999999
10
-237.83749999999998
20
70.649999999999991
42
-0.4142135623730222
0
LWPOLYLINE
5
170
100
AcDbEntity
8
0
100
AcDbPolyline
90
8
70
1
43
0.0
10
-114.80000000000001
20
0
42
0.41421356237310536
10
-114.29999999999998
20
0.50000000000000044
10
-114.3
20
13.5
42
0.41421356237309637
10
-114.80000000000001
20
14.000000000000007
10
-127.79999999999998
20
14
42
0.41421356237310414
10
-128.29999999999998
20
13.5
10
-128.29999999999998
20
0.49999999999999989
42
0.41421356237309448
10
-127.79999999999998
20
0
0
LWPOLYLINE
5
171
100
AcDbEntity
8
0
100
AcDbPolyline
90
8
70
1
43
0.0
10
-238.625
20
38.100000000000001
42
0.41421356237308204
10
-238.125
20
38.600000000000001
10
-238.125
20
51.600000000000001
42
0.41421356237313667
10
-238.625
20
52.100000000000001
10
-251.625
20
52.100000000000001
42
0.4142135623730222
10
-252.12500000000003
20
51.600000000000001
10
-252.12500000000003
20
38.600000000000001
42
0.41421356237310281
10
-251.625
20
38.100000000000001
0
LWPOLYLINE
5
172
100
AcDbEntity
8
0
100
AcDbPolyline
90
8
70
1
43
0.0
10
-90.199999999999989
20
0.50000000000000266
10
-90.200000000000017
20
13.5
42
-0.41421356237310414
10
-89.699999999999989
20
14
10
-76.699999999999989
20
14.000000000000004
42
-0.4142135623730977
10
-76.199999999999989
20
13.5
10
-76.199999999999989
20
0.49999999999999828
42
-0.41421356237309587
10
-76.699999999999989
20
0
10
-89.699999999999989
20
-6.3143934525555778e-15
42
-0.41421356237309614
0
LWPOLYLINE
5
173
100
AcDbEntity
8
0
100
AcDbPolyline
90
20
70
1
43
0.0
10
-66.199999999999989
20
96.199999999999932
42
0.4142135623730977
10
-68.19999999999996
20
98.199999999999932
10
-193.44999999999999
20
98.199999999999932
42
0.4142135623730977
10
-195.44999999999993
20
96.199999999999932
10
-195.44999999999999
20
81.150000000000006
42
-0.4142135623730977
10
-197.44999999999999
20
79.149999999999991
10
-281.9375
20
79.149999999999991
42
0.4142135623730977
10
-283.9375
20
77.149999999999977
10
-283.9375
20
47.917955392408871
42
0.061162620150470373
10
-283.78897863137996
20
46.708345914410557
10
-270.02802019953862
20
-8.4838437911993125
42
0.34432761328968919
10
-268.08742874698657
20
-10.000000000000027
10
6.0000000000000142
20
-10.000000000000004
42
0.4142135623730947
10
8.000000000000016
20
-8.0000000000000036
10
8.0000000000000071
20
21.232044607591977
42
0.061162620150484077
10
7.8514786313799956
20
22.441654085590308
10
-5.9094798004614368
20
77.633843791199325
42
0.34432761328966449
10
-7.8500712530134198
20
79.149999999999991
10
-64.199999999999989
20
79.149999999999977
42
-0.41421356237309509
10
-66.199999999999989
20
81.149999999999977
0
ENDSEC
0
SECTION
2
OBJECTS
0
DICTIONARY
5
C
100
AcDbDictionary
3
ACAD_GROUP
350
D
3
ACAD_MLINESTYLE
350
17
0
DICTIONARY
5
D
100
AcDbDictionary
0
DICTIONARY
5
1A
330
C
100
AcDbDictionary
0
DICTIONARY
5
17
100
AcDbDictionary
0
ENDSEC
0
EOF
