%TF.GenerationSoftware,KiCad,Pcbnew,(6.0.6-0)*%
%TF.CreationDate,2022-07-30T10:34:08-07:00*%
%TF.ProjectId,purple-owl,70757270-6c65-42d6-9f77-6c2e6b696361,v0.1*%
%TF.SameCoordinates,Original*%
%TF.FileFunction,Soldermask,Bot*%
%TF.FilePolarity,Negative*%
%FSLAX46Y46*%
G04 Gerber Fmt 4.6, Leading zero omitted, Abs format (unit mm)*
G04 Created by KiCad (PCBNEW (6.0.6-0)) date 2022-07-30 10:34:08*
%MOMM*%
%LPD*%
G01*
G04 APERTURE LIST*
%ADD10C,3.248000*%
%ADD11C,1.901800*%
%ADD12C,4.187800*%
%ADD13C,1.900000*%
%ADD14C,0.800000*%
G04 APERTURE END LIST*
D10*
%TO.C,SW10*%
X168910000Y-71120000D03*
D11*
X176530000Y-76200000D03*
D12*
X171450000Y-76200000D03*
D11*
X166370000Y-76200000D03*
D10*
X175260000Y-73660000D03*
%TD*%
D12*
%TO.C,SW22*%
X204787500Y-95250000D03*
D11*
X199707500Y-95250000D03*
X209867500Y-95250000D03*
D10*
X202247500Y-90170000D03*
X208597500Y-92710000D03*
%TD*%
D12*
%TO.C,SW48*%
X233362500Y-133350000D03*
D11*
X238442500Y-133350000D03*
X228282500Y-133350000D03*
D10*
X230822500Y-128270000D03*
X237172500Y-130810000D03*
%TD*%
%TO.C,SW15*%
X335597500Y-90170000D03*
D12*
X338137500Y-95250000D03*
D10*
X341947500Y-92710000D03*
D11*
X343217500Y-95250000D03*
X333057500Y-95250000D03*
%TD*%
D10*
%TO.C,SW58*%
X251460000Y-149860000D03*
X245110000Y-147320000D03*
D11*
X242570000Y-152400000D03*
X252730000Y-152400000D03*
D12*
X247650000Y-152400000D03*
%TD*%
%TO.C,SW24*%
X166687500Y-95250000D03*
D11*
X161607500Y-95250000D03*
X171767500Y-95250000D03*
D10*
X164147500Y-90170000D03*
X170497500Y-92710000D03*
%TD*%
%TO.C,SW32*%
X273685000Y-109220000D03*
D12*
X276225000Y-114300000D03*
D10*
X280035000Y-111760000D03*
D11*
X271145000Y-114300000D03*
X281305000Y-114300000D03*
%TD*%
%TO.C,SW20*%
X237807500Y-95250000D03*
X247967500Y-95250000D03*
D12*
X242887500Y-95250000D03*
D10*
X246697500Y-92710000D03*
X240347500Y-90170000D03*
%TD*%
D12*
%TO.C,SW8*%
X209550000Y-76200000D03*
D10*
X207010000Y-71120000D03*
D11*
X204470000Y-76200000D03*
X214630000Y-76200000D03*
D10*
X213360000Y-73660000D03*
%TD*%
D11*
%TO.C,SW11*%
X147320000Y-76200000D03*
X157480000Y-76200000D03*
D10*
X156210000Y-73660000D03*
D12*
X152400000Y-76200000D03*
D10*
X149860000Y-71120000D03*
%TD*%
D12*
%TO.C,SW9*%
X190500000Y-76200000D03*
D10*
X194310000Y-73660000D03*
D11*
X185420000Y-76200000D03*
D10*
X187960000Y-71120000D03*
D11*
X195580000Y-76200000D03*
%TD*%
%TO.C,SW47*%
X257492500Y-133350000D03*
X247332500Y-133350000D03*
D10*
X256222500Y-130810000D03*
X249872500Y-128270000D03*
D12*
X252412500Y-133350000D03*
%TD*%
D10*
%TO.C,SW12*%
X137160000Y-73660000D03*
D11*
X128270000Y-76200000D03*
D10*
X130810000Y-71120000D03*
D12*
X133350000Y-76200000D03*
D11*
X138430000Y-76200000D03*
%TD*%
%TO.C,SW35*%
X213995000Y-114300000D03*
D10*
X222885000Y-111760000D03*
D11*
X224155000Y-114300000D03*
D10*
X216535000Y-109220000D03*
D12*
X219075000Y-114300000D03*
%TD*%
%TO.C,SW2*%
X323850000Y-76200000D03*
D10*
X327660000Y-73660000D03*
D11*
X328930000Y-76200000D03*
X318770000Y-76200000D03*
D10*
X321310000Y-71120000D03*
%TD*%
%TO.C,SW44*%
X313372500Y-130810000D03*
D12*
X309562500Y-133350000D03*
D11*
X304482500Y-133350000D03*
X314642500Y-133350000D03*
D10*
X307022500Y-128270000D03*
%TD*%
D11*
%TO.C,SW16*%
X324167500Y-95250000D03*
D12*
X319087500Y-95250000D03*
D10*
X322897500Y-92710000D03*
D11*
X314007500Y-95250000D03*
D10*
X316547500Y-90170000D03*
%TD*%
%TO.C,SW54*%
X122872500Y-130810000D03*
X116522500Y-128270000D03*
D11*
X113982500Y-133350000D03*
D12*
X119062500Y-133350000D03*
D11*
X124142500Y-133350000D03*
%TD*%
%TO.C,SW55*%
X94932500Y-133350000D03*
X105092500Y-133350000D03*
D10*
X103822500Y-130810000D03*
D12*
X100012500Y-133350000D03*
D10*
X97472500Y-128270000D03*
%TD*%
D11*
%TO.C,SW36*%
X194945000Y-114300000D03*
D12*
X200025000Y-114300000D03*
D10*
X197485000Y-109220000D03*
D11*
X205105000Y-114300000D03*
D10*
X203835000Y-111760000D03*
%TD*%
D11*
%TO.C,SW42*%
X80645000Y-114300000D03*
X90805000Y-114300000D03*
D10*
X89535000Y-111760000D03*
X83185000Y-109220000D03*
D12*
X85725000Y-114300000D03*
%TD*%
D11*
%TO.C,SW43*%
X333692500Y-133350000D03*
D10*
X332422500Y-130810000D03*
D12*
X328612500Y-133350000D03*
D11*
X323532500Y-133350000D03*
D10*
X326072500Y-128270000D03*
%TD*%
%TO.C,SW33*%
X260985000Y-111760000D03*
D11*
X252095000Y-114300000D03*
D10*
X254635000Y-109220000D03*
D12*
X257175000Y-114300000D03*
D11*
X262255000Y-114300000D03*
%TD*%
D10*
%TO.C,SW28*%
X87947500Y-90170000D03*
D12*
X90487500Y-95250000D03*
D10*
X94297500Y-92710000D03*
D11*
X95567500Y-95250000D03*
X85407500Y-95250000D03*
%TD*%
D12*
%TO.C,SW23*%
X185737500Y-95250000D03*
D10*
X183197500Y-90170000D03*
D11*
X190817500Y-95250000D03*
X180657500Y-95250000D03*
D10*
X189547500Y-92710000D03*
%TD*%
D11*
%TO.C,SW52*%
X162242500Y-133350000D03*
D10*
X160972500Y-130810000D03*
D12*
X157162500Y-133350000D03*
D11*
X152082500Y-133350000D03*
D10*
X154622500Y-128270000D03*
%TD*%
D12*
%TO.C,SW53*%
X138112500Y-133350000D03*
D11*
X133032500Y-133350000D03*
D10*
X141922500Y-130810000D03*
X135572500Y-128270000D03*
D11*
X143192500Y-133350000D03*
%TD*%
D12*
%TO.C,SW59*%
X231013000Y-144145000D03*
X207137000Y-144145000D03*
D10*
X207137000Y-159385000D03*
X216535000Y-147320000D03*
D11*
X213995000Y-152400000D03*
D10*
X222885000Y-149860000D03*
D12*
X219075000Y-152400000D03*
D10*
X231013000Y-159385000D03*
D11*
X224155000Y-152400000D03*
%TD*%
D12*
%TO.C,SW27*%
X109537500Y-95250000D03*
D10*
X106997500Y-90170000D03*
D11*
X104457500Y-95250000D03*
X114617500Y-95250000D03*
D10*
X113347500Y-92710000D03*
%TD*%
D12*
%TO.C,SW7*%
X228600000Y-76200000D03*
D11*
X233680000Y-76200000D03*
X223520000Y-76200000D03*
D10*
X226060000Y-71120000D03*
X232410000Y-73660000D03*
%TD*%
D12*
%TO.C,SW17*%
X300037500Y-95250000D03*
D10*
X297497500Y-90170000D03*
D11*
X305117500Y-95250000D03*
D10*
X303847500Y-92710000D03*
D11*
X294957500Y-95250000D03*
%TD*%
D10*
%TO.C,SW60*%
X187960000Y-147320000D03*
D11*
X195580000Y-152400000D03*
D10*
X194310000Y-149860000D03*
D12*
X190500000Y-152400000D03*
D11*
X185420000Y-152400000D03*
%TD*%
D10*
%TO.C,SW41*%
X102235000Y-109220000D03*
D11*
X109855000Y-114300000D03*
D12*
X104775000Y-114300000D03*
D11*
X99695000Y-114300000D03*
D10*
X108585000Y-111760000D03*
%TD*%
D11*
%TO.C,SW38*%
X156845000Y-114300000D03*
D12*
X161925000Y-114300000D03*
D10*
X165735000Y-111760000D03*
D11*
X167005000Y-114300000D03*
D10*
X159385000Y-109220000D03*
%TD*%
D11*
%TO.C,SW49*%
X219392500Y-133350000D03*
D10*
X218122500Y-130810000D03*
D11*
X209232500Y-133350000D03*
D12*
X214312500Y-133350000D03*
D10*
X211772500Y-128270000D03*
%TD*%
%TO.C,SW25*%
X145097500Y-90170000D03*
X151447500Y-92710000D03*
D12*
X147637500Y-95250000D03*
D11*
X152717500Y-95250000D03*
X142557500Y-95250000D03*
%TD*%
%TO.C,SW19*%
X256857500Y-95250000D03*
D10*
X265747500Y-92710000D03*
D11*
X267017500Y-95250000D03*
D10*
X259397500Y-90170000D03*
D12*
X261937500Y-95250000D03*
%TD*%
D11*
%TO.C,SW40*%
X118745000Y-114300000D03*
D12*
X123825000Y-114300000D03*
D10*
X127635000Y-111760000D03*
D11*
X128905000Y-114300000D03*
D10*
X121285000Y-109220000D03*
%TD*%
D11*
%TO.C,SW29*%
X338455000Y-114300000D03*
X328295000Y-114300000D03*
D10*
X337185000Y-111760000D03*
X330835000Y-109220000D03*
D12*
X333375000Y-114300000D03*
%TD*%
%TO.C,SW31*%
X295275000Y-114300000D03*
D11*
X300355000Y-114300000D03*
D10*
X292735000Y-109220000D03*
X299085000Y-111760000D03*
D11*
X290195000Y-114300000D03*
%TD*%
D10*
%TO.C,SW26*%
X132397500Y-92710000D03*
X126047500Y-90170000D03*
D11*
X123507500Y-95250000D03*
X133667500Y-95250000D03*
D12*
X128587500Y-95250000D03*
%TD*%
%TO.C,SW3*%
X304800000Y-76200000D03*
D11*
X309880000Y-76200000D03*
D10*
X308610000Y-73660000D03*
D11*
X299720000Y-76200000D03*
D10*
X302260000Y-71120000D03*
%TD*%
D11*
%TO.C,SW56*%
X75882500Y-133350000D03*
D12*
X80962500Y-133350000D03*
D10*
X84772500Y-130810000D03*
X78422500Y-128270000D03*
D11*
X86042500Y-133350000D03*
%TD*%
D12*
%TO.C,SW18*%
X280987500Y-95250000D03*
D11*
X286067500Y-95250000D03*
D10*
X278447500Y-90170000D03*
X284797500Y-92710000D03*
D11*
X275907500Y-95250000D03*
%TD*%
D10*
%TO.C,SW61*%
X168910000Y-147320000D03*
X175260000Y-149860000D03*
D11*
X176530000Y-152400000D03*
X166370000Y-152400000D03*
D12*
X171450000Y-152400000D03*
%TD*%
D11*
%TO.C,SW51*%
X171132500Y-133350000D03*
D12*
X176212500Y-133350000D03*
D10*
X173672500Y-128270000D03*
D11*
X181292500Y-133350000D03*
D10*
X180022500Y-130810000D03*
%TD*%
%TO.C,SW21*%
X227647500Y-92710000D03*
X221297500Y-90170000D03*
D12*
X223837500Y-95250000D03*
D11*
X218757500Y-95250000D03*
X228917500Y-95250000D03*
%TD*%
%TO.C,SW34*%
X243205000Y-114300000D03*
X233045000Y-114300000D03*
D12*
X238125000Y-114300000D03*
D10*
X235585000Y-109220000D03*
X241935000Y-111760000D03*
%TD*%
D11*
%TO.C,SW5*%
X271780000Y-76200000D03*
X261620000Y-76200000D03*
D12*
X266700000Y-76200000D03*
D10*
X270510000Y-73660000D03*
X264160000Y-71120000D03*
%TD*%
D12*
%TO.C,SW39*%
X142875000Y-114300000D03*
D11*
X147955000Y-114300000D03*
D10*
X146685000Y-111760000D03*
D11*
X137795000Y-114300000D03*
D10*
X140335000Y-109220000D03*
%TD*%
D12*
%TO.C,SW50*%
X195262500Y-133350000D03*
D10*
X192722500Y-128270000D03*
X199072500Y-130810000D03*
D11*
X190182500Y-133350000D03*
X200342500Y-133350000D03*
%TD*%
D10*
%TO.C,SW57*%
X270510000Y-149860000D03*
D12*
X266700000Y-152400000D03*
D11*
X261620000Y-152400000D03*
D10*
X264160000Y-147320000D03*
D11*
X271780000Y-152400000D03*
%TD*%
D10*
%TO.C,SW1*%
X340360000Y-71120000D03*
D11*
X337820000Y-76200000D03*
X347980000Y-76200000D03*
D12*
X342900000Y-76200000D03*
D10*
X346710000Y-73660000D03*
%TD*%
%TO.C,SW46*%
X268922500Y-128270000D03*
D11*
X266382500Y-133350000D03*
X276542500Y-133350000D03*
D12*
X271462500Y-133350000D03*
D10*
X275272500Y-130810000D03*
%TD*%
D12*
%TO.C,SW37*%
X180975000Y-114300000D03*
D10*
X184785000Y-111760000D03*
X178435000Y-109220000D03*
D11*
X186055000Y-114300000D03*
X175895000Y-114300000D03*
%TD*%
D10*
%TO.C,SW30*%
X311785000Y-109220000D03*
D12*
X314325000Y-114300000D03*
D11*
X319405000Y-114300000D03*
D10*
X318135000Y-111760000D03*
D11*
X309245000Y-114300000D03*
%TD*%
D12*
%TO.C,SW4*%
X285750000Y-76200000D03*
D10*
X289560000Y-73660000D03*
D11*
X280670000Y-76200000D03*
X290830000Y-76200000D03*
D10*
X283210000Y-71120000D03*
%TD*%
%TO.C,SW14*%
X99060000Y-73660000D03*
D12*
X95250000Y-76200000D03*
D10*
X92710000Y-71120000D03*
D11*
X90170000Y-76200000D03*
X100330000Y-76200000D03*
%TD*%
D10*
%TO.C,SW13*%
X118110000Y-73660000D03*
D11*
X109220000Y-76200000D03*
D12*
X114300000Y-76200000D03*
D11*
X119380000Y-76200000D03*
D10*
X111760000Y-71120000D03*
%TD*%
%TO.C,SW45*%
X294322500Y-130810000D03*
D12*
X290512500Y-133350000D03*
D10*
X287972500Y-128270000D03*
D11*
X295592500Y-133350000D03*
X285432500Y-133350000D03*
%TD*%
%TO.C,SW6*%
X252730000Y-76200000D03*
X242570000Y-76200000D03*
D12*
X247650000Y-76200000D03*
D10*
X245110000Y-71120000D03*
X251460000Y-73660000D03*
%TD*%
D13*
%TO.C,U1*%
X361641580Y-120255240D03*
X361027098Y-122719791D03*
X360412617Y-125184342D03*
X359798135Y-127648893D03*
X359183654Y-130113445D03*
X358569172Y-132577996D03*
X357954690Y-135042547D03*
X357340209Y-137507098D03*
X356725727Y-139971649D03*
X354261176Y-139357168D03*
X351796625Y-138742686D03*
X349332074Y-138128204D03*
X346867523Y-137513723D03*
X344402971Y-136899241D03*
X341938420Y-136284759D03*
X342552902Y-133820208D03*
X343167383Y-131355657D03*
X343781865Y-128891106D03*
X344396347Y-126426555D03*
X345010828Y-123962004D03*
X345625310Y-121497453D03*
X346239792Y-119032901D03*
X346854273Y-116568350D03*
%TD*%
D14*
X324866000Y-117348000D03*
X327279000Y-109220000D03*
X340741000Y-111760000D03*
X336042000Y-130810000D03*
X331216000Y-73660000D03*
X326453500Y-92710000D03*
X316865000Y-130810000D03*
X335568350Y-125949650D03*
X321691000Y-111760000D03*
X322326000Y-124395500D03*
X307403500Y-92710000D03*
X312166000Y-73660000D03*
X338631866Y-125934134D03*
X302641000Y-111760000D03*
X297815000Y-130810000D03*
X278765000Y-130810000D03*
X274066000Y-149860000D03*
X322317500Y-123444000D03*
X293116000Y-73660000D03*
X283591000Y-111760000D03*
X326857750Y-123444000D03*
X288353500Y-92710000D03*
X322317500Y-122555000D03*
X269303500Y-92710000D03*
X335407000Y-120396000D03*
X274066000Y-73660000D03*
X264541000Y-111760000D03*
X259715000Y-130810000D03*
X255016000Y-149860000D03*
X322323247Y-121663247D03*
X240665000Y-130810000D03*
X255016000Y-73660000D03*
X245491000Y-111760000D03*
X335407000Y-117991500D03*
X226441000Y-149860000D03*
X250253500Y-92710000D03*
X231203500Y-92710000D03*
X334264000Y-117983000D03*
X197866000Y-149860000D03*
X226441000Y-111760000D03*
X221615000Y-130810000D03*
X322326000Y-119634000D03*
X235966000Y-73660000D03*
X322326000Y-118745000D03*
X212153500Y-92710000D03*
X202628500Y-130810000D03*
X216916000Y-73660000D03*
X333248000Y-117983000D03*
X178816000Y-149860000D03*
X207391000Y-111760000D03*
X277241000Y-138938000D03*
X197866000Y-73533000D03*
X183578500Y-130810000D03*
X193103500Y-92710000D03*
X188341000Y-111760000D03*
X164528500Y-130810000D03*
X174053500Y-92710000D03*
X178816000Y-73660000D03*
X169291000Y-111760000D03*
X277749000Y-138176000D03*
X155003500Y-92710000D03*
X159766000Y-73660000D03*
X278257000Y-137476003D03*
X150241000Y-111760000D03*
X145478500Y-130810000D03*
X135953500Y-92710000D03*
X131191000Y-111760000D03*
X278827003Y-136841003D03*
X126428500Y-130810000D03*
X140716000Y-73660000D03*
X107378500Y-130810000D03*
X116903500Y-92710000D03*
X265811000Y-140416500D03*
X121793000Y-73533000D03*
X279400000Y-136144000D03*
X188976000Y-140589000D03*
X112141000Y-111760000D03*
X265811000Y-136822500D03*
X266700000Y-141224000D03*
X188087000Y-140589000D03*
X266700000Y-136368500D03*
X88328500Y-130810000D03*
X279908000Y-135382000D03*
G36*
X188423045Y-140373964D02*
G01*
X188433745Y-140387909D01*
X188489919Y-140428926D01*
X188559054Y-140433045D01*
X188619648Y-140399016D01*
X188629125Y-140388079D01*
X188639955Y-140373964D01*
X188641803Y-140373198D01*
X188643390Y-140374416D01*
X188643324Y-140376089D01*
X188597502Y-140466020D01*
X188578025Y-140589000D01*
X188597502Y-140711980D01*
X188643324Y-140801910D01*
X188643219Y-140803907D01*
X188641437Y-140804815D01*
X188639955Y-140804036D01*
X188629255Y-140790091D01*
X188573081Y-140749074D01*
X188503946Y-140744955D01*
X188443352Y-140778984D01*
X188433881Y-140789914D01*
X188423045Y-140804036D01*
X188421197Y-140804801D01*
X188419610Y-140803583D01*
X188419676Y-140801910D01*
X188465498Y-140711980D01*
X188484975Y-140589000D01*
X188465498Y-140466020D01*
X188419676Y-140376090D01*
X188419781Y-140374093D01*
X188421563Y-140373185D01*
X188423045Y-140373964D01*
G37*
G36*
X277389222Y-138335719D02*
G01*
X277427032Y-138409925D01*
X277515075Y-138497968D01*
X277626020Y-138554498D01*
X277719413Y-138569289D01*
X277720967Y-138570547D01*
X277720654Y-138572523D01*
X277719408Y-138573240D01*
X277651368Y-138583851D01*
X277599570Y-138629827D01*
X277580823Y-138696607D01*
X277590192Y-138742289D01*
X277604408Y-138776608D01*
X277604147Y-138778591D01*
X277602299Y-138779356D01*
X277600778Y-138778281D01*
X277562968Y-138704075D01*
X277474925Y-138616032D01*
X277363980Y-138559502D01*
X277270587Y-138544711D01*
X277269033Y-138543453D01*
X277269346Y-138541477D01*
X277270592Y-138540760D01*
X277338632Y-138530149D01*
X277390430Y-138484173D01*
X277409177Y-138417393D01*
X277399808Y-138371711D01*
X277385592Y-138337392D01*
X277385853Y-138335409D01*
X277387701Y-138334644D01*
X277389222Y-138335719D01*
G37*
G36*
X277886340Y-137614366D02*
G01*
X277935032Y-137709928D01*
X278023075Y-137797971D01*
X278134020Y-137854501D01*
X278252267Y-137873229D01*
X278253821Y-137874487D01*
X278253508Y-137876463D01*
X278252262Y-137877180D01*
X278186533Y-137887430D01*
X278134735Y-137933405D01*
X278115988Y-138000185D01*
X278123401Y-138036327D01*
X278122770Y-138038225D01*
X278120810Y-138038627D01*
X278119660Y-138037637D01*
X278070968Y-137942075D01*
X277982925Y-137854032D01*
X277871980Y-137797502D01*
X277753733Y-137778774D01*
X277752179Y-137777516D01*
X277752492Y-137775540D01*
X277753738Y-137774823D01*
X277819467Y-137764573D01*
X277871265Y-137718598D01*
X277890012Y-137651818D01*
X277882599Y-137615676D01*
X277883230Y-137613778D01*
X277885190Y-137613376D01*
X277886340Y-137614366D01*
G37*
G36*
X278435371Y-136881055D02*
G01*
X278448505Y-136963983D01*
X278505035Y-137074928D01*
X278593078Y-137162971D01*
X278704023Y-137219501D01*
X278786931Y-137232632D01*
X278788485Y-137233890D01*
X278788172Y-137235866D01*
X278786357Y-137236590D01*
X278782807Y-137236122D01*
X278714082Y-137246840D01*
X278662283Y-137292814D01*
X278643498Y-137359725D01*
X278644529Y-137374145D01*
X278652590Y-137435380D01*
X278651825Y-137437228D01*
X278649842Y-137437489D01*
X278648632Y-137435954D01*
X278635498Y-137353023D01*
X278578968Y-137242078D01*
X278490925Y-137154035D01*
X278379980Y-137097505D01*
X278297072Y-137084374D01*
X278295518Y-137083116D01*
X278295831Y-137081140D01*
X278297646Y-137080416D01*
X278301196Y-137080884D01*
X278369921Y-137070166D01*
X278421720Y-137024192D01*
X278440505Y-136957281D01*
X278439474Y-136942861D01*
X278431413Y-136881629D01*
X278432178Y-136879781D01*
X278434161Y-136879520D01*
X278435371Y-136881055D01*
G37*
G36*
X266308370Y-136408567D02*
G01*
X266321502Y-136491480D01*
X266378032Y-136602425D01*
X266442709Y-136667102D01*
X266443227Y-136669034D01*
X266441813Y-136670448D01*
X266440077Y-136670103D01*
X266405234Y-136643367D01*
X266404638Y-136644144D01*
X266402790Y-136644909D01*
X266401872Y-136644541D01*
X266365916Y-136618289D01*
X266296781Y-136614175D01*
X266236396Y-136648092D01*
X266203874Y-136709383D01*
X266202417Y-136750181D01*
X266206588Y-136781859D01*
X266205823Y-136783707D01*
X266203840Y-136783968D01*
X266202630Y-136782433D01*
X266189498Y-136699520D01*
X266132968Y-136588575D01*
X266068291Y-136523898D01*
X266067773Y-136521966D01*
X266069187Y-136520552D01*
X266070923Y-136520897D01*
X266105766Y-136547633D01*
X266106362Y-136546856D01*
X266108210Y-136546091D01*
X266109128Y-136546459D01*
X266145084Y-136572711D01*
X266214219Y-136576825D01*
X266274604Y-136542908D01*
X266307126Y-136481617D01*
X266308583Y-136440819D01*
X266304412Y-136409141D01*
X266305177Y-136407293D01*
X266307160Y-136407032D01*
X266308370Y-136408567D01*
G37*
G36*
X279031400Y-136286406D02*
G01*
X279078032Y-136377925D01*
X279166075Y-136465968D01*
X279277020Y-136522498D01*
X279359951Y-136535632D01*
X279361505Y-136536890D01*
X279361192Y-136538866D01*
X279359377Y-136539590D01*
X279330824Y-136535831D01*
X279262099Y-136546549D01*
X279210300Y-136592524D01*
X279191553Y-136659304D01*
X279199344Y-136697287D01*
X279198713Y-136699185D01*
X279196753Y-136699587D01*
X279195603Y-136698597D01*
X279148971Y-136607078D01*
X279060928Y-136519035D01*
X278949983Y-136462505D01*
X278867052Y-136449371D01*
X278865498Y-136448113D01*
X278865811Y-136446137D01*
X278867626Y-136445413D01*
X278896179Y-136449172D01*
X278964904Y-136438454D01*
X279016703Y-136392479D01*
X279035450Y-136325699D01*
X279027659Y-136287716D01*
X279028290Y-136285818D01*
X279030250Y-136285416D01*
X279031400Y-136286406D01*
G37*
G36*
X279548222Y-135541719D02*
G01*
X279586032Y-135615925D01*
X279674075Y-135703968D01*
X279785020Y-135760498D01*
X279878413Y-135775289D01*
X279879967Y-135776547D01*
X279879654Y-135778523D01*
X279878408Y-135779240D01*
X279810368Y-135789851D01*
X279758570Y-135835827D01*
X279739823Y-135902607D01*
X279749192Y-135948289D01*
X279763408Y-135982608D01*
X279763147Y-135984591D01*
X279761299Y-135985356D01*
X279759778Y-135984281D01*
X279721968Y-135910075D01*
X279633925Y-135822032D01*
X279522980Y-135765502D01*
X279429587Y-135750711D01*
X279428033Y-135749453D01*
X279428346Y-135747477D01*
X279429592Y-135746760D01*
X279497632Y-135736149D01*
X279549430Y-135690173D01*
X279568177Y-135623393D01*
X279558808Y-135577711D01*
X279544592Y-135543392D01*
X279544853Y-135541409D01*
X279546701Y-135540644D01*
X279548222Y-135541719D01*
G37*
G36*
X322532411Y-123776779D02*
G01*
X322533319Y-123778561D01*
X322532540Y-123780043D01*
X322518180Y-123791062D01*
X322517727Y-123791323D01*
X322486533Y-123804244D01*
X322432375Y-123847889D01*
X322410503Y-123913604D01*
X322427632Y-123980710D01*
X322477480Y-124027121D01*
X322478066Y-124029033D01*
X322476703Y-124030497D01*
X322475209Y-124030367D01*
X322448980Y-124017002D01*
X322326000Y-123997525D01*
X322203020Y-124017002D01*
X322113082Y-124062828D01*
X322111085Y-124062723D01*
X322110177Y-124060941D01*
X322110956Y-124059459D01*
X322125319Y-124048438D01*
X322125772Y-124048177D01*
X322156966Y-124035257D01*
X322211125Y-123991613D01*
X322232997Y-123925898D01*
X322215869Y-123858792D01*
X322166018Y-123812378D01*
X322165432Y-123810466D01*
X322166795Y-123809002D01*
X322168289Y-123809132D01*
X322194520Y-123822498D01*
X322317500Y-123841975D01*
X322440480Y-123822498D01*
X322530414Y-123776674D01*
X322532411Y-123776779D01*
G37*
G36*
X322104587Y-122887674D02*
G01*
X322194520Y-122933498D01*
X322317500Y-122952975D01*
X322440480Y-122933498D01*
X322530413Y-122887674D01*
X322532410Y-122887779D01*
X322533318Y-122889561D01*
X322532539Y-122891043D01*
X322518591Y-122901746D01*
X322477575Y-122957919D01*
X322473456Y-123027054D01*
X322507487Y-123087650D01*
X322518404Y-123097110D01*
X322532539Y-123107957D01*
X322533304Y-123109805D01*
X322532086Y-123111392D01*
X322530413Y-123111326D01*
X322440480Y-123065502D01*
X322317500Y-123046025D01*
X322194520Y-123065502D01*
X322104587Y-123111326D01*
X322102590Y-123111221D01*
X322101682Y-123109439D01*
X322102461Y-123107957D01*
X322116409Y-123097254D01*
X322157425Y-123041081D01*
X322161544Y-122971946D01*
X322127513Y-122911350D01*
X322116596Y-122901890D01*
X322102461Y-122891043D01*
X322101696Y-122889195D01*
X322102914Y-122887608D01*
X322104587Y-122887674D01*
G37*
G36*
X322110334Y-121995921D02*
G01*
X322200267Y-122041745D01*
X322323247Y-122061222D01*
X322446227Y-122041745D01*
X322536160Y-121995921D01*
X322538157Y-121996026D01*
X322539065Y-121997808D01*
X322538286Y-121999290D01*
X322519671Y-122013574D01*
X322478655Y-122069747D01*
X322474536Y-122138882D01*
X322508565Y-122199476D01*
X322519494Y-122208946D01*
X322532542Y-122218958D01*
X322533307Y-122220806D01*
X322532089Y-122222393D01*
X322530416Y-122222327D01*
X322440480Y-122176502D01*
X322317500Y-122157025D01*
X322194520Y-122176502D01*
X322104589Y-122222324D01*
X322102592Y-122222219D01*
X322101684Y-122220437D01*
X322102464Y-122218955D01*
X322121074Y-122204676D01*
X322162093Y-122148500D01*
X322166212Y-122079365D01*
X322132183Y-122018771D01*
X322121254Y-122009301D01*
X322108208Y-121999290D01*
X322107443Y-121997442D01*
X322108661Y-121995855D01*
X322110334Y-121995921D01*
G37*
G36*
X322113087Y-119077674D02*
G01*
X322203020Y-119123498D01*
X322326000Y-119142975D01*
X322448980Y-119123498D01*
X322538913Y-119077674D01*
X322540910Y-119077779D01*
X322541818Y-119079561D01*
X322541039Y-119081043D01*
X322527091Y-119091746D01*
X322486075Y-119147919D01*
X322481956Y-119217054D01*
X322515987Y-119277650D01*
X322526904Y-119287110D01*
X322541039Y-119297957D01*
X322541804Y-119299805D01*
X322540586Y-119301392D01*
X322538913Y-119301326D01*
X322448980Y-119255502D01*
X322326000Y-119236025D01*
X322203020Y-119255502D01*
X322113087Y-119301326D01*
X322111090Y-119301221D01*
X322110182Y-119299439D01*
X322110961Y-119297957D01*
X322124909Y-119287254D01*
X322165925Y-119231081D01*
X322170044Y-119161946D01*
X322136013Y-119101350D01*
X322125096Y-119091890D01*
X322110961Y-119081043D01*
X322110196Y-119079195D01*
X322111414Y-119077608D01*
X322113087Y-119077674D01*
G37*
G36*
X333882980Y-117871965D02*
G01*
X333883368Y-117873496D01*
X333866025Y-117983000D01*
X333883368Y-118092504D01*
X333882652Y-118094371D01*
X333880676Y-118094684D01*
X333879545Y-118093582D01*
X333871292Y-118073657D01*
X333870268Y-118074081D01*
X333868285Y-118073820D01*
X333867674Y-118073042D01*
X333849844Y-118032740D01*
X333792029Y-117994605D01*
X333722776Y-117993781D01*
X333664082Y-118030521D01*
X333644600Y-118073182D01*
X333642971Y-118074342D01*
X333642016Y-118074199D01*
X333640708Y-118073657D01*
X333632455Y-118093582D01*
X333630868Y-118094800D01*
X333629020Y-118094035D01*
X333628632Y-118092504D01*
X333645975Y-117983000D01*
X333628632Y-117873496D01*
X333629348Y-117871629D01*
X333631324Y-117871316D01*
X333632455Y-117872418D01*
X333640708Y-117892343D01*
X333641732Y-117891919D01*
X333643715Y-117892180D01*
X333644326Y-117892958D01*
X333662156Y-117933260D01*
X333719971Y-117971395D01*
X333789224Y-117972219D01*
X333847918Y-117935479D01*
X333867400Y-117892818D01*
X333869029Y-117891658D01*
X333869984Y-117891801D01*
X333871292Y-117892343D01*
X333879545Y-117872418D01*
X333881132Y-117871200D01*
X333882980Y-117871965D01*
G37*
M02*
