%TF.GenerationSoftware,KiCad,Pcbnew,(6.0.6-0)*%
%TF.CreationDate,2022-07-30T10:34:08-07:00*%
%TF.ProjectId,purple-owl,70757270-6c65-42d6-9f77-6c2e6b696361,v0.1*%
%TF.SameCoordinates,Original*%
%TF.FileFunction,Profile,NP*%
%FSLAX46Y46*%
G04 Gerber Fmt 4.6, Leading zero omitted, Abs format (unit mm)*
G04 Created by KiCad (PCBNEW (6.0.6-0)) date 2022-07-30 10:34:08*
%MOMM*%
%LPD*%
G01*
G04 APERTURE LIST*
%TA.AperFunction,Profile*%
%ADD10C,0.200000*%
%TD*%
G04 APERTURE END LIST*
D10*
X350901000Y-85217000D02*
G75*
G03*
X352171000Y-83947000I0J1270000D01*
G01*
X80254973Y-105283000D02*
G75*
G03*
X81534000Y-104003983I27J1279000D01*
G01*
X343899744Y-104267000D02*
X346151200Y-104267000D01*
X75438000Y-124333000D02*
G75*
G03*
X76708000Y-123063000I0J1270000D01*
G01*
X341401899Y-137806780D02*
G75*
G03*
X335838801Y-142367000I255301J-5984820D01*
G01*
X77978000Y-105283000D02*
G75*
G03*
X76708000Y-106553000I0J-1270000D01*
G01*
X277241000Y-142367000D02*
X335838801Y-142367000D01*
X87512017Y-67183000D02*
X350917256Y-67183000D01*
X352171000Y-83947000D02*
X352171000Y-68436632D01*
X348691200Y-85217000D02*
G75*
G03*
X347421200Y-86487000I0J-1270000D01*
G01*
X343899744Y-104267000D02*
G75*
G03*
X342646000Y-105520617I-44J-1253700D01*
G01*
X82804000Y-86233000D02*
G75*
G03*
X81534000Y-87503000I0J-1270000D01*
G01*
X277241000Y-142367000D02*
G75*
G03*
X275971000Y-143637000I0J-1270000D01*
G01*
X342646042Y-110845590D02*
G75*
G03*
X345922600Y-114706400I5527058J1369890D01*
G01*
X275971000Y-143637000D02*
X275971000Y-160172400D01*
X348691200Y-85217000D02*
X350901000Y-85217000D01*
X86233000Y-84963000D02*
X86233000Y-68436627D01*
X73228200Y-142367000D02*
X161163000Y-142367000D01*
X274701000Y-161442400D02*
X163677600Y-161442400D01*
X162433000Y-143637000D02*
X162433000Y-160163358D01*
X84963000Y-86233000D02*
G75*
G03*
X86233000Y-84963000I0J1270000D01*
G01*
X77978000Y-105283000D02*
X80254973Y-105283000D01*
X82804000Y-86233000D02*
X84963000Y-86233000D01*
X81534000Y-104003983D02*
X81534000Y-87503000D01*
X162433024Y-160163367D02*
G75*
G03*
X163677600Y-161442400I1279476J-33D01*
G01*
X346151200Y-104267000D02*
G75*
G03*
X347421200Y-102997000I0J1270000D01*
G01*
X162433000Y-143637000D02*
G75*
G03*
X161163000Y-142367000I-1270000J0D01*
G01*
X347421200Y-102997000D02*
X347421200Y-86487000D01*
X342646000Y-105520617D02*
X342646000Y-110845600D01*
X71958200Y-141097000D02*
X71958200Y-125603000D01*
X73228200Y-124333000D02*
G75*
G03*
X71958200Y-125603000I0J-1270000D01*
G01*
X341401899Y-137806776D02*
X357682800Y-141884400D01*
X352171000Y-68436632D02*
G75*
G03*
X350917256Y-67183000I-1253700J-68D01*
G01*
X73228200Y-124333000D02*
X75438000Y-124333000D01*
X345922600Y-114706400D02*
X363372400Y-119049800D01*
X76708000Y-123063000D02*
X76708000Y-106553000D01*
X363372400Y-119049800D02*
X357682800Y-141884400D01*
X71958200Y-141097000D02*
G75*
G03*
X73228200Y-142367000I1270000J0D01*
G01*
X87512017Y-67183001D02*
G75*
G03*
X86233000Y-68436627I-12717J-1266299D01*
G01*
X274701000Y-161442400D02*
G75*
G03*
X275971000Y-160172400I0J1270000D01*
G01*
M02*
