%TF.GenerationSoftware,KiCad,Pcbnew,(6.0.6-0)*%
%TF.CreationDate,2022-07-30T10:34:08-07:00*%
%TF.ProjectId,purple-owl,70757270-6c65-42d6-9f77-6c2e6b696361,v0.1*%
%TF.SameCoordinates,Original*%
%TF.FileFunction,Paste,Top*%
%TF.FilePolarity,Positive*%
%FSLAX46Y46*%
G04 Gerber Fmt 4.6, Leading zero omitted, Abs format (unit mm)*
G04 Created by KiCad (PCBNEW (6.0.6-0)) date 2022-07-30 10:34:08*
%MOMM*%
%LPD*%
G01*
G04 APERTURE LIST*
%ADD10R,1.200000X0.900000*%
G04 APERTURE END LIST*
D10*
%TO.C,D27*%
X116681250Y-101662500D03*
X116681250Y-98362500D03*
%TD*%
%TO.C,D38*%
X169068750Y-120712500D03*
X169068750Y-117412500D03*
%TD*%
%TO.C,D42*%
X92868750Y-120712500D03*
X92868750Y-117412500D03*
%TD*%
%TO.C,D52*%
X164306250Y-139762500D03*
X164306250Y-136462500D03*
%TD*%
%TO.C,D6*%
X240506250Y-82612500D03*
X240506250Y-79312500D03*
%TD*%
%TO.C,D13*%
X121443750Y-82612500D03*
X121443750Y-79312500D03*
%TD*%
%TO.C,D2*%
X316706250Y-82612500D03*
X316706250Y-79312500D03*
%TD*%
%TO.C,D40*%
X130968750Y-120712500D03*
X130968750Y-117412500D03*
%TD*%
%TO.C,D22*%
X211931250Y-101662500D03*
X211931250Y-98362500D03*
%TD*%
%TO.C,D24*%
X173831250Y-101662500D03*
X173831250Y-98362500D03*
%TD*%
%TO.C,D37*%
X188118750Y-120712500D03*
X188118750Y-117412500D03*
%TD*%
%TO.C,D49*%
X207168750Y-139762500D03*
X207168750Y-136462500D03*
%TD*%
%TO.C,D47*%
X245268750Y-139762500D03*
X245268750Y-136462500D03*
%TD*%
%TO.C,D19*%
X254793750Y-101662500D03*
X254793750Y-98362500D03*
%TD*%
%TO.C,D43*%
X321468750Y-139762500D03*
X321468750Y-136462500D03*
%TD*%
%TO.C,D25*%
X154781250Y-101662500D03*
X154781250Y-98362500D03*
%TD*%
%TO.C,D11*%
X159543750Y-82612500D03*
X159543750Y-79312500D03*
%TD*%
%TO.C,D53*%
X145256250Y-139762500D03*
X145256250Y-136462500D03*
%TD*%
%TO.C,D8*%
X216693750Y-82612500D03*
X216693750Y-79312500D03*
%TD*%
%TO.C,D20*%
X235743750Y-101662500D03*
X235743750Y-98362500D03*
%TD*%
%TO.C,D16*%
X311943750Y-101662500D03*
X311943750Y-98362500D03*
%TD*%
%TO.C,D9*%
X197643750Y-82612500D03*
X197643750Y-79312500D03*
%TD*%
%TO.C,D41*%
X111918750Y-120712500D03*
X111918750Y-117412500D03*
%TD*%
%TO.C,D56*%
X88106250Y-139762500D03*
X88106250Y-136462500D03*
%TD*%
%TO.C,D46*%
X264318750Y-139762500D03*
X264318750Y-136462500D03*
%TD*%
%TO.C,D15*%
X330993750Y-101662500D03*
X330993750Y-98362500D03*
%TD*%
%TO.C,D57*%
X257175000Y-153131250D03*
X257175000Y-156431250D03*
%TD*%
%TO.C,D30*%
X307181250Y-120712500D03*
X307181250Y-117412500D03*
%TD*%
%TO.C,D33*%
X250031250Y-120712500D03*
X250031250Y-117412500D03*
%TD*%
%TO.C,D17*%
X292893750Y-101662500D03*
X292893750Y-98362500D03*
%TD*%
%TO.C,D51*%
X183356250Y-139762500D03*
X183356250Y-136462500D03*
%TD*%
%TO.C,D54*%
X126206250Y-139762500D03*
X126206250Y-136462500D03*
%TD*%
%TO.C,D48*%
X226218750Y-139762500D03*
X226218750Y-136462500D03*
%TD*%
%TO.C,D23*%
X192881250Y-101662500D03*
X192881250Y-98362500D03*
%TD*%
%TO.C,D36*%
X207168750Y-120712500D03*
X207168750Y-117412500D03*
%TD*%
%TO.C,D39*%
X150018750Y-120712500D03*
X150018750Y-117412500D03*
%TD*%
%TO.C,D5*%
X259556250Y-82612500D03*
X259556250Y-79312500D03*
%TD*%
%TO.C,D61*%
X180975000Y-153131250D03*
X180975000Y-156431250D03*
%TD*%
%TO.C,D3*%
X297656250Y-82612500D03*
X297656250Y-79312500D03*
%TD*%
%TO.C,D31*%
X288131250Y-120712500D03*
X288131250Y-117412500D03*
%TD*%
%TO.C,D28*%
X97631250Y-101662500D03*
X97631250Y-98362500D03*
%TD*%
%TO.C,D32*%
X269081250Y-120712500D03*
X269081250Y-117412500D03*
%TD*%
%TO.C,D60*%
X200025000Y-153131250D03*
X200025000Y-156431250D03*
%TD*%
%TO.C,D59*%
X207168750Y-153131250D03*
X207168750Y-156431250D03*
%TD*%
%TO.C,D34*%
X230981250Y-120712500D03*
X230981250Y-117412500D03*
%TD*%
%TO.C,D45*%
X283368750Y-139762500D03*
X283368750Y-136462500D03*
%TD*%
%TO.C,D44*%
X302418750Y-139762500D03*
X302418750Y-136462500D03*
%TD*%
%TO.C,D21*%
X216693750Y-101662500D03*
X216693750Y-98362500D03*
%TD*%
%TO.C,D26*%
X135731250Y-101662500D03*
X135731250Y-98362500D03*
%TD*%
%TO.C,D4*%
X278606250Y-82612500D03*
X278606250Y-79312500D03*
%TD*%
%TO.C,D14*%
X102393750Y-82612500D03*
X102393750Y-79312500D03*
%TD*%
%TO.C,D58*%
X238125000Y-153131250D03*
X238125000Y-156431250D03*
%TD*%
%TO.C,D35*%
X211931250Y-120712500D03*
X211931250Y-117412500D03*
%TD*%
%TO.C,D55*%
X107156250Y-139762500D03*
X107156250Y-136462500D03*
%TD*%
%TO.C,D10*%
X178593750Y-82612500D03*
X178593750Y-79312500D03*
%TD*%
%TO.C,D50*%
X202406250Y-139762500D03*
X202406250Y-136462500D03*
%TD*%
%TO.C,D18*%
X273843750Y-101662500D03*
X273843750Y-98362500D03*
%TD*%
%TO.C,D7*%
X221456250Y-82612500D03*
X221456250Y-79312500D03*
%TD*%
%TO.C,D1*%
X335756250Y-82612500D03*
X335756250Y-79312500D03*
%TD*%
%TO.C,D29*%
X326231250Y-120712500D03*
X326231250Y-117412500D03*
%TD*%
%TO.C,D12*%
X140493750Y-82612500D03*
X140493750Y-79312500D03*
%TD*%
M02*
