%TF.GenerationSoftware,KiCad,Pcbnew,(6.0.6-0)*%
%TF.CreationDate,2022-07-30T10:34:07-07:00*%
%TF.ProjectId,purple-owl,70757270-6c65-42d6-9f77-6c2e6b696361,v0.1*%
%TF.SameCoordinates,Original*%
%TF.FileFunction,Copper,L1,Top*%
%TF.FilePolarity,Positive*%
%FSLAX46Y46*%
G04 Gerber Fmt 4.6, Leading zero omitted, Abs format (unit mm)*
G04 Created by KiCad (PCBNEW (6.0.6-0)) date 2022-07-30 10:34:07*
%MOMM*%
%LPD*%
G01*
G04 APERTURE LIST*
G04 Aperture macros list*
%AMRoundRect*
0 Rectangle with rounded corners*
0 $1 Rounding radius*
0 $2 $3 $4 $5 $6 $7 $8 $9 X,Y pos of 4 corners*
0 Add a 4 corners polygon primitive as box body*
4,1,4,$2,$3,$4,$5,$6,$7,$8,$9,$2,$3,0*
0 Add four circle primitives for the rounded corners*
1,1,$1+$1,$2,$3*
1,1,$1+$1,$4,$5*
1,1,$1+$1,$6,$7*
1,1,$1+$1,$8,$9*
0 Add four rect primitives between the rounded corners*
20,1,$1+$1,$2,$3,$4,$5,0*
20,1,$1+$1,$4,$5,$6,$7,0*
20,1,$1+$1,$6,$7,$8,$9,0*
20,1,$1+$1,$8,$9,$2,$3,0*%
G04 Aperture macros list end*
%TA.AperFunction,SMDPad,CuDef*%
%ADD10R,1.200000X0.900000*%
%TD*%
%TA.AperFunction,SMDPad,CuDef*%
%ADD11RoundRect,0.254000X-1.016000X-1.016000X1.016000X-1.016000X1.016000X1.016000X-1.016000X1.016000X0*%
%TD*%
%TA.AperFunction,ComponentPad*%
%ADD12C,1.700000*%
%TD*%
%TA.AperFunction,ViaPad*%
%ADD13C,0.600000*%
%TD*%
%TA.AperFunction,Conductor*%
%ADD14C,0.254000*%
%TD*%
G04 APERTURE END LIST*
D10*
%TO.P,D27,1,K*%
%TO.N,ROW1*%
X116681250Y-101662500D03*
%TO.P,D27,2,A*%
%TO.N,Net-(D27-Pad2)*%
X116681250Y-98362500D03*
%TD*%
%TO.P,D38,1,K*%
%TO.N,ROW2*%
X169068750Y-120712500D03*
%TO.P,D38,2,A*%
%TO.N,Net-(D38-Pad2)*%
X169068750Y-117412500D03*
%TD*%
D11*
%TO.P,SW10,1,1*%
%TO.N,Net-(D10-Pad2)*%
X165354000Y-71120000D03*
%TO.P,SW10,2,2*%
%TO.N,COL9*%
X178816000Y-73660000D03*
%TD*%
%TO.P,SW22,1,1*%
%TO.N,Net-(D22-Pad2)*%
X198691500Y-90170000D03*
%TO.P,SW22,2,2*%
%TO.N,COL7*%
X212153500Y-92710000D03*
%TD*%
D10*
%TO.P,D42,1,K*%
%TO.N,ROW2*%
X92868750Y-120712500D03*
%TO.P,D42,2,A*%
%TO.N,Net-(D42-Pad2)*%
X92868750Y-117412500D03*
%TD*%
%TO.P,D52,1,K*%
%TO.N,ROW3*%
X164306250Y-139762500D03*
%TO.P,D52,2,A*%
%TO.N,Net-(D52-Pad2)*%
X164306250Y-136462500D03*
%TD*%
D11*
%TO.P,SW48,1,1*%
%TO.N,Net-(D48-Pad2)*%
X227266500Y-128270000D03*
%TO.P,SW48,2,2*%
%TO.N,COL5*%
X240728500Y-130810000D03*
%TD*%
%TO.P,SW15,1,1*%
%TO.N,Net-(D15-Pad2)*%
X332041500Y-90170000D03*
%TO.P,SW15,2,2*%
%TO.N,COL0*%
X345503500Y-92710000D03*
%TD*%
D10*
%TO.P,D6,1,K*%
%TO.N,ROW0*%
X240506250Y-82612500D03*
%TO.P,D6,2,A*%
%TO.N,Net-(D6-Pad2)*%
X240506250Y-79312500D03*
%TD*%
D11*
%TO.P,SW58,1,1*%
%TO.N,Net-(D58-Pad2)*%
X241554000Y-147320000D03*
%TO.P,SW58,2,2*%
%TO.N,COL4*%
X255016000Y-149860000D03*
%TD*%
%TO.P,SW24,1,1*%
%TO.N,Net-(D24-Pad2)*%
X160591500Y-90170000D03*
%TO.P,SW24,2,2*%
%TO.N,COL9*%
X174053500Y-92710000D03*
%TD*%
D10*
%TO.P,D13,1,K*%
%TO.N,ROW0*%
X121443750Y-82612500D03*
%TO.P,D13,2,A*%
%TO.N,Net-(D13-Pad2)*%
X121443750Y-79312500D03*
%TD*%
D11*
%TO.P,SW32,1,1*%
%TO.N,Net-(D32-Pad2)*%
X270129000Y-109220000D03*
%TO.P,SW32,2,2*%
%TO.N,COL3*%
X283591000Y-111760000D03*
%TD*%
%TO.P,SW20,1,1*%
%TO.N,Net-(D20-Pad2)*%
X236791500Y-90170000D03*
%TO.P,SW20,2,2*%
%TO.N,COL5*%
X250253500Y-92710000D03*
%TD*%
%TO.P,SW8,1,1*%
%TO.N,Net-(D8-Pad2)*%
X203454000Y-71120000D03*
%TO.P,SW8,2,2*%
%TO.N,COL7*%
X216916000Y-73660000D03*
%TD*%
%TO.P,SW11,1,1*%
%TO.N,Net-(D11-Pad2)*%
X146304000Y-71120000D03*
%TO.P,SW11,2,2*%
%TO.N,COL10*%
X159766000Y-73660000D03*
%TD*%
D10*
%TO.P,D2,1,K*%
%TO.N,ROW0*%
X316706250Y-82612500D03*
%TO.P,D2,2,A*%
%TO.N,Net-(D2-Pad2)*%
X316706250Y-79312500D03*
%TD*%
D11*
%TO.P,SW9,1,1*%
%TO.N,Net-(D9-Pad2)*%
X184404000Y-71120000D03*
%TO.P,SW9,2,2*%
%TO.N,COL8*%
X197866000Y-73660000D03*
%TD*%
D10*
%TO.P,D40,1,K*%
%TO.N,ROW2*%
X130968750Y-120712500D03*
%TO.P,D40,2,A*%
%TO.N,Net-(D40-Pad2)*%
X130968750Y-117412500D03*
%TD*%
D11*
%TO.P,SW47,1,1*%
%TO.N,Net-(D47-Pad2)*%
X246316500Y-128270000D03*
%TO.P,SW47,2,2*%
%TO.N,COL4*%
X259778500Y-130810000D03*
%TD*%
D10*
%TO.P,D22,1,K*%
%TO.N,ROW1*%
X211931250Y-101662500D03*
%TO.P,D22,2,A*%
%TO.N,Net-(D22-Pad2)*%
X211931250Y-98362500D03*
%TD*%
%TO.P,D24,1,K*%
%TO.N,ROW1*%
X173831250Y-101662500D03*
%TO.P,D24,2,A*%
%TO.N,Net-(D24-Pad2)*%
X173831250Y-98362500D03*
%TD*%
D11*
%TO.P,SW12,1,1*%
%TO.N,Net-(D12-Pad2)*%
X127254000Y-71120000D03*
%TO.P,SW12,2,2*%
%TO.N,COL11*%
X140716000Y-73660000D03*
%TD*%
%TO.P,SW35,1,1*%
%TO.N,Net-(D35-Pad2)*%
X212979000Y-109220000D03*
%TO.P,SW35,2,2*%
%TO.N,COL6*%
X226441000Y-111760000D03*
%TD*%
D10*
%TO.P,D37,1,K*%
%TO.N,ROW2*%
X188118750Y-120712500D03*
%TO.P,D37,2,A*%
%TO.N,Net-(D37-Pad2)*%
X188118750Y-117412500D03*
%TD*%
D11*
%TO.P,SW2,1,1*%
%TO.N,Net-(D2-Pad2)*%
X317754000Y-71120000D03*
%TO.P,SW2,2,2*%
%TO.N,COL1*%
X331216000Y-73660000D03*
%TD*%
%TO.P,SW44,1,1*%
%TO.N,Net-(D44-Pad2)*%
X303466500Y-128270000D03*
%TO.P,SW44,2,2*%
%TO.N,COL1*%
X316928500Y-130810000D03*
%TD*%
D10*
%TO.P,D49,1,K*%
%TO.N,ROW3*%
X207168750Y-139762500D03*
%TO.P,D49,2,A*%
%TO.N,Net-(D49-Pad2)*%
X207168750Y-136462500D03*
%TD*%
%TO.P,D47,1,K*%
%TO.N,ROW3*%
X245268750Y-139762500D03*
%TO.P,D47,2,A*%
%TO.N,Net-(D47-Pad2)*%
X245268750Y-136462500D03*
%TD*%
D11*
%TO.P,SW16,1,1*%
%TO.N,Net-(D16-Pad2)*%
X312991500Y-90170000D03*
%TO.P,SW16,2,2*%
%TO.N,COL1*%
X326453500Y-92710000D03*
%TD*%
D10*
%TO.P,D19,1,K*%
%TO.N,ROW1*%
X254793750Y-101662500D03*
%TO.P,D19,2,A*%
%TO.N,Net-(D19-Pad2)*%
X254793750Y-98362500D03*
%TD*%
D11*
%TO.P,SW54,1,1*%
%TO.N,Net-(D54-Pad2)*%
X112966500Y-128270000D03*
%TO.P,SW54,2,2*%
%TO.N,COL11*%
X126428500Y-130810000D03*
%TD*%
D10*
%TO.P,D43,1,K*%
%TO.N,ROW3*%
X321468750Y-139762500D03*
%TO.P,D43,2,A*%
%TO.N,Net-(D43-Pad2)*%
X321468750Y-136462500D03*
%TD*%
D11*
%TO.P,SW55,1,1*%
%TO.N,Net-(D55-Pad2)*%
X93916500Y-128270000D03*
%TO.P,SW55,2,2*%
%TO.N,COL12*%
X107378500Y-130810000D03*
%TD*%
%TO.P,SW36,1,1*%
%TO.N,Net-(D36-Pad2)*%
X193929000Y-109220000D03*
%TO.P,SW36,2,2*%
%TO.N,COL7*%
X207391000Y-111760000D03*
%TD*%
%TO.P,SW42,1,1*%
%TO.N,Net-(D42-Pad2)*%
X79629000Y-109220000D03*
%TO.P,SW42,2,2*%
%TO.N,COL13*%
X93091000Y-111760000D03*
%TD*%
D10*
%TO.P,D25,1,K*%
%TO.N,ROW1*%
X154781250Y-101662500D03*
%TO.P,D25,2,A*%
%TO.N,Net-(D25-Pad2)*%
X154781250Y-98362500D03*
%TD*%
D11*
%TO.P,SW43,1,1*%
%TO.N,Net-(D43-Pad2)*%
X322516500Y-128270000D03*
%TO.P,SW43,2,2*%
%TO.N,COL0*%
X335978500Y-130810000D03*
%TD*%
%TO.P,SW33,1,1*%
%TO.N,Net-(D33-Pad2)*%
X251079000Y-109220000D03*
%TO.P,SW33,2,2*%
%TO.N,COL4*%
X264541000Y-111760000D03*
%TD*%
%TO.P,SW28,1,1*%
%TO.N,Net-(D28-Pad2)*%
X84391500Y-90170000D03*
%TO.P,SW28,2,2*%
%TO.N,COL13*%
X97853500Y-92710000D03*
%TD*%
D10*
%TO.P,D11,1,K*%
%TO.N,ROW0*%
X159543750Y-82612500D03*
%TO.P,D11,2,A*%
%TO.N,Net-(D11-Pad2)*%
X159543750Y-79312500D03*
%TD*%
D11*
%TO.P,SW23,1,1*%
%TO.N,Net-(D23-Pad2)*%
X179641500Y-90170000D03*
%TO.P,SW23,2,2*%
%TO.N,COL8*%
X193103500Y-92710000D03*
%TD*%
D10*
%TO.P,D53,1,K*%
%TO.N,ROW3*%
X145256250Y-139762500D03*
%TO.P,D53,2,A*%
%TO.N,Net-(D53-Pad2)*%
X145256250Y-136462500D03*
%TD*%
D11*
%TO.P,SW52,1,1*%
%TO.N,Net-(D52-Pad2)*%
X151066500Y-128270000D03*
%TO.P,SW52,2,2*%
%TO.N,COL9*%
X164528500Y-130810000D03*
%TD*%
D10*
%TO.P,D8,1,K*%
%TO.N,ROW0*%
X216693750Y-82612500D03*
%TO.P,D8,2,A*%
%TO.N,Net-(D8-Pad2)*%
X216693750Y-79312500D03*
%TD*%
%TO.P,D20,1,K*%
%TO.N,ROW1*%
X235743750Y-101662500D03*
%TO.P,D20,2,A*%
%TO.N,Net-(D20-Pad2)*%
X235743750Y-98362500D03*
%TD*%
D11*
%TO.P,SW53,1,1*%
%TO.N,Net-(D53-Pad2)*%
X132016500Y-128270000D03*
%TO.P,SW53,2,2*%
%TO.N,COL10*%
X145478500Y-130810000D03*
%TD*%
%TO.P,SW59,1,1*%
%TO.N,Net-(D59-Pad2)*%
X212979000Y-147320000D03*
%TO.P,SW59,2,2*%
%TO.N,COL5*%
X226441000Y-149860000D03*
%TD*%
D10*
%TO.P,D16,1,K*%
%TO.N,ROW1*%
X311943750Y-101662500D03*
%TO.P,D16,2,A*%
%TO.N,Net-(D16-Pad2)*%
X311943750Y-98362500D03*
%TD*%
%TO.P,D9,1,K*%
%TO.N,ROW0*%
X197643750Y-82612500D03*
%TO.P,D9,2,A*%
%TO.N,Net-(D9-Pad2)*%
X197643750Y-79312500D03*
%TD*%
%TO.P,D41,1,K*%
%TO.N,ROW2*%
X111918750Y-120712500D03*
%TO.P,D41,2,A*%
%TO.N,Net-(D41-Pad2)*%
X111918750Y-117412500D03*
%TD*%
%TO.P,D56,1,K*%
%TO.N,ROW3*%
X88106250Y-139762500D03*
%TO.P,D56,2,A*%
%TO.N,Net-(D56-Pad2)*%
X88106250Y-136462500D03*
%TD*%
%TO.P,D46,1,K*%
%TO.N,ROW3*%
X264318750Y-139762500D03*
%TO.P,D46,2,A*%
%TO.N,Net-(D46-Pad2)*%
X264318750Y-136462500D03*
%TD*%
%TO.P,D15,1,K*%
%TO.N,ROW1*%
X330993750Y-101662500D03*
%TO.P,D15,2,A*%
%TO.N,Net-(D15-Pad2)*%
X330993750Y-98362500D03*
%TD*%
D11*
%TO.P,SW27,1,1*%
%TO.N,Net-(D27-Pad2)*%
X103441500Y-90170000D03*
%TO.P,SW27,2,2*%
%TO.N,COL12*%
X116903500Y-92710000D03*
%TD*%
%TO.P,SW7,1,1*%
%TO.N,Net-(D7-Pad2)*%
X222504000Y-71120000D03*
%TO.P,SW7,2,2*%
%TO.N,COL6*%
X235966000Y-73660000D03*
%TD*%
D10*
%TO.P,D57,1,K*%
%TO.N,ROW4*%
X257175000Y-153131250D03*
%TO.P,D57,2,A*%
%TO.N,Net-(D57-Pad2)*%
X257175000Y-156431250D03*
%TD*%
%TO.P,D30,1,K*%
%TO.N,ROW2*%
X307181250Y-120712500D03*
%TO.P,D30,2,A*%
%TO.N,Net-(D30-Pad2)*%
X307181250Y-117412500D03*
%TD*%
D11*
%TO.P,SW17,1,1*%
%TO.N,Net-(D17-Pad2)*%
X293941500Y-90170000D03*
%TO.P,SW17,2,2*%
%TO.N,COL2*%
X307403500Y-92710000D03*
%TD*%
D10*
%TO.P,D33,1,K*%
%TO.N,ROW2*%
X250031250Y-120712500D03*
%TO.P,D33,2,A*%
%TO.N,Net-(D33-Pad2)*%
X250031250Y-117412500D03*
%TD*%
%TO.P,D17,1,K*%
%TO.N,ROW1*%
X292893750Y-101662500D03*
%TO.P,D17,2,A*%
%TO.N,Net-(D17-Pad2)*%
X292893750Y-98362500D03*
%TD*%
D11*
%TO.P,SW60,1,1*%
%TO.N,Net-(D60-Pad2)*%
X184404000Y-147320000D03*
%TO.P,SW60,2,2*%
%TO.N,COL6*%
X197866000Y-149860000D03*
%TD*%
%TO.P,SW41,1,1*%
%TO.N,Net-(D41-Pad2)*%
X98679000Y-109220000D03*
%TO.P,SW41,2,2*%
%TO.N,COL12*%
X112141000Y-111760000D03*
%TD*%
D10*
%TO.P,D51,1,K*%
%TO.N,ROW3*%
X183356250Y-139762500D03*
%TO.P,D51,2,A*%
%TO.N,Net-(D51-Pad2)*%
X183356250Y-136462500D03*
%TD*%
D11*
%TO.P,SW38,1,1*%
%TO.N,Net-(D38-Pad2)*%
X155829000Y-109220000D03*
%TO.P,SW38,2,2*%
%TO.N,COL9*%
X169291000Y-111760000D03*
%TD*%
D10*
%TO.P,D54,1,K*%
%TO.N,ROW3*%
X126206250Y-139762500D03*
%TO.P,D54,2,A*%
%TO.N,Net-(D54-Pad2)*%
X126206250Y-136462500D03*
%TD*%
%TO.P,D48,1,K*%
%TO.N,ROW3*%
X226218750Y-139762500D03*
%TO.P,D48,2,A*%
%TO.N,Net-(D48-Pad2)*%
X226218750Y-136462500D03*
%TD*%
%TO.P,D23,1,K*%
%TO.N,ROW1*%
X192881250Y-101662500D03*
%TO.P,D23,2,A*%
%TO.N,Net-(D23-Pad2)*%
X192881250Y-98362500D03*
%TD*%
D11*
%TO.P,SW49,1,1*%
%TO.N,Net-(D49-Pad2)*%
X208216500Y-128270000D03*
%TO.P,SW49,2,2*%
%TO.N,COL6*%
X221678500Y-130810000D03*
%TD*%
%TO.P,SW25,1,1*%
%TO.N,Net-(D25-Pad2)*%
X141541500Y-90170000D03*
%TO.P,SW25,2,2*%
%TO.N,COL10*%
X155003500Y-92710000D03*
%TD*%
%TO.P,SW19,1,1*%
%TO.N,Net-(D19-Pad2)*%
X255841500Y-90170000D03*
%TO.P,SW19,2,2*%
%TO.N,COL4*%
X269303500Y-92710000D03*
%TD*%
%TO.P,SW40,1,1*%
%TO.N,Net-(D40-Pad2)*%
X117729000Y-109220000D03*
%TO.P,SW40,2,2*%
%TO.N,COL11*%
X131191000Y-111760000D03*
%TD*%
%TO.P,SW29,1,1*%
%TO.N,Net-(D29-Pad2)*%
X327279000Y-109220000D03*
%TO.P,SW29,2,2*%
%TO.N,COL0*%
X340741000Y-111760000D03*
%TD*%
D10*
%TO.P,D36,1,K*%
%TO.N,ROW2*%
X207168750Y-120712500D03*
%TO.P,D36,2,A*%
%TO.N,Net-(D36-Pad2)*%
X207168750Y-117412500D03*
%TD*%
%TO.P,D39,1,K*%
%TO.N,ROW2*%
X150018750Y-120712500D03*
%TO.P,D39,2,A*%
%TO.N,Net-(D39-Pad2)*%
X150018750Y-117412500D03*
%TD*%
%TO.P,D5,1,K*%
%TO.N,ROW0*%
X259556250Y-82612500D03*
%TO.P,D5,2,A*%
%TO.N,Net-(D5-Pad2)*%
X259556250Y-79312500D03*
%TD*%
%TO.P,D61,1,K*%
%TO.N,ROW4*%
X180975000Y-153131250D03*
%TO.P,D61,2,A*%
%TO.N,Net-(D61-Pad2)*%
X180975000Y-156431250D03*
%TD*%
%TO.P,D3,1,K*%
%TO.N,ROW0*%
X297656250Y-82612500D03*
%TO.P,D3,2,A*%
%TO.N,Net-(D3-Pad2)*%
X297656250Y-79312500D03*
%TD*%
D11*
%TO.P,SW31,1,1*%
%TO.N,Net-(D31-Pad2)*%
X289179000Y-109220000D03*
%TO.P,SW31,2,2*%
%TO.N,COL2*%
X302641000Y-111760000D03*
%TD*%
%TO.P,SW26,1,1*%
%TO.N,Net-(D26-Pad2)*%
X122491500Y-90170000D03*
%TO.P,SW26,2,2*%
%TO.N,COL11*%
X135953500Y-92710000D03*
%TD*%
%TO.P,SW3,1,1*%
%TO.N,Net-(D3-Pad2)*%
X298704000Y-71120000D03*
%TO.P,SW3,2,2*%
%TO.N,COL2*%
X312166000Y-73660000D03*
%TD*%
%TO.P,SW56,1,1*%
%TO.N,Net-(D56-Pad2)*%
X74866500Y-128270000D03*
%TO.P,SW56,2,2*%
%TO.N,COL13*%
X88328500Y-130810000D03*
%TD*%
%TO.P,SW18,1,1*%
%TO.N,Net-(D18-Pad2)*%
X274891500Y-90170000D03*
%TO.P,SW18,2,2*%
%TO.N,COL3*%
X288353500Y-92710000D03*
%TD*%
D10*
%TO.P,D31,1,K*%
%TO.N,ROW2*%
X288131250Y-120712500D03*
%TO.P,D31,2,A*%
%TO.N,Net-(D31-Pad2)*%
X288131250Y-117412500D03*
%TD*%
%TO.P,D28,1,K*%
%TO.N,ROW1*%
X97631250Y-101662500D03*
%TO.P,D28,2,A*%
%TO.N,Net-(D28-Pad2)*%
X97631250Y-98362500D03*
%TD*%
D11*
%TO.P,SW61,1,1*%
%TO.N,Net-(D61-Pad2)*%
X165354000Y-147320000D03*
%TO.P,SW61,2,2*%
%TO.N,COL7*%
X178816000Y-149860000D03*
%TD*%
D10*
%TO.P,D32,1,K*%
%TO.N,ROW2*%
X269081250Y-120712500D03*
%TO.P,D32,2,A*%
%TO.N,Net-(D32-Pad2)*%
X269081250Y-117412500D03*
%TD*%
D11*
%TO.P,SW51,1,1*%
%TO.N,Net-(D51-Pad2)*%
X170116500Y-128270000D03*
%TO.P,SW51,2,2*%
%TO.N,COL8*%
X183578500Y-130810000D03*
%TD*%
%TO.P,SW21,1,1*%
%TO.N,Net-(D21-Pad2)*%
X217741500Y-90170000D03*
%TO.P,SW21,2,2*%
%TO.N,COL6*%
X231203500Y-92710000D03*
%TD*%
%TO.P,SW34,1,1*%
%TO.N,Net-(D34-Pad2)*%
X232029000Y-109220000D03*
%TO.P,SW34,2,2*%
%TO.N,COL5*%
X245491000Y-111760000D03*
%TD*%
%TO.P,SW5,1,1*%
%TO.N,Net-(D5-Pad2)*%
X260604000Y-71120000D03*
%TO.P,SW5,2,2*%
%TO.N,COL4*%
X274066000Y-73660000D03*
%TD*%
D10*
%TO.P,D60,1,K*%
%TO.N,ROW4*%
X200025000Y-153131250D03*
%TO.P,D60,2,A*%
%TO.N,Net-(D60-Pad2)*%
X200025000Y-156431250D03*
%TD*%
D11*
%TO.P,SW39,1,1*%
%TO.N,Net-(D39-Pad2)*%
X136779000Y-109220000D03*
%TO.P,SW39,2,2*%
%TO.N,COL10*%
X150241000Y-111760000D03*
%TD*%
%TO.P,SW50,1,1*%
%TO.N,Net-(D50-Pad2)*%
X189166500Y-128270000D03*
%TO.P,SW50,2,2*%
%TO.N,COL7*%
X202628500Y-130810000D03*
%TD*%
%TO.P,SW57,1,1*%
%TO.N,Net-(D57-Pad2)*%
X260604000Y-147320000D03*
%TO.P,SW57,2,2*%
%TO.N,COL3*%
X274066000Y-149860000D03*
%TD*%
%TO.P,SW1,1,1*%
%TO.N,Net-(D1-Pad2)*%
X336804000Y-71120000D03*
%TO.P,SW1,2,2*%
%TO.N,COL0*%
X350266000Y-73660000D03*
%TD*%
D10*
%TO.P,D59,1,K*%
%TO.N,ROW4*%
X207168750Y-153131250D03*
%TO.P,D59,2,A*%
%TO.N,Net-(D59-Pad2)*%
X207168750Y-156431250D03*
%TD*%
%TO.P,D34,1,K*%
%TO.N,ROW2*%
X230981250Y-120712500D03*
%TO.P,D34,2,A*%
%TO.N,Net-(D34-Pad2)*%
X230981250Y-117412500D03*
%TD*%
%TO.P,D45,1,K*%
%TO.N,ROW3*%
X283368750Y-139762500D03*
%TO.P,D45,2,A*%
%TO.N,Net-(D45-Pad2)*%
X283368750Y-136462500D03*
%TD*%
%TO.P,D44,1,K*%
%TO.N,ROW3*%
X302418750Y-139762500D03*
%TO.P,D44,2,A*%
%TO.N,Net-(D44-Pad2)*%
X302418750Y-136462500D03*
%TD*%
%TO.P,D21,1,K*%
%TO.N,ROW1*%
X216693750Y-101662500D03*
%TO.P,D21,2,A*%
%TO.N,Net-(D21-Pad2)*%
X216693750Y-98362500D03*
%TD*%
%TO.P,D26,1,K*%
%TO.N,ROW1*%
X135731250Y-101662500D03*
%TO.P,D26,2,A*%
%TO.N,Net-(D26-Pad2)*%
X135731250Y-98362500D03*
%TD*%
%TO.P,D4,1,K*%
%TO.N,ROW0*%
X278606250Y-82612500D03*
%TO.P,D4,2,A*%
%TO.N,Net-(D4-Pad2)*%
X278606250Y-79312500D03*
%TD*%
%TO.P,D14,1,K*%
%TO.N,ROW0*%
X102393750Y-82612500D03*
%TO.P,D14,2,A*%
%TO.N,Net-(D14-Pad2)*%
X102393750Y-79312500D03*
%TD*%
%TO.P,D58,1,K*%
%TO.N,ROW4*%
X238125000Y-153131250D03*
%TO.P,D58,2,A*%
%TO.N,Net-(D58-Pad2)*%
X238125000Y-156431250D03*
%TD*%
D11*
%TO.P,SW46,1,1*%
%TO.N,Net-(D46-Pad2)*%
X265366500Y-128270000D03*
%TO.P,SW46,2,2*%
%TO.N,COL3*%
X278828500Y-130810000D03*
%TD*%
D10*
%TO.P,D35,1,K*%
%TO.N,ROW2*%
X211931250Y-120712500D03*
%TO.P,D35,2,A*%
%TO.N,Net-(D35-Pad2)*%
X211931250Y-117412500D03*
%TD*%
D11*
%TO.P,SW37,1,1*%
%TO.N,Net-(D37-Pad2)*%
X174879000Y-109220000D03*
%TO.P,SW37,2,2*%
%TO.N,COL8*%
X188341000Y-111760000D03*
%TD*%
D10*
%TO.P,D55,1,K*%
%TO.N,ROW3*%
X107156250Y-139762500D03*
%TO.P,D55,2,A*%
%TO.N,Net-(D55-Pad2)*%
X107156250Y-136462500D03*
%TD*%
%TO.P,D10,1,K*%
%TO.N,ROW0*%
X178593750Y-82612500D03*
%TO.P,D10,2,A*%
%TO.N,Net-(D10-Pad2)*%
X178593750Y-79312500D03*
%TD*%
D11*
%TO.P,SW30,1,1*%
%TO.N,Net-(D30-Pad2)*%
X308229000Y-109220000D03*
%TO.P,SW30,2,2*%
%TO.N,COL1*%
X321691000Y-111760000D03*
%TD*%
D10*
%TO.P,D50,1,K*%
%TO.N,ROW3*%
X202406250Y-139762500D03*
%TO.P,D50,2,A*%
%TO.N,Net-(D50-Pad2)*%
X202406250Y-136462500D03*
%TD*%
%TO.P,D18,1,K*%
%TO.N,ROW1*%
X273843750Y-101662500D03*
%TO.P,D18,2,A*%
%TO.N,Net-(D18-Pad2)*%
X273843750Y-98362500D03*
%TD*%
%TO.P,D7,1,K*%
%TO.N,ROW0*%
X221456250Y-82612500D03*
%TO.P,D7,2,A*%
%TO.N,Net-(D7-Pad2)*%
X221456250Y-79312500D03*
%TD*%
D11*
%TO.P,SW4,1,1*%
%TO.N,Net-(D4-Pad2)*%
X279654000Y-71120000D03*
%TO.P,SW4,2,2*%
%TO.N,COL3*%
X293116000Y-73660000D03*
%TD*%
%TO.P,SW14,1,1*%
%TO.N,Net-(D14-Pad2)*%
X89154000Y-71120000D03*
%TO.P,SW14,2,2*%
%TO.N,COL13*%
X102616000Y-73660000D03*
%TD*%
D10*
%TO.P,D1,1,K*%
%TO.N,ROW0*%
X335756250Y-82612500D03*
%TO.P,D1,2,A*%
%TO.N,Net-(D1-Pad2)*%
X335756250Y-79312500D03*
%TD*%
D11*
%TO.P,SW13,1,1*%
%TO.N,Net-(D13-Pad2)*%
X108204000Y-71120000D03*
%TO.P,SW13,2,2*%
%TO.N,COL12*%
X121666000Y-73660000D03*
%TD*%
D10*
%TO.P,D29,1,K*%
%TO.N,ROW2*%
X326231250Y-120712500D03*
%TO.P,D29,2,A*%
%TO.N,Net-(D29-Pad2)*%
X326231250Y-117412500D03*
%TD*%
D11*
%TO.P,SW45,1,1*%
%TO.N,Net-(D45-Pad2)*%
X284416500Y-128270000D03*
%TO.P,SW45,2,2*%
%TO.N,COL2*%
X297878500Y-130810000D03*
%TD*%
D10*
%TO.P,D12,1,K*%
%TO.N,ROW0*%
X140493750Y-82612500D03*
%TO.P,D12,2,A*%
%TO.N,Net-(D12-Pad2)*%
X140493750Y-79312500D03*
%TD*%
D11*
%TO.P,SW6,1,1*%
%TO.N,Net-(D6-Pad2)*%
X241554000Y-71120000D03*
%TO.P,SW6,2,2*%
%TO.N,COL5*%
X255016000Y-73660000D03*
%TD*%
D12*
%TO.P,U1,1,GP0*%
%TO.N,COL13*%
X361641580Y-120255240D03*
%TO.P,U1,2,GP1*%
%TO.N,COL12*%
X361027098Y-122719791D03*
%TO.P,U1,3,GP2*%
%TO.N,COL11*%
X360412617Y-125184342D03*
%TO.P,U1,4,GP3*%
%TO.N,COL10*%
X359798135Y-127648893D03*
%TO.P,U1,5,GP4*%
%TO.N,COL9*%
X359183654Y-130113445D03*
%TO.P,U1,6,GP5*%
%TO.N,COL8*%
X358569172Y-132577996D03*
%TO.P,U1,7,GP6*%
%TO.N,COL7*%
X357954690Y-135042547D03*
%TO.P,U1,8,GP7*%
%TO.N,COL6*%
X357340209Y-137507098D03*
%TO.P,U1,9,GP8*%
%TO.N,COL5*%
X356725727Y-139971649D03*
%TO.P,U1,10,GP9*%
%TO.N,COL4*%
X354261176Y-139357168D03*
%TO.P,U1,11,GP10*%
%TO.N,COL3*%
X351796625Y-138742686D03*
%TO.P,U1,12,GP11*%
%TO.N,COL2*%
X349332074Y-138128204D03*
%TO.P,U1,13,GP12*%
%TO.N,COL1*%
X346867523Y-137513723D03*
%TO.P,U1,14,GP13*%
%TO.N,COL0*%
X344402971Y-136899241D03*
%TO.P,U1,15,GP14*%
%TO.N,unconnected-(U1-Pad15)*%
X341938420Y-136284759D03*
%TO.P,U1,16,GP15*%
%TO.N,ROW4*%
X342552902Y-133820208D03*
%TO.P,U1,17,GP26*%
%TO.N,ROW3*%
X343167383Y-131355657D03*
%TO.P,U1,18,GP27*%
%TO.N,ROW2*%
X343781865Y-128891106D03*
%TO.P,U1,19,GP28*%
%TO.N,ROW1*%
X344396347Y-126426555D03*
%TO.P,U1,20,GP29*%
%TO.N,ROW0*%
X345010828Y-123962004D03*
%TO.P,U1,21,3V3*%
%TO.N,unconnected-(U1-Pad21)*%
X345625310Y-121497453D03*
%TO.P,U1,22,GND*%
%TO.N,unconnected-(U1-Pad22)*%
X346239792Y-119032901D03*
%TO.P,U1,23,5V*%
%TO.N,unconnected-(U1-Pad23)*%
X346854273Y-116568350D03*
%TD*%
D13*
%TO.N,Net-(D29-Pad2)*%
X324866000Y-117348000D03*
X327279000Y-109220000D03*
%TO.N,COL0*%
X340741000Y-111760000D03*
X336042000Y-130810000D03*
%TO.N,COL1*%
X331216000Y-73660000D03*
X326453500Y-92710000D03*
X316865000Y-130810000D03*
X335568350Y-125949650D03*
X321691000Y-111760000D03*
%TO.N,COL2*%
X322326000Y-124395500D03*
X307403500Y-92710000D03*
X312166000Y-73660000D03*
X338631866Y-125934134D03*
X302641000Y-111760000D03*
X297815000Y-130810000D03*
%TO.N,COL3*%
X278765000Y-130810000D03*
X274066000Y-149860000D03*
X322317500Y-123444000D03*
X293116000Y-73660000D03*
X283591000Y-111760000D03*
X326857750Y-123444000D03*
X288353500Y-92710000D03*
%TO.N,COL4*%
X322317500Y-122555000D03*
X269303500Y-92710000D03*
X335407000Y-120396000D03*
X274066000Y-73660000D03*
X264541000Y-111760000D03*
X259715000Y-130810000D03*
X255016000Y-149860000D03*
%TO.N,COL5*%
X322323247Y-121663247D03*
X240665000Y-130810000D03*
X255016000Y-73660000D03*
X245491000Y-111760000D03*
X335407000Y-117991500D03*
X226441000Y-149860000D03*
X250253500Y-92710000D03*
%TO.N,COL6*%
X231203500Y-92710000D03*
X334264000Y-117983000D03*
X197866000Y-149860000D03*
X226441000Y-111760000D03*
X221615000Y-130810000D03*
X322326000Y-119634000D03*
X235966000Y-73660000D03*
%TO.N,COL7*%
X322326000Y-118745000D03*
X212153500Y-92710000D03*
X202628500Y-130810000D03*
X216916000Y-73660000D03*
X333248000Y-117983000D03*
X178816000Y-149860000D03*
X207391000Y-111760000D03*
%TO.N,COL8*%
X277241000Y-138938000D03*
X197866000Y-73533000D03*
X183578500Y-130810000D03*
X193103500Y-92710000D03*
X188341000Y-111760000D03*
%TO.N,COL9*%
X164528500Y-130810000D03*
X174053500Y-92710000D03*
X178816000Y-73660000D03*
X169291000Y-111760000D03*
X277749000Y-138176000D03*
%TO.N,COL10*%
X155003500Y-92710000D03*
X159766000Y-73660000D03*
X278257000Y-137476003D03*
X150241000Y-111760000D03*
X145478500Y-130810000D03*
%TO.N,COL11*%
X135953500Y-92710000D03*
X131191000Y-111760000D03*
X278827003Y-136841003D03*
X126428500Y-130810000D03*
X140716000Y-73660000D03*
%TO.N,COL12*%
X107378500Y-130810000D03*
X116903500Y-92710000D03*
X265811000Y-140416500D03*
X121793000Y-73533000D03*
X279400000Y-136144000D03*
X188976000Y-140589000D03*
X112141000Y-111760000D03*
X265811000Y-136822500D03*
%TO.N,COL13*%
X266700000Y-141224000D03*
X188087000Y-140589000D03*
X266700000Y-136368500D03*
X88328500Y-130810000D03*
X279908000Y-135382000D03*
%TD*%
D14*
%TO.N,Net-(D1-Pad2)*%
X335756250Y-72167750D02*
X336804000Y-71120000D01*
X335756250Y-79312500D02*
X335756250Y-72167750D01*
%TO.N,Net-(D2-Pad2)*%
X316706250Y-72167750D02*
X317754000Y-71120000D01*
X316706250Y-79312500D02*
X316706250Y-72167750D01*
%TO.N,Net-(D3-Pad2)*%
X297656250Y-79312500D02*
X297656250Y-72167750D01*
X297656250Y-72167750D02*
X298704000Y-71120000D01*
%TO.N,Net-(D4-Pad2)*%
X278606250Y-72167750D02*
X279654000Y-71120000D01*
X278606250Y-79312500D02*
X278606250Y-72167750D01*
%TO.N,Net-(D5-Pad2)*%
X259556250Y-79312500D02*
X259556250Y-72167750D01*
X259556250Y-72167750D02*
X260604000Y-71120000D01*
%TO.N,Net-(D6-Pad2)*%
X240506250Y-79312500D02*
X240506250Y-72167750D01*
X240506250Y-72167750D02*
X241554000Y-71120000D01*
%TO.N,Net-(D7-Pad2)*%
X221456250Y-79312500D02*
X221456250Y-72167750D01*
X221456250Y-72167750D02*
X222504000Y-71120000D01*
%TO.N,Net-(D8-Pad2)*%
X205797901Y-76003901D02*
X205797901Y-73463901D01*
X205797901Y-73463901D02*
X203454000Y-71120000D01*
X216693750Y-79312500D02*
X209106500Y-79312500D01*
X209106500Y-79312500D02*
X205797901Y-76003901D01*
%TO.N,Net-(D9-Pad2)*%
X187847969Y-74563969D02*
X184404000Y-71120000D01*
X187847969Y-77103969D02*
X187847969Y-74563969D01*
X190056500Y-79312500D02*
X187847969Y-77103969D01*
X197643750Y-79312500D02*
X190056500Y-79312500D01*
%TO.N,Net-(D10-Pad2)*%
X171006500Y-79312500D02*
X168797969Y-77103969D01*
X168797969Y-77103969D02*
X168797969Y-74563969D01*
X168797969Y-74563969D02*
X165354000Y-71120000D01*
X178593750Y-79312500D02*
X171006500Y-79312500D01*
%TO.N,Net-(D11-Pad2)*%
X159543750Y-79312500D02*
X151956500Y-79312500D01*
X151956500Y-79312500D02*
X148647901Y-76003901D01*
X148647901Y-76003901D02*
X148647901Y-73463901D01*
X148647901Y-73463901D02*
X146304000Y-71120000D01*
%TO.N,Net-(D12-Pad2)*%
X132906500Y-79312500D02*
X129597901Y-76003901D01*
X140493750Y-79312500D02*
X132906500Y-79312500D01*
X129597901Y-76003901D02*
X129597901Y-73463901D01*
X129597901Y-73463901D02*
X127254000Y-71120000D01*
%TO.N,Net-(D13-Pad2)*%
X113856500Y-79312500D02*
X110547901Y-76003901D01*
X110547901Y-76003901D02*
X110547901Y-73463901D01*
X110547901Y-73463901D02*
X108204000Y-71120000D01*
X121443750Y-79312500D02*
X113856500Y-79312500D01*
%TO.N,Net-(D14-Pad2)*%
X92597969Y-74563969D02*
X89154000Y-71120000D01*
X92597969Y-77103969D02*
X92597969Y-74563969D01*
X102393750Y-79312500D02*
X94806500Y-79312500D01*
X94806500Y-79312500D02*
X92597969Y-77103969D01*
%TO.N,Net-(D15-Pad2)*%
X330993750Y-91217750D02*
X332041500Y-90170000D01*
X330993750Y-98362500D02*
X330993750Y-91217750D01*
%TO.N,Net-(D16-Pad2)*%
X311943750Y-98362500D02*
X311943750Y-91217750D01*
X311943750Y-91217750D02*
X312991500Y-90170000D01*
%TO.N,Net-(D17-Pad2)*%
X292893750Y-91217750D02*
X293941500Y-90170000D01*
X292893750Y-98362500D02*
X292893750Y-91217750D01*
%TO.N,Net-(D18-Pad2)*%
X273843750Y-91217750D02*
X274891500Y-90170000D01*
X273843750Y-98362500D02*
X273843750Y-91217750D01*
%TO.N,Net-(D19-Pad2)*%
X254793750Y-91217750D02*
X255841500Y-90170000D01*
X254793750Y-98362500D02*
X254793750Y-91217750D01*
%TO.N,Net-(D20-Pad2)*%
X235743750Y-98362500D02*
X235743750Y-91217750D01*
X235743750Y-91217750D02*
X236791500Y-90170000D01*
%TO.N,Net-(D21-Pad2)*%
X216693750Y-91217750D02*
X217741500Y-90170000D01*
X216693750Y-98362500D02*
X216693750Y-91217750D01*
%TO.N,Net-(D22-Pad2)*%
X204026500Y-98362500D02*
X202135469Y-96471469D01*
X202135469Y-93613969D02*
X198691500Y-90170000D01*
X211931250Y-98362500D02*
X204026500Y-98362500D01*
X202135469Y-96471469D02*
X202135469Y-93613969D01*
%TO.N,Net-(D23-Pad2)*%
X181985401Y-92513901D02*
X179641500Y-90170000D01*
X181985401Y-95117401D02*
X181985401Y-92513901D01*
X185230500Y-98362500D02*
X181985401Y-95117401D01*
X192881250Y-98362500D02*
X185230500Y-98362500D01*
%TO.N,Net-(D24-Pad2)*%
X164035469Y-93613969D02*
X160591500Y-90170000D01*
X166180500Y-98362500D02*
X164035469Y-96217469D01*
X164035469Y-96217469D02*
X164035469Y-93613969D01*
X173831250Y-98362500D02*
X166180500Y-98362500D01*
%TO.N,Net-(D25-Pad2)*%
X144985469Y-96217469D02*
X144985469Y-93613969D01*
X147130500Y-98362500D02*
X144985469Y-96217469D01*
X154781250Y-98362500D02*
X147130500Y-98362500D01*
X144985469Y-93613969D02*
X141541500Y-90170000D01*
%TO.N,Net-(D26-Pad2)*%
X125935469Y-93613969D02*
X122491500Y-90170000D01*
X125935469Y-96217469D02*
X125935469Y-93613969D01*
X135731250Y-98362500D02*
X128080500Y-98362500D01*
X128080500Y-98362500D02*
X125935469Y-96217469D01*
%TO.N,Net-(D27-Pad2)*%
X116681250Y-98362500D02*
X109030500Y-98362500D01*
X106885469Y-96217469D02*
X106885469Y-93613969D01*
X106885469Y-93613969D02*
X103441500Y-90170000D01*
X109030500Y-98362500D02*
X106885469Y-96217469D01*
%TO.N,Net-(D28-Pad2)*%
X87835469Y-93613969D02*
X84391500Y-90170000D01*
X97631250Y-98362500D02*
X89980500Y-98362500D01*
X89980500Y-98362500D02*
X87835469Y-96217469D01*
X87835469Y-96217469D02*
X87835469Y-93613969D01*
%TO.N,Net-(D29-Pad2)*%
X324866000Y-117348000D02*
X326166750Y-117348000D01*
X326166750Y-117348000D02*
X326231250Y-117412500D01*
%TO.N,Net-(D30-Pad2)*%
X307181250Y-110267750D02*
X308229000Y-109220000D01*
X307181250Y-117412500D02*
X307181250Y-110267750D01*
%TO.N,Net-(D31-Pad2)*%
X288131250Y-117412500D02*
X288131250Y-110267750D01*
X288131250Y-110267750D02*
X289179000Y-109220000D01*
%TO.N,Net-(D32-Pad2)*%
X269081250Y-110267750D02*
X270129000Y-109220000D01*
X269081250Y-117412500D02*
X269081250Y-110267750D01*
%TO.N,Net-(D33-Pad2)*%
X250031250Y-117412500D02*
X250031250Y-110267750D01*
X250031250Y-110267750D02*
X251079000Y-109220000D01*
%TO.N,Net-(D34-Pad2)*%
X230981250Y-117412500D02*
X230981250Y-110267750D01*
X230981250Y-110267750D02*
X232029000Y-109220000D01*
%TO.N,Net-(D35-Pad2)*%
X211931250Y-117412500D02*
X211931250Y-110267750D01*
X211931250Y-110267750D02*
X212979000Y-109220000D01*
%TO.N,Net-(D36-Pad2)*%
X196272901Y-111563901D02*
X193929000Y-109220000D01*
X207168750Y-117412500D02*
X199454500Y-117412500D01*
X199454500Y-117412500D02*
X196272901Y-114230901D01*
X196272901Y-114230901D02*
X196272901Y-111563901D01*
%TO.N,Net-(D37-Pad2)*%
X180150500Y-117412500D02*
X177222901Y-114484901D01*
X177222901Y-114484901D02*
X177222901Y-111563901D01*
X177222901Y-111563901D02*
X174879000Y-109220000D01*
X188118750Y-117412500D02*
X180150500Y-117412500D01*
%TO.N,Net-(D38-Pad2)*%
X158172901Y-111563901D02*
X155829000Y-109220000D01*
X161354500Y-117412500D02*
X158172901Y-114230901D01*
X158172901Y-114230901D02*
X158172901Y-111563901D01*
X169068750Y-117412500D02*
X161354500Y-117412500D01*
%TO.N,Net-(D39-Pad2)*%
X139122901Y-111563901D02*
X139122901Y-114484901D01*
X136779000Y-109220000D02*
X139122901Y-111563901D01*
X142050500Y-117412500D02*
X150018750Y-117412500D01*
X139122901Y-114484901D02*
X142050500Y-117412500D01*
%TO.N,Net-(D40-Pad2)*%
X121172969Y-115330969D02*
X121172969Y-112663969D01*
X130968750Y-117412500D02*
X123254500Y-117412500D01*
X123254500Y-117412500D02*
X121172969Y-115330969D01*
X121172969Y-112663969D02*
X117729000Y-109220000D01*
%TO.N,Net-(D41-Pad2)*%
X104204500Y-117412500D02*
X102122969Y-115330969D01*
X102122969Y-112663969D02*
X98679000Y-109220000D01*
X102122969Y-115330969D02*
X102122969Y-112663969D01*
X111918750Y-117412500D02*
X104204500Y-117412500D01*
%TO.N,Net-(D42-Pad2)*%
X83072969Y-112663969D02*
X79629000Y-109220000D01*
X84900500Y-117412500D02*
X83072969Y-115584969D01*
X83072969Y-115584969D02*
X83072969Y-112663969D01*
X92868750Y-117412500D02*
X84900500Y-117412500D01*
%TO.N,Net-(D43-Pad2)*%
X321468750Y-129317750D02*
X322516500Y-128270000D01*
X321468750Y-136462500D02*
X321468750Y-129317750D01*
%TO.N,Net-(D44-Pad2)*%
X302418750Y-136462500D02*
X302418750Y-129317750D01*
X302418750Y-129317750D02*
X303466500Y-128270000D01*
%TO.N,Net-(D45-Pad2)*%
X283368750Y-129317750D02*
X284416500Y-128270000D01*
X283368750Y-136462500D02*
X283368750Y-129317750D01*
%TO.N,Net-(D46-Pad2)*%
X264318750Y-129317750D02*
X265366500Y-128270000D01*
X264318750Y-136462500D02*
X264318750Y-129317750D01*
%TO.N,Net-(D47-Pad2)*%
X245268750Y-136462500D02*
X245268750Y-129317750D01*
X245268750Y-129317750D02*
X246316500Y-128270000D01*
%TO.N,Net-(D48-Pad2)*%
X226218750Y-129317750D02*
X227266500Y-128270000D01*
X226218750Y-136462500D02*
X226218750Y-129317750D01*
%TO.N,Net-(D49-Pad2)*%
X207168750Y-136462500D02*
X207168750Y-129317750D01*
X207168750Y-129317750D02*
X208216500Y-128270000D01*
%TO.N,Net-(D50-Pad2)*%
X192610469Y-131713969D02*
X189166500Y-128270000D01*
X202406250Y-136462500D02*
X194120500Y-136462500D01*
X194120500Y-136462500D02*
X192610469Y-134952469D01*
X192610469Y-134952469D02*
X192610469Y-131713969D01*
%TO.N,Net-(D51-Pad2)*%
X175578500Y-136462500D02*
X173560469Y-134444469D01*
X173560469Y-134444469D02*
X173560469Y-131713969D01*
X173560469Y-131713969D02*
X170116500Y-128270000D01*
X183356250Y-136462500D02*
X175578500Y-136462500D01*
%TO.N,Net-(D52-Pad2)*%
X156528500Y-136462500D02*
X154510469Y-134444469D01*
X154510469Y-131713969D02*
X151066500Y-128270000D01*
X154510469Y-134444469D02*
X154510469Y-131713969D01*
X164306250Y-136462500D02*
X156528500Y-136462500D01*
%TO.N,Net-(D53-Pad2)*%
X145256250Y-136462500D02*
X137478500Y-136462500D01*
X137478500Y-136462500D02*
X135460469Y-134444469D01*
X135460469Y-134444469D02*
X135460469Y-131713969D01*
X135460469Y-131713969D02*
X132016500Y-128270000D01*
%TO.N,Net-(D54-Pad2)*%
X126206250Y-136462500D02*
X118428500Y-136462500D01*
X115310401Y-130613901D02*
X112966500Y-128270000D01*
X118428500Y-136462500D02*
X115310401Y-133344401D01*
X115310401Y-133344401D02*
X115310401Y-130613901D01*
%TO.N,Net-(D55-Pad2)*%
X99378500Y-136462500D02*
X97360469Y-134444469D01*
X97360469Y-131713969D02*
X93916500Y-128270000D01*
X107156250Y-136462500D02*
X99378500Y-136462500D01*
X97360469Y-134444469D02*
X97360469Y-131713969D01*
%TO.N,Net-(D56-Pad2)*%
X78310469Y-134444469D02*
X78310469Y-131713969D01*
X80328500Y-136462500D02*
X78310469Y-134444469D01*
X78310469Y-131713969D02*
X74866500Y-128270000D01*
X88106250Y-136462500D02*
X80328500Y-136462500D01*
%TO.N,Net-(D57-Pad2)*%
X257175000Y-156431250D02*
X259535190Y-154071060D01*
X259535190Y-148388810D02*
X260604000Y-147320000D01*
X259535190Y-154071060D02*
X259535190Y-148388810D01*
%TO.N,Net-(D58-Pad2)*%
X240485190Y-154071060D02*
X240485190Y-148388810D01*
X240485190Y-148388810D02*
X241554000Y-147320000D01*
X238125000Y-156431250D02*
X240485190Y-154071060D01*
%TO.N,Net-(D59-Pad2)*%
X207168750Y-156431250D02*
X208947750Y-156431250D01*
X208947750Y-156431250D02*
X209550000Y-155829000D01*
X209550000Y-150749000D02*
X212979000Y-147320000D01*
X209550000Y-155829000D02*
X209550000Y-150749000D01*
%TO.N,Net-(D60-Pad2)*%
X189520349Y-156431250D02*
X200025000Y-156431250D01*
X188029099Y-151976060D02*
X188029099Y-154940000D01*
X184404000Y-148350961D02*
X188029099Y-151976060D01*
X188029099Y-154940000D02*
X189520349Y-156431250D01*
X184404000Y-147320000D02*
X184404000Y-148350961D01*
%TO.N,Net-(D61-Pad2)*%
X168006961Y-152512961D02*
X171925250Y-156431250D01*
X168006961Y-149972961D02*
X168006961Y-152512961D01*
X171925250Y-156431250D02*
X180975000Y-156431250D01*
X165354000Y-147320000D02*
X168006961Y-149972961D01*
%TO.N,COL0*%
X341249000Y-134180836D02*
X341249000Y-133477000D01*
X350266000Y-78867000D02*
X350266000Y-73660000D01*
X335978500Y-130810000D02*
X336042000Y-130810000D01*
X344402971Y-136899241D02*
X342504730Y-135001000D01*
X345503500Y-97980500D02*
X345503500Y-92710000D01*
X338582000Y-130810000D02*
X335978500Y-130810000D01*
X341249000Y-133477000D02*
X338582000Y-130810000D01*
X340741000Y-111760000D02*
X340741000Y-102743000D01*
X345503500Y-92710000D02*
X345503500Y-83629500D01*
X342069164Y-135001000D02*
X341249000Y-134180836D01*
X340741000Y-102743000D02*
X345503500Y-97980500D01*
X342504730Y-135001000D02*
X342069164Y-135001000D01*
X345503500Y-83629500D02*
X350266000Y-78867000D01*
%TO.N,COL1*%
X316928500Y-130810000D02*
X316865000Y-130810000D01*
X342929881Y-132532657D02*
X343916000Y-133518776D01*
X335626650Y-125949650D02*
X342209657Y-132532657D01*
X342209657Y-132532657D02*
X342929881Y-132532657D01*
X335568350Y-125949650D02*
X335626650Y-125949650D01*
X343916000Y-134562200D02*
X346867523Y-137513723D01*
X343916000Y-133518776D02*
X343916000Y-134562200D01*
%TO.N,COL2*%
X344678000Y-133604000D02*
X349202204Y-138128204D01*
X349202204Y-138128204D02*
X349332074Y-138128204D01*
X297878500Y-130810000D02*
X297815000Y-130810000D01*
X338686634Y-125934134D02*
X342820606Y-130068106D01*
X338631866Y-125934134D02*
X338686634Y-125934134D01*
X344678000Y-131064000D02*
X344678000Y-133604000D01*
X304229500Y-124395500D02*
X297878500Y-130746500D01*
X297878500Y-130746500D02*
X297878500Y-130810000D01*
X342820606Y-130068106D02*
X343682106Y-130068106D01*
X343682106Y-130068106D02*
X344678000Y-131064000D01*
X322326000Y-124395500D02*
X304229500Y-124395500D01*
%TO.N,COL3*%
X338462052Y-123444000D02*
X326857750Y-123444000D01*
X344265555Y-127603555D02*
X342621607Y-127603555D01*
X345313000Y-128651000D02*
X344265555Y-127603555D01*
X278828500Y-130810000D02*
X278765000Y-130810000D01*
X322317500Y-123444000D02*
X286131000Y-123444000D01*
X342621607Y-127603555D02*
X338462052Y-123444000D01*
X351796625Y-138742686D02*
X351695656Y-138742686D01*
X345313000Y-132360030D02*
X345313000Y-128651000D01*
X351695656Y-138742686D02*
X345313000Y-132360030D01*
X286131000Y-123444000D02*
X278765000Y-130810000D01*
%TO.N,COL4*%
X345821000Y-130916992D02*
X345821000Y-125730000D01*
X322317500Y-122555000D02*
X267970000Y-122555000D01*
X345821000Y-125730000D02*
X345230004Y-125139004D01*
X259778500Y-130810000D02*
X259715000Y-130810000D01*
X354261176Y-139357168D02*
X345821000Y-130916992D01*
X259778500Y-130746500D02*
X259778500Y-130810000D01*
X343750848Y-125139004D02*
X339007844Y-120396000D01*
X345230004Y-125139004D02*
X343750848Y-125139004D01*
X339007844Y-120396000D02*
X335407000Y-120396000D01*
X267970000Y-122555000D02*
X259778500Y-130746500D01*
%TO.N,COL5*%
X346329000Y-129574922D02*
X346329000Y-123317000D01*
X346329000Y-123317000D02*
X345686453Y-122674453D01*
X240728500Y-130810000D02*
X249618500Y-121920000D01*
X240728500Y-130810000D02*
X240665000Y-130810000D01*
X345686453Y-122674453D02*
X344365329Y-122674453D01*
X344365329Y-122674453D02*
X339682376Y-117991500D01*
X322066494Y-121920000D02*
X322323247Y-121663247D01*
X249618500Y-121920000D02*
X322066494Y-121920000D01*
X339682376Y-117991500D02*
X335407000Y-117991500D01*
X356725727Y-139971649D02*
X346329000Y-129574922D01*
%TO.N,COL6*%
X226441000Y-117983000D02*
X226441000Y-111760000D01*
X339677428Y-117344500D02*
X343490928Y-121158000D01*
X346546764Y-120320453D02*
X347091000Y-120864689D01*
X334264000Y-117983000D02*
X334902500Y-117344500D01*
X221678500Y-130810000D02*
X221615000Y-130810000D01*
X355947098Y-137507098D02*
X357340209Y-137507098D01*
X343490928Y-121158000D02*
X344300233Y-121158000D01*
X344300233Y-121158000D02*
X345137780Y-120320453D01*
X347091000Y-128651000D02*
X355947098Y-137507098D01*
X347091000Y-120864689D02*
X347091000Y-128651000D01*
X322326000Y-119634000D02*
X228092000Y-119634000D01*
X334902500Y-117344500D02*
X339677428Y-117344500D01*
X228092000Y-119634000D02*
X226441000Y-117983000D01*
X345137780Y-120320453D02*
X346546764Y-120320453D01*
%TO.N,COL7*%
X355600000Y-135636000D02*
X357361237Y-135636000D01*
X357361237Y-135636000D02*
X357954690Y-135042547D01*
X346963901Y-117855901D02*
X347726000Y-118618000D01*
X345694099Y-117855901D02*
X346963901Y-117855901D01*
X347726000Y-127762000D02*
X355600000Y-135636000D01*
X339766387Y-116791407D02*
X342481980Y-119507000D01*
X223095974Y-105561316D02*
X213589684Y-105561316D01*
X228600000Y-115697000D02*
X228600000Y-111065342D01*
X344043000Y-119507000D02*
X345694099Y-117855901D01*
X213589684Y-105561316D02*
X207391000Y-111760000D01*
X228600000Y-111065342D02*
X223095974Y-105561316D01*
X228600000Y-115697000D02*
X228600000Y-117602000D01*
X347726000Y-118618000D02*
X347726000Y-127762000D01*
X228600000Y-117602000D02*
X229743000Y-118745000D01*
X334439593Y-116791407D02*
X339766387Y-116791407D01*
X333248000Y-117983000D02*
X334439593Y-116791407D01*
X322326000Y-118745000D02*
X229743000Y-118745000D01*
X342481980Y-119507000D02*
X344043000Y-119507000D01*
%TO.N,COL8*%
X185166000Y-136779000D02*
X185166000Y-132397500D01*
X187198000Y-138811000D02*
X185166000Y-136779000D01*
X277114000Y-138811000D02*
X187198000Y-138811000D01*
X277241000Y-138938000D02*
X277114000Y-138811000D01*
X197866000Y-73660000D02*
X197866000Y-73533000D01*
X185166000Y-132397500D02*
X183578500Y-130810000D01*
%TO.N,COL9*%
X276907003Y-138357000D02*
X187386052Y-138357000D01*
X185620000Y-129997842D02*
X180233474Y-124611316D01*
X277749000Y-138176000D02*
X277088003Y-138176000D01*
X180233474Y-124611316D02*
X170727184Y-124611316D01*
X170727184Y-124611316D02*
X164528500Y-130810000D01*
X277088003Y-138176000D02*
X276907003Y-138357000D01*
X187386052Y-138357000D02*
X185620000Y-136590948D01*
X185620000Y-136590948D02*
X185620000Y-129997842D01*
%TO.N,COL10*%
X152131184Y-124157316D02*
X145478500Y-130810000D01*
X187574104Y-137903000D02*
X186074000Y-136402896D01*
X186074000Y-129809790D02*
X180421526Y-124157316D01*
X277145948Y-137476003D02*
X276718951Y-137903000D01*
X276718951Y-137903000D02*
X187574104Y-137903000D01*
X180421526Y-124157316D02*
X152131184Y-124157316D01*
X278257000Y-137476003D02*
X277145948Y-137476003D01*
X186074000Y-136402896D02*
X186074000Y-129809790D01*
%TO.N,COL11*%
X278827003Y-136841003D02*
X278815003Y-136829003D01*
X133535184Y-123703316D02*
X126428500Y-130810000D01*
X278815003Y-136829003D02*
X277150896Y-136829003D01*
X276530899Y-137449000D02*
X187762156Y-137449000D01*
X277150896Y-136829003D02*
X276530899Y-137449000D01*
X186528000Y-129621738D02*
X180609579Y-123703316D01*
X186528000Y-136214844D02*
X186528000Y-129621738D01*
X187762156Y-137449000D02*
X186528000Y-136214844D01*
X180609579Y-123703316D02*
X133535184Y-123703316D01*
%TO.N,COL12*%
X188976000Y-140589000D02*
X265638500Y-140589000D01*
X265811000Y-136822500D02*
X265983500Y-136995000D01*
X277193847Y-136144000D02*
X279400000Y-136144000D01*
X121666000Y-73660000D02*
X121793000Y-73533000D01*
X265983500Y-136995000D02*
X276342847Y-136995000D01*
X276342847Y-136995000D02*
X277193847Y-136144000D01*
X265638500Y-140589000D02*
X265811000Y-140416500D01*
%TO.N,COL13*%
X277005794Y-135690000D02*
X276154795Y-136541000D01*
X188087000Y-140614997D02*
X188087000Y-140589000D01*
X188708003Y-141236000D02*
X188087000Y-140614997D01*
X104267000Y-75311000D02*
X102616000Y-73660000D01*
X93795750Y-118189500D02*
X93795750Y-112464750D01*
X279019000Y-135382000D02*
X278711000Y-135690000D01*
X279908000Y-135382000D02*
X279019000Y-135382000D01*
X99060000Y-98637750D02*
X99060000Y-93980000D01*
X104267000Y-79143250D02*
X104267000Y-75311000D01*
X97853500Y-85556750D02*
X104267000Y-79143250D01*
X278711000Y-135690000D02*
X277005794Y-135690000D01*
X93091000Y-111760000D02*
X93091000Y-104606750D01*
X266872500Y-136541000D02*
X266700000Y-136368500D01*
X266688000Y-141236000D02*
X188708003Y-141236000D01*
X276154795Y-136541000D02*
X266872500Y-136541000D01*
X88328500Y-130810000D02*
X88328500Y-123656750D01*
X97853500Y-92710000D02*
X97853500Y-85556750D01*
X93795750Y-112464750D02*
X93091000Y-111760000D01*
X266700000Y-141224000D02*
X266688000Y-141236000D01*
X93091000Y-104606750D02*
X99060000Y-98637750D01*
X88328500Y-123656750D02*
X93795750Y-118189500D01*
%TO.N,ROW0*%
X102393750Y-82612500D02*
X121443750Y-82612500D01*
X329743750Y-102116500D02*
X330066750Y-102439500D01*
X332105000Y-102255250D02*
X332105000Y-101177750D01*
X221456250Y-82612500D02*
X240506250Y-82612500D01*
X329438000Y-98510750D02*
X329438000Y-83755500D01*
X330008500Y-82612500D02*
X330516500Y-82612500D01*
X327794052Y-115824000D02*
X324358000Y-115824000D01*
X278606250Y-82612500D02*
X297656250Y-82612500D01*
X324358000Y-115824000D02*
X323858500Y-115324500D01*
X339666824Y-118618000D02*
X330588052Y-118618000D01*
X331920750Y-102439500D02*
X332105000Y-102255250D01*
X323858500Y-115324500D02*
X323858500Y-102624500D01*
X345010828Y-123962004D02*
X339666824Y-118618000D01*
X121443750Y-82612500D02*
X140493750Y-82612500D01*
X330066750Y-102439500D02*
X331920750Y-102439500D01*
X316706250Y-82612500D02*
X330008500Y-82612500D01*
X324366500Y-102116500D02*
X329743750Y-102116500D01*
X259556250Y-82612500D02*
X278606250Y-82612500D01*
X330588052Y-118618000D02*
X327794052Y-115824000D01*
X330516500Y-82677000D02*
X330516500Y-82612500D01*
X330516500Y-82612500D02*
X335756250Y-82612500D01*
X323858500Y-102624500D02*
X324366500Y-102116500D01*
X329438000Y-83755500D02*
X330516500Y-82677000D01*
X297656250Y-82612500D02*
X316706250Y-82612500D01*
X332105000Y-101177750D02*
X329438000Y-98510750D01*
X216693750Y-82612500D02*
X221456250Y-82612500D01*
X240506250Y-82612500D02*
X259556250Y-82612500D01*
X159543750Y-82612500D02*
X178593750Y-82612500D01*
X197643750Y-82612500D02*
X216693750Y-82612500D01*
X140493750Y-82612500D02*
X159543750Y-82612500D01*
X178593750Y-82612500D02*
X197643750Y-82612500D01*
%TO.N,ROW1*%
X235743750Y-101662500D02*
X216693750Y-101662500D01*
X324104000Y-116332000D02*
X323404500Y-115632500D01*
X330993750Y-101662500D02*
X325309500Y-101662500D01*
X254793750Y-101662500D02*
X235743750Y-101662500D01*
X173831250Y-101662500D02*
X154781250Y-101662500D01*
X325309500Y-101662500D02*
X323404500Y-101662500D01*
X192881250Y-101662500D02*
X173831250Y-101662500D01*
X116681250Y-101662500D02*
X97631250Y-101662500D01*
X211931250Y-101662500D02*
X192881250Y-101662500D01*
X154781250Y-101662500D02*
X135731250Y-101662500D01*
X311943750Y-101662500D02*
X292893750Y-101662500D01*
X339012139Y-121042347D02*
X332370347Y-121042347D01*
X344396347Y-126426555D02*
X339012139Y-121042347D01*
X324168500Y-101662500D02*
X325309500Y-101662500D01*
X327660000Y-116332000D02*
X324104000Y-116332000D01*
X323404500Y-115632500D02*
X323404500Y-102426500D01*
X332370347Y-121042347D02*
X327660000Y-116332000D01*
X216693750Y-101662500D02*
X211931250Y-101662500D01*
X323404500Y-101662500D02*
X311943750Y-101662500D01*
X292893750Y-101662500D02*
X273843750Y-101662500D01*
X273843750Y-101662500D02*
X254793750Y-101662500D01*
X135731250Y-101662500D02*
X116681250Y-101662500D01*
X323404500Y-102426500D02*
X324168500Y-101662500D01*
%TO.N,ROW2*%
X188118750Y-120712500D02*
X207168750Y-120712500D01*
X169068750Y-120712500D02*
X188118750Y-120712500D01*
X230981250Y-120712500D02*
X250031250Y-120712500D01*
X343781865Y-128891106D02*
X343267106Y-128891106D01*
X307181250Y-120712500D02*
X326231250Y-120712500D01*
X211931250Y-120712500D02*
X230981250Y-120712500D01*
X326644000Y-124568000D02*
X338944000Y-124568000D01*
X207168750Y-120712500D02*
X211931250Y-120712500D01*
X326231250Y-120712500D02*
X326231250Y-124155250D01*
X269081250Y-120712500D02*
X288131250Y-120712500D01*
X250031250Y-120712500D02*
X269081250Y-120712500D01*
X92868750Y-120712500D02*
X111918750Y-120712500D01*
X150018750Y-120712500D02*
X169068750Y-120712500D01*
X326231250Y-124155250D02*
X326644000Y-124568000D01*
X111918750Y-120712500D02*
X130968750Y-120712500D01*
X343267106Y-128891106D02*
X338944000Y-124568000D01*
X130968750Y-120712500D02*
X150018750Y-120712500D01*
X288131250Y-120712500D02*
X307181250Y-120712500D01*
%TO.N,ROW3*%
X145256250Y-139762500D02*
X126206250Y-139762500D01*
X107156250Y-139762500D02*
X88106250Y-139762500D01*
X264318750Y-139762500D02*
X283368750Y-139762500D01*
X319532000Y-137825750D02*
X321468750Y-139762500D01*
X283368750Y-139762500D02*
X302418750Y-139762500D01*
X164306250Y-139762500D02*
X183356250Y-139762500D01*
X302418750Y-139762500D02*
X321468750Y-139762500D01*
X164306250Y-139762500D02*
X145256250Y-139762500D01*
X207168750Y-139762500D02*
X226218750Y-139762500D01*
X321883948Y-125022000D02*
X319532000Y-127373948D01*
X183356250Y-139762500D02*
X202406250Y-139762500D01*
X126206250Y-139762500D02*
X107156250Y-139762500D01*
X226218750Y-139762500D02*
X245268750Y-139762500D01*
X343167383Y-131355657D02*
X336833726Y-125022000D01*
X336833726Y-125022000D02*
X321883948Y-125022000D01*
X245268750Y-139762500D02*
X264318750Y-139762500D01*
X319532000Y-127373948D02*
X319532000Y-137825750D01*
X202406250Y-139762500D02*
X207168750Y-139762500D01*
%TO.N,ROW4*%
X322072000Y-125476000D02*
X319986000Y-127562000D01*
X322580000Y-139192000D02*
X322580000Y-140355250D01*
X257175000Y-147895342D02*
X257175000Y-153131250D01*
X200025000Y-153131250D02*
X207168750Y-153131250D01*
X225040237Y-145161000D02*
X212090000Y-145161000D01*
X260290342Y-144780000D02*
X240538000Y-144780000D01*
X207168750Y-150082250D02*
X207168750Y-153131250D01*
X268986000Y-144780000D02*
X260290342Y-144780000D01*
X236655138Y-148662862D02*
X228542099Y-148662862D01*
X335300353Y-126596650D02*
X334179703Y-125476000D01*
X260290342Y-144780000D02*
X257175000Y-147895342D01*
X322219250Y-140716000D02*
X273050000Y-140716000D01*
X202247500Y-145161000D02*
X207168750Y-150082250D01*
X335329344Y-126596650D02*
X335300353Y-126596650D01*
X183709342Y-145161000D02*
X202247500Y-145161000D01*
X240538000Y-144780000D02*
X238125000Y-147193000D01*
X273050000Y-140716000D02*
X268986000Y-144780000D01*
X240538000Y-144780000D02*
X236655138Y-148662862D01*
X319986000Y-127562000D02*
X319986000Y-136598000D01*
X238125000Y-147193000D02*
X238125000Y-153131250D01*
X228542099Y-148662862D02*
X225040237Y-145161000D01*
X322580000Y-140355250D02*
X322219250Y-140716000D01*
X319986000Y-136598000D02*
X322580000Y-139192000D01*
X334179703Y-125476000D02*
X322072000Y-125476000D01*
X180975000Y-153131250D02*
X180975000Y-147895342D01*
X342552902Y-133820208D02*
X335329344Y-126596650D01*
X180975000Y-147895342D02*
X183709342Y-145161000D01*
X212090000Y-145161000D02*
X207168750Y-150082250D01*
%TD*%
M02*
