M48
; DRILL file {KiCad (6.0.6-0)} date Saturday, July 30, 2022 at 10:34:08 AM
; FORMAT={-:-/ absolute / inch / decimal}
; #@! TF.CreationDate,2022-07-30T10:34:08-07:00
; #@! TF.GenerationSoftware,Kicad,Pcbnew,(6.0.6-0)
; #@! TF.FileFunction,Plated,1,2,PTH
FMAT,2
INCH
; #@! TA.AperFunction,Plated,PTH,ViaDrill
T1C0.0118
; #@! TA.AperFunction,Plated,PTH,ComponentDrill
T2C0.0394
%
G90
G05
T1
X3.4775Y-5.15
X4.2275Y-5.15
X4.415Y-4.4
X4.6025Y-3.65
X4.795Y-2.895
X4.9775Y-5.15
X5.165Y-4.4
X5.3525Y-3.65
X5.54Y-2.9
X5.7275Y-5.15
X5.915Y-4.4
X6.1025Y-3.65
X6.29Y-2.9
X6.4775Y-5.15
X6.665Y-4.4
X6.8525Y-3.65
X7.04Y-2.9
X7.04Y-5.9
X7.2275Y-5.15
X7.405Y-5.535
X7.415Y-4.4
X7.44Y-5.535
X7.6025Y-3.65
X7.79Y-2.895
X7.79Y-5.9
X7.9775Y-5.15
X8.165Y-4.4
X8.3525Y-3.65
X8.54Y-2.9
X8.725Y-5.15
X8.915Y-4.4
X8.915Y-5.9
X9.1025Y-3.65
X9.29Y-2.9
X9.475Y-5.15
X9.665Y-4.4
X9.8525Y-3.65
X10.04Y-2.9
X10.04Y-5.9
X10.225Y-5.15
X10.415Y-4.4
X10.465Y-5.3867
X10.465Y-5.5282
X10.5Y-5.3688
X10.5Y-5.56
X10.6025Y-3.65
X10.79Y-2.9
X10.79Y-5.9
X10.915Y-5.47
X10.935Y-5.44
X10.955Y-5.4124
X10.975Y-5.15
X10.9774Y-5.3874
X11.0Y-5.36
X11.02Y-5.33
X11.165Y-4.4
X11.3525Y-3.65
X11.54Y-2.9
X11.725Y-5.15
X11.915Y-4.4
X12.1025Y-3.65
X12.29Y-2.9
X12.475Y-5.15
X12.665Y-4.4
X12.6897Y-4.825
X12.6897Y-4.86
X12.6899Y-4.7899
X12.69Y-4.675
X12.69Y-4.71
X12.69Y-4.8975
X12.79Y-4.62
X12.8525Y-3.65
X12.8684Y-4.86
X12.885Y-4.3
X13.04Y-2.9
X13.12Y-4.645
X13.16Y-4.645
X13.205Y-4.6453
X13.205Y-4.74
X13.2114Y-4.9586
X13.23Y-5.15
X13.332Y-4.958
X13.415Y-4.4
T2
X13.4621Y-5.3655
X13.4863Y-5.2685
X13.5105Y-5.1715
X13.5347Y-5.0745
X13.5589Y-4.9774
X13.5592Y-5.3897
X13.5831Y-4.8804
X13.6073Y-4.7834
X13.6315Y-4.6863
X13.6557Y-4.5893
X13.6562Y-5.4139
X13.7532Y-5.4381
X13.8503Y-5.4623
X13.9473Y-5.4865
X14.0443Y-5.5107
X14.0685Y-5.4137
X14.0927Y-5.3166
X14.1169Y-5.2196
X14.1411Y-5.1226
X14.1653Y-5.0255
X14.1895Y-4.9285
X14.2137Y-4.8315
X14.2379Y-4.7345
T0
M30
