%TF.GenerationSoftware,KiCad,Pcbnew,(6.0.6-0)*%
%TF.CreationDate,2022-07-30T10:34:08-07:00*%
%TF.ProjectId,purple-owl,70757270-6c65-42d6-9f77-6c2e6b696361,v0.1*%
%TF.SameCoordinates,Original*%
%TF.FileFunction,Legend,Bot*%
%TF.FilePolarity,Positive*%
%FSLAX46Y46*%
G04 Gerber Fmt 4.6, Leading zero omitted, Abs format (unit mm)*
G04 Created by KiCad (PCBNEW (6.0.6-0)) date 2022-07-30 10:34:08*
%MOMM*%
%LPD*%
G01*
G04 APERTURE LIST*
%ADD10C,0.150000*%
%ADD11C,3.248000*%
%ADD12C,1.901800*%
%ADD13C,4.187800*%
%ADD14C,1.900000*%
%ADD15C,0.800000*%
G04 APERTURE END LIST*
D10*
%TO.C,U1*%
X358816506Y-118986487D02*
X358620665Y-119771964D01*
X358551420Y-119852853D01*
X358493696Y-119887538D01*
X358389766Y-119910702D01*
X358204948Y-119864622D01*
X358124059Y-119795377D01*
X358089375Y-119737652D01*
X358066210Y-119633723D01*
X358262052Y-118848245D01*
X357049834Y-119576619D02*
X357604289Y-119714860D01*
X357327062Y-119645740D02*
X357568983Y-118675444D01*
X357626832Y-118837098D01*
X357696201Y-118952547D01*
X357777090Y-119021792D01*
X349564576Y-119346556D02*
X349668506Y-119323392D01*
X349807119Y-119357952D01*
X349934213Y-119438717D01*
X350003582Y-119554166D01*
X350026746Y-119658095D01*
X350026870Y-119854434D01*
X349992310Y-119993047D01*
X349900025Y-120166345D01*
X349830780Y-120247234D01*
X349715331Y-120316603D01*
X349565197Y-120328248D01*
X349472788Y-120305208D01*
X349345695Y-120224443D01*
X349311010Y-120166718D01*
X349391651Y-119843286D01*
X349576469Y-119889366D01*
X348872129Y-120155446D02*
X349114051Y-119185151D01*
X348317674Y-120017205D01*
X348559596Y-119046910D01*
X347855629Y-119902004D02*
X348097551Y-118931709D01*
X347866528Y-118874108D01*
X347716394Y-118885752D01*
X347600945Y-118955121D01*
X347531700Y-119036010D01*
X347439415Y-119209309D01*
X347404855Y-119347922D01*
X347404979Y-119544261D01*
X347428143Y-119648190D01*
X347497512Y-119763639D01*
X347624606Y-119844404D01*
X347855629Y-119902004D01*
G36*
X354610543Y-129407757D02*
G01*
X354615688Y-129460951D01*
X354632757Y-129510364D01*
X354663893Y-129565114D01*
X354711236Y-129634317D01*
X354776929Y-129727091D01*
X354846497Y-129841347D01*
X354925432Y-130018615D01*
X354985267Y-130213978D01*
X355022929Y-130416851D01*
X355035340Y-130616647D01*
X355027173Y-130728455D01*
X355002894Y-130871017D01*
X354978998Y-130967572D01*
X354966180Y-131019369D01*
X354920729Y-131158772D01*
X354870241Y-131274492D01*
X354853365Y-131305472D01*
X354749709Y-131461285D01*
X354620257Y-131611858D01*
X354475136Y-131745132D01*
X354418690Y-131793374D01*
X354345060Y-131871547D01*
X354293105Y-131952793D01*
X354290400Y-131958011D01*
X354257367Y-132017587D01*
X354209818Y-132098795D01*
X354153702Y-132191625D01*
X354139208Y-132214934D01*
X354094971Y-132286071D01*
X354090549Y-132293084D01*
X354030168Y-132390639D01*
X353971506Y-132488377D01*
X353921068Y-132575302D01*
X353885358Y-132640418D01*
X353849783Y-132703501D01*
X353757828Y-132838234D01*
X353648099Y-132971211D01*
X353531549Y-133088553D01*
X353481687Y-133131227D01*
X353314079Y-133250292D01*
X353126034Y-133353896D01*
X352930297Y-133435597D01*
X352739610Y-133488950D01*
X352725748Y-133491968D01*
X352654336Y-133510893D01*
X352559892Y-133539400D01*
X352453085Y-133574170D01*
X352344584Y-133611882D01*
X352342773Y-133612534D01*
X352328662Y-133617246D01*
X352136491Y-133681418D01*
X351938110Y-133737528D01*
X351756298Y-133778645D01*
X351599723Y-133802551D01*
X351567639Y-133807286D01*
X351485311Y-133828482D01*
X351414903Y-133857333D01*
X351405392Y-133862459D01*
X351163878Y-133975355D01*
X350927045Y-134051591D01*
X350690176Y-134092346D01*
X350448552Y-134098797D01*
X350353362Y-134089845D01*
X350221858Y-134067512D01*
X350083598Y-134035802D01*
X349953851Y-133998281D01*
X349847889Y-133958515D01*
X349826043Y-133948597D01*
X349610275Y-133829805D01*
X349414926Y-133681399D01*
X349237035Y-133500807D01*
X349073642Y-133285454D01*
X349051351Y-133255545D01*
X348989941Y-133189201D01*
X348926532Y-133136477D01*
X348926159Y-133136225D01*
X348796579Y-133039120D01*
X348653533Y-132915458D01*
X348546766Y-132812749D01*
X349250415Y-132812749D01*
X349254273Y-132888756D01*
X349283716Y-132979749D01*
X349335615Y-133081105D01*
X349406837Y-133188206D01*
X349494251Y-133296432D01*
X349594726Y-133401162D01*
X349705130Y-133497776D01*
X349822331Y-133581654D01*
X349843523Y-133594708D01*
X349983629Y-133665534D01*
X350139103Y-133722479D01*
X350295572Y-133760997D01*
X350438665Y-133776545D01*
X350521620Y-133775188D01*
X350668856Y-133760140D01*
X350817274Y-133730992D01*
X350961130Y-133690037D01*
X351094679Y-133639569D01*
X351212176Y-133581882D01*
X351307878Y-133519267D01*
X351376040Y-133454017D01*
X351410919Y-133388427D01*
X351407857Y-133325410D01*
X351370749Y-133251393D01*
X351302055Y-133170035D01*
X351204478Y-133084048D01*
X351080719Y-132996147D01*
X350933481Y-132909045D01*
X350871679Y-132877717D01*
X350782390Y-132839766D01*
X351802442Y-132839766D01*
X351822704Y-132944795D01*
X351869977Y-133029947D01*
X351944923Y-133091703D01*
X352079226Y-133152108D01*
X352258893Y-133195543D01*
X352447213Y-133201628D01*
X352642953Y-133170469D01*
X352844878Y-133102173D01*
X353051755Y-132996842D01*
X353100665Y-132967127D01*
X353236201Y-132873358D01*
X353347604Y-132773700D01*
X353445627Y-132657547D01*
X353541022Y-132514292D01*
X353542079Y-132512551D01*
X353608864Y-132384336D01*
X353662171Y-132245831D01*
X353700182Y-132105472D01*
X353721075Y-131971697D01*
X353723031Y-131852944D01*
X353704230Y-131757648D01*
X353685703Y-131712947D01*
X353637254Y-131637677D01*
X353569414Y-131584480D01*
X353472451Y-131544402D01*
X353401947Y-131525689D01*
X353251478Y-131509520D01*
X353091960Y-131524122D01*
X352920561Y-131570139D01*
X352734454Y-131648218D01*
X352530810Y-131759003D01*
X352468298Y-131796744D01*
X352449898Y-131807853D01*
X352364147Y-131862384D01*
X352298212Y-131909592D01*
X352243793Y-131956094D01*
X352192586Y-132008505D01*
X352136296Y-132073440D01*
X352083176Y-132139552D01*
X351978294Y-132291214D01*
X351897118Y-132440584D01*
X351840311Y-132584143D01*
X351808532Y-132718377D01*
X351802442Y-132839766D01*
X350782390Y-132839766D01*
X350719200Y-132812908D01*
X350545861Y-132752358D01*
X350363985Y-132699795D01*
X350185888Y-132658953D01*
X350023894Y-132633562D01*
X349866192Y-132621490D01*
X349696630Y-132621714D01*
X349548048Y-132636852D01*
X349424492Y-132666202D01*
X349330001Y-132709061D01*
X349268623Y-132764728D01*
X349250415Y-132812749D01*
X348546766Y-132812749D01*
X348504213Y-132771814D01*
X348355816Y-132614765D01*
X348330324Y-132586660D01*
X348257481Y-132508345D01*
X348191030Y-132439626D01*
X348137440Y-132387092D01*
X348103172Y-132357328D01*
X348096395Y-132352369D01*
X347998485Y-132266601D01*
X347895233Y-132153574D01*
X347793259Y-132022403D01*
X347699182Y-131882201D01*
X347619624Y-131742084D01*
X347561204Y-131611165D01*
X347537458Y-131541785D01*
X347492189Y-131369564D01*
X347463372Y-131195705D01*
X347454125Y-131036931D01*
X347454161Y-131032548D01*
X347454099Y-131028530D01*
X347799609Y-131028530D01*
X347801920Y-131173533D01*
X347828945Y-131331723D01*
X347890925Y-131521071D01*
X347981069Y-131706634D01*
X348094733Y-131881418D01*
X348227274Y-132038427D01*
X348374050Y-132170664D01*
X348530416Y-132271135D01*
X348554388Y-132283098D01*
X348701721Y-132340750D01*
X348847874Y-132372690D01*
X348984622Y-132377721D01*
X349103744Y-132354644D01*
X349123994Y-132344844D01*
X349174317Y-132306856D01*
X349222108Y-132256335D01*
X349266169Y-132185888D01*
X349312574Y-132062460D01*
X349341890Y-131914907D01*
X349354076Y-131749648D01*
X349349083Y-131573107D01*
X349329165Y-131410449D01*
X349623450Y-131410449D01*
X349657341Y-131594019D01*
X349724250Y-131769441D01*
X349821990Y-131932496D01*
X349948370Y-132078964D01*
X350101203Y-132204628D01*
X350271950Y-132301660D01*
X350278299Y-132305268D01*
X350333286Y-132329082D01*
X350533353Y-132392222D01*
X350734514Y-132421440D01*
X350932693Y-132418089D01*
X351123812Y-132383523D01*
X351303794Y-132319096D01*
X351468561Y-132226160D01*
X351614037Y-132106069D01*
X351736144Y-131960178D01*
X351830807Y-131789839D01*
X351878837Y-131649775D01*
X351905738Y-131470899D01*
X351897848Y-131291009D01*
X351857023Y-131114284D01*
X351785118Y-130944892D01*
X351783458Y-130942301D01*
X353811366Y-130942301D01*
X353817288Y-131119979D01*
X353835244Y-131278318D01*
X353865231Y-131411372D01*
X353907243Y-131513191D01*
X353950307Y-131568179D01*
X354008431Y-131595827D01*
X354078352Y-131587141D01*
X354161859Y-131542327D01*
X354187582Y-131523891D01*
X354329116Y-131395731D01*
X354448663Y-131240877D01*
X354543867Y-131065598D01*
X354612373Y-130876162D01*
X354651824Y-130678837D01*
X354659864Y-130479895D01*
X354634139Y-130285602D01*
X354604626Y-130185884D01*
X354556810Y-130071077D01*
X354497624Y-129959094D01*
X354431588Y-129856855D01*
X354363216Y-129771285D01*
X354297025Y-129709304D01*
X354237535Y-129677834D01*
X354188343Y-129673870D01*
X354123812Y-129698589D01*
X354063844Y-129759294D01*
X354007927Y-129856737D01*
X353955549Y-129991670D01*
X353906198Y-130164847D01*
X353900362Y-130192030D01*
X353865861Y-130352715D01*
X353835648Y-130552721D01*
X353817484Y-130751233D01*
X353811366Y-130942301D01*
X351783458Y-130942301D01*
X351683987Y-130787009D01*
X351555486Y-130644807D01*
X351401470Y-130522458D01*
X351223791Y-130424137D01*
X351181504Y-130406036D01*
X350985919Y-130344494D01*
X350789121Y-130316323D01*
X350595088Y-130319841D01*
X350407792Y-130353369D01*
X350231207Y-130415225D01*
X350069309Y-130503728D01*
X349926071Y-130617197D01*
X349805468Y-130753953D01*
X349711474Y-130912312D01*
X349648063Y-131090595D01*
X349624766Y-131222947D01*
X349623450Y-131410449D01*
X349329165Y-131410449D01*
X349326870Y-131391704D01*
X349287390Y-131211861D01*
X349230599Y-131040001D01*
X349193323Y-130954387D01*
X349116617Y-130808510D01*
X349024586Y-130660248D01*
X348922944Y-130517431D01*
X348817407Y-130387889D01*
X348713686Y-130279450D01*
X348617497Y-130199945D01*
X348576379Y-130175519D01*
X348485405Y-130138797D01*
X348387449Y-130116095D01*
X348295669Y-130109979D01*
X348223220Y-130123015D01*
X348182419Y-130144224D01*
X348102541Y-130212765D01*
X348026879Y-130310994D01*
X347957943Y-130432654D01*
X347898239Y-130571493D01*
X347850276Y-130721255D01*
X347816564Y-130875685D01*
X347799609Y-131028530D01*
X347454099Y-131028530D01*
X347452974Y-130955880D01*
X347449064Y-130854000D01*
X347443014Y-130739670D01*
X347435403Y-130625654D01*
X347434475Y-130613096D01*
X347427104Y-130501482D01*
X347421359Y-130393561D01*
X347417794Y-130301082D01*
X347416965Y-130235792D01*
X347408577Y-130132503D01*
X347366386Y-130000744D01*
X347328939Y-129910823D01*
X347261258Y-129679929D01*
X347231769Y-129441975D01*
X347233739Y-129384385D01*
X347607037Y-129384385D01*
X347607074Y-129389302D01*
X347617640Y-129526676D01*
X347644326Y-129669941D01*
X347683632Y-129804242D01*
X347732053Y-129914727D01*
X347757248Y-129957475D01*
X347802415Y-130013071D01*
X347849451Y-130034378D01*
X347906481Y-130023620D01*
X347981628Y-129983018D01*
X347991977Y-129976235D01*
X348079353Y-129900171D01*
X348169706Y-129790795D01*
X348260421Y-129652841D01*
X348348879Y-129491046D01*
X348432465Y-129310143D01*
X348476943Y-129196011D01*
X348843424Y-129196011D01*
X348853097Y-129378018D01*
X348894310Y-129550502D01*
X348966089Y-129709652D01*
X349067454Y-129851657D01*
X349197432Y-129972710D01*
X349355043Y-130069000D01*
X349458023Y-130111020D01*
X349640729Y-130153827D01*
X349832932Y-130163605D01*
X350028947Y-130141192D01*
X350223086Y-130087417D01*
X350409661Y-130003115D01*
X350582983Y-129889120D01*
X350654402Y-129829923D01*
X350785882Y-129696381D01*
X351472653Y-129696381D01*
X351501181Y-129903043D01*
X351560971Y-130104576D01*
X351650389Y-130296070D01*
X351767800Y-130472611D01*
X351911567Y-130629288D01*
X352080056Y-130761193D01*
X352213846Y-130836348D01*
X352393892Y-130902521D01*
X352576928Y-130932833D01*
X352758788Y-130927098D01*
X352935305Y-130885128D01*
X353102310Y-130806740D01*
X353171260Y-130761119D01*
X353307740Y-130638376D01*
X353416669Y-130488561D01*
X353498402Y-130311120D01*
X353553300Y-130105498D01*
X353574515Y-129947228D01*
X353573254Y-129754159D01*
X353539043Y-129565677D01*
X353470657Y-129375706D01*
X353366878Y-129178166D01*
X353278802Y-129045119D01*
X353143504Y-128887715D01*
X352992738Y-128763979D01*
X352823463Y-128671547D01*
X352632633Y-128608056D01*
X352581073Y-128596763D01*
X352393597Y-128579102D01*
X352213948Y-128598061D01*
X352045554Y-128651827D01*
X351891845Y-128738588D01*
X351756249Y-128856532D01*
X351642193Y-129003846D01*
X351553110Y-129178718D01*
X351521873Y-129269953D01*
X351515930Y-129287314D01*
X351477024Y-129489500D01*
X351472653Y-129696381D01*
X350785882Y-129696381D01*
X350804514Y-129677457D01*
X350925365Y-129512382D01*
X351016518Y-129338388D01*
X351077531Y-129159166D01*
X351107968Y-128978403D01*
X351107389Y-128799788D01*
X351075356Y-128627012D01*
X351011430Y-128463764D01*
X350915173Y-128313733D01*
X350786145Y-128180608D01*
X350733542Y-128137219D01*
X350680652Y-128099391D01*
X350627245Y-128071116D01*
X350560870Y-128045993D01*
X350469077Y-128017625D01*
X350346218Y-127985984D01*
X350193868Y-127964310D01*
X350046075Y-127966938D01*
X349888306Y-127993258D01*
X349840507Y-128005084D01*
X349634086Y-128079590D01*
X349440602Y-128186996D01*
X349265760Y-128323024D01*
X349115261Y-128483392D01*
X348994807Y-128663821D01*
X348922608Y-128818658D01*
X348893943Y-128915141D01*
X348866269Y-129008287D01*
X348843424Y-129196011D01*
X348476943Y-129196011D01*
X348508564Y-129114871D01*
X348574556Y-128909962D01*
X348594073Y-128840375D01*
X348632823Y-128681667D01*
X348654428Y-128551839D01*
X348659204Y-128446544D01*
X348647468Y-128361436D01*
X348619535Y-128292167D01*
X348583942Y-128243613D01*
X348541889Y-128220619D01*
X348484419Y-128221473D01*
X348402400Y-128244156D01*
X348302834Y-128284497D01*
X348139408Y-128378859D01*
X347987651Y-128500379D01*
X347856294Y-128641633D01*
X347754070Y-128795203D01*
X347753852Y-128795606D01*
X347710451Y-128894211D01*
X347670397Y-129017106D01*
X347637362Y-129149575D01*
X347615018Y-129276905D01*
X347607037Y-129384385D01*
X347233739Y-129384385D01*
X347240208Y-129195294D01*
X347241158Y-129186835D01*
X347284598Y-128975126D01*
X347363125Y-128768338D01*
X347472901Y-128571579D01*
X347610090Y-128389958D01*
X347770855Y-128228582D01*
X347951360Y-128092560D01*
X348147768Y-127986997D01*
X348215661Y-127952852D01*
X348224711Y-127947011D01*
X348710166Y-127947011D01*
X348757681Y-127964902D01*
X348765551Y-127967195D01*
X348821690Y-127968797D01*
X348904782Y-127956762D01*
X349007542Y-127932736D01*
X349122681Y-127898366D01*
X349242915Y-127855296D01*
X349380659Y-127799209D01*
X349548417Y-127724897D01*
X349715223Y-127645082D01*
X349877593Y-127561885D01*
X349927449Y-127534623D01*
X350648321Y-127534623D01*
X350664436Y-127640163D01*
X350715679Y-127747188D01*
X350800396Y-127853087D01*
X350916935Y-127955254D01*
X351063643Y-128051077D01*
X351066952Y-128052926D01*
X351131872Y-128082438D01*
X351225024Y-128116867D01*
X351337144Y-128153561D01*
X351458967Y-128189871D01*
X351581226Y-128223148D01*
X351694659Y-128250741D01*
X351790000Y-128270000D01*
X351857983Y-128278275D01*
X352003772Y-128277657D01*
X352177546Y-128259621D01*
X352332726Y-128223673D01*
X352465473Y-128171408D01*
X352571949Y-128104420D01*
X352648314Y-128024301D01*
X352690727Y-127932646D01*
X352697478Y-127884651D01*
X352684880Y-127782316D01*
X352640970Y-127671171D01*
X352617908Y-127634279D01*
X352937664Y-127634279D01*
X352951639Y-127702284D01*
X352985100Y-127791746D01*
X353035741Y-127899093D01*
X353101261Y-128020755D01*
X353111114Y-128037461D01*
X353179353Y-128153159D01*
X353267715Y-128292736D01*
X353364042Y-128435912D01*
X353466029Y-128579119D01*
X353571372Y-128718783D01*
X353677768Y-128851335D01*
X353782912Y-128973204D01*
X353884499Y-129080817D01*
X353980227Y-129170603D01*
X353990032Y-129179080D01*
X354058737Y-129236925D01*
X354106294Y-129271901D01*
X354139446Y-129287288D01*
X354164936Y-129286368D01*
X354189505Y-129272421D01*
X354207147Y-129245289D01*
X354226751Y-129185599D01*
X354244567Y-129103558D01*
X354259018Y-129008014D01*
X354268530Y-128907814D01*
X354271526Y-128811806D01*
X354270058Y-128767592D01*
X354243723Y-128586241D01*
X354187824Y-128403641D01*
X354106618Y-128229355D01*
X354004365Y-128072951D01*
X353885319Y-127943993D01*
X353830983Y-127897747D01*
X353708749Y-127809866D01*
X353576897Y-127738967D01*
X353425635Y-127680232D01*
X353245170Y-127628837D01*
X353128248Y-127601122D01*
X353040569Y-127583792D01*
X352983921Y-127577567D01*
X352955186Y-127581940D01*
X352945480Y-127591301D01*
X352937664Y-127634279D01*
X352617908Y-127634279D01*
X352568750Y-127555643D01*
X352471219Y-127440154D01*
X352351378Y-127329129D01*
X352212226Y-127226994D01*
X352167571Y-127198704D01*
X352103532Y-127162885D01*
X352038547Y-127134775D01*
X351960153Y-127109280D01*
X351855887Y-127081305D01*
X351829323Y-127074611D01*
X351725410Y-127050790D01*
X351642329Y-127037359D01*
X351566751Y-127032651D01*
X351485344Y-127035001D01*
X351451785Y-127037350D01*
X351267188Y-127062822D01*
X351098319Y-127107203D01*
X350976109Y-127157447D01*
X350949684Y-127168311D01*
X350825785Y-127243962D01*
X350731128Y-127331973D01*
X350670218Y-127430159D01*
X350668987Y-127433175D01*
X350648321Y-127534623D01*
X349927449Y-127534623D01*
X350032046Y-127477428D01*
X350175098Y-127393833D01*
X350303266Y-127313221D01*
X350413069Y-127237714D01*
X350501024Y-127169434D01*
X350563648Y-127110501D01*
X350597459Y-127063039D01*
X350598973Y-127029168D01*
X350598300Y-127028154D01*
X350568538Y-127008849D01*
X350508704Y-126985385D01*
X350426789Y-126959773D01*
X350330796Y-126934026D01*
X350228717Y-126910156D01*
X350128551Y-126890173D01*
X350038294Y-126876091D01*
X349965944Y-126869919D01*
X349900610Y-126870112D01*
X349699648Y-126892227D01*
X349503930Y-126944313D01*
X349326330Y-127023281D01*
X349232755Y-127080541D01*
X349068747Y-127213269D01*
X348935208Y-127370459D01*
X348832183Y-127552054D01*
X348759715Y-127757999D01*
X348710166Y-127947011D01*
X348224711Y-127947011D01*
X348273918Y-127915254D01*
X348308324Y-127883091D01*
X348325814Y-127850029D01*
X348353286Y-127787047D01*
X348385778Y-127705075D01*
X348419413Y-127613522D01*
X348423233Y-127602784D01*
X348522435Y-127369450D01*
X348642480Y-127167981D01*
X348785923Y-126995759D01*
X348955324Y-126850170D01*
X349153238Y-126728594D01*
X349382224Y-126628417D01*
X349590720Y-126551645D01*
X349525452Y-126512505D01*
X349445712Y-126455072D01*
X349376441Y-126377811D01*
X349341335Y-126297257D01*
X349328208Y-126258350D01*
X349290534Y-126204296D01*
X349224230Y-126142068D01*
X349181624Y-126104896D01*
X349139598Y-126058579D01*
X349113995Y-126009333D01*
X349095282Y-125942395D01*
X349092203Y-125929809D01*
X349056167Y-125833250D01*
X349005827Y-125753355D01*
X348964592Y-125696903D01*
X348914781Y-125584667D01*
X348902292Y-125468139D01*
X348902449Y-125458182D01*
X348891080Y-125392664D01*
X348864550Y-125329572D01*
X348836260Y-125274495D01*
X348816339Y-125188292D01*
X348827470Y-125094007D01*
X348830676Y-125023817D01*
X348804545Y-124923475D01*
X348782872Y-124855157D01*
X348778799Y-124809054D01*
X349019336Y-124809054D01*
X349025319Y-124822964D01*
X349047467Y-124864589D01*
X349082220Y-124926699D01*
X349125642Y-125002149D01*
X349162262Y-125067074D01*
X349195864Y-125131713D01*
X349216119Y-125177189D01*
X349219575Y-125196372D01*
X349217476Y-125197259D01*
X349186292Y-125197745D01*
X349137254Y-125189972D01*
X349069154Y-125175030D01*
X349107512Y-125243063D01*
X349109589Y-125246670D01*
X349143362Y-125297420D01*
X349192335Y-125362865D01*
X349246660Y-125429791D01*
X349347448Y-125548484D01*
X349148614Y-125542382D01*
X349244622Y-125645301D01*
X349297239Y-125699222D01*
X349367000Y-125765646D01*
X349427917Y-125818733D01*
X349464905Y-125850180D01*
X349499724Y-125884199D01*
X349511838Y-125902753D01*
X349508610Y-125907307D01*
X349478314Y-125915677D01*
X349427625Y-125915496D01*
X349369968Y-125906418D01*
X349322476Y-125894985D01*
X349370000Y-125946670D01*
X349380809Y-125957285D01*
X349428872Y-125996259D01*
X349495700Y-126043868D01*
X349570295Y-126092125D01*
X349605408Y-126114321D01*
X349664741Y-126155363D01*
X349704657Y-126187968D01*
X349717959Y-126206561D01*
X349697761Y-126224124D01*
X349655253Y-126237895D01*
X349624841Y-126244643D01*
X349610776Y-126255653D01*
X349625658Y-126274892D01*
X349633202Y-126280541D01*
X349674623Y-126302822D01*
X349738639Y-126331639D01*
X349814884Y-126362206D01*
X349840339Y-126371924D01*
X349919488Y-126403204D01*
X349986701Y-126431240D01*
X350029604Y-126450922D01*
X350083100Y-126478648D01*
X350019019Y-126517237D01*
X349954937Y-126555825D01*
X350129814Y-126597826D01*
X350239807Y-126620425D01*
X350436798Y-126642230D01*
X350625670Y-126639948D01*
X350800282Y-126614239D01*
X350954501Y-126565764D01*
X351082188Y-126495186D01*
X351125296Y-126460061D01*
X351182025Y-126405567D01*
X351235198Y-126347302D01*
X351276074Y-126294956D01*
X351295913Y-126258223D01*
X351294834Y-126243008D01*
X351274200Y-126195121D01*
X351232177Y-126124977D01*
X351172015Y-126036813D01*
X351096962Y-125934866D01*
X351010267Y-125823372D01*
X350915180Y-125706567D01*
X350814950Y-125588686D01*
X350712828Y-125473967D01*
X350612061Y-125366646D01*
X350528315Y-125281411D01*
X350410283Y-125164317D01*
X350286964Y-125044787D01*
X350166403Y-124930516D01*
X350056647Y-124829200D01*
X349965744Y-124748534D01*
X349962230Y-124745506D01*
X349911979Y-124700719D01*
X349876862Y-124666723D01*
X349864291Y-124650668D01*
X349866544Y-124650494D01*
X349891709Y-124663337D01*
X349938663Y-124692380D01*
X349999819Y-124733010D01*
X350239801Y-124902318D01*
X350567952Y-125154988D01*
X350862301Y-125409660D01*
X351125960Y-125669076D01*
X351362035Y-125935984D01*
X351415255Y-126000378D01*
X351461327Y-126053695D01*
X351493723Y-126085366D01*
X351518467Y-126100089D01*
X351541583Y-126102564D01*
X351569093Y-126097488D01*
X351664225Y-126062713D01*
X351763667Y-126003150D01*
X351807232Y-125964329D01*
X352372230Y-125964329D01*
X352390418Y-126098931D01*
X352446431Y-126224138D01*
X352540033Y-126339164D01*
X352588006Y-126386007D01*
X352738001Y-126321947D01*
X352797901Y-126296874D01*
X353093986Y-126186940D01*
X353414080Y-126090665D01*
X353765147Y-126005906D01*
X353765744Y-126005777D01*
X353896060Y-125978920D01*
X354032349Y-125953100D01*
X354169072Y-125929134D01*
X354300690Y-125907836D01*
X354421665Y-125890024D01*
X354526457Y-125876512D01*
X354609526Y-125868116D01*
X354665337Y-125865652D01*
X354688348Y-125869937D01*
X354687011Y-125871783D01*
X354660082Y-125882497D01*
X354603982Y-125899577D01*
X354525332Y-125921088D01*
X354430755Y-125945100D01*
X354323595Y-125972204D01*
X354099360Y-126033611D01*
X353872917Y-126101338D01*
X353652392Y-126172705D01*
X353445912Y-126245028D01*
X353261604Y-126315625D01*
X353107598Y-126381812D01*
X353055085Y-126406837D01*
X352953072Y-126459364D01*
X352861810Y-126511268D01*
X352787524Y-126558703D01*
X352736436Y-126597818D01*
X352714769Y-126624766D01*
X352711958Y-126646312D01*
X352719211Y-126715683D01*
X352743197Y-126801392D01*
X352780309Y-126892131D01*
X352826943Y-126976589D01*
X352831111Y-126982948D01*
X352930925Y-127104695D01*
X353061803Y-127219119D01*
X353216127Y-127319507D01*
X353263389Y-127342637D01*
X353347121Y-127377238D01*
X353445768Y-127413284D01*
X353546593Y-127445903D01*
X353770979Y-127513174D01*
X353726664Y-127450545D01*
X353717540Y-127436885D01*
X353698340Y-127398365D01*
X353698636Y-127378101D01*
X353703257Y-127376832D01*
X353739327Y-127376664D01*
X353800529Y-127381565D01*
X353876697Y-127390811D01*
X353890211Y-127392647D01*
X353979495Y-127402882D01*
X354063328Y-127409721D01*
X354125144Y-127411763D01*
X354211818Y-127410192D01*
X354160860Y-127358688D01*
X354151706Y-127348874D01*
X354129201Y-127315195D01*
X354130479Y-127296008D01*
X354131756Y-127295408D01*
X354163536Y-127288555D01*
X354221624Y-127281275D01*
X354294452Y-127275046D01*
X354323749Y-127272876D01*
X354422753Y-127262697D01*
X354501951Y-127250088D01*
X354556540Y-127236188D01*
X354581716Y-127222136D01*
X354572677Y-127209071D01*
X354565792Y-127206035D01*
X354500877Y-127175488D01*
X354467085Y-127154487D01*
X354459134Y-127139809D01*
X354459544Y-127138985D01*
X354482338Y-127127366D01*
X354532417Y-127111093D01*
X354599911Y-127093418D01*
X354672922Y-127074320D01*
X354766693Y-127046023D01*
X354844965Y-127018595D01*
X354894060Y-126998690D01*
X354925381Y-126982576D01*
X354927736Y-126972407D01*
X354905495Y-126964261D01*
X354883958Y-126957968D01*
X354832772Y-126937147D01*
X354794794Y-126914329D01*
X354782118Y-126896187D01*
X354786351Y-126891851D01*
X354817498Y-126876380D01*
X354868134Y-126858072D01*
X354922957Y-126837554D01*
X354999630Y-126804054D01*
X355076659Y-126766517D01*
X355202671Y-126701194D01*
X355120407Y-126679474D01*
X355098464Y-126673380D01*
X355053028Y-126658412D01*
X355032146Y-126647771D01*
X355040089Y-126638542D01*
X355075230Y-126612705D01*
X355132221Y-126575244D01*
X355204423Y-126530672D01*
X355261738Y-126495475D01*
X355325260Y-126454327D01*
X355369373Y-126423109D01*
X355386899Y-126406695D01*
X355385522Y-126402220D01*
X355359934Y-126388919D01*
X355311785Y-126377906D01*
X355255298Y-126366046D01*
X355218947Y-126346432D01*
X355219640Y-126320133D01*
X355257579Y-126285879D01*
X355332962Y-126242401D01*
X355339032Y-126239249D01*
X355409449Y-126199247D01*
X355469296Y-126159596D01*
X355506183Y-126128447D01*
X355545964Y-126083236D01*
X355449928Y-126068864D01*
X355398591Y-126059349D01*
X355366246Y-126046198D01*
X355360589Y-126028428D01*
X355361710Y-126024967D01*
X355382739Y-125988699D01*
X355421707Y-125935930D01*
X355470494Y-125876603D01*
X355520980Y-125820659D01*
X355565050Y-125778041D01*
X355618110Y-125732649D01*
X355398801Y-125677969D01*
X355316764Y-125656487D01*
X355246313Y-125635929D01*
X355199201Y-125619700D01*
X355182778Y-125610108D01*
X355184151Y-125607429D01*
X355207162Y-125586305D01*
X355248477Y-125557584D01*
X355310888Y-125518239D01*
X355231243Y-125485365D01*
X355191583Y-125472444D01*
X355100902Y-125455307D01*
X354992106Y-125446075D01*
X354970016Y-125445180D01*
X354896671Y-125442120D01*
X354841130Y-125439667D01*
X354814014Y-125438286D01*
X354796780Y-125426971D01*
X354798125Y-125396995D01*
X354818503Y-125359907D01*
X354853791Y-125327214D01*
X354909943Y-125291029D01*
X354849901Y-125289555D01*
X354814364Y-125288999D01*
X354744980Y-125288588D01*
X354668893Y-125288670D01*
X354595121Y-125288962D01*
X354527417Y-125288380D01*
X354487255Y-125285622D01*
X354468077Y-125279522D01*
X354463327Y-125268912D01*
X354466445Y-125252624D01*
X354468155Y-125247672D01*
X354494212Y-125213417D01*
X354537802Y-125178690D01*
X354600594Y-125139106D01*
X354481977Y-125140112D01*
X354435457Y-125142125D01*
X354338464Y-125152907D01*
X354251114Y-125169671D01*
X354207252Y-125180273D01*
X354161360Y-125187433D01*
X354136436Y-125182185D01*
X354122450Y-125164092D01*
X354117414Y-125150961D01*
X354120982Y-125121093D01*
X354151230Y-125082911D01*
X354156031Y-125077843D01*
X354181581Y-125047252D01*
X354186892Y-125033484D01*
X354181351Y-125032870D01*
X354140245Y-125038998D01*
X354076004Y-125056438D01*
X353998902Y-125082137D01*
X353919208Y-125113044D01*
X353895756Y-125122820D01*
X353840245Y-125144322D01*
X353808555Y-125150876D01*
X353791539Y-125143024D01*
X353780049Y-125121311D01*
X353773255Y-125088410D01*
X353781002Y-125038001D01*
X353789649Y-125011494D01*
X353785872Y-124993908D01*
X353757497Y-124999445D01*
X353706434Y-125019652D01*
X353643928Y-125049277D01*
X353581110Y-125083045D01*
X353529111Y-125115676D01*
X353486851Y-125140444D01*
X353452995Y-125142115D01*
X353435743Y-125110519D01*
X353432232Y-125043523D01*
X353434112Y-124976683D01*
X353056268Y-125218598D01*
X353044046Y-125139185D01*
X353031826Y-125059774D01*
X352892180Y-125163040D01*
X352798511Y-125237521D01*
X352652999Y-125378131D01*
X352533543Y-125527787D01*
X352444250Y-125681020D01*
X352389228Y-125832366D01*
X352383580Y-125876215D01*
X352372230Y-125964329D01*
X351807232Y-125964329D01*
X351844641Y-125930993D01*
X351880628Y-125883214D01*
X351935975Y-125764615D01*
X351965306Y-125623291D01*
X351968710Y-125463504D01*
X351946271Y-125289520D01*
X351898075Y-125105603D01*
X351824209Y-124916017D01*
X351792450Y-124847893D01*
X351758579Y-124783005D01*
X351734574Y-124750048D01*
X351718266Y-124746296D01*
X351707488Y-124769014D01*
X351698394Y-124791077D01*
X351671246Y-124830554D01*
X351664823Y-124836831D01*
X351650891Y-124841641D01*
X351633751Y-124830634D01*
X351609503Y-124799200D01*
X351574247Y-124742731D01*
X351524085Y-124656617D01*
X351405764Y-124450823D01*
X351388260Y-124517943D01*
X351387668Y-124520198D01*
X351368066Y-124576642D01*
X351345136Y-124601211D01*
X351315543Y-124593036D01*
X351275953Y-124551250D01*
X351223031Y-124474986D01*
X351206830Y-124450262D01*
X351154282Y-124375908D01*
X351117459Y-124334514D01*
X351097025Y-124326704D01*
X351093642Y-124353104D01*
X351088625Y-124380713D01*
X351067736Y-124420479D01*
X351040287Y-124453353D01*
X351016527Y-124464526D01*
X351014038Y-124463420D01*
X350991107Y-124441815D01*
X350959681Y-124402624D01*
X350945228Y-124383655D01*
X350903516Y-124333742D01*
X350854626Y-124279388D01*
X350806646Y-124229175D01*
X350767662Y-124191689D01*
X350745758Y-124175513D01*
X350745232Y-124175425D01*
X350738105Y-124191226D01*
X350739088Y-124231290D01*
X350738255Y-124279886D01*
X350725651Y-124319550D01*
X350718533Y-124328551D01*
X350702688Y-124334849D01*
X350678275Y-124320564D01*
X350636113Y-124281826D01*
X350599267Y-124250580D01*
X350540611Y-124206954D01*
X350472796Y-124160196D01*
X350405887Y-124117007D01*
X350349948Y-124084083D01*
X350315044Y-124068124D01*
X350313694Y-124070410D01*
X350324625Y-124094311D01*
X350350522Y-124136244D01*
X350372237Y-124174556D01*
X350388200Y-124222284D01*
X350385859Y-124254250D01*
X350364248Y-124261621D01*
X350362562Y-124261101D01*
X350333382Y-124247736D01*
X350281482Y-124221139D01*
X350216872Y-124186416D01*
X350213695Y-124184674D01*
X350143103Y-124146324D01*
X350080115Y-124112673D01*
X350038026Y-124090825D01*
X349987809Y-124065768D01*
X350015311Y-124132237D01*
X350028378Y-124181619D01*
X350024571Y-124223476D01*
X350004927Y-124243908D01*
X349972890Y-124234611D01*
X349953766Y-124221845D01*
X349887545Y-124185538D01*
X349806152Y-124147953D01*
X349721909Y-124114172D01*
X349647139Y-124089280D01*
X349594163Y-124078361D01*
X349519892Y-124073981D01*
X349556660Y-124138253D01*
X349562714Y-124149097D01*
X349583443Y-124191727D01*
X349590143Y-124215707D01*
X349572628Y-124216613D01*
X349524541Y-124209156D01*
X349453470Y-124194503D01*
X349366977Y-124174067D01*
X349147097Y-124119244D01*
X349172866Y-124191113D01*
X349191229Y-124249459D01*
X349211670Y-124334408D01*
X349224818Y-124413613D01*
X349227646Y-124471581D01*
X349226543Y-124480897D01*
X349216630Y-124498314D01*
X349189219Y-124500286D01*
X349134437Y-124488615D01*
X349104390Y-124482100D01*
X349059684Y-124477170D01*
X349040337Y-124482402D01*
X349043739Y-124495179D01*
X349062912Y-124536624D01*
X349095320Y-124598233D01*
X349136950Y-124672126D01*
X349168159Y-124727061D01*
X349201996Y-124794407D01*
X349212533Y-124834773D01*
X349198864Y-124851539D01*
X349160085Y-124848088D01*
X349095291Y-124827802D01*
X349078322Y-124822024D01*
X349036831Y-124810190D01*
X349019336Y-124809054D01*
X348778799Y-124809054D01*
X348777128Y-124790133D01*
X348789130Y-124714638D01*
X348800813Y-124628842D01*
X348793146Y-124504334D01*
X348782799Y-124443740D01*
X348782786Y-124403021D01*
X348796676Y-124367856D01*
X348827603Y-124321627D01*
X348850708Y-124288383D01*
X348873220Y-124250542D01*
X348887138Y-124212591D01*
X348896753Y-124161621D01*
X348906358Y-124084720D01*
X348914523Y-124031921D01*
X348932336Y-123979386D01*
X348962323Y-123941653D01*
X349032099Y-123896032D01*
X349128304Y-123870762D01*
X349228707Y-123877891D01*
X349257499Y-123883974D01*
X349322079Y-123884035D01*
X349389054Y-123858483D01*
X349480808Y-123825744D01*
X349591813Y-123818598D01*
X349722787Y-123840023D01*
X349777912Y-123851336D01*
X349833872Y-123852155D01*
X349879836Y-123835431D01*
X349898569Y-123826685D01*
X349959844Y-123816171D01*
X350044983Y-123824373D01*
X350088347Y-123829900D01*
X350171910Y-123832816D01*
X350242244Y-123826579D01*
X350299988Y-123819317D01*
X350409276Y-123831271D01*
X350519117Y-123879574D01*
X350546371Y-123894491D01*
X350595477Y-123908881D01*
X350650705Y-123902313D01*
X350652663Y-123901855D01*
X350736962Y-123895776D01*
X350821658Y-123919349D01*
X350915678Y-123975025D01*
X350931219Y-123985780D01*
X351012066Y-124028004D01*
X351105220Y-124050077D01*
X351163370Y-124060912D01*
X351223625Y-124084168D01*
X351279389Y-124124920D01*
X351340084Y-124167147D01*
X351445562Y-124209038D01*
X351524183Y-124235956D01*
X351619177Y-124298868D01*
X351691595Y-124392129D01*
X351697039Y-124401343D01*
X351740714Y-124452377D01*
X351799350Y-124478476D01*
X351868811Y-124513038D01*
X351941372Y-124581676D01*
X352012511Y-124678539D01*
X352079557Y-124798225D01*
X352139842Y-124935332D01*
X352190694Y-125084457D01*
X352229443Y-125240198D01*
X352253418Y-125397152D01*
X352260705Y-125469447D01*
X352331531Y-125365321D01*
X352403238Y-125269238D01*
X352505771Y-125154581D01*
X352617235Y-125050177D01*
X352732427Y-124959664D01*
X352846143Y-124886685D01*
X352953177Y-124834878D01*
X353048326Y-124807884D01*
X353126386Y-124809343D01*
X353138341Y-124812044D01*
X353200459Y-124812540D01*
X353263440Y-124784034D01*
X353335268Y-124747466D01*
X353446159Y-124724272D01*
X353566630Y-124737879D01*
X353644009Y-124749699D01*
X353752843Y-124741621D01*
X353803976Y-124732820D01*
X353867109Y-124735630D01*
X353941762Y-124757306D01*
X353960131Y-124763671D01*
X354050444Y-124783352D01*
X354144352Y-124780024D01*
X354147125Y-124779663D01*
X354255655Y-124775159D01*
X354341085Y-124794669D01*
X354412446Y-124840221D01*
X354434523Y-124858067D01*
X354479437Y-124878952D01*
X354539307Y-124881920D01*
X354602488Y-124882608D01*
X354712234Y-124907290D01*
X354808651Y-124965112D01*
X354838517Y-124986243D01*
X354909338Y-125025120D01*
X354983856Y-125055772D01*
X355017059Y-125067585D01*
X355083999Y-125101610D01*
X355124482Y-125143068D01*
X355147043Y-125170793D01*
X355190869Y-125198590D01*
X355260992Y-125220853D01*
X355379226Y-125260081D01*
X355475793Y-125317313D01*
X355546994Y-125393830D01*
X355564918Y-125417917D01*
X355613443Y-125461305D01*
X355679461Y-125486245D01*
X355759986Y-125519859D01*
X355836193Y-125584281D01*
X355884729Y-125667603D01*
X355892615Y-125700475D01*
X355889260Y-125751370D01*
X355866977Y-125820197D01*
X355846301Y-125873785D01*
X355827426Y-125928797D01*
X355819148Y-125970284D01*
X355819193Y-126011664D01*
X355825293Y-126066348D01*
X355830849Y-126120404D01*
X355827459Y-126153421D01*
X355826962Y-126158262D01*
X355808337Y-126194028D01*
X355769942Y-126243844D01*
X355722074Y-126315979D01*
X355674755Y-126431417D01*
X355652729Y-126497471D01*
X355618788Y-126553090D01*
X355563102Y-126608572D01*
X355499679Y-126675483D01*
X355462800Y-126748381D01*
X355444182Y-126805383D01*
X355396552Y-126879154D01*
X355319470Y-126938964D01*
X355309837Y-126945167D01*
X355257536Y-126991670D01*
X355221092Y-127043592D01*
X355190108Y-127097796D01*
X355107395Y-127183880D01*
X354995775Y-127246817D01*
X354985570Y-127251175D01*
X354903124Y-127301692D01*
X354828042Y-127371732D01*
X354794597Y-127408274D01*
X354749832Y-127444890D01*
X354696898Y-127468443D01*
X354620447Y-127487496D01*
X354553692Y-127504279D01*
X354487969Y-127532129D01*
X354444192Y-127569542D01*
X354389461Y-127616050D01*
X354296460Y-127655204D01*
X354180575Y-127673157D01*
X354104571Y-127677075D01*
X354252619Y-127842743D01*
X354407559Y-128038316D01*
X354525634Y-128238984D01*
X354607105Y-128447390D01*
X354653018Y-128667053D01*
X354664418Y-128901492D01*
X354642352Y-129154227D01*
X354627460Y-129253560D01*
X354623157Y-129284434D01*
X354615182Y-129341666D01*
X354610543Y-129407757D01*
G37*
%TO.C,G\u002A\u002A\u002A*%
G36*
X124637534Y-87741060D02*
G01*
X124759448Y-88073101D01*
X124794494Y-88168043D01*
X125343869Y-89656345D01*
X125856930Y-91024159D01*
X126062611Y-91556888D01*
X126311152Y-92200626D01*
X126719056Y-93209824D01*
X127093167Y-94075834D01*
X127446005Y-94822737D01*
X127790093Y-95474613D01*
X128137954Y-96055542D01*
X128502110Y-96589605D01*
X128832455Y-97019401D01*
X128895082Y-97100882D01*
X129329394Y-97613453D01*
X129817567Y-98151399D01*
X130372124Y-98738799D01*
X132272523Y-100729838D01*
X134385269Y-105085985D01*
X134852593Y-106049534D01*
X135313554Y-107004634D01*
X136189381Y-108851389D01*
X136959452Y-110524546D01*
X137639683Y-112059669D01*
X138245988Y-113492321D01*
X138794280Y-114858065D01*
X140155897Y-118346900D01*
X141438213Y-119969700D01*
X143973565Y-123178246D01*
X144529735Y-123884470D01*
X145315909Y-124891834D01*
X146012723Y-125795984D01*
X146607783Y-126580353D01*
X147088689Y-127228371D01*
X147443047Y-127723471D01*
X147468208Y-127761505D01*
X147658457Y-128049084D01*
X147722525Y-128188642D01*
X147715913Y-128202615D01*
X147600656Y-128281495D01*
X147337289Y-128332342D01*
X146888483Y-128359595D01*
X146216909Y-128367692D01*
X145716007Y-128370982D01*
X145231005Y-128381999D01*
X144901502Y-128398931D01*
X144780000Y-128419871D01*
X144780030Y-128420380D01*
X144843579Y-128551235D01*
X145011839Y-128860923D01*
X145259571Y-129303773D01*
X145561538Y-129834117D01*
X145653550Y-129995308D01*
X145857078Y-130366969D01*
X145899059Y-130443630D01*
X145939196Y-130516923D01*
X146010002Y-130646221D01*
X146230592Y-131110352D01*
X146323384Y-131411906D01*
X146296441Y-131575088D01*
X146157827Y-131624103D01*
X146145464Y-131622826D01*
X145938991Y-131579136D01*
X145509980Y-131477797D01*
X144883222Y-131324980D01*
X144083512Y-131126855D01*
X143135643Y-130889593D01*
X142064409Y-130619364D01*
X141660953Y-130516923D01*
X143998461Y-130516923D01*
X144063590Y-130582051D01*
X144128718Y-130516923D01*
X144063590Y-130451795D01*
X143998461Y-130516923D01*
X141660953Y-130516923D01*
X140894603Y-130322340D01*
X139651018Y-130004690D01*
X133329460Y-128385277D01*
X131076525Y-127005187D01*
X128823590Y-125625098D01*
X128344873Y-127159215D01*
X128179912Y-127688630D01*
X127936581Y-128471671D01*
X127703891Y-129222567D01*
X127515419Y-129833077D01*
X127417532Y-130140425D01*
X127238247Y-130621986D01*
X127087560Y-130889892D01*
X126951275Y-130972821D01*
X126918133Y-130960034D01*
X126738045Y-130769668D01*
X126438607Y-130354008D01*
X126022129Y-129716545D01*
X125490918Y-128860773D01*
X124847284Y-127790183D01*
X122956698Y-124607546D01*
X121931007Y-125053556D01*
X120905317Y-125499566D01*
X120240351Y-125119111D01*
X119943458Y-124955260D01*
X119621632Y-124793734D01*
X119445128Y-124726382D01*
X119402095Y-124811060D01*
X119338149Y-125107946D01*
X119265261Y-125568884D01*
X119189056Y-126142062D01*
X119115159Y-126775670D01*
X119049194Y-127417898D01*
X118996787Y-128016933D01*
X118963563Y-128520967D01*
X118955146Y-128878188D01*
X118977162Y-129036785D01*
X119000496Y-129054559D01*
X119206882Y-129178576D01*
X119585168Y-129391133D01*
X120091635Y-129667930D01*
X120682564Y-129984669D01*
X121006933Y-130161114D01*
X121749738Y-130597473D01*
X122409910Y-131029182D01*
X122957655Y-131433317D01*
X123158109Y-131608124D01*
X123363178Y-131786956D01*
X123596682Y-132067174D01*
X123628373Y-132251050D01*
X123602833Y-132291503D01*
X123542653Y-132355359D01*
X123439524Y-132386496D01*
X123250774Y-132382132D01*
X122933732Y-132339485D01*
X122445727Y-132255773D01*
X121744087Y-132128215D01*
X121737258Y-132126965D01*
X120736287Y-131911047D01*
X119872917Y-131645048D01*
X119025277Y-131291459D01*
X117823887Y-130732130D01*
X116159636Y-131359782D01*
X115995285Y-131421339D01*
X115185525Y-131705940D01*
X114502138Y-131903650D01*
X113853760Y-132037909D01*
X113149025Y-132132156D01*
X112814823Y-132166370D01*
X112183434Y-132211387D01*
X111772900Y-132193728D01*
X111581388Y-132098114D01*
X111607067Y-131909264D01*
X111848104Y-131611897D01*
X111892955Y-131570341D01*
X112775645Y-131570341D01*
X112907399Y-131566135D01*
X113228096Y-131535106D01*
X113668190Y-131483964D01*
X114090579Y-131404190D01*
X114707637Y-131242825D01*
X115403130Y-131027955D01*
X116092294Y-130784055D01*
X116166032Y-130756060D01*
X116758563Y-130535698D01*
X117261944Y-130356235D01*
X117624950Y-130235490D01*
X117796357Y-130191282D01*
X117860456Y-130205240D01*
X118133002Y-130304543D01*
X118549001Y-130478361D01*
X119047636Y-130701877D01*
X119175247Y-130759296D01*
X119842693Y-131024922D01*
X120544434Y-131259643D01*
X121148033Y-131418287D01*
X121259828Y-131441318D01*
X121720784Y-131534246D01*
X122060456Y-131599484D01*
X122212012Y-131624103D01*
X122240916Y-131608124D01*
X122131201Y-131496070D01*
X121827075Y-131289894D01*
X121353455Y-131004945D01*
X120735263Y-130656570D01*
X119997417Y-130260118D01*
X119641496Y-130075590D01*
X119137762Y-129814949D01*
X118775301Y-129599109D01*
X118535650Y-129384495D01*
X118400347Y-129127529D01*
X118350926Y-128784635D01*
X118368926Y-128312235D01*
X118435883Y-127666754D01*
X118533333Y-126804615D01*
X118566551Y-126500731D01*
X118653022Y-125710767D01*
X118705219Y-125125953D01*
X118712110Y-124704943D01*
X118662659Y-124406392D01*
X118545835Y-124188956D01*
X118350603Y-124011289D01*
X118065931Y-123832047D01*
X117680785Y-123609885D01*
X117422858Y-123460955D01*
X117007313Y-123232051D01*
X116711776Y-123084135D01*
X116587826Y-123043916D01*
X116585611Y-123051122D01*
X116587792Y-123232995D01*
X116611780Y-123627020D01*
X116654603Y-124193410D01*
X116713293Y-124892375D01*
X116784880Y-125684126D01*
X116797876Y-125824522D01*
X116866052Y-126609300D01*
X116918675Y-127299231D01*
X116953129Y-127853225D01*
X116966797Y-128230190D01*
X116957065Y-128389036D01*
X116915454Y-128431823D01*
X116694247Y-128606064D01*
X116333722Y-128865284D01*
X115886662Y-129170928D01*
X115846032Y-129198230D01*
X115439961Y-129481688D01*
X114958642Y-129831820D01*
X114442881Y-130217154D01*
X113933484Y-130606219D01*
X113471256Y-130967542D01*
X113097003Y-131269651D01*
X112851531Y-131481075D01*
X112775645Y-131570341D01*
X111892955Y-131570341D01*
X112302665Y-131190735D01*
X112968918Y-130630496D01*
X112977119Y-130623750D01*
X113600348Y-130124952D01*
X114260188Y-129619551D01*
X114878458Y-129166209D01*
X115376979Y-128823590D01*
X115552973Y-128711563D01*
X115844322Y-128528114D01*
X116063048Y-128367750D01*
X116216127Y-128195090D01*
X116310534Y-127974752D01*
X116353245Y-127671355D01*
X116351234Y-127249515D01*
X116311478Y-126673852D01*
X116240950Y-125908983D01*
X116146626Y-124919527D01*
X115928205Y-122578542D01*
X114755897Y-121896346D01*
X114658797Y-121839740D01*
X114155039Y-121536931D01*
X113819810Y-121303026D01*
X113601418Y-121089055D01*
X113448169Y-120846044D01*
X113308370Y-120525024D01*
X113244998Y-120364700D01*
X113078324Y-119938793D01*
X112839859Y-119326643D01*
X112542989Y-118562701D01*
X112201096Y-117681421D01*
X111827564Y-116717252D01*
X111678355Y-116331609D01*
X112358221Y-116331609D01*
X112387916Y-116503439D01*
X112501532Y-116860982D01*
X112680309Y-117357768D01*
X112905487Y-117947328D01*
X113158308Y-118583195D01*
X113420011Y-119218898D01*
X113671837Y-119807970D01*
X113895025Y-120303941D01*
X114070817Y-120660342D01*
X114180453Y-120830705D01*
X114196486Y-120843639D01*
X114407356Y-120985272D01*
X114806727Y-121235522D01*
X115363661Y-121575621D01*
X116047216Y-121986806D01*
X116826453Y-122450311D01*
X117670432Y-122947371D01*
X117874593Y-123066968D01*
X118689752Y-123543207D01*
X119422705Y-123969425D01*
X120044984Y-124329208D01*
X120528122Y-124606142D01*
X120843651Y-124783815D01*
X120963105Y-124845813D01*
X120965578Y-124845326D01*
X121113786Y-124788523D01*
X121431691Y-124656602D01*
X121854872Y-124476261D01*
X122549922Y-124176954D01*
X123370792Y-124176954D01*
X125034957Y-126988699D01*
X125404786Y-127610997D01*
X125832974Y-128324652D01*
X126205113Y-128937307D01*
X126502245Y-129418045D01*
X126705413Y-129735950D01*
X126795659Y-129860106D01*
X126801435Y-129859696D01*
X126874910Y-129723631D01*
X127003658Y-129392208D01*
X127172724Y-128912467D01*
X127367152Y-128331447D01*
X127571986Y-127696187D01*
X127772270Y-127053726D01*
X127953047Y-126451105D01*
X128099363Y-125935361D01*
X128196261Y-125553535D01*
X128228785Y-125352665D01*
X128162506Y-125265501D01*
X127927258Y-125035720D01*
X127553714Y-124696444D01*
X127075288Y-124275802D01*
X126525395Y-123801921D01*
X125937449Y-123302928D01*
X125344866Y-122806952D01*
X124781060Y-122342121D01*
X124279444Y-121936563D01*
X123873435Y-121618405D01*
X123596446Y-121415776D01*
X123481892Y-121356803D01*
X123466318Y-121446335D01*
X123444430Y-121750611D01*
X123423095Y-122216345D01*
X123405288Y-122787964D01*
X123370792Y-124176954D01*
X122549922Y-124176954D01*
X122701538Y-124111664D01*
X122785093Y-123341473D01*
X122819913Y-122957156D01*
X122861018Y-122307567D01*
X122882786Y-121695650D01*
X122896923Y-120820019D01*
X121211132Y-119410708D01*
X119525341Y-118001398D01*
X115971176Y-117135612D01*
X115828965Y-117101025D01*
X114917677Y-116882077D01*
X114096291Y-116689235D01*
X113397397Y-116529814D01*
X112853588Y-116411132D01*
X112497454Y-116340506D01*
X112361586Y-116325252D01*
X112358221Y-116331609D01*
X111678355Y-116331609D01*
X111435776Y-115704646D01*
X111382835Y-115567726D01*
X112146931Y-115567726D01*
X112147276Y-115568046D01*
X112282097Y-115608147D01*
X112635864Y-115702005D01*
X113175732Y-115841218D01*
X113868857Y-116017383D01*
X114682394Y-116222097D01*
X115583499Y-116446956D01*
X115608336Y-116453129D01*
X116510482Y-116676705D01*
X117327092Y-116877895D01*
X118024721Y-117048554D01*
X118569928Y-117180537D01*
X118929269Y-117265700D01*
X119069299Y-117295898D01*
X119052420Y-117242600D01*
X118935718Y-116984939D01*
X118720136Y-116534817D01*
X118417258Y-115915717D01*
X118038671Y-115151120D01*
X117595961Y-114264511D01*
X117100714Y-113279370D01*
X116564515Y-112219182D01*
X116191514Y-111486052D01*
X115674882Y-110478399D01*
X115201729Y-109564608D01*
X115048629Y-109272373D01*
X115839557Y-109272373D01*
X115861632Y-109405521D01*
X116005309Y-109761253D01*
X116268557Y-110335221D01*
X116649345Y-111123079D01*
X117145641Y-112120480D01*
X117755415Y-113323077D01*
X119784370Y-117295898D01*
X119950678Y-117621539D01*
X123820191Y-120820019D01*
X124363026Y-121268718D01*
X124803824Y-121632739D01*
X125865727Y-122505566D01*
X126769593Y-123240178D01*
X127544941Y-123858797D01*
X128221286Y-124383645D01*
X128828144Y-124836943D01*
X129395032Y-125240911D01*
X129560037Y-125352665D01*
X129951466Y-125617771D01*
X130526962Y-125989745D01*
X131151036Y-126379053D01*
X133526699Y-127842208D01*
X138617009Y-129147002D01*
X139028309Y-129252341D01*
X140113493Y-129529390D01*
X141110381Y-129782644D01*
X141991644Y-130005239D01*
X142729949Y-130190314D01*
X143297967Y-130331006D01*
X143668365Y-130420454D01*
X143813813Y-130451795D01*
X143818657Y-130451741D01*
X143849664Y-130443630D01*
X143839843Y-130415227D01*
X143773883Y-130357223D01*
X143636471Y-130260306D01*
X143412292Y-130115165D01*
X143086035Y-129912491D01*
X142642385Y-129642972D01*
X142066031Y-129297298D01*
X141341659Y-128866157D01*
X140453955Y-128340240D01*
X139387608Y-127710235D01*
X138127303Y-126966831D01*
X136657728Y-126100719D01*
X130391287Y-122408380D01*
X131722041Y-122408380D01*
X131766906Y-122453100D01*
X132009537Y-122618865D01*
X132442616Y-122895345D01*
X133046735Y-123270685D01*
X133802483Y-123733027D01*
X134690454Y-124270514D01*
X135691238Y-124871290D01*
X136785427Y-125523498D01*
X137953612Y-126215281D01*
X138779911Y-126703066D01*
X139930752Y-127382461D01*
X141009371Y-128019251D01*
X141994035Y-128600604D01*
X142863014Y-129113687D01*
X143594575Y-129545670D01*
X144166986Y-129883721D01*
X144558517Y-130115009D01*
X144747436Y-130226702D01*
X144833018Y-130275124D01*
X145073925Y-130379775D01*
X145170674Y-130366969D01*
X145152575Y-130310205D01*
X145030380Y-130061625D01*
X144818300Y-129675349D01*
X144546229Y-129206911D01*
X144439132Y-129037455D01*
X144142567Y-128612264D01*
X143745209Y-128077359D01*
X143272982Y-127464388D01*
X142751812Y-126805003D01*
X142207624Y-126130850D01*
X141666343Y-125473581D01*
X141153894Y-124864844D01*
X140696204Y-124336288D01*
X140319198Y-123919564D01*
X140048800Y-123646320D01*
X139910936Y-123548205D01*
X139874573Y-123544896D01*
X139618855Y-123511439D01*
X139151622Y-123445760D01*
X138505415Y-123352576D01*
X137712773Y-123236600D01*
X137617853Y-123222564D01*
X140527648Y-123222564D01*
X142472144Y-125534615D01*
X144416640Y-127846667D01*
X145656320Y-127846667D01*
X145727789Y-127846600D01*
X146288870Y-127837922D01*
X146627196Y-127811210D01*
X146776739Y-127761505D01*
X146771471Y-127683846D01*
X146671785Y-127556265D01*
X146427972Y-127245785D01*
X146060076Y-126777921D01*
X145587067Y-126176784D01*
X145027914Y-125466481D01*
X144401588Y-124671121D01*
X143727060Y-123814812D01*
X143466163Y-123483952D01*
X142732819Y-122558516D01*
X142139986Y-121819496D01*
X141674082Y-121251320D01*
X141321527Y-120838418D01*
X141068741Y-120565220D01*
X140902143Y-120416156D01*
X140808152Y-120375654D01*
X140773188Y-120428146D01*
X140762989Y-120530108D01*
X140729043Y-120896069D01*
X140683538Y-121406869D01*
X140633422Y-121985128D01*
X140554542Y-122907936D01*
X140527648Y-123222564D01*
X137617853Y-123222564D01*
X136806238Y-123102549D01*
X135818350Y-122955139D01*
X135399014Y-122892672D01*
X134440934Y-122752879D01*
X133577540Y-122630923D01*
X132841393Y-122531149D01*
X132265053Y-122457903D01*
X131881082Y-122415531D01*
X131722041Y-122408380D01*
X130391287Y-122408380D01*
X130225627Y-122310769D01*
X131363590Y-122310769D01*
X131428718Y-122375898D01*
X131493846Y-122310769D01*
X131428718Y-122245641D01*
X131363590Y-122310769D01*
X130225627Y-122310769D01*
X129642635Y-121967256D01*
X122909785Y-115756448D01*
X122121816Y-115029739D01*
X121029095Y-114022526D01*
X119998000Y-113072754D01*
X119044752Y-112195333D01*
X118185574Y-111405173D01*
X117436689Y-110717183D01*
X116814321Y-110146274D01*
X116334692Y-109707355D01*
X116014025Y-109415337D01*
X115868543Y-109285128D01*
X115839557Y-109272373D01*
X115048629Y-109272373D01*
X114784302Y-108767830D01*
X114434847Y-108111219D01*
X114165614Y-107617929D01*
X113988850Y-107311113D01*
X113916801Y-107213922D01*
X113884616Y-107319495D01*
X113805554Y-107647166D01*
X113688899Y-108160451D01*
X113542422Y-108822674D01*
X113373894Y-109597158D01*
X113191085Y-110447227D01*
X113001765Y-111336205D01*
X112813704Y-112227417D01*
X112634674Y-113084186D01*
X112472443Y-113869836D01*
X112334784Y-114547691D01*
X112229465Y-115081075D01*
X112164257Y-115433312D01*
X112146931Y-115567726D01*
X111382835Y-115567726D01*
X109838401Y-111573395D01*
X108595420Y-110184253D01*
X107352440Y-108795111D01*
X106487168Y-105248155D01*
X105621896Y-101701198D01*
X105625175Y-101665649D01*
X106203778Y-101665649D01*
X107028043Y-105060471D01*
X107852308Y-108455294D01*
X109092865Y-109853057D01*
X109229259Y-110006930D01*
X109688421Y-110534485D01*
X110024178Y-110953801D01*
X110278158Y-111332727D01*
X110491988Y-111739114D01*
X110707297Y-112240810D01*
X110965711Y-112905667D01*
X111032938Y-113080432D01*
X111263443Y-113661328D01*
X111460715Y-114131201D01*
X111605615Y-114445650D01*
X111679000Y-114560271D01*
X111703274Y-114505450D01*
X111778194Y-114229620D01*
X111893270Y-113747973D01*
X112041813Y-113090323D01*
X112217135Y-112286485D01*
X112412547Y-111366273D01*
X112621361Y-110359502D01*
X113411617Y-106505727D01*
X114333420Y-106505727D01*
X114369209Y-106643033D01*
X114479313Y-106834409D01*
X114674516Y-107090855D01*
X114965603Y-107423367D01*
X115363357Y-107842944D01*
X115878562Y-108360583D01*
X116522003Y-108987283D01*
X117304463Y-109734040D01*
X118236726Y-110611853D01*
X119329577Y-111631720D01*
X120593798Y-112804638D01*
X122040176Y-114141604D01*
X122146595Y-114239845D01*
X123317095Y-115319955D01*
X124437482Y-116353055D01*
X125492063Y-117324723D01*
X126465150Y-118220538D01*
X127341051Y-119026076D01*
X128104077Y-119726916D01*
X128738538Y-120308635D01*
X129228743Y-120756813D01*
X129559002Y-121057026D01*
X129713625Y-121194853D01*
X129791279Y-121254540D01*
X129940676Y-121340235D01*
X130148133Y-121420842D01*
X130442205Y-121502300D01*
X130851448Y-121590547D01*
X131404416Y-121691522D01*
X132129664Y-121811162D01*
X133055748Y-121955407D01*
X134211223Y-122130194D01*
X134710260Y-122205094D01*
X135414047Y-122310769D01*
X135716267Y-122356148D01*
X136643870Y-122495514D01*
X137457223Y-122617801D01*
X138120482Y-122717619D01*
X138597801Y-122789576D01*
X138853333Y-122828284D01*
X139374359Y-122907936D01*
X138332308Y-121850690D01*
X138229377Y-121746862D01*
X137890066Y-121407397D01*
X137389352Y-120908649D01*
X136743291Y-120266536D01*
X135967940Y-119496974D01*
X135079353Y-118615880D01*
X134093587Y-117639172D01*
X133026697Y-116582766D01*
X131894739Y-115462579D01*
X130713769Y-114294530D01*
X129499843Y-113094534D01*
X121770374Y-105455852D01*
X122724458Y-105455852D01*
X122727910Y-105462223D01*
X122852783Y-105599079D01*
X123147002Y-105903685D01*
X123597820Y-106363236D01*
X124192487Y-106964930D01*
X124918257Y-107695961D01*
X125762381Y-108543527D01*
X126712110Y-109494822D01*
X127754698Y-110537043D01*
X128877395Y-111657385D01*
X130067454Y-112843046D01*
X131312127Y-114081220D01*
X131772165Y-114538395D01*
X133248500Y-116003608D01*
X134552534Y-117294371D01*
X135692849Y-118418914D01*
X136678022Y-119385465D01*
X137516635Y-120202252D01*
X138217267Y-120877506D01*
X138788497Y-121419454D01*
X139238905Y-121836326D01*
X139577071Y-122136351D01*
X139811575Y-122327757D01*
X139950996Y-122418774D01*
X140003915Y-122417630D01*
X140028818Y-122276022D01*
X140070660Y-121903817D01*
X140115768Y-121385608D01*
X140157909Y-120787364D01*
X140175347Y-120502978D01*
X140200977Y-119969700D01*
X140196758Y-119610132D01*
X140155005Y-119363282D01*
X140068035Y-119168159D01*
X139928163Y-118963774D01*
X139919214Y-118951044D01*
X139781540Y-118696603D01*
X139568406Y-118238059D01*
X139295174Y-117611347D01*
X138977207Y-116852400D01*
X138629865Y-115997153D01*
X138268511Y-115081539D01*
X138027266Y-114471084D01*
X137547523Y-113298374D01*
X137024329Y-112062042D01*
X136490996Y-110839130D01*
X135980838Y-109706680D01*
X135527167Y-108741734D01*
X134128511Y-105853725D01*
X133560153Y-105782902D01*
X133529689Y-105779511D01*
X133227847Y-105757886D01*
X132722716Y-105731937D01*
X132047412Y-105702663D01*
X131235051Y-105671063D01*
X130318750Y-105638138D01*
X129331623Y-105604886D01*
X128306786Y-105572307D01*
X127277356Y-105541401D01*
X126276448Y-105513167D01*
X125337179Y-105488604D01*
X124492663Y-105468713D01*
X123776017Y-105454493D01*
X123220358Y-105446943D01*
X122858799Y-105447062D01*
X122724458Y-105455852D01*
X121770374Y-105455852D01*
X121709429Y-105395623D01*
X118126350Y-105840068D01*
X118038042Y-105851041D01*
X117103611Y-105969564D01*
X116255364Y-106081394D01*
X115692408Y-106158974D01*
X115527795Y-106181659D01*
X114955399Y-106265486D01*
X114572669Y-106328005D01*
X114414100Y-106364344D01*
X114361163Y-106411496D01*
X114333420Y-106505727D01*
X113411617Y-106505727D01*
X113482722Y-106158974D01*
X111578982Y-102348352D01*
X111298684Y-102094869D01*
X112106218Y-102094869D01*
X113038206Y-103964101D01*
X113248305Y-104381619D01*
X113544326Y-104955701D01*
X113788437Y-105411892D01*
X113959756Y-105711497D01*
X114037405Y-105815821D01*
X114124485Y-105802471D01*
X114439784Y-105758565D01*
X114950338Y-105689152D01*
X115620384Y-105599055D01*
X116414159Y-105493101D01*
X117295897Y-105376117D01*
X117941775Y-105290526D01*
X118793376Y-105177214D01*
X119544715Y-105076716D01*
X120156287Y-104994338D01*
X120588588Y-104935387D01*
X120802114Y-104905168D01*
X120822891Y-104900623D01*
X120864427Y-104854585D01*
X120818243Y-104753910D01*
X120667587Y-104583439D01*
X120395701Y-104328014D01*
X119985831Y-103972475D01*
X119421222Y-103501663D01*
X118685119Y-102900421D01*
X117760766Y-102153590D01*
X114470007Y-99503536D01*
X115538177Y-99503536D01*
X115586007Y-99578548D01*
X115713155Y-99708730D01*
X115937270Y-99909549D01*
X116276001Y-100196475D01*
X116746996Y-100584975D01*
X117367905Y-101090517D01*
X118156375Y-101728570D01*
X119130057Y-102514601D01*
X121941141Y-104782974D01*
X123940023Y-104854585D01*
X127510857Y-104982512D01*
X128563572Y-105020291D01*
X129822290Y-105065425D01*
X130857867Y-105102016D01*
X131691973Y-105130303D01*
X132346276Y-105150520D01*
X132842448Y-105162905D01*
X133202157Y-105167694D01*
X133447073Y-105165125D01*
X133598867Y-105155432D01*
X133679207Y-105138854D01*
X133709763Y-105115626D01*
X133712206Y-105085985D01*
X133708205Y-105050167D01*
X133675702Y-104951797D01*
X133543273Y-104648183D01*
X133326712Y-104184599D01*
X133045317Y-103602153D01*
X132718388Y-102941948D01*
X132402155Y-102314771D01*
X132093096Y-101727887D01*
X131820567Y-101264853D01*
X131542023Y-100865604D01*
X131214917Y-100470074D01*
X130796702Y-100018198D01*
X130244830Y-99449912D01*
X128761089Y-97934211D01*
X127083388Y-97480536D01*
X125405686Y-97026861D01*
X121617988Y-98076529D01*
X120993744Y-98249925D01*
X120030084Y-98520659D01*
X119272160Y-98740027D01*
X118690297Y-98918422D01*
X118254817Y-99066237D01*
X117936043Y-99193863D01*
X117704299Y-99311694D01*
X117529907Y-99430123D01*
X117383192Y-99559542D01*
X116936093Y-99992887D01*
X116404774Y-99721828D01*
X116258565Y-99651525D01*
X115894921Y-99509910D01*
X115640317Y-99456063D01*
X115609876Y-99457149D01*
X115552016Y-99468226D01*
X115538177Y-99503536D01*
X114470007Y-99503536D01*
X114404483Y-99450769D01*
X112769235Y-99450769D01*
X112437726Y-100772819D01*
X112106218Y-102094869D01*
X111298684Y-102094869D01*
X109941539Y-100867557D01*
X108304096Y-99386763D01*
X107647582Y-97302099D01*
X107485328Y-96787047D01*
X107282456Y-96143555D01*
X107116070Y-95616371D01*
X107000079Y-95249559D01*
X106948391Y-95087180D01*
X106940516Y-95065355D01*
X106898070Y-95027482D01*
X106852372Y-95134057D01*
X106800808Y-95404308D01*
X106740764Y-95857466D01*
X106669626Y-96512759D01*
X106584782Y-97389418D01*
X106483617Y-98506671D01*
X106203778Y-101665649D01*
X105625175Y-101665649D01*
X106391078Y-93361832D01*
X105656308Y-91077834D01*
X105436593Y-90383746D01*
X105230535Y-89709273D01*
X105100935Y-89264608D01*
X105705559Y-89264608D01*
X105708502Y-89280222D01*
X105766589Y-89484155D01*
X105891143Y-89892828D01*
X106071819Y-90473872D01*
X106298270Y-91194914D01*
X106560152Y-92023586D01*
X106847118Y-92927516D01*
X107148824Y-93874334D01*
X107454924Y-94831670D01*
X107755071Y-95767153D01*
X108038922Y-96648414D01*
X108296129Y-97443081D01*
X108516349Y-98118785D01*
X108689234Y-98643154D01*
X108804440Y-98983819D01*
X108851622Y-99108409D01*
X108864121Y-99118305D01*
X109019276Y-99254726D01*
X109320174Y-99524652D01*
X109730502Y-99895405D01*
X110213948Y-100334309D01*
X110358261Y-100465256D01*
X110826734Y-100885219D01*
X111214143Y-101224807D01*
X111483600Y-101452023D01*
X111598210Y-101534872D01*
X111619567Y-101506709D01*
X111700289Y-101287890D01*
X111815574Y-100899478D01*
X111947992Y-100398110D01*
X112007086Y-100170066D01*
X112150061Y-99671990D01*
X112278660Y-99291036D01*
X112370705Y-99095546D01*
X112379501Y-99086103D01*
X112602613Y-98998016D01*
X113059446Y-98945727D01*
X113762359Y-98927748D01*
X115016410Y-98925753D01*
X112997436Y-97785864D01*
X110978461Y-96645975D01*
X109187598Y-93391705D01*
X107753172Y-90785136D01*
X108463753Y-90785136D01*
X108479864Y-90837412D01*
X108598206Y-91086257D01*
X108815609Y-91510489D01*
X109115248Y-92078000D01*
X109480299Y-92756682D01*
X109893936Y-93514429D01*
X111369231Y-96198611D01*
X114039487Y-97714260D01*
X114519763Y-97986794D01*
X115230313Y-98389711D01*
X115843353Y-98736985D01*
X116177058Y-98925753D01*
X116326628Y-99010361D01*
X116647885Y-99191584D01*
X116774872Y-99262402D01*
X116790448Y-99253268D01*
X116942655Y-99107154D01*
X117234250Y-98805254D01*
X117639467Y-98375670D01*
X117741284Y-98266401D01*
X118638181Y-98266401D01*
X118795822Y-98198044D01*
X119136292Y-97972687D01*
X119497190Y-97709196D01*
X120585938Y-97709196D01*
X120638627Y-97725076D01*
X120793364Y-97701695D01*
X121079869Y-97632701D01*
X121527861Y-97511740D01*
X122167058Y-97332460D01*
X123027179Y-97088506D01*
X125306667Y-96441251D01*
X126413846Y-96725064D01*
X126607211Y-96774712D01*
X127120237Y-96907220D01*
X127530805Y-97014364D01*
X127763933Y-97076619D01*
X127792445Y-97080757D01*
X127833731Y-97019401D01*
X127786398Y-96824673D01*
X127641043Y-96472945D01*
X127388260Y-95940589D01*
X127018648Y-95203976D01*
X126801483Y-94773736D01*
X126471867Y-94105845D01*
X126188213Y-93513302D01*
X125975220Y-93048057D01*
X125857588Y-92762061D01*
X125684720Y-92260531D01*
X124929564Y-93543599D01*
X124728985Y-93881336D01*
X124470117Y-94291945D01*
X124224195Y-94625842D01*
X123947055Y-94929774D01*
X123594531Y-95250486D01*
X123122460Y-95634723D01*
X122486677Y-96129231D01*
X122105888Y-96424521D01*
X121567520Y-96847156D01*
X121121572Y-97203468D01*
X120806230Y-97462830D01*
X120659678Y-97594615D01*
X120605578Y-97660409D01*
X120585938Y-97709196D01*
X119497190Y-97709196D01*
X119663700Y-97587627D01*
X120382153Y-97040159D01*
X121295761Y-96327582D01*
X123777277Y-94376702D01*
X124574536Y-93029638D01*
X124883418Y-92497873D01*
X125137257Y-92041988D01*
X125308790Y-91712180D01*
X125371795Y-91556888D01*
X125366197Y-91524848D01*
X125295435Y-91287538D01*
X125156169Y-90870338D01*
X124964540Y-90320780D01*
X124736687Y-89686398D01*
X124732719Y-89675501D01*
X124451340Y-88931185D01*
X124240404Y-88436598D01*
X124099465Y-88190799D01*
X124028077Y-88192849D01*
X123999125Y-88313886D01*
X123923987Y-88671949D01*
X123817923Y-89203640D01*
X123690587Y-89860315D01*
X123551635Y-90593333D01*
X123456229Y-91094672D01*
X123316947Y-91800770D01*
X123191736Y-92406410D01*
X123091437Y-92859640D01*
X123026886Y-93108510D01*
X122981382Y-93206060D01*
X122857650Y-93395256D01*
X122649046Y-93668144D01*
X122342361Y-94040032D01*
X121924389Y-94526228D01*
X121381923Y-95142041D01*
X120701754Y-95902777D01*
X119870677Y-96823747D01*
X118875483Y-97920256D01*
X118854953Y-97942928D01*
X118659261Y-98180461D01*
X118638181Y-98266401D01*
X117741284Y-98266401D01*
X118132543Y-97846508D01*
X118687714Y-97245871D01*
X119279214Y-96601863D01*
X119881281Y-95942590D01*
X120468150Y-95296154D01*
X121014056Y-94690661D01*
X121493236Y-94154214D01*
X121879926Y-93714917D01*
X122148361Y-93400875D01*
X122164456Y-93381201D01*
X122299070Y-93186217D01*
X122417638Y-92937571D01*
X122532043Y-92594617D01*
X122654166Y-92116715D01*
X122795889Y-91463220D01*
X122969094Y-90593490D01*
X123111999Y-89843225D01*
X123231677Y-89184019D01*
X123320966Y-88657896D01*
X123372945Y-88305642D01*
X123380693Y-88168043D01*
X123332890Y-88210050D01*
X123145828Y-88424206D01*
X122840414Y-88792081D01*
X122440746Y-89283249D01*
X121970921Y-89867284D01*
X121455036Y-90513762D01*
X120917188Y-91192255D01*
X120381473Y-91872339D01*
X119871989Y-92523587D01*
X119412833Y-93115574D01*
X119028102Y-93617875D01*
X118741893Y-94000063D01*
X118578303Y-94231712D01*
X118524918Y-94330793D01*
X118498214Y-94391342D01*
X118371740Y-94678113D01*
X118166128Y-95193105D01*
X117928338Y-95824242D01*
X117678629Y-96520000D01*
X117537585Y-96916153D01*
X117298082Y-97559336D01*
X117084539Y-98097417D01*
X116916022Y-98483136D01*
X116811596Y-98669231D01*
X116734539Y-98744557D01*
X116597838Y-98778139D01*
X116432987Y-98604103D01*
X116426937Y-98595750D01*
X116299286Y-98383100D01*
X116078207Y-97981949D01*
X115785407Y-97432949D01*
X115442589Y-96776752D01*
X115071458Y-96054010D01*
X114038562Y-94025488D01*
X114732119Y-94025488D01*
X114746874Y-94088052D01*
X114858735Y-94347381D01*
X115061038Y-94770435D01*
X115334703Y-95317675D01*
X115660648Y-95949561D01*
X115892726Y-96391098D01*
X116190285Y-96949935D01*
X116427694Y-97386982D01*
X116585046Y-97665738D01*
X116642432Y-97749701D01*
X116644288Y-97739505D01*
X116702787Y-97554380D01*
X116831035Y-97181901D01*
X117012322Y-96669946D01*
X117229938Y-96066391D01*
X117276102Y-95938617D01*
X117480657Y-95351731D01*
X117637749Y-94866655D01*
X117732656Y-94530741D01*
X117750658Y-94391342D01*
X117747562Y-94388901D01*
X117581952Y-94345111D01*
X117228729Y-94285432D01*
X116751510Y-94217574D01*
X116213913Y-94149249D01*
X115679558Y-94088168D01*
X115212061Y-94042040D01*
X114875042Y-94018576D01*
X114732119Y-94025488D01*
X114038562Y-94025488D01*
X113905635Y-93764430D01*
X111207249Y-92252228D01*
X110700733Y-91969619D01*
X109990740Y-91578027D01*
X109380246Y-91246778D01*
X108901052Y-90992878D01*
X108584954Y-90833329D01*
X108463753Y-90785136D01*
X107753172Y-90785136D01*
X107396735Y-90137436D01*
X106549906Y-89655377D01*
X106465551Y-89607804D01*
X106078714Y-89402482D01*
X105807266Y-89279698D01*
X105705559Y-89264608D01*
X105100935Y-89264608D01*
X105067439Y-89149680D01*
X104960155Y-88749152D01*
X104921538Y-88551871D01*
X104953930Y-88395997D01*
X104973396Y-88326728D01*
X105572820Y-88326728D01*
X105639435Y-88407992D01*
X105893853Y-88596265D01*
X106294259Y-88849979D01*
X106793262Y-89137645D01*
X107193746Y-89356399D01*
X107637225Y-89591916D01*
X107954806Y-89752455D01*
X108095826Y-89811795D01*
X108140564Y-89795168D01*
X108166215Y-89715484D01*
X108165634Y-89533685D01*
X108136396Y-89210792D01*
X108076076Y-88707830D01*
X107982250Y-87985822D01*
X107917536Y-87446465D01*
X107866759Y-86902955D01*
X107857455Y-86729517D01*
X108438553Y-86729517D01*
X108444469Y-86834328D01*
X108475431Y-87160941D01*
X108526723Y-87632908D01*
X108591342Y-88192474D01*
X108662289Y-88781885D01*
X108732561Y-89343385D01*
X108795157Y-89819221D01*
X108843075Y-90151636D01*
X108869315Y-90282877D01*
X108888381Y-90294476D01*
X109081864Y-90405289D01*
X109456670Y-90617577D01*
X109979535Y-90912564D01*
X110617201Y-91271475D01*
X111336404Y-91675535D01*
X111852866Y-91964318D01*
X112544305Y-92344528D01*
X113050449Y-92610966D01*
X113395885Y-92774893D01*
X113605204Y-92847567D01*
X113702992Y-92840247D01*
X113713841Y-92764195D01*
X113704540Y-92720423D01*
X113649123Y-92439537D01*
X113554821Y-91949145D01*
X113428108Y-91283340D01*
X113275458Y-90476213D01*
X113103345Y-89561855D01*
X112918242Y-88574359D01*
X112841944Y-88167482D01*
X112663709Y-87224971D01*
X112502028Y-86380930D01*
X112363072Y-85666898D01*
X112253015Y-85114413D01*
X112178029Y-84755013D01*
X112147560Y-84633302D01*
X112796175Y-84633302D01*
X112811272Y-84785823D01*
X112870494Y-85154895D01*
X112966828Y-85704274D01*
X113093263Y-86397717D01*
X113242787Y-87198981D01*
X113408388Y-88071823D01*
X113583055Y-88979999D01*
X113759774Y-89887266D01*
X113931536Y-90757382D01*
X114091327Y-91554103D01*
X114232135Y-92241185D01*
X114343091Y-92764195D01*
X114346950Y-92782387D01*
X114428758Y-93141464D01*
X114470549Y-93282173D01*
X114559549Y-93317347D01*
X114866461Y-93384704D01*
X115331815Y-93462658D01*
X115896561Y-93540512D01*
X116559406Y-93622254D01*
X117134695Y-93684958D01*
X117523949Y-93706901D01*
X117766376Y-93683536D01*
X117901185Y-93610320D01*
X117967585Y-93482707D01*
X118004783Y-93296154D01*
X118023426Y-93170441D01*
X118027327Y-93140392D01*
X118634804Y-93140392D01*
X118714487Y-93053382D01*
X118933673Y-92786696D01*
X119271020Y-92366606D01*
X119705350Y-91819654D01*
X120215488Y-91172382D01*
X120780256Y-90451332D01*
X122896923Y-87741060D01*
X122896923Y-86617895D01*
X123576035Y-86617895D01*
X123591624Y-86772479D01*
X123630803Y-86792857D01*
X123678461Y-86685641D01*
X123669061Y-86616684D01*
X123591624Y-86598803D01*
X123576035Y-86617895D01*
X122896923Y-86617895D01*
X122896923Y-84922872D01*
X121271185Y-84585133D01*
X119645447Y-84247393D01*
X119597462Y-84535760D01*
X119578050Y-84652415D01*
X119568555Y-84716618D01*
X119526935Y-85040486D01*
X119462425Y-85573401D01*
X119379167Y-86280002D01*
X119281304Y-87124927D01*
X119172979Y-88072816D01*
X119058335Y-89088308D01*
X119004012Y-89574439D01*
X118898707Y-90529264D01*
X118806553Y-91381576D01*
X118730817Y-92100110D01*
X118674769Y-92653601D01*
X118641675Y-93010783D01*
X118634804Y-93140392D01*
X118027327Y-93140392D01*
X118074826Y-92774504D01*
X118144315Y-92200306D01*
X118227908Y-91484268D01*
X118321620Y-90662814D01*
X118421469Y-89772366D01*
X118523469Y-88849348D01*
X118623637Y-87930182D01*
X118717989Y-87051291D01*
X118802539Y-86249098D01*
X118873305Y-85560026D01*
X118926302Y-85020497D01*
X118957545Y-84666934D01*
X118963051Y-84535760D01*
X118868799Y-84574678D01*
X118595792Y-84729079D01*
X118189926Y-84974832D01*
X117696677Y-85285028D01*
X116469251Y-86069425D01*
X114648943Y-85333045D01*
X114318300Y-85200081D01*
X113725127Y-84965920D01*
X113245527Y-84782405D01*
X112921978Y-84665625D01*
X112796957Y-84631666D01*
X112796175Y-84633302D01*
X112147560Y-84633302D01*
X112144289Y-84620236D01*
X112091511Y-84632938D01*
X111844385Y-84740816D01*
X111431885Y-84939533D01*
X110893818Y-85209726D01*
X110269986Y-85532031D01*
X109762058Y-85801573D01*
X109150265Y-86143962D01*
X108740324Y-86403219D01*
X108510374Y-86593640D01*
X108438553Y-86729517D01*
X107857455Y-86729517D01*
X107844842Y-86494410D01*
X107856325Y-86282215D01*
X107999062Y-86092642D01*
X108279972Y-85914058D01*
X108300782Y-85905094D01*
X108573633Y-85774485D01*
X109012272Y-85552630D01*
X109560697Y-85268207D01*
X110162901Y-84949892D01*
X111691956Y-84134043D01*
X109707003Y-83325015D01*
X109240284Y-83136303D01*
X108618034Y-82889827D01*
X108106641Y-82693387D01*
X107749394Y-82563507D01*
X107589577Y-82516712D01*
X107563726Y-82548093D01*
X107459507Y-82775444D01*
X107296498Y-83187524D01*
X107089177Y-83742621D01*
X106852023Y-84399026D01*
X106599514Y-85115026D01*
X106346130Y-85848912D01*
X106106348Y-86558971D01*
X105894648Y-87203493D01*
X105725507Y-87740768D01*
X105613405Y-88129083D01*
X105572820Y-88326728D01*
X104973396Y-88326728D01*
X105059674Y-88019715D01*
X105228171Y-87464218D01*
X105448383Y-86765067D01*
X105709273Y-85957824D01*
X105999801Y-85078053D01*
X107030825Y-81987787D01*
X108050516Y-81987787D01*
X108110086Y-82024220D01*
X108381489Y-82150093D01*
X108846833Y-82352434D01*
X109478049Y-82619408D01*
X110247068Y-82939175D01*
X111125821Y-83299900D01*
X112086238Y-83689744D01*
X112755893Y-83959669D01*
X113190240Y-84134043D01*
X113677296Y-84329578D01*
X114504963Y-84660113D01*
X115209358Y-84939569D01*
X115760942Y-85156245D01*
X116130179Y-85298435D01*
X116287532Y-85354437D01*
X116403630Y-85310963D01*
X116707744Y-85149773D01*
X117159267Y-84891678D01*
X117721035Y-84559633D01*
X118355886Y-84176594D01*
X119026660Y-83765518D01*
X119038022Y-83758456D01*
X120189702Y-83758456D01*
X120216159Y-83768806D01*
X120436003Y-83824405D01*
X120826357Y-83911173D01*
X121326251Y-84015330D01*
X121511173Y-84053261D01*
X122013182Y-84161061D01*
X122403958Y-84251905D01*
X122611283Y-84309271D01*
X122703668Y-84330945D01*
X122740328Y-84276673D01*
X122705136Y-84102846D01*
X122589533Y-83768794D01*
X122384959Y-83233846D01*
X122275032Y-82978734D01*
X122120411Y-82704949D01*
X122009569Y-82609774D01*
X121887364Y-82664631D01*
X121609048Y-82821370D01*
X121246647Y-83040241D01*
X120861836Y-83282314D01*
X120516292Y-83508660D01*
X120271688Y-83680350D01*
X120189702Y-83758456D01*
X119038022Y-83758456D01*
X119696195Y-83349360D01*
X120327328Y-82951075D01*
X120882899Y-82593621D01*
X121325745Y-82299952D01*
X121618704Y-82093024D01*
X121724615Y-81995794D01*
X121723478Y-81991968D01*
X121607281Y-81875142D01*
X121327824Y-81635616D01*
X120924232Y-81306065D01*
X120435626Y-80919168D01*
X119146637Y-79912308D01*
X111371359Y-79912308D01*
X109709525Y-80913171D01*
X109424893Y-81085711D01*
X108881142Y-81422197D01*
X108444909Y-81701495D01*
X108155073Y-81898419D01*
X108050516Y-81987787D01*
X107030825Y-81987787D01*
X107078064Y-81846200D01*
X109092355Y-80618741D01*
X111106647Y-79391282D01*
X115275888Y-79393391D01*
X119445128Y-79395500D01*
X120943077Y-80575137D01*
X122441026Y-81754775D01*
X122529461Y-81995794D01*
X123366359Y-84276673D01*
X124250255Y-86685641D01*
X124600222Y-87639439D01*
X124637534Y-87741060D01*
G37*
%TD*%
%LPC*%
D11*
%TO.C,SW10*%
X168910000Y-71120000D03*
D12*
X176530000Y-76200000D03*
D13*
X171450000Y-76200000D03*
D12*
X166370000Y-76200000D03*
D11*
X175260000Y-73660000D03*
%TD*%
D13*
%TO.C,SW22*%
X204787500Y-95250000D03*
D12*
X199707500Y-95250000D03*
X209867500Y-95250000D03*
D11*
X202247500Y-90170000D03*
X208597500Y-92710000D03*
%TD*%
D13*
%TO.C,SW48*%
X233362500Y-133350000D03*
D12*
X238442500Y-133350000D03*
X228282500Y-133350000D03*
D11*
X230822500Y-128270000D03*
X237172500Y-130810000D03*
%TD*%
%TO.C,SW15*%
X335597500Y-90170000D03*
D13*
X338137500Y-95250000D03*
D11*
X341947500Y-92710000D03*
D12*
X343217500Y-95250000D03*
X333057500Y-95250000D03*
%TD*%
D11*
%TO.C,SW58*%
X251460000Y-149860000D03*
X245110000Y-147320000D03*
D12*
X242570000Y-152400000D03*
X252730000Y-152400000D03*
D13*
X247650000Y-152400000D03*
%TD*%
%TO.C,SW24*%
X166687500Y-95250000D03*
D12*
X161607500Y-95250000D03*
X171767500Y-95250000D03*
D11*
X164147500Y-90170000D03*
X170497500Y-92710000D03*
%TD*%
%TO.C,SW32*%
X273685000Y-109220000D03*
D13*
X276225000Y-114300000D03*
D11*
X280035000Y-111760000D03*
D12*
X271145000Y-114300000D03*
X281305000Y-114300000D03*
%TD*%
%TO.C,SW20*%
X237807500Y-95250000D03*
X247967500Y-95250000D03*
D13*
X242887500Y-95250000D03*
D11*
X246697500Y-92710000D03*
X240347500Y-90170000D03*
%TD*%
D13*
%TO.C,SW8*%
X209550000Y-76200000D03*
D11*
X207010000Y-71120000D03*
D12*
X204470000Y-76200000D03*
X214630000Y-76200000D03*
D11*
X213360000Y-73660000D03*
%TD*%
D12*
%TO.C,SW11*%
X147320000Y-76200000D03*
X157480000Y-76200000D03*
D11*
X156210000Y-73660000D03*
D13*
X152400000Y-76200000D03*
D11*
X149860000Y-71120000D03*
%TD*%
D13*
%TO.C,SW9*%
X190500000Y-76200000D03*
D11*
X194310000Y-73660000D03*
D12*
X185420000Y-76200000D03*
D11*
X187960000Y-71120000D03*
D12*
X195580000Y-76200000D03*
%TD*%
%TO.C,SW47*%
X257492500Y-133350000D03*
X247332500Y-133350000D03*
D11*
X256222500Y-130810000D03*
X249872500Y-128270000D03*
D13*
X252412500Y-133350000D03*
%TD*%
D11*
%TO.C,SW12*%
X137160000Y-73660000D03*
D12*
X128270000Y-76200000D03*
D11*
X130810000Y-71120000D03*
D13*
X133350000Y-76200000D03*
D12*
X138430000Y-76200000D03*
%TD*%
%TO.C,SW35*%
X213995000Y-114300000D03*
D11*
X222885000Y-111760000D03*
D12*
X224155000Y-114300000D03*
D11*
X216535000Y-109220000D03*
D13*
X219075000Y-114300000D03*
%TD*%
%TO.C,SW2*%
X323850000Y-76200000D03*
D11*
X327660000Y-73660000D03*
D12*
X328930000Y-76200000D03*
X318770000Y-76200000D03*
D11*
X321310000Y-71120000D03*
%TD*%
%TO.C,SW44*%
X313372500Y-130810000D03*
D13*
X309562500Y-133350000D03*
D12*
X304482500Y-133350000D03*
X314642500Y-133350000D03*
D11*
X307022500Y-128270000D03*
%TD*%
D12*
%TO.C,SW16*%
X324167500Y-95250000D03*
D13*
X319087500Y-95250000D03*
D11*
X322897500Y-92710000D03*
D12*
X314007500Y-95250000D03*
D11*
X316547500Y-90170000D03*
%TD*%
%TO.C,SW54*%
X122872500Y-130810000D03*
X116522500Y-128270000D03*
D12*
X113982500Y-133350000D03*
D13*
X119062500Y-133350000D03*
D12*
X124142500Y-133350000D03*
%TD*%
%TO.C,SW55*%
X94932500Y-133350000D03*
X105092500Y-133350000D03*
D11*
X103822500Y-130810000D03*
D13*
X100012500Y-133350000D03*
D11*
X97472500Y-128270000D03*
%TD*%
D12*
%TO.C,SW36*%
X194945000Y-114300000D03*
D13*
X200025000Y-114300000D03*
D11*
X197485000Y-109220000D03*
D12*
X205105000Y-114300000D03*
D11*
X203835000Y-111760000D03*
%TD*%
D12*
%TO.C,SW42*%
X80645000Y-114300000D03*
X90805000Y-114300000D03*
D11*
X89535000Y-111760000D03*
X83185000Y-109220000D03*
D13*
X85725000Y-114300000D03*
%TD*%
D12*
%TO.C,SW43*%
X333692500Y-133350000D03*
D11*
X332422500Y-130810000D03*
D13*
X328612500Y-133350000D03*
D12*
X323532500Y-133350000D03*
D11*
X326072500Y-128270000D03*
%TD*%
%TO.C,SW33*%
X260985000Y-111760000D03*
D12*
X252095000Y-114300000D03*
D11*
X254635000Y-109220000D03*
D13*
X257175000Y-114300000D03*
D12*
X262255000Y-114300000D03*
%TD*%
D11*
%TO.C,SW28*%
X87947500Y-90170000D03*
D13*
X90487500Y-95250000D03*
D11*
X94297500Y-92710000D03*
D12*
X95567500Y-95250000D03*
X85407500Y-95250000D03*
%TD*%
D13*
%TO.C,SW23*%
X185737500Y-95250000D03*
D11*
X183197500Y-90170000D03*
D12*
X190817500Y-95250000D03*
X180657500Y-95250000D03*
D11*
X189547500Y-92710000D03*
%TD*%
D12*
%TO.C,SW52*%
X162242500Y-133350000D03*
D11*
X160972500Y-130810000D03*
D13*
X157162500Y-133350000D03*
D12*
X152082500Y-133350000D03*
D11*
X154622500Y-128270000D03*
%TD*%
D13*
%TO.C,SW53*%
X138112500Y-133350000D03*
D12*
X133032500Y-133350000D03*
D11*
X141922500Y-130810000D03*
X135572500Y-128270000D03*
D12*
X143192500Y-133350000D03*
%TD*%
D13*
%TO.C,SW59*%
X231013000Y-144145000D03*
X207137000Y-144145000D03*
D11*
X207137000Y-159385000D03*
X216535000Y-147320000D03*
D12*
X213995000Y-152400000D03*
D11*
X222885000Y-149860000D03*
D13*
X219075000Y-152400000D03*
D11*
X231013000Y-159385000D03*
D12*
X224155000Y-152400000D03*
%TD*%
D13*
%TO.C,SW27*%
X109537500Y-95250000D03*
D11*
X106997500Y-90170000D03*
D12*
X104457500Y-95250000D03*
X114617500Y-95250000D03*
D11*
X113347500Y-92710000D03*
%TD*%
D13*
%TO.C,SW7*%
X228600000Y-76200000D03*
D12*
X233680000Y-76200000D03*
X223520000Y-76200000D03*
D11*
X226060000Y-71120000D03*
X232410000Y-73660000D03*
%TD*%
D13*
%TO.C,SW17*%
X300037500Y-95250000D03*
D11*
X297497500Y-90170000D03*
D12*
X305117500Y-95250000D03*
D11*
X303847500Y-92710000D03*
D12*
X294957500Y-95250000D03*
%TD*%
D11*
%TO.C,SW60*%
X187960000Y-147320000D03*
D12*
X195580000Y-152400000D03*
D11*
X194310000Y-149860000D03*
D13*
X190500000Y-152400000D03*
D12*
X185420000Y-152400000D03*
%TD*%
D11*
%TO.C,SW41*%
X102235000Y-109220000D03*
D12*
X109855000Y-114300000D03*
D13*
X104775000Y-114300000D03*
D12*
X99695000Y-114300000D03*
D11*
X108585000Y-111760000D03*
%TD*%
D12*
%TO.C,SW38*%
X156845000Y-114300000D03*
D13*
X161925000Y-114300000D03*
D11*
X165735000Y-111760000D03*
D12*
X167005000Y-114300000D03*
D11*
X159385000Y-109220000D03*
%TD*%
D12*
%TO.C,SW49*%
X219392500Y-133350000D03*
D11*
X218122500Y-130810000D03*
D12*
X209232500Y-133350000D03*
D13*
X214312500Y-133350000D03*
D11*
X211772500Y-128270000D03*
%TD*%
%TO.C,SW25*%
X145097500Y-90170000D03*
X151447500Y-92710000D03*
D13*
X147637500Y-95250000D03*
D12*
X152717500Y-95250000D03*
X142557500Y-95250000D03*
%TD*%
%TO.C,SW19*%
X256857500Y-95250000D03*
D11*
X265747500Y-92710000D03*
D12*
X267017500Y-95250000D03*
D11*
X259397500Y-90170000D03*
D13*
X261937500Y-95250000D03*
%TD*%
D12*
%TO.C,SW40*%
X118745000Y-114300000D03*
D13*
X123825000Y-114300000D03*
D11*
X127635000Y-111760000D03*
D12*
X128905000Y-114300000D03*
D11*
X121285000Y-109220000D03*
%TD*%
D12*
%TO.C,SW29*%
X338455000Y-114300000D03*
X328295000Y-114300000D03*
D11*
X337185000Y-111760000D03*
X330835000Y-109220000D03*
D13*
X333375000Y-114300000D03*
%TD*%
%TO.C,SW31*%
X295275000Y-114300000D03*
D12*
X300355000Y-114300000D03*
D11*
X292735000Y-109220000D03*
X299085000Y-111760000D03*
D12*
X290195000Y-114300000D03*
%TD*%
D11*
%TO.C,SW26*%
X132397500Y-92710000D03*
X126047500Y-90170000D03*
D12*
X123507500Y-95250000D03*
X133667500Y-95250000D03*
D13*
X128587500Y-95250000D03*
%TD*%
%TO.C,SW3*%
X304800000Y-76200000D03*
D12*
X309880000Y-76200000D03*
D11*
X308610000Y-73660000D03*
D12*
X299720000Y-76200000D03*
D11*
X302260000Y-71120000D03*
%TD*%
D12*
%TO.C,SW56*%
X75882500Y-133350000D03*
D13*
X80962500Y-133350000D03*
D11*
X84772500Y-130810000D03*
X78422500Y-128270000D03*
D12*
X86042500Y-133350000D03*
%TD*%
D13*
%TO.C,SW18*%
X280987500Y-95250000D03*
D12*
X286067500Y-95250000D03*
D11*
X278447500Y-90170000D03*
X284797500Y-92710000D03*
D12*
X275907500Y-95250000D03*
%TD*%
D11*
%TO.C,SW61*%
X168910000Y-147320000D03*
X175260000Y-149860000D03*
D12*
X176530000Y-152400000D03*
X166370000Y-152400000D03*
D13*
X171450000Y-152400000D03*
%TD*%
D12*
%TO.C,SW51*%
X171132500Y-133350000D03*
D13*
X176212500Y-133350000D03*
D11*
X173672500Y-128270000D03*
D12*
X181292500Y-133350000D03*
D11*
X180022500Y-130810000D03*
%TD*%
%TO.C,SW21*%
X227647500Y-92710000D03*
X221297500Y-90170000D03*
D13*
X223837500Y-95250000D03*
D12*
X218757500Y-95250000D03*
X228917500Y-95250000D03*
%TD*%
%TO.C,SW34*%
X243205000Y-114300000D03*
X233045000Y-114300000D03*
D13*
X238125000Y-114300000D03*
D11*
X235585000Y-109220000D03*
X241935000Y-111760000D03*
%TD*%
D12*
%TO.C,SW5*%
X271780000Y-76200000D03*
X261620000Y-76200000D03*
D13*
X266700000Y-76200000D03*
D11*
X270510000Y-73660000D03*
X264160000Y-71120000D03*
%TD*%
D13*
%TO.C,SW39*%
X142875000Y-114300000D03*
D12*
X147955000Y-114300000D03*
D11*
X146685000Y-111760000D03*
D12*
X137795000Y-114300000D03*
D11*
X140335000Y-109220000D03*
%TD*%
D13*
%TO.C,SW50*%
X195262500Y-133350000D03*
D11*
X192722500Y-128270000D03*
X199072500Y-130810000D03*
D12*
X190182500Y-133350000D03*
X200342500Y-133350000D03*
%TD*%
D11*
%TO.C,SW57*%
X270510000Y-149860000D03*
D13*
X266700000Y-152400000D03*
D12*
X261620000Y-152400000D03*
D11*
X264160000Y-147320000D03*
D12*
X271780000Y-152400000D03*
%TD*%
D11*
%TO.C,SW1*%
X340360000Y-71120000D03*
D12*
X337820000Y-76200000D03*
X347980000Y-76200000D03*
D13*
X342900000Y-76200000D03*
D11*
X346710000Y-73660000D03*
%TD*%
%TO.C,SW46*%
X268922500Y-128270000D03*
D12*
X266382500Y-133350000D03*
X276542500Y-133350000D03*
D13*
X271462500Y-133350000D03*
D11*
X275272500Y-130810000D03*
%TD*%
D13*
%TO.C,SW37*%
X180975000Y-114300000D03*
D11*
X184785000Y-111760000D03*
X178435000Y-109220000D03*
D12*
X186055000Y-114300000D03*
X175895000Y-114300000D03*
%TD*%
D11*
%TO.C,SW30*%
X311785000Y-109220000D03*
D13*
X314325000Y-114300000D03*
D12*
X319405000Y-114300000D03*
D11*
X318135000Y-111760000D03*
D12*
X309245000Y-114300000D03*
%TD*%
D13*
%TO.C,SW4*%
X285750000Y-76200000D03*
D11*
X289560000Y-73660000D03*
D12*
X280670000Y-76200000D03*
X290830000Y-76200000D03*
D11*
X283210000Y-71120000D03*
%TD*%
%TO.C,SW14*%
X99060000Y-73660000D03*
D13*
X95250000Y-76200000D03*
D11*
X92710000Y-71120000D03*
D12*
X90170000Y-76200000D03*
X100330000Y-76200000D03*
%TD*%
D11*
%TO.C,SW13*%
X118110000Y-73660000D03*
D12*
X109220000Y-76200000D03*
D13*
X114300000Y-76200000D03*
D12*
X119380000Y-76200000D03*
D11*
X111760000Y-71120000D03*
%TD*%
%TO.C,SW45*%
X294322500Y-130810000D03*
D13*
X290512500Y-133350000D03*
D11*
X287972500Y-128270000D03*
D12*
X295592500Y-133350000D03*
X285432500Y-133350000D03*
%TD*%
%TO.C,SW6*%
X252730000Y-76200000D03*
X242570000Y-76200000D03*
D13*
X247650000Y-76200000D03*
D11*
X245110000Y-71120000D03*
X251460000Y-73660000D03*
%TD*%
D14*
%TO.C,U1*%
X361641580Y-120255240D03*
X361027098Y-122719791D03*
X360412617Y-125184342D03*
X359798135Y-127648893D03*
X359183654Y-130113445D03*
X358569172Y-132577996D03*
X357954690Y-135042547D03*
X357340209Y-137507098D03*
X356725727Y-139971649D03*
X354261176Y-139357168D03*
X351796625Y-138742686D03*
X349332074Y-138128204D03*
X346867523Y-137513723D03*
X344402971Y-136899241D03*
X341938420Y-136284759D03*
X342552902Y-133820208D03*
X343167383Y-131355657D03*
X343781865Y-128891106D03*
X344396347Y-126426555D03*
X345010828Y-123962004D03*
X345625310Y-121497453D03*
X346239792Y-119032901D03*
X346854273Y-116568350D03*
%TD*%
D15*
X324866000Y-117348000D03*
X327279000Y-109220000D03*
X340741000Y-111760000D03*
X336042000Y-130810000D03*
X331216000Y-73660000D03*
X326453500Y-92710000D03*
X316865000Y-130810000D03*
X335568350Y-125949650D03*
X321691000Y-111760000D03*
X322326000Y-124395500D03*
X307403500Y-92710000D03*
X312166000Y-73660000D03*
X338631866Y-125934134D03*
X302641000Y-111760000D03*
X297815000Y-130810000D03*
X278765000Y-130810000D03*
X274066000Y-149860000D03*
X322317500Y-123444000D03*
X293116000Y-73660000D03*
X283591000Y-111760000D03*
X326857750Y-123444000D03*
X288353500Y-92710000D03*
X322317500Y-122555000D03*
X269303500Y-92710000D03*
X335407000Y-120396000D03*
X274066000Y-73660000D03*
X264541000Y-111760000D03*
X259715000Y-130810000D03*
X255016000Y-149860000D03*
X322323247Y-121663247D03*
X240665000Y-130810000D03*
X255016000Y-73660000D03*
X245491000Y-111760000D03*
X335407000Y-117991500D03*
X226441000Y-149860000D03*
X250253500Y-92710000D03*
X231203500Y-92710000D03*
X334264000Y-117983000D03*
X197866000Y-149860000D03*
X226441000Y-111760000D03*
X221615000Y-130810000D03*
X322326000Y-119634000D03*
X235966000Y-73660000D03*
X322326000Y-118745000D03*
X212153500Y-92710000D03*
X202628500Y-130810000D03*
X216916000Y-73660000D03*
X333248000Y-117983000D03*
X178816000Y-149860000D03*
X207391000Y-111760000D03*
X277241000Y-138938000D03*
X197866000Y-73533000D03*
X183578500Y-130810000D03*
X193103500Y-92710000D03*
X188341000Y-111760000D03*
X164528500Y-130810000D03*
X174053500Y-92710000D03*
X178816000Y-73660000D03*
X169291000Y-111760000D03*
X277749000Y-138176000D03*
X155003500Y-92710000D03*
X159766000Y-73660000D03*
X278257000Y-137476003D03*
X150241000Y-111760000D03*
X145478500Y-130810000D03*
X135953500Y-92710000D03*
X131191000Y-111760000D03*
X278827003Y-136841003D03*
X126428500Y-130810000D03*
X140716000Y-73660000D03*
X107378500Y-130810000D03*
X116903500Y-92710000D03*
X265811000Y-140416500D03*
X121793000Y-73533000D03*
X279400000Y-136144000D03*
X188976000Y-140589000D03*
X112141000Y-111760000D03*
X265811000Y-136822500D03*
X266700000Y-141224000D03*
X188087000Y-140589000D03*
X266700000Y-136368500D03*
X88328500Y-130810000D03*
X279908000Y-135382000D03*
M02*
