%TF.GenerationSoftware,KiCad,Pcbnew,(6.0.6-0)*%
%TF.CreationDate,2022-08-16T09:08:47-07:00*%
%TF.ProjectId,purple-owl,70757270-6c65-42d6-9f77-6c2e6b696361,1.0*%
%TF.SameCoordinates,Original*%
%TF.FileFunction,Legend,Bot*%
%TF.FilePolarity,Positive*%
%FSLAX46Y46*%
G04 Gerber Fmt 4.6, Leading zero omitted, Abs format (unit mm)*
G04 Created by KiCad (PCBNEW (6.0.6-0)) date 2022-08-16 09:08:47*
%MOMM*%
%LPD*%
G01*
G04 APERTURE LIST*
G04 Aperture macros list*
%AMRoundRect*
0 Rectangle with rounded corners*
0 $1 Rounding radius*
0 $2 $3 $4 $5 $6 $7 $8 $9 X,Y pos of 4 corners*
0 Add a 4 corners polygon primitive as box body*
4,1,4,$2,$3,$4,$5,$6,$7,$8,$9,$2,$3,0*
0 Add four circle primitives for the rounded corners*
1,1,$1+$1,$2,$3*
1,1,$1+$1,$4,$5*
1,1,$1+$1,$6,$7*
1,1,$1+$1,$8,$9*
0 Add four rect primitives between the rounded corners*
20,1,$1+$1,$2,$3,$4,$5,0*
20,1,$1+$1,$4,$5,$6,$7,0*
20,1,$1+$1,$6,$7,$8,$9,0*
20,1,$1+$1,$8,$9,$2,$3,0*%
G04 Aperture macros list end*
%ADD10C,1.600000*%
%ADD11C,3.248000*%
%ADD12C,1.901800*%
%ADD13C,4.187800*%
%ADD14RoundRect,0.450000X0.400000X-0.350000X0.400000X0.350000X-0.400000X0.350000X-0.400000X-0.350000X0*%
%ADD15C,0.800000*%
G04 APERTURE END LIST*
%TO.C,G\u002A\u002A\u002A*%
G36*
X106020122Y-148457293D02*
G01*
X106680294Y-148025584D01*
X107423099Y-147589225D01*
X107747468Y-147412780D01*
X108338397Y-147096041D01*
X108844864Y-146819244D01*
X109223150Y-146606687D01*
X109429536Y-146482670D01*
X109452870Y-146464896D01*
X109474886Y-146306299D01*
X109466469Y-145949078D01*
X109433245Y-145445044D01*
X109380838Y-144846009D01*
X109314873Y-144203781D01*
X109240976Y-143570173D01*
X109164771Y-142996995D01*
X109091883Y-142536057D01*
X109027937Y-142239171D01*
X108984904Y-142154493D01*
X108808400Y-142221845D01*
X108486574Y-142383371D01*
X108189681Y-142547222D01*
X107524715Y-142927677D01*
X106499025Y-142481667D01*
X105473334Y-142035657D01*
X103582748Y-145218294D01*
X102939114Y-146288884D01*
X102407903Y-147144656D01*
X101991425Y-147782119D01*
X101691987Y-148197779D01*
X101511899Y-148388145D01*
X101478757Y-148400932D01*
X101342472Y-148318003D01*
X101191785Y-148050097D01*
X101012500Y-147568536D01*
X100914613Y-147261188D01*
X100726141Y-146650678D01*
X100493451Y-145899782D01*
X100250120Y-145116741D01*
X100085159Y-144587326D01*
X99606442Y-143053209D01*
X97353507Y-144433298D01*
X95100572Y-145813388D01*
X88779014Y-147432801D01*
X87535429Y-147750451D01*
X86365623Y-148047475D01*
X85294389Y-148317704D01*
X84346520Y-148554966D01*
X83546810Y-148753091D01*
X82920052Y-148905908D01*
X82491041Y-149007247D01*
X82284568Y-149050937D01*
X82272205Y-149052214D01*
X82133591Y-149003199D01*
X82106648Y-148840017D01*
X82199440Y-148538463D01*
X82420030Y-148074332D01*
X82490836Y-147945034D01*
X84301314Y-147945034D01*
X84366442Y-148010162D01*
X84431571Y-147945034D01*
X84366442Y-147879906D01*
X84301314Y-147945034D01*
X82490836Y-147945034D01*
X82530973Y-147871741D01*
X84580368Y-147871741D01*
X84611375Y-147879852D01*
X84616219Y-147879906D01*
X84761667Y-147848565D01*
X85132065Y-147759117D01*
X85700083Y-147618425D01*
X86438388Y-147433350D01*
X87319651Y-147210755D01*
X88316539Y-146957501D01*
X89401723Y-146680452D01*
X89813023Y-146575113D01*
X94903333Y-145270319D01*
X97278996Y-143807164D01*
X97903070Y-143417856D01*
X98478566Y-143045882D01*
X98869995Y-142780776D01*
X100201247Y-142780776D01*
X100233771Y-142981646D01*
X100330669Y-143363472D01*
X100476985Y-143879216D01*
X100657762Y-144481837D01*
X100858046Y-145124298D01*
X101062880Y-145759558D01*
X101257308Y-146340578D01*
X101426374Y-146820319D01*
X101555122Y-147151742D01*
X101628597Y-147287807D01*
X101634373Y-147288217D01*
X101724619Y-147164061D01*
X101927787Y-146846156D01*
X102224919Y-146365418D01*
X102597058Y-145752763D01*
X103025246Y-145039108D01*
X103395075Y-144416810D01*
X105059240Y-141605065D01*
X105024744Y-140216075D01*
X105006937Y-139644456D01*
X104985602Y-139178722D01*
X104963714Y-138874446D01*
X104948140Y-138784914D01*
X104833586Y-138843887D01*
X104556597Y-139046516D01*
X104150588Y-139364674D01*
X103648972Y-139770232D01*
X103085166Y-140235063D01*
X102492583Y-140731039D01*
X101904637Y-141230032D01*
X101354744Y-141703913D01*
X100876318Y-142124555D01*
X100502774Y-142463831D01*
X100267526Y-142693612D01*
X100201247Y-142780776D01*
X98869995Y-142780776D01*
X99035000Y-142669022D01*
X99601888Y-142265054D01*
X100208746Y-141811756D01*
X100885091Y-141286908D01*
X101660439Y-140668289D01*
X102564305Y-139933677D01*
X103626208Y-139060850D01*
X104067006Y-138696829D01*
X104609841Y-138248130D01*
X105533109Y-138248130D01*
X105547246Y-139123761D01*
X105569014Y-139735678D01*
X105610119Y-140385267D01*
X105644939Y-140769584D01*
X105728494Y-141539775D01*
X106575160Y-141904372D01*
X106998341Y-142084713D01*
X107316246Y-142216634D01*
X107464454Y-142273437D01*
X107466927Y-142273924D01*
X107586381Y-142211926D01*
X107901910Y-142034253D01*
X108385048Y-141757319D01*
X109007327Y-141397536D01*
X109740280Y-140971318D01*
X110555439Y-140495079D01*
X110759600Y-140375482D01*
X111603579Y-139878422D01*
X112382816Y-139414917D01*
X113066371Y-139003732D01*
X113623305Y-138663633D01*
X114022676Y-138413383D01*
X114233546Y-138271750D01*
X114249579Y-138258816D01*
X114359215Y-138088453D01*
X114535007Y-137732052D01*
X114758195Y-137236081D01*
X115010021Y-136647009D01*
X115271724Y-136011306D01*
X115524545Y-135375439D01*
X115749723Y-134785879D01*
X115928500Y-134289093D01*
X116042116Y-133931550D01*
X116071811Y-133759720D01*
X116068446Y-133753363D01*
X115932578Y-133768617D01*
X115576444Y-133839243D01*
X115032635Y-133957925D01*
X114333741Y-134117346D01*
X113512355Y-134310188D01*
X112601067Y-134529136D01*
X112458856Y-134563723D01*
X108904691Y-135429509D01*
X107218900Y-136838819D01*
X105533109Y-138248130D01*
X104609841Y-138248130D01*
X108479354Y-135049650D01*
X108645662Y-134724009D01*
X109360733Y-134724009D01*
X109500763Y-134693811D01*
X109860104Y-134608648D01*
X110405311Y-134476665D01*
X111102940Y-134306006D01*
X111919550Y-134104816D01*
X112821696Y-133881240D01*
X112846533Y-133875067D01*
X113747638Y-133650208D01*
X114561175Y-133445494D01*
X115254300Y-133269329D01*
X115794168Y-133130116D01*
X116147935Y-133036258D01*
X116282756Y-132996157D01*
X116283101Y-132995837D01*
X116265775Y-132861423D01*
X116200567Y-132509186D01*
X116095248Y-131975802D01*
X115957589Y-131297947D01*
X115795358Y-130512297D01*
X115616328Y-129655528D01*
X115428267Y-128764316D01*
X115238947Y-127875338D01*
X115056138Y-127025269D01*
X114887610Y-126250785D01*
X114741133Y-125588562D01*
X114624478Y-125075277D01*
X114545416Y-124747606D01*
X114513231Y-124642033D01*
X114441182Y-124739224D01*
X114264418Y-125046040D01*
X113995185Y-125539330D01*
X113645730Y-126195941D01*
X113228303Y-126992719D01*
X112755150Y-127906510D01*
X112238518Y-128914163D01*
X111865517Y-129647293D01*
X111329318Y-130707481D01*
X110834071Y-131692622D01*
X110391361Y-132579231D01*
X110012774Y-133343828D01*
X109709896Y-133962928D01*
X109494314Y-134413050D01*
X109377612Y-134670711D01*
X109360733Y-134724009D01*
X108645662Y-134724009D01*
X110674617Y-130751188D01*
X111284391Y-129548591D01*
X111780687Y-128551190D01*
X112161475Y-127763332D01*
X112424723Y-127189364D01*
X112568400Y-126833632D01*
X112590475Y-126700484D01*
X112561489Y-126713239D01*
X112416007Y-126843448D01*
X112095340Y-127135466D01*
X111615711Y-127574385D01*
X110993343Y-128145294D01*
X110244458Y-128833284D01*
X109385280Y-129623444D01*
X108432032Y-130500865D01*
X107400937Y-131450637D01*
X106308216Y-132457850D01*
X105520247Y-133184559D01*
X98787397Y-139395367D01*
X91772304Y-143528830D01*
X90302729Y-144394942D01*
X89042424Y-145138346D01*
X87976077Y-145768351D01*
X87088373Y-146294268D01*
X86364001Y-146725409D01*
X85787647Y-147071083D01*
X85343997Y-147340602D01*
X85017740Y-147543276D01*
X84793561Y-147688417D01*
X84656149Y-147785334D01*
X84590189Y-147843338D01*
X84580368Y-147871741D01*
X82530973Y-147871741D01*
X82572954Y-147795080D01*
X83259358Y-147795080D01*
X83356107Y-147807886D01*
X83597014Y-147703235D01*
X83682596Y-147654813D01*
X83871515Y-147543120D01*
X84263046Y-147311832D01*
X84835457Y-146973781D01*
X85567018Y-146541798D01*
X86435997Y-146028715D01*
X87420661Y-145447362D01*
X88499280Y-144810572D01*
X89650121Y-144131177D01*
X90476420Y-143643392D01*
X91644605Y-142951609D01*
X92738794Y-142299401D01*
X93739578Y-141698625D01*
X94627549Y-141161138D01*
X95383297Y-140698796D01*
X95987416Y-140323456D01*
X96420495Y-140046976D01*
X96663126Y-139881211D01*
X96707991Y-139836491D01*
X96548950Y-139843642D01*
X96164979Y-139886014D01*
X95588639Y-139959260D01*
X94852492Y-140059034D01*
X93989098Y-140180990D01*
X93031018Y-140320783D01*
X92611682Y-140383250D01*
X91623794Y-140530660D01*
X90717259Y-140664711D01*
X89924617Y-140780687D01*
X89278410Y-140873871D01*
X88811177Y-140939550D01*
X88555459Y-140973007D01*
X88519096Y-140976316D01*
X88381232Y-141074431D01*
X88110834Y-141347675D01*
X87733828Y-141764399D01*
X87276138Y-142292955D01*
X86763689Y-142901692D01*
X86222408Y-143558961D01*
X85678220Y-144233114D01*
X85157050Y-144892499D01*
X84684823Y-145505470D01*
X84287465Y-146040375D01*
X83990900Y-146465566D01*
X83883803Y-146635022D01*
X83611732Y-147103460D01*
X83399652Y-147489736D01*
X83277457Y-147738316D01*
X83259358Y-147795080D01*
X82572954Y-147795080D01*
X82776482Y-147423419D01*
X82868494Y-147262228D01*
X83170461Y-146731884D01*
X83418193Y-146289034D01*
X83586453Y-145979346D01*
X83650002Y-145848491D01*
X83650032Y-145847982D01*
X83528530Y-145827042D01*
X83199027Y-145810110D01*
X82714025Y-145799093D01*
X82213123Y-145795803D01*
X81541549Y-145787706D01*
X81092743Y-145760453D01*
X80829376Y-145709606D01*
X80714119Y-145630726D01*
X80707507Y-145616753D01*
X80771575Y-145477195D01*
X80961824Y-145189616D01*
X81653293Y-145189616D01*
X81802836Y-145239321D01*
X82141162Y-145266033D01*
X82702243Y-145274711D01*
X82773712Y-145274778D01*
X84013392Y-145274778D01*
X85957888Y-142962726D01*
X87902384Y-140650675D01*
X87875490Y-140336047D01*
X89055673Y-140336047D01*
X89576699Y-140256395D01*
X89832231Y-140217687D01*
X90309550Y-140145730D01*
X90972809Y-140045912D01*
X91786162Y-139923625D01*
X92713765Y-139784259D01*
X93015985Y-139738880D01*
X96936186Y-139738880D01*
X97001314Y-139804009D01*
X97066442Y-139738880D01*
X97001314Y-139673752D01*
X96936186Y-139738880D01*
X93015985Y-139738880D01*
X93719772Y-139633205D01*
X94218809Y-139558305D01*
X95374284Y-139383518D01*
X96300368Y-139239273D01*
X97025616Y-139119633D01*
X97578584Y-139018658D01*
X97987827Y-138930411D01*
X98281899Y-138848953D01*
X98489356Y-138768346D01*
X98638753Y-138682651D01*
X98716407Y-138622964D01*
X98871030Y-138485137D01*
X99201289Y-138184924D01*
X99691494Y-137736746D01*
X100325955Y-137155027D01*
X101088981Y-136454187D01*
X101964882Y-135648649D01*
X102937969Y-134752834D01*
X103992550Y-133781166D01*
X105112937Y-132748066D01*
X106283437Y-131667956D01*
X106389856Y-131569715D01*
X107836234Y-130232749D01*
X109100455Y-129059831D01*
X110193306Y-128039964D01*
X111125569Y-127162151D01*
X111908029Y-126415394D01*
X112551470Y-125788694D01*
X113066675Y-125271055D01*
X113464429Y-124851478D01*
X113755516Y-124518966D01*
X113950719Y-124262520D01*
X114060823Y-124071144D01*
X114096612Y-123933838D01*
X114068869Y-123839607D01*
X114015932Y-123792455D01*
X113857363Y-123756116D01*
X113474633Y-123693597D01*
X112902237Y-123609770D01*
X112737624Y-123587085D01*
X114947310Y-123587085D01*
X115808671Y-127787613D01*
X116017485Y-128794384D01*
X116212897Y-129714596D01*
X116388219Y-130518434D01*
X116536762Y-131176084D01*
X116651838Y-131657731D01*
X116726758Y-131933561D01*
X116751032Y-131988382D01*
X116824417Y-131873761D01*
X116969317Y-131559312D01*
X117166589Y-131089439D01*
X117397094Y-130508543D01*
X117464321Y-130333778D01*
X117722735Y-129668921D01*
X117938044Y-129167225D01*
X118151874Y-128760838D01*
X118405854Y-128381912D01*
X118741611Y-127962596D01*
X119200773Y-127435041D01*
X119337167Y-127281168D01*
X120577724Y-125883405D01*
X121401989Y-122488582D01*
X122226254Y-119093760D01*
X121946415Y-115934782D01*
X121845250Y-114817529D01*
X121760406Y-113940870D01*
X121689268Y-113285577D01*
X121629224Y-112832419D01*
X121577660Y-112562168D01*
X121531962Y-112455593D01*
X121489516Y-112493466D01*
X121481641Y-112515291D01*
X121429953Y-112677670D01*
X121313962Y-113044482D01*
X121147576Y-113571666D01*
X120944704Y-114215158D01*
X120782450Y-114730210D01*
X120125936Y-116814874D01*
X118488493Y-118295668D01*
X116851050Y-119776463D01*
X114947310Y-123587085D01*
X112737624Y-123587085D01*
X112174668Y-123509505D01*
X111326421Y-123397675D01*
X110391990Y-123279152D01*
X110303682Y-123268179D01*
X106720603Y-122823734D01*
X98930189Y-130522645D01*
X97716263Y-131722641D01*
X96535293Y-132890690D01*
X95403335Y-134010877D01*
X94336445Y-135067283D01*
X93350679Y-136043991D01*
X92462092Y-136925085D01*
X91686741Y-137694647D01*
X91040680Y-138336760D01*
X90539966Y-138835508D01*
X90200655Y-139174973D01*
X90097724Y-139278801D01*
X89055673Y-140336047D01*
X87875490Y-140336047D01*
X87796610Y-139413239D01*
X87746494Y-138834980D01*
X87700989Y-138324180D01*
X87667043Y-137958219D01*
X87656844Y-137856257D01*
X87621880Y-137803765D01*
X87527889Y-137844267D01*
X87361291Y-137993331D01*
X87108505Y-138266529D01*
X86755950Y-138679431D01*
X86290046Y-139247607D01*
X85697213Y-139986627D01*
X84963869Y-140912063D01*
X84702972Y-141242923D01*
X84028444Y-142099232D01*
X83402118Y-142894592D01*
X82842965Y-143604895D01*
X82369956Y-144206032D01*
X82002060Y-144673896D01*
X81758247Y-144984376D01*
X81658561Y-145111957D01*
X81653293Y-145189616D01*
X80961824Y-145189616D01*
X80986985Y-145151582D01*
X81341343Y-144656482D01*
X81822249Y-144008464D01*
X82417309Y-143224095D01*
X83114123Y-142319945D01*
X83900297Y-141312581D01*
X84456467Y-140606357D01*
X86991819Y-137397811D01*
X88229055Y-137397811D01*
X88254685Y-137931089D01*
X88272123Y-138215475D01*
X88314264Y-138813719D01*
X88359372Y-139331928D01*
X88401214Y-139704133D01*
X88426117Y-139845741D01*
X88479036Y-139846885D01*
X88618457Y-139755868D01*
X88852961Y-139564462D01*
X89191127Y-139264437D01*
X89641535Y-138847565D01*
X90212765Y-138305617D01*
X90913397Y-137630363D01*
X91752010Y-136813576D01*
X92737183Y-135847025D01*
X93877498Y-134722482D01*
X95181532Y-133431719D01*
X96657867Y-131966506D01*
X97117905Y-131509331D01*
X98362578Y-130271157D01*
X99552637Y-129085496D01*
X100675334Y-127965154D01*
X101717922Y-126922933D01*
X102667651Y-125971638D01*
X103511775Y-125124072D01*
X104237545Y-124393041D01*
X104832212Y-123791347D01*
X105283030Y-123331796D01*
X105577249Y-123027190D01*
X105702122Y-122890334D01*
X105705574Y-122883963D01*
X105571233Y-122875173D01*
X105209674Y-122875054D01*
X104654015Y-122882604D01*
X103937369Y-122896824D01*
X103092853Y-122916715D01*
X102153584Y-122941278D01*
X101152676Y-122969512D01*
X100123246Y-123000418D01*
X99098409Y-123032997D01*
X98111282Y-123066249D01*
X97194981Y-123099174D01*
X96382620Y-123130774D01*
X95707316Y-123160048D01*
X95202185Y-123185997D01*
X94900343Y-123207622D01*
X94869879Y-123211013D01*
X94301521Y-123281836D01*
X92902865Y-126169845D01*
X92449194Y-127134791D01*
X91939036Y-128267241D01*
X91405703Y-129490153D01*
X90882509Y-130726485D01*
X90402766Y-131899195D01*
X90161521Y-132509650D01*
X89800167Y-133425264D01*
X89452825Y-134280511D01*
X89134858Y-135039458D01*
X88861626Y-135666170D01*
X88648492Y-136124714D01*
X88510818Y-136379155D01*
X88501869Y-136391885D01*
X88361997Y-136596270D01*
X88275027Y-136791393D01*
X88233274Y-137038243D01*
X88229055Y-137397811D01*
X86991819Y-137397811D01*
X88274135Y-135775011D01*
X89635752Y-132286176D01*
X90184044Y-130920432D01*
X90790349Y-129487780D01*
X91470580Y-127952657D01*
X92240651Y-126279500D01*
X93116478Y-124432745D01*
X93577439Y-123477645D01*
X94044763Y-122514096D01*
X94717826Y-122514096D01*
X94720269Y-122543737D01*
X94750825Y-122566965D01*
X94831165Y-122583543D01*
X94982959Y-122593236D01*
X95227875Y-122595805D01*
X95587584Y-122591016D01*
X96083756Y-122578631D01*
X96738059Y-122558414D01*
X97572165Y-122530127D01*
X98607742Y-122493536D01*
X99866460Y-122448402D01*
X100919175Y-122410623D01*
X104490009Y-122282696D01*
X107565605Y-122282696D01*
X107607141Y-122328734D01*
X107627918Y-122333279D01*
X107841444Y-122363498D01*
X108273745Y-122422449D01*
X108885317Y-122504827D01*
X109636656Y-122605325D01*
X110488257Y-122718637D01*
X111134135Y-122804228D01*
X112015873Y-122921212D01*
X112809648Y-123027166D01*
X113479694Y-123117263D01*
X113990248Y-123186676D01*
X114305547Y-123230582D01*
X114392627Y-123243932D01*
X114470276Y-123139608D01*
X114641595Y-122840003D01*
X114885706Y-122383812D01*
X115181727Y-121809730D01*
X115391826Y-121392212D01*
X116323814Y-119522980D01*
X115992306Y-118200930D01*
X115660797Y-116878880D01*
X114025549Y-116878880D01*
X110669266Y-119581701D01*
X109744913Y-120328532D01*
X109008810Y-120929774D01*
X108444201Y-121400586D01*
X108034331Y-121756125D01*
X107762445Y-122011550D01*
X107611789Y-122182021D01*
X107565605Y-122282696D01*
X104490009Y-122282696D01*
X106488891Y-122211085D01*
X109299975Y-119942712D01*
X110273657Y-119156681D01*
X111062127Y-118518628D01*
X111683036Y-118013086D01*
X112154031Y-117624586D01*
X112492762Y-117337660D01*
X112716877Y-117136841D01*
X112844025Y-117006659D01*
X112891855Y-116931647D01*
X112878016Y-116896337D01*
X112820156Y-116885260D01*
X112789715Y-116884174D01*
X112535111Y-116938021D01*
X112171467Y-117079636D01*
X112025258Y-117149939D01*
X111493939Y-117420998D01*
X111046840Y-116987653D01*
X110900125Y-116858234D01*
X110725733Y-116739805D01*
X110493989Y-116621974D01*
X110175215Y-116494348D01*
X109739735Y-116346533D01*
X109157872Y-116168138D01*
X108399948Y-115948770D01*
X107436288Y-115678036D01*
X106812044Y-115504640D01*
X103024346Y-114454972D01*
X101346644Y-114908647D01*
X99668943Y-115362322D01*
X98185202Y-116878023D01*
X97633330Y-117446309D01*
X97215115Y-117898185D01*
X96888009Y-118293715D01*
X96609465Y-118692964D01*
X96336936Y-119155998D01*
X96027877Y-119742882D01*
X95711644Y-120370059D01*
X95384715Y-121030264D01*
X95103320Y-121612710D01*
X94886759Y-122076294D01*
X94754330Y-122379908D01*
X94721827Y-122478278D01*
X94717826Y-122514096D01*
X94044763Y-122514096D01*
X96157509Y-118157949D01*
X98057908Y-116166910D01*
X98612465Y-115579510D01*
X99100638Y-115041564D01*
X99534950Y-114528993D01*
X99597577Y-114447512D01*
X100596301Y-114447512D01*
X100637587Y-114508868D01*
X100666099Y-114504730D01*
X100899227Y-114442475D01*
X101309795Y-114335331D01*
X101822821Y-114202823D01*
X102016186Y-114153175D01*
X103123365Y-113869362D01*
X105402853Y-114516617D01*
X106262974Y-114760571D01*
X106902171Y-114939851D01*
X107350163Y-115060812D01*
X107636668Y-115129806D01*
X107791405Y-115153187D01*
X107844094Y-115137307D01*
X107824454Y-115088520D01*
X107770354Y-115022726D01*
X107623802Y-114890941D01*
X107308460Y-114631579D01*
X106862512Y-114275267D01*
X106324144Y-113852632D01*
X105943355Y-113557342D01*
X105307572Y-113062834D01*
X104835501Y-112678597D01*
X104482977Y-112357885D01*
X104205837Y-112053953D01*
X103959915Y-111720056D01*
X103701047Y-111309447D01*
X103500468Y-110971710D01*
X102745312Y-109688642D01*
X102572444Y-110190172D01*
X102454812Y-110476168D01*
X102241819Y-110941413D01*
X101958165Y-111533956D01*
X101628549Y-112201847D01*
X101411384Y-112632087D01*
X101041772Y-113368700D01*
X100788989Y-113901056D01*
X100643634Y-114252784D01*
X100596301Y-114447512D01*
X99597577Y-114447512D01*
X99927922Y-114017716D01*
X100292078Y-113483653D01*
X100639939Y-112902724D01*
X100984027Y-112250848D01*
X101336865Y-111503945D01*
X101710976Y-110637935D01*
X102118880Y-109628737D01*
X102367421Y-108984999D01*
X103058237Y-108984999D01*
X103121242Y-109140291D01*
X103292775Y-109470099D01*
X103546614Y-109925984D01*
X103855496Y-110457749D01*
X104652755Y-111804813D01*
X107134271Y-113755693D01*
X108047879Y-114468270D01*
X108766332Y-115015738D01*
X109293740Y-115400798D01*
X109634210Y-115626155D01*
X109791851Y-115694512D01*
X109770771Y-115608572D01*
X109575079Y-115371039D01*
X109554549Y-115348367D01*
X108559355Y-114251858D01*
X107728278Y-113330888D01*
X107048109Y-112570152D01*
X106505643Y-111954339D01*
X106087671Y-111468143D01*
X105780986Y-111096255D01*
X105572382Y-110823367D01*
X105448650Y-110634171D01*
X105403146Y-110536621D01*
X105338595Y-110287751D01*
X105238296Y-109834521D01*
X105113085Y-109228881D01*
X104973803Y-108522783D01*
X104878397Y-108021444D01*
X104739445Y-107288426D01*
X104612109Y-106631751D01*
X104506045Y-106100060D01*
X104430907Y-105741997D01*
X104401955Y-105620960D01*
X104330567Y-105618910D01*
X104189628Y-105864709D01*
X103978692Y-106359296D01*
X103697313Y-107103612D01*
X103693345Y-107114509D01*
X103465492Y-107748891D01*
X103273863Y-108298449D01*
X103134597Y-108715649D01*
X103063835Y-108952959D01*
X103058237Y-108984999D01*
X102367421Y-108984999D01*
X102573102Y-108452270D01*
X103086163Y-107084456D01*
X103635538Y-105596154D01*
X105049339Y-105596154D01*
X105057087Y-105733753D01*
X105109066Y-106086007D01*
X105198355Y-106612130D01*
X105318033Y-107271336D01*
X105460938Y-108021601D01*
X105634143Y-108891331D01*
X105775866Y-109544826D01*
X105897989Y-110022728D01*
X106012394Y-110365682D01*
X106130962Y-110614328D01*
X106265576Y-110809312D01*
X106281671Y-110828986D01*
X106550106Y-111143028D01*
X106936796Y-111582325D01*
X107415976Y-112118772D01*
X107961882Y-112724265D01*
X108548751Y-113370701D01*
X109150818Y-114029974D01*
X109742318Y-114673982D01*
X110297489Y-115274619D01*
X110790565Y-115803781D01*
X111195782Y-116233365D01*
X111487377Y-116535265D01*
X111639584Y-116681379D01*
X111655160Y-116690513D01*
X111782147Y-116619695D01*
X112103404Y-116438472D01*
X112252974Y-116353864D01*
X113413622Y-116353864D01*
X114667673Y-116355859D01*
X115370586Y-116373838D01*
X115827419Y-116426127D01*
X116050531Y-116514214D01*
X116059327Y-116523657D01*
X116151372Y-116719147D01*
X116279971Y-117100101D01*
X116422946Y-117598177D01*
X116482040Y-117826221D01*
X116614458Y-118327589D01*
X116729743Y-118716001D01*
X116810465Y-118934820D01*
X116831822Y-118962983D01*
X116946432Y-118880134D01*
X117215889Y-118652918D01*
X117603298Y-118313330D01*
X118071771Y-117893367D01*
X118216084Y-117762420D01*
X118699530Y-117323516D01*
X119109858Y-116952763D01*
X119410756Y-116682837D01*
X119565911Y-116546416D01*
X119578410Y-116536520D01*
X119625592Y-116411930D01*
X119740798Y-116071265D01*
X119913683Y-115546896D01*
X120133903Y-114871192D01*
X120391110Y-114076525D01*
X120674961Y-113195264D01*
X120975108Y-112259781D01*
X121281208Y-111302445D01*
X121582914Y-110355627D01*
X121869880Y-109451697D01*
X122131762Y-108623025D01*
X122358213Y-107901983D01*
X122538889Y-107320939D01*
X122663443Y-106912266D01*
X122721530Y-106708333D01*
X122724473Y-106692719D01*
X122622766Y-106707809D01*
X122351318Y-106830593D01*
X121964481Y-107035915D01*
X121880126Y-107083488D01*
X121033297Y-107565547D01*
X119242434Y-110819816D01*
X117451571Y-114074086D01*
X115432596Y-115213975D01*
X113413622Y-116353864D01*
X112252974Y-116353864D01*
X112586679Y-116165096D01*
X113199719Y-115817822D01*
X113910269Y-115414905D01*
X114390545Y-115142371D01*
X117060801Y-113626722D01*
X118536096Y-110942540D01*
X118949733Y-110184793D01*
X119314784Y-109506111D01*
X119614423Y-108938600D01*
X119831826Y-108514368D01*
X119950168Y-108265523D01*
X119966279Y-108213247D01*
X119845078Y-108261440D01*
X119528980Y-108420989D01*
X119049786Y-108674889D01*
X118439292Y-109006138D01*
X117729299Y-109397730D01*
X117222783Y-109680339D01*
X114524397Y-111192541D01*
X113358574Y-113482121D01*
X112987443Y-114204863D01*
X112644625Y-114861060D01*
X112351825Y-115410060D01*
X112130746Y-115811211D01*
X112003095Y-116023861D01*
X111997045Y-116032214D01*
X111832194Y-116206250D01*
X111695493Y-116172668D01*
X111618436Y-116097342D01*
X111514010Y-115911247D01*
X111345493Y-115525528D01*
X111131950Y-114987447D01*
X110892447Y-114344264D01*
X110751403Y-113948111D01*
X110501694Y-113252353D01*
X110263904Y-112621216D01*
X110058292Y-112106224D01*
X109931818Y-111819453D01*
X110679374Y-111819453D01*
X110697376Y-111958852D01*
X110792283Y-112294766D01*
X110949375Y-112779842D01*
X111153930Y-113366728D01*
X111200094Y-113494502D01*
X111417710Y-114098057D01*
X111598997Y-114610012D01*
X111727245Y-114982491D01*
X111785744Y-115167616D01*
X111787600Y-115177812D01*
X111844986Y-115093849D01*
X112002338Y-114815093D01*
X112239747Y-114378046D01*
X112537306Y-113819209D01*
X112769384Y-113377672D01*
X113095329Y-112745786D01*
X113368994Y-112198546D01*
X113571297Y-111775492D01*
X113683158Y-111516163D01*
X113697913Y-111453599D01*
X113554990Y-111446687D01*
X113217971Y-111470151D01*
X112750474Y-111516279D01*
X112216119Y-111577360D01*
X111678522Y-111645685D01*
X111201303Y-111713543D01*
X110848080Y-111773222D01*
X110682470Y-111817012D01*
X110679374Y-111819453D01*
X109931818Y-111819453D01*
X109905114Y-111758904D01*
X109851729Y-111659823D01*
X109688139Y-111428174D01*
X109401930Y-111045986D01*
X109017199Y-110543685D01*
X108558043Y-109951698D01*
X108048559Y-109300450D01*
X107512844Y-108620366D01*
X106974996Y-107941873D01*
X106459111Y-107295395D01*
X105989286Y-106711360D01*
X105589618Y-106220192D01*
X105284204Y-105852317D01*
X105097142Y-105638161D01*
X105049339Y-105596154D01*
X103635538Y-105596154D01*
X103670584Y-105501212D01*
X103792498Y-105169171D01*
X105533109Y-105169171D01*
X107649776Y-107879443D01*
X108214544Y-108600493D01*
X108724682Y-109247765D01*
X109159012Y-109794717D01*
X109496359Y-110214807D01*
X109715545Y-110481493D01*
X109795228Y-110568503D01*
X109788357Y-110438894D01*
X109755263Y-110081712D01*
X109699215Y-109528221D01*
X109623479Y-108809687D01*
X109531325Y-107957375D01*
X109426020Y-107002550D01*
X109371697Y-106516419D01*
X109257053Y-105500927D01*
X109148728Y-104553038D01*
X109050865Y-103708113D01*
X108967607Y-103001512D01*
X108903097Y-102468597D01*
X108861477Y-102144729D01*
X108851982Y-102080526D01*
X108832570Y-101963871D01*
X109466981Y-101963871D01*
X109472487Y-102095045D01*
X109503730Y-102448608D01*
X109556727Y-102988137D01*
X109627493Y-103677209D01*
X109712043Y-104479402D01*
X109806395Y-105358293D01*
X109906563Y-106277459D01*
X110008563Y-107200477D01*
X110108412Y-108090925D01*
X110202124Y-108912379D01*
X110285717Y-109628417D01*
X110355206Y-110202615D01*
X110406606Y-110598552D01*
X110425249Y-110724265D01*
X110462447Y-110910818D01*
X110528847Y-111038431D01*
X110663656Y-111111647D01*
X110906083Y-111135012D01*
X111295337Y-111113069D01*
X111870626Y-111050365D01*
X112533471Y-110968623D01*
X113098217Y-110890769D01*
X113563571Y-110812815D01*
X113870483Y-110745458D01*
X113959483Y-110710284D01*
X114001274Y-110569575D01*
X114083082Y-110210498D01*
X114086941Y-110192306D01*
X114716191Y-110192306D01*
X114727040Y-110268358D01*
X114824828Y-110275678D01*
X115034147Y-110203004D01*
X115379583Y-110039077D01*
X115885727Y-109772639D01*
X116577166Y-109392429D01*
X117093628Y-109103646D01*
X117812831Y-108699586D01*
X118450497Y-108340675D01*
X118973362Y-108045688D01*
X119348168Y-107833400D01*
X119541651Y-107722587D01*
X119560717Y-107710988D01*
X119586957Y-107579747D01*
X119634875Y-107247332D01*
X119697471Y-106771496D01*
X119767743Y-106209996D01*
X119838690Y-105620585D01*
X119903309Y-105061019D01*
X119954601Y-104589052D01*
X119985563Y-104262439D01*
X119991479Y-104157628D01*
X119919658Y-104021751D01*
X119689708Y-103831330D01*
X119279767Y-103572073D01*
X118667974Y-103229684D01*
X118160046Y-102960142D01*
X117536214Y-102637837D01*
X116998147Y-102367644D01*
X116585647Y-102168927D01*
X116338521Y-102061049D01*
X116285743Y-102048347D01*
X116252003Y-102183124D01*
X116177017Y-102542524D01*
X116066960Y-103095009D01*
X115928004Y-103809041D01*
X115766323Y-104653082D01*
X115588088Y-105595593D01*
X115511790Y-106002470D01*
X115326687Y-106989966D01*
X115154574Y-107904324D01*
X115001924Y-108711451D01*
X114875211Y-109377256D01*
X114780909Y-109867648D01*
X114725492Y-110148534D01*
X114716191Y-110192306D01*
X114086941Y-110192306D01*
X114197897Y-109669296D01*
X114338705Y-108982214D01*
X114498496Y-108185493D01*
X114670258Y-107315377D01*
X114846977Y-106408110D01*
X115021644Y-105499934D01*
X115187245Y-104627092D01*
X115336769Y-103825828D01*
X115463204Y-103132385D01*
X115559538Y-102583006D01*
X115618760Y-102213934D01*
X115633857Y-102061413D01*
X115633075Y-102059777D01*
X115508054Y-102093736D01*
X115184505Y-102210516D01*
X114704905Y-102394031D01*
X114111732Y-102628192D01*
X113781089Y-102761156D01*
X111960781Y-103497536D01*
X110733355Y-102713139D01*
X110240106Y-102402943D01*
X109834240Y-102157190D01*
X109561233Y-102002789D01*
X109466981Y-101963871D01*
X108832570Y-101963871D01*
X108784585Y-101675504D01*
X107158847Y-102013244D01*
X105533109Y-102350983D01*
X105533109Y-105169171D01*
X103792498Y-105169171D01*
X103829810Y-105067550D01*
X104179777Y-104113752D01*
X104751571Y-104113752D01*
X104799229Y-104220968D01*
X104838408Y-104200590D01*
X104853997Y-104046006D01*
X104838408Y-104026914D01*
X104760971Y-104044795D01*
X104751571Y-104113752D01*
X104179777Y-104113752D01*
X105063673Y-101704784D01*
X105689704Y-101704784D01*
X105726364Y-101759056D01*
X105818749Y-101737382D01*
X106026074Y-101680016D01*
X106416850Y-101589172D01*
X106918859Y-101481372D01*
X107103781Y-101443441D01*
X107603675Y-101339284D01*
X107994029Y-101252516D01*
X108213873Y-101196917D01*
X108240330Y-101186567D01*
X108158344Y-101108461D01*
X107913740Y-100936771D01*
X107568196Y-100710425D01*
X107183385Y-100468352D01*
X106820984Y-100249481D01*
X106542668Y-100092742D01*
X106420463Y-100037885D01*
X106309621Y-100133060D01*
X106155000Y-100406845D01*
X106045073Y-100661957D01*
X105840499Y-101196905D01*
X105724896Y-101530957D01*
X105689704Y-101704784D01*
X105063673Y-101704784D01*
X105900571Y-99423905D01*
X106705417Y-99423905D01*
X106811328Y-99521135D01*
X107104287Y-99728063D01*
X107547133Y-100021732D01*
X108102704Y-100379186D01*
X108733837Y-100777471D01*
X109403372Y-101193629D01*
X110074146Y-101604705D01*
X110708997Y-101987744D01*
X111270765Y-102319789D01*
X111722288Y-102577884D01*
X112026402Y-102739074D01*
X112142500Y-102782548D01*
X112299853Y-102726546D01*
X112669090Y-102584356D01*
X113220674Y-102367680D01*
X113925069Y-102088224D01*
X114752736Y-101757689D01*
X115239792Y-101562154D01*
X116738076Y-101562154D01*
X118267131Y-102378003D01*
X118869335Y-102696318D01*
X119417760Y-102980741D01*
X119856399Y-103202596D01*
X120129250Y-103333205D01*
X120150060Y-103342169D01*
X120430970Y-103520753D01*
X120573707Y-103710326D01*
X120585190Y-103922521D01*
X120563273Y-104331066D01*
X120512496Y-104874576D01*
X120447782Y-105413933D01*
X120353956Y-106135941D01*
X120293636Y-106638903D01*
X120264398Y-106961796D01*
X120263817Y-107143595D01*
X120289468Y-107223279D01*
X120334206Y-107239906D01*
X120475226Y-107180566D01*
X120792807Y-107020027D01*
X121236286Y-106784510D01*
X121636770Y-106565756D01*
X122135773Y-106278090D01*
X122536179Y-106024376D01*
X122790597Y-105836103D01*
X122857212Y-105754839D01*
X122816627Y-105557194D01*
X122704525Y-105168879D01*
X122535384Y-104631604D01*
X122323684Y-103987082D01*
X122083902Y-103277023D01*
X121830518Y-102543137D01*
X121578009Y-101827137D01*
X121340855Y-101170732D01*
X121133534Y-100615635D01*
X120970525Y-100203555D01*
X120866306Y-99976204D01*
X120840455Y-99944823D01*
X120680638Y-99991618D01*
X120323391Y-100121498D01*
X119811998Y-100317938D01*
X119189748Y-100564414D01*
X118723029Y-100753126D01*
X116738076Y-101562154D01*
X115239792Y-101562154D01*
X115674139Y-101387780D01*
X116343794Y-101117855D01*
X117304211Y-100728011D01*
X118182964Y-100367286D01*
X118951983Y-100047519D01*
X119583199Y-99780545D01*
X120048543Y-99578204D01*
X120319946Y-99452331D01*
X120379516Y-99415898D01*
X120274959Y-99326530D01*
X119985123Y-99129606D01*
X119548890Y-98850308D01*
X119005139Y-98513822D01*
X118720507Y-98341282D01*
X117058673Y-97340419D01*
X109283395Y-97340419D01*
X107994406Y-98347279D01*
X107505800Y-98734176D01*
X107102208Y-99063727D01*
X106822751Y-99303253D01*
X106706554Y-99420079D01*
X106705417Y-99423905D01*
X105900571Y-99423905D01*
X105989006Y-99182886D01*
X107486955Y-98003248D01*
X108984904Y-96823611D01*
X113154144Y-96821502D01*
X117323385Y-96819393D01*
X119337677Y-98046852D01*
X121351968Y-99274311D01*
X122430231Y-102506164D01*
X122720759Y-103385935D01*
X122981649Y-104193178D01*
X123201861Y-104892329D01*
X123370358Y-105447826D01*
X123476102Y-105824108D01*
X123508494Y-105979982D01*
X123469877Y-106177263D01*
X123362593Y-106577791D01*
X123199497Y-107137384D01*
X122993439Y-107811857D01*
X122773724Y-108505945D01*
X122038954Y-110789943D01*
X122808136Y-119129309D01*
X121942864Y-122676266D01*
X121077592Y-126223222D01*
X119834612Y-127612364D01*
X118591631Y-129001506D01*
X116994256Y-133132757D01*
X116602468Y-134145363D01*
X116228936Y-135109532D01*
X115887043Y-135990812D01*
X115590173Y-136754754D01*
X115351708Y-137366904D01*
X115185034Y-137792811D01*
X115121662Y-137953135D01*
X114981863Y-138274155D01*
X114828614Y-138517166D01*
X114610222Y-138731137D01*
X114274993Y-138965042D01*
X113771235Y-139267851D01*
X113674135Y-139324457D01*
X112501827Y-140006653D01*
X112283406Y-142347638D01*
X112189082Y-143337094D01*
X112118554Y-144101963D01*
X112078798Y-144677626D01*
X112076787Y-145099466D01*
X112119498Y-145402863D01*
X112213905Y-145623201D01*
X112366984Y-145795861D01*
X112585710Y-145956225D01*
X112877059Y-146139674D01*
X113053053Y-146251701D01*
X113551574Y-146594320D01*
X114169844Y-147047662D01*
X114829684Y-147553063D01*
X115452913Y-148051861D01*
X115461114Y-148058607D01*
X116127367Y-148618846D01*
X116581928Y-149040008D01*
X116822965Y-149337375D01*
X116848644Y-149526225D01*
X116657132Y-149621839D01*
X116246598Y-149639498D01*
X115615209Y-149594481D01*
X115281007Y-149560267D01*
X114576272Y-149466020D01*
X113927894Y-149331761D01*
X113244507Y-149134051D01*
X112434747Y-148849450D01*
X112270396Y-148787893D01*
X110606145Y-148160241D01*
X109404755Y-148719570D01*
X108557115Y-149073159D01*
X107693745Y-149339158D01*
X106692774Y-149555076D01*
X106685945Y-149556326D01*
X105984305Y-149683884D01*
X105496300Y-149767596D01*
X105179258Y-149810243D01*
X104990508Y-149814607D01*
X104887379Y-149783470D01*
X104827199Y-149719614D01*
X104801659Y-149679161D01*
X104833350Y-149495285D01*
X105066854Y-149215067D01*
X105271923Y-149036235D01*
X106189116Y-149036235D01*
X106218020Y-149052214D01*
X106369576Y-149027595D01*
X106709248Y-148962357D01*
X107170204Y-148869429D01*
X107281999Y-148846398D01*
X107885598Y-148687754D01*
X108587339Y-148453033D01*
X109254785Y-148187407D01*
X109382396Y-148129988D01*
X109881031Y-147906472D01*
X110297030Y-147732654D01*
X110569576Y-147633351D01*
X110633675Y-147619393D01*
X110805082Y-147663601D01*
X111168088Y-147784346D01*
X111671469Y-147963809D01*
X112264000Y-148184171D01*
X112337738Y-148212166D01*
X113026902Y-148456066D01*
X113722395Y-148670936D01*
X114339453Y-148832301D01*
X114761842Y-148912075D01*
X115201936Y-148963217D01*
X115522633Y-148994246D01*
X115654387Y-148998452D01*
X115578501Y-148909186D01*
X115333029Y-148697762D01*
X114958776Y-148395653D01*
X114496548Y-148034330D01*
X113987151Y-147645265D01*
X113471390Y-147259931D01*
X112990071Y-146909799D01*
X112584000Y-146626341D01*
X112543370Y-146599039D01*
X112096310Y-146293395D01*
X111735785Y-146034175D01*
X111514578Y-145859934D01*
X111472967Y-145817147D01*
X111463235Y-145658301D01*
X111476903Y-145281336D01*
X111511357Y-144727342D01*
X111563980Y-144037411D01*
X111632156Y-143252633D01*
X111645152Y-143112237D01*
X111716739Y-142320486D01*
X111775429Y-141621521D01*
X111818252Y-141055131D01*
X111842240Y-140661106D01*
X111844421Y-140479233D01*
X111842206Y-140472027D01*
X111718256Y-140512246D01*
X111422719Y-140660162D01*
X111007174Y-140889066D01*
X110749247Y-141037996D01*
X110364101Y-141260158D01*
X110079429Y-141439400D01*
X109884197Y-141617067D01*
X109767373Y-141834503D01*
X109717922Y-142133054D01*
X109724813Y-142554064D01*
X109777010Y-143138878D01*
X109863481Y-143928842D01*
X109896699Y-144232726D01*
X109994149Y-145094865D01*
X110061106Y-145740346D01*
X110079106Y-146212746D01*
X110029685Y-146555640D01*
X109894382Y-146812606D01*
X109654731Y-147027220D01*
X109292270Y-147243060D01*
X108788536Y-147503701D01*
X108432615Y-147688229D01*
X107694769Y-148084681D01*
X107076577Y-148433056D01*
X106602957Y-148718005D01*
X106298831Y-148924181D01*
X106189116Y-149036235D01*
X105271923Y-149036235D01*
X105472377Y-148861428D01*
X106020122Y-148457293D01*
G37*
%TD*%
%LPC*%
D10*
%TO.C,U9*%
X211455000Y-92670546D03*
X211455000Y-95210546D03*
X211455000Y-97750546D03*
X211455000Y-100290546D03*
X211455000Y-102830546D03*
X211455000Y-105370546D03*
X226695000Y-105370546D03*
X226695000Y-102830546D03*
X226695000Y-100290546D03*
X226695000Y-97750546D03*
X226695000Y-95210546D03*
%TD*%
D11*
%TO.C,SW36*%
X170497500Y-149860000D03*
D12*
X161607500Y-152400000D03*
D11*
X164147500Y-147320000D03*
D12*
X171767500Y-152400000D03*
D13*
X166687500Y-152400000D03*
%TD*%
D12*
%TO.C,SW32*%
X190817500Y-152400000D03*
D11*
X189547500Y-149860000D03*
X183197500Y-147320000D03*
D12*
X180657500Y-152400000D03*
D13*
X185737500Y-152400000D03*
%TD*%
D14*
%TO.C,JP1*%
X183197500Y-104775000D03*
X185737500Y-104775000D03*
X188277500Y-104775000D03*
%TD*%
D12*
%TO.C,SW29*%
X205105000Y-95250000D03*
D11*
X197485000Y-90170000D03*
D13*
X200025000Y-95250000D03*
D11*
X203835000Y-92710000D03*
D12*
X194945000Y-95250000D03*
%TD*%
%TO.C,SW48*%
X104457500Y-152400000D03*
D13*
X109537500Y-152400000D03*
D12*
X114617500Y-152400000D03*
D11*
X106997500Y-147320000D03*
X113347500Y-149860000D03*
%TD*%
%TO.C,SW4*%
X316547500Y-147320000D03*
D12*
X324167500Y-152400000D03*
D13*
X319087500Y-152400000D03*
D12*
X314007500Y-152400000D03*
D11*
X322897500Y-149860000D03*
%TD*%
D13*
%TO.C,SW6*%
X309562500Y-114300000D03*
D11*
X307022500Y-109220000D03*
D12*
X314642500Y-114300000D03*
X304482500Y-114300000D03*
D11*
X313372500Y-111760000D03*
%TD*%
%TO.C,SW37*%
X159385000Y-90170000D03*
D12*
X156845000Y-95250000D03*
D11*
X165735000Y-92710000D03*
D13*
X161925000Y-95250000D03*
D12*
X167005000Y-95250000D03*
%TD*%
D11*
%TO.C,SW45*%
X121285000Y-90170000D03*
D12*
X118745000Y-95250000D03*
D13*
X123825000Y-95250000D03*
D12*
X128905000Y-95250000D03*
D11*
X127635000Y-92710000D03*
%TD*%
%TO.C,SW50*%
X97472500Y-109220000D03*
D13*
X100012500Y-114300000D03*
D12*
X94932500Y-114300000D03*
D11*
X103822500Y-111760000D03*
D12*
X105092500Y-114300000D03*
%TD*%
%TO.C,SW30*%
X190182500Y-114300000D03*
D11*
X192722500Y-109220000D03*
X199072500Y-111760000D03*
D12*
X200342500Y-114300000D03*
D13*
X195262500Y-114300000D03*
%TD*%
D11*
%TO.C,SW9*%
X299085000Y-92710000D03*
X292735000Y-90170000D03*
D12*
X290195000Y-95250000D03*
D13*
X295275000Y-95250000D03*
D12*
X300355000Y-95250000D03*
%TD*%
%TO.C,SW61*%
X167005000Y-171450000D03*
D13*
X161925000Y-171450000D03*
D11*
X159385000Y-166370000D03*
D12*
X156845000Y-171450000D03*
D11*
X165735000Y-168910000D03*
%TD*%
D12*
%TO.C,SW52*%
X95567500Y-152400000D03*
D11*
X94297500Y-149860000D03*
D13*
X90487500Y-152400000D03*
D11*
X87947500Y-147320000D03*
D12*
X85407500Y-152400000D03*
%TD*%
D11*
%TO.C,SW55*%
X73660000Y-128270000D03*
D12*
X71120000Y-133350000D03*
D11*
X80010000Y-130810000D03*
D13*
X76200000Y-133350000D03*
D12*
X81280000Y-133350000D03*
%TD*%
%TO.C,SW16*%
X256857500Y-152400000D03*
X267017500Y-152400000D03*
D13*
X261937500Y-152400000D03*
D11*
X259397500Y-147320000D03*
X265747500Y-149860000D03*
%TD*%
D13*
%TO.C,SW47*%
X114300000Y-133350000D03*
D12*
X109220000Y-133350000D03*
D11*
X118110000Y-130810000D03*
D12*
X119380000Y-133350000D03*
D11*
X111760000Y-128270000D03*
%TD*%
%TO.C,SW56*%
X75247500Y-149860000D03*
D13*
X71437500Y-152400000D03*
D11*
X68897500Y-147320000D03*
D12*
X66357500Y-152400000D03*
X76517500Y-152400000D03*
%TD*%
D13*
%TO.C,SW46*%
X119062500Y-114300000D03*
D12*
X113982500Y-114300000D03*
X124142500Y-114300000D03*
D11*
X116522500Y-109220000D03*
X122872500Y-111760000D03*
%TD*%
D12*
%TO.C,SW18*%
X257492500Y-114300000D03*
D11*
X249872500Y-109220000D03*
D13*
X252412500Y-114300000D03*
D12*
X247332500Y-114300000D03*
D11*
X256222500Y-111760000D03*
%TD*%
D12*
%TO.C,SW3*%
X318770000Y-133350000D03*
D11*
X327660000Y-130810000D03*
D12*
X328930000Y-133350000D03*
D11*
X321310000Y-128270000D03*
D13*
X323850000Y-133350000D03*
%TD*%
%TO.C,SW58*%
X238125000Y-171450000D03*
D11*
X241935000Y-168910000D03*
X235585000Y-166370000D03*
D12*
X243205000Y-171450000D03*
X233045000Y-171450000D03*
%TD*%
%TO.C,SW42*%
X143192500Y-114300000D03*
D11*
X141922500Y-111760000D03*
D12*
X133032500Y-114300000D03*
D11*
X135572500Y-109220000D03*
D13*
X138112500Y-114300000D03*
%TD*%
D11*
%TO.C,SW13*%
X280035000Y-92710000D03*
D12*
X271145000Y-95250000D03*
D13*
X276225000Y-95250000D03*
D11*
X273685000Y-90170000D03*
D12*
X281305000Y-95250000D03*
%TD*%
D11*
%TO.C,SW59*%
X207010000Y-166370000D03*
D13*
X209550000Y-171450000D03*
X221488000Y-163195000D03*
D12*
X214630000Y-171450000D03*
X204470000Y-171450000D03*
D11*
X213360000Y-168910000D03*
X197612000Y-178435000D03*
X221488000Y-178435000D03*
D13*
X197612000Y-163195000D03*
%TD*%
D12*
%TO.C,SW24*%
X228917500Y-152400000D03*
X218757500Y-152400000D03*
D11*
X227647500Y-149860000D03*
D13*
X223837500Y-152400000D03*
D11*
X221297500Y-147320000D03*
%TD*%
D12*
%TO.C,SW21*%
X233045000Y-95250000D03*
D11*
X241935000Y-92710000D03*
X235585000Y-90170000D03*
D12*
X243205000Y-95250000D03*
D13*
X238125000Y-95250000D03*
%TD*%
D12*
%TO.C,SW38*%
X152082500Y-114300000D03*
D13*
X157162500Y-114300000D03*
D11*
X160972500Y-111760000D03*
X154622500Y-109220000D03*
D12*
X162242500Y-114300000D03*
%TD*%
%TO.C,SW8*%
X294957500Y-152400000D03*
D11*
X303847500Y-149860000D03*
X297497500Y-147320000D03*
D13*
X300037500Y-152400000D03*
D12*
X305117500Y-152400000D03*
%TD*%
D13*
%TO.C,SW33*%
X180975000Y-95250000D03*
D12*
X175895000Y-95250000D03*
D11*
X184785000Y-92710000D03*
X178435000Y-90170000D03*
D12*
X186055000Y-95250000D03*
%TD*%
D13*
%TO.C,SW1*%
X333375000Y-95250000D03*
D11*
X337185000Y-92710000D03*
D12*
X328295000Y-95250000D03*
D11*
X330835000Y-90170000D03*
D12*
X338455000Y-95250000D03*
%TD*%
%TO.C,SW57*%
X252095000Y-171450000D03*
D11*
X260985000Y-168910000D03*
X254635000Y-166370000D03*
D13*
X257175000Y-171450000D03*
D12*
X262255000Y-171450000D03*
%TD*%
D13*
%TO.C,SW40*%
X147637500Y-152400000D03*
D12*
X142557500Y-152400000D03*
D11*
X151447500Y-149860000D03*
X145097500Y-147320000D03*
D12*
X152717500Y-152400000D03*
%TD*%
%TO.C,SW28*%
X209867500Y-152400000D03*
X199707500Y-152400000D03*
D11*
X202247500Y-147320000D03*
D13*
X204787500Y-152400000D03*
D11*
X208597500Y-149860000D03*
%TD*%
D12*
%TO.C,SW54*%
X75882500Y-114300000D03*
X86042500Y-114300000D03*
D11*
X78422500Y-109220000D03*
X84772500Y-111760000D03*
D13*
X80962500Y-114300000D03*
%TD*%
D11*
%TO.C,SW12*%
X284797500Y-149860000D03*
D12*
X275907500Y-152400000D03*
D11*
X278447500Y-147320000D03*
D13*
X280987500Y-152400000D03*
D12*
X286067500Y-152400000D03*
%TD*%
%TO.C,SW7*%
X309880000Y-133350000D03*
X299720000Y-133350000D03*
D11*
X308610000Y-130810000D03*
D13*
X304800000Y-133350000D03*
D11*
X302260000Y-128270000D03*
%TD*%
D14*
%TO.C,JP2*%
X194310000Y-104775000D03*
X196850000Y-104775000D03*
X199390000Y-104775000D03*
%TD*%
D13*
%TO.C,SW10*%
X290512500Y-114300000D03*
D12*
X285432500Y-114300000D03*
D11*
X287972500Y-109220000D03*
X294322500Y-111760000D03*
D12*
X295592500Y-114300000D03*
%TD*%
%TO.C,SW49*%
X109855000Y-95250000D03*
D11*
X102235000Y-90170000D03*
D12*
X99695000Y-95250000D03*
D11*
X108585000Y-92710000D03*
D13*
X104775000Y-95250000D03*
%TD*%
D11*
%TO.C,SW39*%
X156210000Y-130810000D03*
X149860000Y-128270000D03*
D13*
X152400000Y-133350000D03*
D12*
X147320000Y-133350000D03*
X157480000Y-133350000D03*
%TD*%
D11*
%TO.C,SW51*%
X92710000Y-128270000D03*
D12*
X90170000Y-133350000D03*
D11*
X99060000Y-130810000D03*
D12*
X100330000Y-133350000D03*
D13*
X95250000Y-133350000D03*
%TD*%
D12*
%TO.C,SW15*%
X271780000Y-133350000D03*
D11*
X270510000Y-130810000D03*
D13*
X266700000Y-133350000D03*
D12*
X261620000Y-133350000D03*
D11*
X264160000Y-128270000D03*
%TD*%
%TO.C,SW34*%
X180022500Y-111760000D03*
D12*
X181292500Y-114300000D03*
D13*
X176212500Y-114300000D03*
D11*
X173672500Y-109220000D03*
D12*
X171132500Y-114300000D03*
%TD*%
D11*
%TO.C,SW22*%
X230822500Y-109220000D03*
D13*
X233362500Y-114300000D03*
D12*
X238442500Y-114300000D03*
X228282500Y-114300000D03*
D11*
X237172500Y-111760000D03*
%TD*%
%TO.C,SW20*%
X240347500Y-147320000D03*
X246697500Y-149860000D03*
D12*
X237807500Y-152400000D03*
D13*
X242887500Y-152400000D03*
D12*
X247967500Y-152400000D03*
%TD*%
%TO.C,SW17*%
X252095000Y-95250000D03*
D11*
X254635000Y-90170000D03*
D12*
X262255000Y-95250000D03*
D11*
X260985000Y-92710000D03*
D13*
X257175000Y-95250000D03*
%TD*%
D12*
%TO.C,SW5*%
X309245000Y-95250000D03*
D11*
X318135000Y-92710000D03*
D12*
X319405000Y-95250000D03*
D11*
X311785000Y-90170000D03*
D13*
X314325000Y-95250000D03*
%TD*%
D12*
%TO.C,SW11*%
X280670000Y-133350000D03*
X290830000Y-133350000D03*
D11*
X289560000Y-130810000D03*
X283210000Y-128270000D03*
D13*
X285750000Y-133350000D03*
%TD*%
D12*
%TO.C,SW23*%
X233680000Y-133350000D03*
D13*
X228600000Y-133350000D03*
D11*
X232410000Y-130810000D03*
X226060000Y-128270000D03*
D12*
X223520000Y-133350000D03*
%TD*%
%TO.C,SW41*%
X147955000Y-95250000D03*
D11*
X140335000Y-90170000D03*
D12*
X137795000Y-95250000D03*
D11*
X146685000Y-92710000D03*
D13*
X142875000Y-95250000D03*
%TD*%
D12*
%TO.C,SW35*%
X166370000Y-133350000D03*
X176530000Y-133350000D03*
D11*
X175260000Y-130810000D03*
X168910000Y-128270000D03*
D13*
X171450000Y-133350000D03*
%TD*%
D11*
%TO.C,SW43*%
X137160000Y-130810000D03*
X130810000Y-128270000D03*
D13*
X133350000Y-133350000D03*
D12*
X128270000Y-133350000D03*
X138430000Y-133350000D03*
%TD*%
D13*
%TO.C,SW60*%
X180975000Y-171450000D03*
D12*
X186055000Y-171450000D03*
D11*
X178435000Y-166370000D03*
D12*
X175895000Y-171450000D03*
D11*
X184785000Y-168910000D03*
%TD*%
%TO.C,SW2*%
X326072500Y-109220000D03*
X332422500Y-111760000D03*
D13*
X328612500Y-114300000D03*
D12*
X333692500Y-114300000D03*
X323532500Y-114300000D03*
%TD*%
D11*
%TO.C,SW26*%
X218122500Y-111760000D03*
X211772500Y-109220000D03*
D12*
X209232500Y-114300000D03*
D13*
X214312500Y-114300000D03*
D12*
X219392500Y-114300000D03*
%TD*%
D11*
%TO.C,SW14*%
X268922500Y-109220000D03*
D12*
X276542500Y-114300000D03*
X266382500Y-114300000D03*
D11*
X275272500Y-111760000D03*
D13*
X271462500Y-114300000D03*
%TD*%
%TO.C,SW44*%
X128587500Y-152400000D03*
D11*
X132397500Y-149860000D03*
X126047500Y-147320000D03*
D12*
X123507500Y-152400000D03*
X133667500Y-152400000D03*
%TD*%
%TO.C,SW27*%
X214630000Y-133350000D03*
X204470000Y-133350000D03*
D11*
X213360000Y-130810000D03*
D13*
X209550000Y-133350000D03*
D11*
X207010000Y-128270000D03*
%TD*%
%TO.C,SW31*%
X187960000Y-128270000D03*
D12*
X195580000Y-133350000D03*
D13*
X190500000Y-133350000D03*
D12*
X185420000Y-133350000D03*
D11*
X194310000Y-130810000D03*
%TD*%
%TO.C,SW19*%
X245110000Y-128270000D03*
D12*
X252730000Y-133350000D03*
X242570000Y-133350000D03*
D13*
X247650000Y-133350000D03*
D11*
X251460000Y-130810000D03*
%TD*%
D12*
%TO.C,SW25*%
X213995000Y-95250000D03*
D11*
X222885000Y-92710000D03*
X216535000Y-90170000D03*
D12*
X224155000Y-95250000D03*
D13*
X219075000Y-95250000D03*
%TD*%
D11*
%TO.C,SW53*%
X89535000Y-92710000D03*
X83185000Y-90170000D03*
D13*
X85725000Y-95250000D03*
D12*
X80645000Y-95250000D03*
X90805000Y-95250000D03*
%TD*%
D15*
X83439000Y-140081000D03*
X112141000Y-140081000D03*
X289687000Y-104013000D03*
X209423000Y-104013000D03*
X185801000Y-106299000D03*
X310515000Y-140081000D03*
X224022401Y-167513000D03*
X193040000Y-167513000D03*
X177419000Y-106299000D03*
X99060000Y-104140000D03*
X324866000Y-104013000D03*
X180848000Y-124460000D03*
X251587000Y-104013000D03*
X251333000Y-157861000D03*
X182626000Y-140081000D03*
X272161000Y-140081000D03*
X180848000Y-125984000D03*
X195326000Y-106299000D03*
X137160000Y-104140000D03*
X180467000Y-140081000D03*
X175260000Y-104140000D03*
X165481000Y-157988000D03*
X140462000Y-140081000D03*
X251206000Y-101727000D03*
X281559000Y-103251000D03*
X320548000Y-118872000D03*
X127000000Y-124333000D03*
X317627000Y-124333000D03*
X279527000Y-124333000D03*
X241300000Y-124333000D03*
X88900000Y-124206000D03*
X165227000Y-124333000D03*
X203200000Y-124333000D03*
X243586000Y-103124000D03*
X228854000Y-103124000D03*
X289306000Y-101981000D03*
X319913000Y-103124000D03*
X328803000Y-103124000D03*
X327406000Y-101854000D03*
X309372000Y-140843000D03*
X280162000Y-140843000D03*
X136779000Y-140843000D03*
X114300000Y-140970000D03*
X85598000Y-140843000D03*
X108204000Y-140843000D03*
X91948000Y-105156000D03*
X77978000Y-142240000D03*
X72599174Y-142191550D03*
X80010000Y-142240000D03*
X129159000Y-103378000D03*
X98933000Y-101727000D03*
X137160000Y-102108000D03*
X167640000Y-103378000D03*
X184785000Y-101854000D03*
X175133000Y-101854000D03*
X120142000Y-125222000D03*
X272542000Y-125222000D03*
X163830000Y-125222000D03*
X316230000Y-125222000D03*
X196342000Y-125222000D03*
X310642000Y-125222000D03*
X290195000Y-125222000D03*
X158242000Y-125222000D03*
X81915000Y-125222000D03*
X176276000Y-125222000D03*
X125730000Y-125222000D03*
X234442000Y-125222000D03*
X99822000Y-125222000D03*
X87630000Y-125222000D03*
X206756000Y-162052000D03*
X252095000Y-125222000D03*
X201930000Y-125222000D03*
X214503000Y-162052000D03*
X278130000Y-125222000D03*
X328422000Y-125222000D03*
X213995000Y-125222000D03*
X137922000Y-125222000D03*
X240030000Y-125222000D03*
X314071000Y-127508000D03*
X315595000Y-127508000D03*
X199771000Y-126492000D03*
X201189458Y-126464221D03*
X285877000Y-123444000D03*
X133477000Y-123444000D03*
X171831000Y-123444000D03*
X219710000Y-123444000D03*
X184277000Y-123444000D03*
X188087000Y-123444000D03*
X214376000Y-152654000D03*
X209595992Y-123441782D03*
X323977000Y-123444000D03*
X95250000Y-123444000D03*
X214313704Y-160318935D03*
X247650000Y-123444000D03*
X285242000Y-122809000D03*
X213741000Y-152146000D03*
X247015000Y-122809000D03*
X208915000Y-122809000D03*
X185039000Y-122809000D03*
X170942000Y-122809000D03*
X323215000Y-122809000D03*
X219075000Y-122809000D03*
X94615000Y-122809000D03*
X187325000Y-122809000D03*
X213741000Y-159639000D03*
X132842000Y-122809000D03*
X314452000Y-118237000D03*
X225044000Y-106172000D03*
X279654000Y-118872000D03*
X314833000Y-119507000D03*
X241300000Y-118872000D03*
X276733000Y-119507000D03*
X238633000Y-119507000D03*
X203327000Y-118872000D03*
X185039000Y-118872000D03*
X187498000Y-118872000D03*
X200533000Y-119507000D03*
X165100000Y-118872000D03*
X162560000Y-119507000D03*
X126873000Y-118872000D03*
X88900000Y-118872000D03*
X124333000Y-119507000D03*
X177673000Y-155702000D03*
X86106000Y-119507000D03*
X175514000Y-155702000D03*
X204978000Y-155702000D03*
X275717000Y-127635000D03*
X277114000Y-127508000D03*
X239478497Y-126749449D03*
X237998000Y-126746000D03*
X214503000Y-105029000D03*
X214503000Y-107950000D03*
X163012348Y-126741857D03*
X161544000Y-126746000D03*
X124907986Y-126739324D03*
X123317000Y-126746000D03*
X85344000Y-126619000D03*
X86949010Y-126620829D03*
M02*
