%TF.GenerationSoftware,KiCad,Pcbnew,(6.0.6-0)*%
%TF.CreationDate,2022-08-16T09:08:47-07:00*%
%TF.ProjectId,purple-owl,70757270-6c65-42d6-9f77-6c2e6b696361,1.0*%
%TF.SameCoordinates,Original*%
%TF.FileFunction,Paste,Top*%
%TF.FilePolarity,Positive*%
%FSLAX46Y46*%
G04 Gerber Fmt 4.6, Leading zero omitted, Abs format (unit mm)*
G04 Created by KiCad (PCBNEW (6.0.6-0)) date 2022-08-16 09:08:47*
%MOMM*%
%LPD*%
G01*
G04 APERTURE LIST*
G04 Aperture macros list*
%AMRoundRect*
0 Rectangle with rounded corners*
0 $1 Rounding radius*
0 $2 $3 $4 $5 $6 $7 $8 $9 X,Y pos of 4 corners*
0 Add a 4 corners polygon primitive as box body*
4,1,4,$2,$3,$4,$5,$6,$7,$8,$9,$2,$3,0*
0 Add four circle primitives for the rounded corners*
1,1,$1+$1,$2,$3*
1,1,$1+$1,$4,$5*
1,1,$1+$1,$6,$7*
1,1,$1+$1,$8,$9*
0 Add four rect primitives between the rounded corners*
20,1,$1+$1,$2,$3,$4,$5,0*
20,1,$1+$1,$4,$5,$6,$7,0*
20,1,$1+$1,$6,$7,$8,$9,0*
20,1,$1+$1,$8,$9,$2,$3,0*%
G04 Aperture macros list end*
%ADD10R,0.500000X0.800000*%
%ADD11R,0.400000X0.800000*%
%ADD12RoundRect,0.100000X0.637500X0.100000X-0.637500X0.100000X-0.637500X-0.100000X0.637500X-0.100000X0*%
%ADD13R,1.500000X1.000000*%
G04 APERTURE END LIST*
D10*
%TO.C,RN6*%
X237737500Y-123321875D03*
D11*
X236937500Y-123321875D03*
X236137500Y-123321875D03*
D10*
X235337500Y-123321875D03*
X235337500Y-125121875D03*
D11*
X236137500Y-125121875D03*
X236937500Y-125121875D03*
D10*
X237737500Y-125121875D03*
%TD*%
D12*
%TO.C,U7*%
X93350000Y-123433000D03*
X93350000Y-122783000D03*
X93350000Y-122133000D03*
X93350000Y-121483000D03*
X93350000Y-120833000D03*
X93350000Y-120183000D03*
X93350000Y-119533000D03*
X93350000Y-118883000D03*
X87625000Y-118883000D03*
X87625000Y-119533000D03*
X87625000Y-120183000D03*
X87625000Y-120833000D03*
X87625000Y-121483000D03*
X87625000Y-122133000D03*
X87625000Y-122783000D03*
X87625000Y-123433000D03*
%TD*%
D13*
%TO.C,D10*%
X139234375Y-140084375D03*
X139234375Y-143284375D03*
X144134375Y-143284375D03*
X144134375Y-140084375D03*
%TD*%
D12*
%TO.C,U4*%
X207650000Y-123433000D03*
X207650000Y-122783000D03*
X207650000Y-122133000D03*
X207650000Y-121483000D03*
X207650000Y-120833000D03*
X207650000Y-120183000D03*
X207650000Y-119533000D03*
X207650000Y-118883000D03*
X201925000Y-118883000D03*
X201925000Y-119533000D03*
X201925000Y-120183000D03*
X201925000Y-120833000D03*
X201925000Y-121483000D03*
X201925000Y-122133000D03*
X201925000Y-122783000D03*
X201925000Y-123433000D03*
%TD*%
%TO.C,U5*%
X169550000Y-123433000D03*
X169550000Y-122783000D03*
X169550000Y-122133000D03*
X169550000Y-121483000D03*
X169550000Y-120833000D03*
X169550000Y-120183000D03*
X169550000Y-119533000D03*
X169550000Y-118883000D03*
X163825000Y-118883000D03*
X163825000Y-119533000D03*
X163825000Y-120183000D03*
X163825000Y-120833000D03*
X163825000Y-121483000D03*
X163825000Y-122133000D03*
X163825000Y-122783000D03*
X163825000Y-123433000D03*
%TD*%
D13*
%TO.C,D15*%
X173900000Y-103993750D03*
X173900000Y-100793750D03*
X169000000Y-100793750D03*
X169000000Y-103993750D03*
%TD*%
D10*
%TO.C,RN1*%
X325063000Y-125233000D03*
D11*
X325863000Y-125233000D03*
X326663000Y-125233000D03*
D10*
X327463000Y-125233000D03*
X327463000Y-123433000D03*
D11*
X326663000Y-123433000D03*
X325863000Y-123433000D03*
D10*
X325063000Y-123433000D03*
%TD*%
%TO.C,RN9*%
X172917000Y-125121875D03*
D11*
X173717000Y-125121875D03*
X174517000Y-125121875D03*
D10*
X175317000Y-125121875D03*
X175317000Y-123321875D03*
D11*
X174517000Y-123321875D03*
X173717000Y-123321875D03*
D10*
X172917000Y-123321875D03*
%TD*%
D12*
%TO.C,U1*%
X321950000Y-123433000D03*
X321950000Y-122783000D03*
X321950000Y-122133000D03*
X321950000Y-121483000D03*
X321950000Y-120833000D03*
X321950000Y-120183000D03*
X321950000Y-119533000D03*
X321950000Y-118883000D03*
X316225000Y-118883000D03*
X316225000Y-119533000D03*
X316225000Y-120183000D03*
X316225000Y-120833000D03*
X316225000Y-121483000D03*
X316225000Y-122133000D03*
X316225000Y-122783000D03*
X316225000Y-123433000D03*
%TD*%
%TO.C,U6*%
X131450000Y-123433000D03*
X131450000Y-122783000D03*
X131450000Y-122133000D03*
X131450000Y-121483000D03*
X131450000Y-120833000D03*
X131450000Y-120183000D03*
X131450000Y-119533000D03*
X131450000Y-118883000D03*
X125725000Y-118883000D03*
X125725000Y-119533000D03*
X125725000Y-120183000D03*
X125725000Y-120833000D03*
X125725000Y-121483000D03*
X125725000Y-122133000D03*
X125725000Y-122783000D03*
X125725000Y-123433000D03*
%TD*%
D10*
%TO.C,RN10*%
X161537500Y-123321875D03*
D11*
X160737500Y-123321875D03*
X159937500Y-123321875D03*
D10*
X159137500Y-123321875D03*
X159137500Y-125121875D03*
D11*
X159937500Y-125121875D03*
X160737500Y-125121875D03*
D10*
X161537500Y-125121875D03*
%TD*%
%TO.C,RN5*%
X248736000Y-125106000D03*
D11*
X249536000Y-125106000D03*
X250336000Y-125106000D03*
D10*
X251136000Y-125106000D03*
X251136000Y-123306000D03*
D11*
X250336000Y-123306000D03*
X249536000Y-123306000D03*
D10*
X248736000Y-123306000D03*
%TD*%
D13*
%TO.C,D12*%
X82084375Y-140084375D03*
X82084375Y-143284375D03*
X86984375Y-143284375D03*
X86984375Y-140084375D03*
%TD*%
%TO.C,D4*%
X311875000Y-140084375D03*
X311875000Y-143284375D03*
X316775000Y-143284375D03*
X316775000Y-140084375D03*
%TD*%
%TO.C,D9*%
X164237500Y-157943750D03*
X164237500Y-161143750D03*
X169137500Y-161143750D03*
X169137500Y-157943750D03*
%TD*%
%TO.C,D2*%
X288200000Y-103993750D03*
X288200000Y-100793750D03*
X283300000Y-100793750D03*
X283300000Y-103993750D03*
%TD*%
%TO.C,D3*%
X326300000Y-103993750D03*
X326300000Y-100793750D03*
X321400000Y-100793750D03*
X321400000Y-103993750D03*
%TD*%
D10*
%TO.C,RN12*%
X123437500Y-123321875D03*
D11*
X122637500Y-123321875D03*
X121837500Y-123321875D03*
D10*
X121037500Y-123321875D03*
X121037500Y-125121875D03*
D11*
X121837500Y-125121875D03*
X122637500Y-125121875D03*
D10*
X123437500Y-125121875D03*
%TD*%
D13*
%TO.C,D11*%
X110659375Y-140084375D03*
X110659375Y-143284375D03*
X115559375Y-143284375D03*
X115559375Y-140084375D03*
%TD*%
%TO.C,D7*%
X222578125Y-167468750D03*
X222578125Y-170668750D03*
X227478125Y-170668750D03*
X227478125Y-167468750D03*
%TD*%
D10*
%TO.C,RN11*%
X134563000Y-125121875D03*
D11*
X135363000Y-125121875D03*
X136163000Y-125121875D03*
D10*
X136963000Y-125121875D03*
X136963000Y-123321875D03*
D11*
X136163000Y-123321875D03*
X135363000Y-123321875D03*
D10*
X134563000Y-123321875D03*
%TD*%
%TO.C,RN7*%
X210636000Y-125121875D03*
D11*
X211436000Y-125121875D03*
X212236000Y-125121875D03*
D10*
X213036000Y-125121875D03*
X213036000Y-123321875D03*
D11*
X212236000Y-123321875D03*
X211436000Y-123321875D03*
D10*
X210636000Y-123321875D03*
%TD*%
D12*
%TO.C,U8*%
X212412500Y-160231250D03*
X212412500Y-159581250D03*
X212412500Y-158931250D03*
X212412500Y-158281250D03*
X212412500Y-157631250D03*
X212412500Y-156981250D03*
X212412500Y-156331250D03*
X212412500Y-155681250D03*
X206687500Y-155681250D03*
X206687500Y-156331250D03*
X206687500Y-156981250D03*
X206687500Y-157631250D03*
X206687500Y-158281250D03*
X206687500Y-158931250D03*
X206687500Y-159581250D03*
X206687500Y-160231250D03*
%TD*%
D13*
%TO.C,D13*%
X97700000Y-103993750D03*
X97700000Y-100793750D03*
X92800000Y-100793750D03*
X92800000Y-103993750D03*
%TD*%
D10*
%TO.C,RN14*%
X85337500Y-123321875D03*
D11*
X84537500Y-123321875D03*
X83737500Y-123321875D03*
D10*
X82937500Y-123321875D03*
X82937500Y-125121875D03*
D11*
X83737500Y-125121875D03*
X84537500Y-125121875D03*
D10*
X85337500Y-125121875D03*
%TD*%
D13*
%TO.C,D16*%
X208031250Y-103993750D03*
X208031250Y-100793750D03*
X203131250Y-100793750D03*
X203131250Y-103993750D03*
%TD*%
%TO.C,D5*%
X273775000Y-140084375D03*
X273775000Y-143284375D03*
X278675000Y-143284375D03*
X278675000Y-140084375D03*
%TD*%
D10*
%TO.C,RN8*%
X199637500Y-123321875D03*
D11*
X198837500Y-123321875D03*
X198037500Y-123321875D03*
D10*
X197237500Y-123321875D03*
X197237500Y-125121875D03*
D11*
X198037500Y-125121875D03*
X198837500Y-125121875D03*
D10*
X199637500Y-125121875D03*
%TD*%
D12*
%TO.C,U3*%
X245750000Y-123433000D03*
X245750000Y-122783000D03*
X245750000Y-122133000D03*
X245750000Y-121483000D03*
X245750000Y-120833000D03*
X245750000Y-120183000D03*
X245750000Y-119533000D03*
X245750000Y-118883000D03*
X240025000Y-118883000D03*
X240025000Y-119533000D03*
X240025000Y-120183000D03*
X240025000Y-120833000D03*
X240025000Y-121483000D03*
X240025000Y-122133000D03*
X240025000Y-122783000D03*
X240025000Y-123433000D03*
%TD*%
D10*
%TO.C,RN4*%
X275837500Y-123321875D03*
D11*
X275037500Y-123321875D03*
X274237500Y-123321875D03*
D10*
X273437500Y-123321875D03*
X273437500Y-125121875D03*
D11*
X274237500Y-125121875D03*
X275037500Y-125121875D03*
D10*
X275837500Y-125121875D03*
%TD*%
%TO.C,RN15*%
X215716000Y-162031250D03*
D11*
X216516000Y-162031250D03*
X217316000Y-162031250D03*
D10*
X218116000Y-162031250D03*
X218116000Y-160231250D03*
D11*
X217316000Y-160231250D03*
X216516000Y-160231250D03*
D10*
X215716000Y-160231250D03*
%TD*%
%TO.C,RN3*%
X286963000Y-125121875D03*
D11*
X287763000Y-125121875D03*
X288563000Y-125121875D03*
D10*
X289363000Y-125121875D03*
X289363000Y-123321875D03*
D11*
X288563000Y-123321875D03*
X287763000Y-123321875D03*
D10*
X286963000Y-123321875D03*
%TD*%
%TO.C,RN2*%
X313874000Y-123433000D03*
D11*
X313074000Y-123433000D03*
X312274000Y-123433000D03*
D10*
X311474000Y-123433000D03*
X311474000Y-125233000D03*
D11*
X312274000Y-125233000D03*
X313074000Y-125233000D03*
D10*
X313874000Y-125233000D03*
%TD*%
D13*
%TO.C,D1*%
X250100000Y-103993750D03*
X250100000Y-100793750D03*
X245200000Y-100793750D03*
X245200000Y-103993750D03*
%TD*%
D10*
%TO.C,RN13*%
X96463000Y-125121875D03*
D11*
X97263000Y-125121875D03*
X98063000Y-125121875D03*
D10*
X98863000Y-125121875D03*
X98863000Y-123321875D03*
D11*
X98063000Y-123321875D03*
X97263000Y-123321875D03*
D10*
X96463000Y-123321875D03*
%TD*%
%TO.C,RN16*%
X204003125Y-160231250D03*
D11*
X203203125Y-160231250D03*
X202403125Y-160231250D03*
D10*
X201603125Y-160231250D03*
X201603125Y-162031250D03*
D11*
X202403125Y-162031250D03*
X203203125Y-162031250D03*
D10*
X204003125Y-162031250D03*
%TD*%
D12*
%TO.C,U2*%
X283850000Y-123433000D03*
X283850000Y-122783000D03*
X283850000Y-122133000D03*
X283850000Y-121483000D03*
X283850000Y-120833000D03*
X283850000Y-120183000D03*
X283850000Y-119533000D03*
X283850000Y-118883000D03*
X278125000Y-118883000D03*
X278125000Y-119533000D03*
X278125000Y-120183000D03*
X278125000Y-120833000D03*
X278125000Y-121483000D03*
X278125000Y-122133000D03*
X278125000Y-122783000D03*
X278125000Y-123433000D03*
%TD*%
D13*
%TO.C,D6*%
X249962500Y-157943750D03*
X249962500Y-161143750D03*
X254862500Y-161143750D03*
X254862500Y-157943750D03*
%TD*%
%TO.C,D8*%
X191621875Y-167468750D03*
X191621875Y-170668750D03*
X196521875Y-170668750D03*
X196521875Y-167468750D03*
%TD*%
%TO.C,D14*%
X135800000Y-103993750D03*
X135800000Y-100793750D03*
X130900000Y-100793750D03*
X130900000Y-103993750D03*
%TD*%
M02*
