M48
; DRILL file {KiCad (6.0.6-0)} date Tuesday, August 16, 2022 at 09:08:47 AM
; FORMAT={-:-/ absolute / inch / decimal}
; #@! TF.CreationDate,2022-08-16T09:08:47-07:00
; #@! TF.GenerationSoftware,Kicad,Pcbnew,(6.0.6-0)
; #@! TF.FileFunction,NonPlated,1,2,NPTH
FMAT,2
INCH
; #@! TA.AperFunction,NonPlated,NPTH,ComponentDrill
T1C0.0670
; #@! TA.AperFunction,NonPlated,NPTH,ComponentDrill
T2C0.1200
; #@! TA.AperFunction,NonPlated,NPTH,ComponentDrill
T3C0.1570
%
G90
G05
T1
X2.6125Y-6.0
X2.8Y-5.25
X2.9875Y-4.5
X3.0125Y-6.0
X3.175Y-3.75
X3.2Y-5.25
X3.3625Y-6.0
X3.3875Y-4.5
X3.55Y-5.25
X3.575Y-3.75
X3.7375Y-4.5
X3.7625Y-6.0
X3.925Y-3.75
X3.95Y-5.25
X4.1125Y-6.0
X4.1375Y-4.5
X4.3Y-5.25
X4.325Y-3.75
X4.4875Y-4.5
X4.5125Y-6.0
X4.675Y-3.75
X4.7Y-5.25
X4.8625Y-6.0
X4.8875Y-4.5
X5.05Y-5.25
X5.075Y-3.75
X5.2375Y-4.5
X5.2625Y-6.0
X5.425Y-3.75
X5.45Y-5.25
X5.6125Y-6.0
X5.6375Y-4.5
X5.8Y-5.25
X5.825Y-3.75
X5.9875Y-4.5
X6.0125Y-6.0
X6.175Y-3.75
X6.175Y-6.75
X6.2Y-5.25
X6.3625Y-6.0
X6.3875Y-4.5
X6.55Y-5.25
X6.575Y-3.75
X6.575Y-6.75
X6.7375Y-4.5
X6.7625Y-6.0
X6.925Y-3.75
X6.925Y-6.75
X6.95Y-5.25
X7.1125Y-6.0
X7.1375Y-4.5
X7.3Y-5.25
X7.325Y-3.75
X7.325Y-6.75
X7.4875Y-4.5
X7.5125Y-6.0
X7.675Y-3.75
X7.7Y-5.25
X7.8625Y-6.0
X7.8875Y-4.5
X8.05Y-5.25
X8.05Y-6.75
X8.075Y-3.75
X8.2375Y-4.5
X8.2625Y-6.0
X8.425Y-3.75
X8.45Y-5.25
X8.45Y-6.75
X8.6125Y-6.0
X8.6375Y-4.5
X8.8Y-5.25
X8.825Y-3.75
X8.9875Y-4.5
X9.0125Y-6.0
X9.175Y-3.75
X9.175Y-6.75
X9.2Y-5.25
X9.3625Y-6.0
X9.3875Y-4.5
X9.55Y-5.25
X9.575Y-3.75
X9.575Y-6.75
X9.7375Y-4.5
X9.7625Y-6.0
X9.925Y-3.75
X9.925Y-6.75
X9.95Y-5.25
X10.1125Y-6.0
X10.1375Y-4.5
X10.3Y-5.25
X10.325Y-3.75
X10.325Y-6.75
X10.4875Y-4.5
X10.5125Y-6.0
X10.675Y-3.75
X10.7Y-5.25
X10.8625Y-6.0
X10.8875Y-4.5
X11.05Y-5.25
X11.075Y-3.75
X11.2375Y-4.5
X11.2625Y-6.0
X11.425Y-3.75
X11.45Y-5.25
X11.6125Y-6.0
X11.6375Y-4.5
X11.8Y-5.25
X11.825Y-3.75
X11.9875Y-4.5
X12.0125Y-6.0
X12.175Y-3.75
X12.2Y-5.25
X12.3625Y-6.0
X12.3875Y-4.5
X12.55Y-5.25
X12.575Y-3.75
X12.7375Y-4.5
X12.7625Y-6.0
X12.925Y-3.75
X12.95Y-5.25
X13.1375Y-4.5
X13.325Y-3.75
T2
X2.7125Y-5.8
X2.9Y-5.05
X2.9625Y-5.9
X3.0875Y-4.3
X3.15Y-5.15
X3.275Y-3.55
X3.3375Y-4.4
X3.4625Y-5.8
X3.525Y-3.65
X3.65Y-5.05
X3.7125Y-5.9
X3.8375Y-4.3
X3.9Y-5.15
X4.025Y-3.55
X4.0875Y-4.4
X4.2125Y-5.8
X4.275Y-3.65
X4.4Y-5.05
X4.4625Y-5.9
X4.5875Y-4.3
X4.65Y-5.15
X4.775Y-3.55
X4.8375Y-4.4
X4.9625Y-5.8
X5.025Y-3.65
X5.15Y-5.05
X5.2125Y-5.9
X5.3375Y-4.3
X5.4Y-5.15
X5.525Y-3.55
X5.5875Y-4.4
X5.7125Y-5.8
X5.775Y-3.65
X5.9Y-5.05
X5.9625Y-5.9
X6.0875Y-4.3
X6.15Y-5.15
X6.275Y-3.55
X6.275Y-6.55
X6.3375Y-4.4
X6.4625Y-5.8
X6.525Y-3.65
X6.525Y-6.65
X6.65Y-5.05
X6.7125Y-5.9
X6.8375Y-4.3
X6.9Y-5.15
X7.025Y-3.55
X7.025Y-6.55
X7.0875Y-4.4
X7.2125Y-5.8
X7.275Y-3.65
X7.275Y-6.65
X7.4Y-5.05
X7.4625Y-5.9
X7.5875Y-4.3
X7.65Y-5.15
X7.775Y-3.55
X7.78Y-7.025
X7.8375Y-4.4
X7.9625Y-5.8
X8.025Y-3.65
X8.15Y-5.05
X8.15Y-6.55
X8.2125Y-5.9
X8.3375Y-4.3
X8.4Y-5.15
X8.4Y-6.65
X8.525Y-3.55
X8.5875Y-4.4
X8.7125Y-5.8
X8.72Y-7.025
X8.775Y-3.65
X8.9Y-5.05
X8.9625Y-5.9
X9.0875Y-4.3
X9.15Y-5.15
X9.275Y-3.55
X9.275Y-6.55
X9.3375Y-4.4
X9.4625Y-5.8
X9.525Y-3.65
X9.525Y-6.65
X9.65Y-5.05
X9.7125Y-5.9
X9.8375Y-4.3
X9.9Y-5.15
X10.025Y-3.55
X10.025Y-6.55
X10.0875Y-4.4
X10.2125Y-5.8
X10.275Y-3.65
X10.275Y-6.65
X10.4Y-5.05
X10.4625Y-5.9
X10.5875Y-4.3
X10.65Y-5.15
X10.775Y-3.55
X10.8375Y-4.4
X10.9625Y-5.8
X11.025Y-3.65
X11.15Y-5.05
X11.2125Y-5.9
X11.3375Y-4.3
X11.4Y-5.15
X11.525Y-3.55
X11.5875Y-4.4
X11.7125Y-5.8
X11.775Y-3.65
X11.9Y-5.05
X11.9625Y-5.9
X12.0875Y-4.3
X12.15Y-5.15
X12.275Y-3.55
X12.3375Y-4.4
X12.4625Y-5.8
X12.525Y-3.65
X12.65Y-5.05
X12.7125Y-5.9
X12.8375Y-4.3
X12.9Y-5.15
X13.025Y-3.55
X13.0875Y-4.4
X13.275Y-3.65
T3
X2.8125Y-6.0
X3.0Y-5.25
X3.1875Y-4.5
X3.375Y-3.75
X3.5625Y-6.0
X3.75Y-5.25
X3.9375Y-4.5
X4.125Y-3.75
X4.3125Y-6.0
X4.5Y-5.25
X4.6875Y-4.5
X4.875Y-3.75
X5.0625Y-6.0
X5.25Y-5.25
X5.4375Y-4.5
X5.625Y-3.75
X5.8125Y-6.0
X6.0Y-5.25
X6.1875Y-4.5
X6.375Y-3.75
X6.375Y-6.75
X6.5625Y-6.0
X6.75Y-5.25
X6.9375Y-4.5
X7.125Y-3.75
X7.125Y-6.75
X7.3125Y-6.0
X7.5Y-5.25
X7.6875Y-4.5
X7.78Y-6.425
X7.875Y-3.75
X8.0625Y-6.0
X8.25Y-5.25
X8.25Y-6.75
X8.4375Y-4.5
X8.625Y-3.75
X8.72Y-6.425
X8.8125Y-6.0
X9.0Y-5.25
X9.1875Y-4.5
X9.375Y-3.75
X9.375Y-6.75
X9.5625Y-6.0
X9.75Y-5.25
X9.9375Y-4.5
X10.125Y-3.75
X10.125Y-6.75
X10.3125Y-6.0
X10.5Y-5.25
X10.6875Y-4.5
X10.875Y-3.75
X11.0625Y-6.0
X11.25Y-5.25
X11.4375Y-4.5
X11.625Y-3.75
X11.8125Y-6.0
X12.0Y-5.25
X12.1875Y-4.5
X12.375Y-3.75
X12.5625Y-6.0
X12.75Y-5.25
X12.9375Y-4.5
X13.125Y-3.75
T0
M30
