%TF.GenerationSoftware,KiCad,Pcbnew,(6.0.6-0)*%
%TF.CreationDate,2022-08-16T09:08:47-07:00*%
%TF.ProjectId,purple-owl,70757270-6c65-42d6-9f77-6c2e6b696361,1.0*%
%TF.SameCoordinates,Original*%
%TF.FileFunction,Legend,Top*%
%TF.FilePolarity,Positive*%
%FSLAX46Y46*%
G04 Gerber Fmt 4.6, Leading zero omitted, Abs format (unit mm)*
G04 Created by KiCad (PCBNEW (6.0.6-0)) date 2022-08-16 09:08:47*
%MOMM*%
%LPD*%
G01*
G04 APERTURE LIST*
G04 Aperture macros list*
%AMRoundRect*
0 Rectangle with rounded corners*
0 $1 Rounding radius*
0 $2 $3 $4 $5 $6 $7 $8 $9 X,Y pos of 4 corners*
0 Add a 4 corners polygon primitive as box body*
4,1,4,$2,$3,$4,$5,$6,$7,$8,$9,$2,$3,0*
0 Add four circle primitives for the rounded corners*
1,1,$1+$1,$2,$3*
1,1,$1+$1,$4,$5*
1,1,$1+$1,$6,$7*
1,1,$1+$1,$8,$9*
0 Add four rect primitives between the rounded corners*
20,1,$1+$1,$2,$3,$4,$5,0*
20,1,$1+$1,$4,$5,$6,$7,0*
20,1,$1+$1,$6,$7,$8,$9,0*
20,1,$1+$1,$8,$9,$2,$3,0*%
G04 Aperture macros list end*
%ADD10C,0.152400*%
%ADD11C,0.228600*%
%ADD12C,0.150000*%
%ADD13C,0.120000*%
%ADD14C,1.600000*%
%ADD15RoundRect,0.100000X-0.250000X0.400000X-0.250000X-0.400000X0.250000X-0.400000X0.250000X0.400000X0*%
%ADD16RoundRect,0.100000X-0.200000X0.400000X-0.200000X-0.400000X0.200000X-0.400000X0.200000X0.400000X0*%
%ADD17C,3.248000*%
%ADD18C,1.901800*%
%ADD19C,4.187800*%
%ADD20RoundRect,0.354000X-1.016000X-1.016000X1.016000X-1.016000X1.016000X1.016000X-1.016000X1.016000X0*%
%ADD21RoundRect,0.200000X0.637500X0.100000X-0.637500X0.100000X-0.637500X-0.100000X0.637500X-0.100000X0*%
%ADD22RoundRect,0.100000X-0.750000X-0.500000X0.750000X-0.500000X0.750000X0.500000X-0.750000X0.500000X0*%
%ADD23RoundRect,0.450000X0.400000X-0.350000X0.400000X0.350000X-0.400000X0.350000X-0.400000X-0.350000X0*%
%ADD24RoundRect,0.100000X0.750000X0.500000X-0.750000X0.500000X-0.750000X-0.500000X0.750000X-0.500000X0*%
%ADD25RoundRect,0.100000X0.250000X-0.400000X0.250000X0.400000X-0.250000X0.400000X-0.250000X-0.400000X0*%
%ADD26RoundRect,0.100000X0.200000X-0.400000X0.200000X0.400000X-0.200000X0.400000X-0.200000X-0.400000X0*%
%ADD27C,0.800000*%
G04 APERTURE END LIST*
D10*
X210583264Y-94402926D02*
G75*
G03*
X209296000Y-95758000I871736J-2117074D01*
G01*
X209263835Y-97255783D02*
G75*
G03*
X210618874Y-98543061I2117065J871683D01*
G01*
D11*
X203520523Y-179021619D02*
X203520523Y-178005619D01*
X203907571Y-178005619D01*
X204004333Y-178054000D01*
X204052714Y-178102380D01*
X204101095Y-178199142D01*
X204101095Y-178344285D01*
X204052714Y-178441047D01*
X204004333Y-178489428D01*
X203907571Y-178537809D01*
X203520523Y-178537809D01*
X204971952Y-178344285D02*
X204971952Y-179021619D01*
X204536523Y-178344285D02*
X204536523Y-178876476D01*
X204584904Y-178973238D01*
X204681666Y-179021619D01*
X204826809Y-179021619D01*
X204923571Y-178973238D01*
X204971952Y-178924857D01*
X205455761Y-179021619D02*
X205455761Y-178344285D01*
X205455761Y-178537809D02*
X205504142Y-178441047D01*
X205552523Y-178392666D01*
X205649285Y-178344285D01*
X205746047Y-178344285D01*
X206084714Y-178344285D02*
X206084714Y-179360285D01*
X206084714Y-178392666D02*
X206181476Y-178344285D01*
X206375000Y-178344285D01*
X206471761Y-178392666D01*
X206520142Y-178441047D01*
X206568523Y-178537809D01*
X206568523Y-178828095D01*
X206520142Y-178924857D01*
X206471761Y-178973238D01*
X206375000Y-179021619D01*
X206181476Y-179021619D01*
X206084714Y-178973238D01*
X207149095Y-179021619D02*
X207052333Y-178973238D01*
X207003952Y-178876476D01*
X207003952Y-178005619D01*
X207923190Y-178973238D02*
X207826428Y-179021619D01*
X207632904Y-179021619D01*
X207536142Y-178973238D01*
X207487761Y-178876476D01*
X207487761Y-178489428D01*
X207536142Y-178392666D01*
X207632904Y-178344285D01*
X207826428Y-178344285D01*
X207923190Y-178392666D01*
X207971571Y-178489428D01*
X207971571Y-178586190D01*
X207487761Y-178682952D01*
X209374619Y-178005619D02*
X209568142Y-178005619D01*
X209664904Y-178054000D01*
X209761666Y-178150761D01*
X209810047Y-178344285D01*
X209810047Y-178682952D01*
X209761666Y-178876476D01*
X209664904Y-178973238D01*
X209568142Y-179021619D01*
X209374619Y-179021619D01*
X209277857Y-178973238D01*
X209181095Y-178876476D01*
X209132714Y-178682952D01*
X209132714Y-178344285D01*
X209181095Y-178150761D01*
X209277857Y-178054000D01*
X209374619Y-178005619D01*
X210148714Y-178344285D02*
X210342238Y-179021619D01*
X210535761Y-178537809D01*
X210729285Y-179021619D01*
X210922809Y-178344285D01*
X211455000Y-179021619D02*
X211358238Y-178973238D01*
X211309857Y-178876476D01*
X211309857Y-178005619D01*
X212519380Y-178344285D02*
X212761285Y-179021619D01*
X213003190Y-178344285D01*
X213922428Y-179021619D02*
X213341857Y-179021619D01*
X213632142Y-179021619D02*
X213632142Y-178005619D01*
X213535380Y-178150761D01*
X213438619Y-178247523D01*
X213341857Y-178295904D01*
X214357857Y-178924857D02*
X214406238Y-178973238D01*
X214357857Y-179021619D01*
X214309476Y-178973238D01*
X214357857Y-178924857D01*
X214357857Y-179021619D01*
X215035190Y-178005619D02*
X215131952Y-178005619D01*
X215228714Y-178054000D01*
X215277095Y-178102380D01*
X215325476Y-178199142D01*
X215373857Y-178392666D01*
X215373857Y-178634571D01*
X215325476Y-178828095D01*
X215277095Y-178924857D01*
X215228714Y-178973238D01*
X215131952Y-179021619D01*
X215035190Y-179021619D01*
X214938428Y-178973238D01*
X214890047Y-178924857D01*
X214841666Y-178828095D01*
X214793285Y-178634571D01*
X214793285Y-178392666D01*
X214841666Y-178199142D01*
X214890047Y-178102380D01*
X214938428Y-178054000D01*
X215035190Y-178005619D01*
D10*
X212994723Y-92938600D02*
X212917314Y-92899895D01*
X212801200Y-92899895D01*
X212685085Y-92938600D01*
X212607676Y-93016009D01*
X212568971Y-93093419D01*
X212530266Y-93248238D01*
X212530266Y-93364352D01*
X212568971Y-93519171D01*
X212607676Y-93596580D01*
X212685085Y-93673990D01*
X212801200Y-93712695D01*
X212878609Y-93712695D01*
X212994723Y-93673990D01*
X213033428Y-93635285D01*
X213033428Y-93364352D01*
X212878609Y-93364352D01*
X213381771Y-93712695D02*
X213381771Y-92899895D01*
X213846228Y-93712695D01*
X213846228Y-92899895D01*
X214233276Y-93712695D02*
X214233276Y-92899895D01*
X214426800Y-92899895D01*
X214542914Y-92938600D01*
X214620323Y-93016009D01*
X214659028Y-93093419D01*
X214697733Y-93248238D01*
X214697733Y-93364352D01*
X214659028Y-93519171D01*
X214620323Y-93596580D01*
X214542914Y-93673990D01*
X214426800Y-93712695D01*
X214233276Y-93712695D01*
X208543676Y-96074895D02*
X209046838Y-96074895D01*
X208775904Y-96384533D01*
X208892019Y-96384533D01*
X208969428Y-96423238D01*
X209008133Y-96461942D01*
X209046838Y-96539352D01*
X209046838Y-96732876D01*
X209008133Y-96810285D01*
X208969428Y-96848990D01*
X208892019Y-96887695D01*
X208659790Y-96887695D01*
X208582380Y-96848990D01*
X208543676Y-96810285D01*
X209279066Y-96074895D02*
X209550000Y-96887695D01*
X209820933Y-96074895D01*
X210014457Y-96074895D02*
X210517619Y-96074895D01*
X210246685Y-96384533D01*
X210362800Y-96384533D01*
X210440209Y-96423238D01*
X210478914Y-96461942D01*
X210517619Y-96539352D01*
X210517619Y-96732876D01*
X210478914Y-96810285D01*
X210440209Y-96848990D01*
X210362800Y-96887695D01*
X210130571Y-96887695D01*
X210053161Y-96848990D01*
X210014457Y-96810285D01*
X212489142Y-100697695D02*
X212489142Y-99884895D01*
X212682666Y-99884895D01*
X212798780Y-99923600D01*
X212876190Y-100001009D01*
X212914895Y-100078419D01*
X212953600Y-100233238D01*
X212953600Y-100349352D01*
X212914895Y-100504171D01*
X212876190Y-100581580D01*
X212798780Y-100658990D01*
X212682666Y-100697695D01*
X212489142Y-100697695D01*
X213263238Y-100465466D02*
X213650285Y-100465466D01*
X213185828Y-100697695D02*
X213456761Y-99884895D01*
X213727695Y-100697695D01*
X213882514Y-99884895D02*
X214346971Y-99884895D01*
X214114742Y-100697695D02*
X214114742Y-99884895D01*
X212951180Y-105777695D02*
X212564133Y-105777695D01*
X212564133Y-104964895D01*
X213222114Y-105777695D02*
X213222114Y-104964895D01*
X213415638Y-104964895D01*
X213531752Y-105003600D01*
X213609161Y-105081009D01*
X213647866Y-105158419D01*
X213686571Y-105313238D01*
X213686571Y-105429352D01*
X213647866Y-105584171D01*
X213609161Y-105661580D01*
X213531752Y-105738990D01*
X213415638Y-105777695D01*
X213222114Y-105777695D01*
X213003190Y-103160285D02*
X212964485Y-103198990D01*
X212848371Y-103237695D01*
X212770961Y-103237695D01*
X212654847Y-103198990D01*
X212577438Y-103121580D01*
X212538733Y-103044171D01*
X212500028Y-102889352D01*
X212500028Y-102773238D01*
X212538733Y-102618419D01*
X212577438Y-102541009D01*
X212654847Y-102463600D01*
X212770961Y-102424895D01*
X212848371Y-102424895D01*
X212964485Y-102463600D01*
X213003190Y-102502304D01*
X213738580Y-103237695D02*
X213351533Y-103237695D01*
X213351533Y-102424895D01*
X214009514Y-103237695D02*
X214009514Y-102424895D01*
X214473971Y-103237695D02*
X214125628Y-102773238D01*
X214473971Y-102424895D02*
X214009514Y-102889352D01*
X223974780Y-105650695D02*
X223703847Y-105263647D01*
X223510323Y-105650695D02*
X223510323Y-104837895D01*
X223819961Y-104837895D01*
X223897371Y-104876600D01*
X223936076Y-104915304D01*
X223974780Y-104992714D01*
X223974780Y-105108828D01*
X223936076Y-105186238D01*
X223897371Y-105224942D01*
X223819961Y-105263647D01*
X223510323Y-105263647D01*
X224748876Y-104876600D02*
X224671466Y-104837895D01*
X224555352Y-104837895D01*
X224439238Y-104876600D01*
X224361828Y-104954009D01*
X224323123Y-105031419D01*
X224284419Y-105186238D01*
X224284419Y-105302352D01*
X224323123Y-105457171D01*
X224361828Y-105534580D01*
X224439238Y-105611990D01*
X224555352Y-105650695D01*
X224632761Y-105650695D01*
X224748876Y-105611990D01*
X224787580Y-105573285D01*
X224787580Y-105302352D01*
X224632761Y-105302352D01*
X225406857Y-105224942D02*
X225522971Y-105263647D01*
X225561676Y-105302352D01*
X225600380Y-105379761D01*
X225600380Y-105495876D01*
X225561676Y-105573285D01*
X225522971Y-105611990D01*
X225445561Y-105650695D01*
X225135923Y-105650695D01*
X225135923Y-104837895D01*
X225406857Y-104837895D01*
X225484266Y-104876600D01*
X225522971Y-104915304D01*
X225561676Y-104992714D01*
X225561676Y-105070123D01*
X225522971Y-105147533D01*
X225484266Y-105186238D01*
X225406857Y-105224942D01*
X225135923Y-105224942D01*
D12*
%TO.C,U7*%
X89725595Y-124060380D02*
X89725595Y-124869904D01*
X89773214Y-124965142D01*
X89820833Y-125012761D01*
X89916071Y-125060380D01*
X90106547Y-125060380D01*
X90201785Y-125012761D01*
X90249404Y-124965142D01*
X90297023Y-124869904D01*
X90297023Y-124060380D01*
X90677976Y-124060380D02*
X91344642Y-124060380D01*
X90916071Y-125060380D01*
%TO.C,D10*%
X140470089Y-138636755D02*
X140470089Y-137636755D01*
X140708184Y-137636755D01*
X140851041Y-137684375D01*
X140946279Y-137779613D01*
X140993898Y-137874851D01*
X141041517Y-138065327D01*
X141041517Y-138208184D01*
X140993898Y-138398660D01*
X140946279Y-138493898D01*
X140851041Y-138589136D01*
X140708184Y-138636755D01*
X140470089Y-138636755D01*
X141993898Y-138636755D02*
X141422470Y-138636755D01*
X141708184Y-138636755D02*
X141708184Y-137636755D01*
X141612946Y-137779613D01*
X141517708Y-137874851D01*
X141422470Y-137922470D01*
X142612946Y-137636755D02*
X142708184Y-137636755D01*
X142803422Y-137684375D01*
X142851041Y-137731994D01*
X142898660Y-137827232D01*
X142946279Y-138017708D01*
X142946279Y-138255803D01*
X142898660Y-138446279D01*
X142851041Y-138541517D01*
X142803422Y-138589136D01*
X142708184Y-138636755D01*
X142612946Y-138636755D01*
X142517708Y-138589136D01*
X142470089Y-138541517D01*
X142422470Y-138446279D01*
X142374851Y-138255803D01*
X142374851Y-138017708D01*
X142422470Y-137827232D01*
X142470089Y-137731994D01*
X142517708Y-137684375D01*
X142612946Y-137636755D01*
%TO.C,JP1*%
X184904166Y-102830380D02*
X184904166Y-103544666D01*
X184856547Y-103687523D01*
X184761309Y-103782761D01*
X184618452Y-103830380D01*
X184523214Y-103830380D01*
X185380357Y-103830380D02*
X185380357Y-102830380D01*
X185761309Y-102830380D01*
X185856547Y-102878000D01*
X185904166Y-102925619D01*
X185951785Y-103020857D01*
X185951785Y-103163714D01*
X185904166Y-103258952D01*
X185856547Y-103306571D01*
X185761309Y-103354190D01*
X185380357Y-103354190D01*
X186904166Y-103830380D02*
X186332738Y-103830380D01*
X186618452Y-103830380D02*
X186618452Y-102830380D01*
X186523214Y-102973238D01*
X186427976Y-103068476D01*
X186332738Y-103116095D01*
X182213214Y-105227380D02*
X181641785Y-105227380D01*
X181927500Y-105227380D02*
X181927500Y-104227380D01*
X181832261Y-104370238D01*
X181737023Y-104465476D01*
X181641785Y-104513095D01*
X189341166Y-104227380D02*
X189960214Y-104227380D01*
X189626880Y-104608333D01*
X189769738Y-104608333D01*
X189864976Y-104655952D01*
X189912595Y-104703571D01*
X189960214Y-104798809D01*
X189960214Y-105036904D01*
X189912595Y-105132142D01*
X189864976Y-105179761D01*
X189769738Y-105227380D01*
X189484023Y-105227380D01*
X189388785Y-105179761D01*
X189341166Y-105132142D01*
%TO.C,U4*%
X204343095Y-124166380D02*
X204343095Y-124975904D01*
X204390714Y-125071142D01*
X204438333Y-125118761D01*
X204533571Y-125166380D01*
X204724047Y-125166380D01*
X204819285Y-125118761D01*
X204866904Y-125071142D01*
X204914523Y-124975904D01*
X204914523Y-124166380D01*
X205819285Y-124499714D02*
X205819285Y-125166380D01*
X205581190Y-124118761D02*
X205343095Y-124833047D01*
X205962142Y-124833047D01*
%TO.C,U5*%
X165925595Y-124060380D02*
X165925595Y-124869904D01*
X165973214Y-124965142D01*
X166020833Y-125012761D01*
X166116071Y-125060380D01*
X166306547Y-125060380D01*
X166401785Y-125012761D01*
X166449404Y-124965142D01*
X166497023Y-124869904D01*
X166497023Y-124060380D01*
X167449404Y-124060380D02*
X166973214Y-124060380D01*
X166925595Y-124536571D01*
X166973214Y-124488952D01*
X167068452Y-124441333D01*
X167306547Y-124441333D01*
X167401785Y-124488952D01*
X167449404Y-124536571D01*
X167497023Y-124631809D01*
X167497023Y-124869904D01*
X167449404Y-124965142D01*
X167401785Y-125012761D01*
X167306547Y-125060380D01*
X167068452Y-125060380D01*
X166973214Y-125012761D01*
X166925595Y-124965142D01*
%TO.C,D15*%
X170235714Y-106346130D02*
X170235714Y-105346130D01*
X170473809Y-105346130D01*
X170616666Y-105393750D01*
X170711904Y-105488988D01*
X170759523Y-105584226D01*
X170807142Y-105774702D01*
X170807142Y-105917559D01*
X170759523Y-106108035D01*
X170711904Y-106203273D01*
X170616666Y-106298511D01*
X170473809Y-106346130D01*
X170235714Y-106346130D01*
X171759523Y-106346130D02*
X171188095Y-106346130D01*
X171473809Y-106346130D02*
X171473809Y-105346130D01*
X171378571Y-105488988D01*
X171283333Y-105584226D01*
X171188095Y-105631845D01*
X172664285Y-105346130D02*
X172188095Y-105346130D01*
X172140476Y-105822321D01*
X172188095Y-105774702D01*
X172283333Y-105727083D01*
X172521428Y-105727083D01*
X172616666Y-105774702D01*
X172664285Y-105822321D01*
X172711904Y-105917559D01*
X172711904Y-106155654D01*
X172664285Y-106250892D01*
X172616666Y-106298511D01*
X172521428Y-106346130D01*
X172283333Y-106346130D01*
X172188095Y-106298511D01*
X172140476Y-106250892D01*
%TO.C,U1*%
X318325595Y-124060380D02*
X318325595Y-124869904D01*
X318373214Y-124965142D01*
X318420833Y-125012761D01*
X318516071Y-125060380D01*
X318706547Y-125060380D01*
X318801785Y-125012761D01*
X318849404Y-124965142D01*
X318897023Y-124869904D01*
X318897023Y-124060380D01*
X319897023Y-125060380D02*
X319325595Y-125060380D01*
X319611309Y-125060380D02*
X319611309Y-124060380D01*
X319516071Y-124203238D01*
X319420833Y-124298476D01*
X319325595Y-124346095D01*
%TO.C,U6*%
X127825595Y-124060380D02*
X127825595Y-124869904D01*
X127873214Y-124965142D01*
X127920833Y-125012761D01*
X128016071Y-125060380D01*
X128206547Y-125060380D01*
X128301785Y-125012761D01*
X128349404Y-124965142D01*
X128397023Y-124869904D01*
X128397023Y-124060380D01*
X129301785Y-124060380D02*
X129111309Y-124060380D01*
X129016071Y-124108000D01*
X128968452Y-124155619D01*
X128873214Y-124298476D01*
X128825595Y-124488952D01*
X128825595Y-124869904D01*
X128873214Y-124965142D01*
X128920833Y-125012761D01*
X129016071Y-125060380D01*
X129206547Y-125060380D01*
X129301785Y-125012761D01*
X129349404Y-124965142D01*
X129397023Y-124869904D01*
X129397023Y-124631809D01*
X129349404Y-124536571D01*
X129301785Y-124488952D01*
X129206547Y-124441333D01*
X129016071Y-124441333D01*
X128920833Y-124488952D01*
X128873214Y-124536571D01*
X128825595Y-124631809D01*
%TO.C,D12*%
X83320089Y-138636755D02*
X83320089Y-137636755D01*
X83558184Y-137636755D01*
X83701041Y-137684375D01*
X83796279Y-137779613D01*
X83843898Y-137874851D01*
X83891517Y-138065327D01*
X83891517Y-138208184D01*
X83843898Y-138398660D01*
X83796279Y-138493898D01*
X83701041Y-138589136D01*
X83558184Y-138636755D01*
X83320089Y-138636755D01*
X84843898Y-138636755D02*
X84272470Y-138636755D01*
X84558184Y-138636755D02*
X84558184Y-137636755D01*
X84462946Y-137779613D01*
X84367708Y-137874851D01*
X84272470Y-137922470D01*
X85224851Y-137731994D02*
X85272470Y-137684375D01*
X85367708Y-137636755D01*
X85605803Y-137636755D01*
X85701041Y-137684375D01*
X85748660Y-137731994D01*
X85796279Y-137827232D01*
X85796279Y-137922470D01*
X85748660Y-138065327D01*
X85177232Y-138636755D01*
X85796279Y-138636755D01*
%TO.C,D4*%
X313586904Y-138636755D02*
X313586904Y-137636755D01*
X313825000Y-137636755D01*
X313967857Y-137684375D01*
X314063095Y-137779613D01*
X314110714Y-137874851D01*
X314158333Y-138065327D01*
X314158333Y-138208184D01*
X314110714Y-138398660D01*
X314063095Y-138493898D01*
X313967857Y-138589136D01*
X313825000Y-138636755D01*
X313586904Y-138636755D01*
X315015476Y-137970089D02*
X315015476Y-138636755D01*
X314777380Y-137589136D02*
X314539285Y-138303422D01*
X315158333Y-138303422D01*
%TO.C,D9*%
X165949404Y-156496130D02*
X165949404Y-155496130D01*
X166187500Y-155496130D01*
X166330357Y-155543750D01*
X166425595Y-155638988D01*
X166473214Y-155734226D01*
X166520833Y-155924702D01*
X166520833Y-156067559D01*
X166473214Y-156258035D01*
X166425595Y-156353273D01*
X166330357Y-156448511D01*
X166187500Y-156496130D01*
X165949404Y-156496130D01*
X166997023Y-156496130D02*
X167187500Y-156496130D01*
X167282738Y-156448511D01*
X167330357Y-156400892D01*
X167425595Y-156258035D01*
X167473214Y-156067559D01*
X167473214Y-155686607D01*
X167425595Y-155591369D01*
X167377976Y-155543750D01*
X167282738Y-155496130D01*
X167092261Y-155496130D01*
X166997023Y-155543750D01*
X166949404Y-155591369D01*
X166901785Y-155686607D01*
X166901785Y-155924702D01*
X166949404Y-156019940D01*
X166997023Y-156067559D01*
X167092261Y-156115178D01*
X167282738Y-156115178D01*
X167377976Y-156067559D01*
X167425595Y-156019940D01*
X167473214Y-155924702D01*
%TO.C,D2*%
X285011904Y-106346130D02*
X285011904Y-105346130D01*
X285250000Y-105346130D01*
X285392857Y-105393750D01*
X285488095Y-105488988D01*
X285535714Y-105584226D01*
X285583333Y-105774702D01*
X285583333Y-105917559D01*
X285535714Y-106108035D01*
X285488095Y-106203273D01*
X285392857Y-106298511D01*
X285250000Y-106346130D01*
X285011904Y-106346130D01*
X285964285Y-105441369D02*
X286011904Y-105393750D01*
X286107142Y-105346130D01*
X286345238Y-105346130D01*
X286440476Y-105393750D01*
X286488095Y-105441369D01*
X286535714Y-105536607D01*
X286535714Y-105631845D01*
X286488095Y-105774702D01*
X285916666Y-106346130D01*
X286535714Y-106346130D01*
%TO.C,D3*%
X323111904Y-106346130D02*
X323111904Y-105346130D01*
X323350000Y-105346130D01*
X323492857Y-105393750D01*
X323588095Y-105488988D01*
X323635714Y-105584226D01*
X323683333Y-105774702D01*
X323683333Y-105917559D01*
X323635714Y-106108035D01*
X323588095Y-106203273D01*
X323492857Y-106298511D01*
X323350000Y-106346130D01*
X323111904Y-106346130D01*
X324016666Y-105346130D02*
X324635714Y-105346130D01*
X324302380Y-105727083D01*
X324445238Y-105727083D01*
X324540476Y-105774702D01*
X324588095Y-105822321D01*
X324635714Y-105917559D01*
X324635714Y-106155654D01*
X324588095Y-106250892D01*
X324540476Y-106298511D01*
X324445238Y-106346130D01*
X324159523Y-106346130D01*
X324064285Y-106298511D01*
X324016666Y-106250892D01*
%TO.C,D11*%
X111895089Y-138636755D02*
X111895089Y-137636755D01*
X112133184Y-137636755D01*
X112276041Y-137684375D01*
X112371279Y-137779613D01*
X112418898Y-137874851D01*
X112466517Y-138065327D01*
X112466517Y-138208184D01*
X112418898Y-138398660D01*
X112371279Y-138493898D01*
X112276041Y-138589136D01*
X112133184Y-138636755D01*
X111895089Y-138636755D01*
X113418898Y-138636755D02*
X112847470Y-138636755D01*
X113133184Y-138636755D02*
X113133184Y-137636755D01*
X113037946Y-137779613D01*
X112942708Y-137874851D01*
X112847470Y-137922470D01*
X114371279Y-138636755D02*
X113799851Y-138636755D01*
X114085565Y-138636755D02*
X114085565Y-137636755D01*
X113990327Y-137779613D01*
X113895089Y-137874851D01*
X113799851Y-137922470D01*
%TO.C,D7*%
X224290029Y-166021130D02*
X224290029Y-165021130D01*
X224528125Y-165021130D01*
X224670982Y-165068750D01*
X224766220Y-165163988D01*
X224813839Y-165259226D01*
X224861458Y-165449702D01*
X224861458Y-165592559D01*
X224813839Y-165783035D01*
X224766220Y-165878273D01*
X224670982Y-165973511D01*
X224528125Y-166021130D01*
X224290029Y-166021130D01*
X225194791Y-165021130D02*
X225861458Y-165021130D01*
X225432886Y-166021130D01*
%TO.C,JP2*%
X196016666Y-102830380D02*
X196016666Y-103544666D01*
X195969047Y-103687523D01*
X195873809Y-103782761D01*
X195730952Y-103830380D01*
X195635714Y-103830380D01*
X196492857Y-103830380D02*
X196492857Y-102830380D01*
X196873809Y-102830380D01*
X196969047Y-102878000D01*
X197016666Y-102925619D01*
X197064285Y-103020857D01*
X197064285Y-103163714D01*
X197016666Y-103258952D01*
X196969047Y-103306571D01*
X196873809Y-103354190D01*
X196492857Y-103354190D01*
X197445238Y-102925619D02*
X197492857Y-102878000D01*
X197588095Y-102830380D01*
X197826190Y-102830380D01*
X197921428Y-102878000D01*
X197969047Y-102925619D01*
X198016666Y-103020857D01*
X198016666Y-103116095D01*
X197969047Y-103258952D01*
X197397619Y-103830380D01*
X198016666Y-103830380D01*
X200453666Y-104227380D02*
X201072714Y-104227380D01*
X200739380Y-104608333D01*
X200882238Y-104608333D01*
X200977476Y-104655952D01*
X201025095Y-104703571D01*
X201072714Y-104798809D01*
X201072714Y-105036904D01*
X201025095Y-105132142D01*
X200977476Y-105179761D01*
X200882238Y-105227380D01*
X200596523Y-105227380D01*
X200501285Y-105179761D01*
X200453666Y-105132142D01*
X193325714Y-105227380D02*
X192754285Y-105227380D01*
X193040000Y-105227380D02*
X193040000Y-104227380D01*
X192944761Y-104370238D01*
X192849523Y-104465476D01*
X192754285Y-104513095D01*
%TO.C,U8*%
X208788095Y-160858630D02*
X208788095Y-161668154D01*
X208835714Y-161763392D01*
X208883333Y-161811011D01*
X208978571Y-161858630D01*
X209169047Y-161858630D01*
X209264285Y-161811011D01*
X209311904Y-161763392D01*
X209359523Y-161668154D01*
X209359523Y-160858630D01*
X209978571Y-161287202D02*
X209883333Y-161239583D01*
X209835714Y-161191964D01*
X209788095Y-161096726D01*
X209788095Y-161049107D01*
X209835714Y-160953869D01*
X209883333Y-160906250D01*
X209978571Y-160858630D01*
X210169047Y-160858630D01*
X210264285Y-160906250D01*
X210311904Y-160953869D01*
X210359523Y-161049107D01*
X210359523Y-161096726D01*
X210311904Y-161191964D01*
X210264285Y-161239583D01*
X210169047Y-161287202D01*
X209978571Y-161287202D01*
X209883333Y-161334821D01*
X209835714Y-161382440D01*
X209788095Y-161477678D01*
X209788095Y-161668154D01*
X209835714Y-161763392D01*
X209883333Y-161811011D01*
X209978571Y-161858630D01*
X210169047Y-161858630D01*
X210264285Y-161811011D01*
X210311904Y-161763392D01*
X210359523Y-161668154D01*
X210359523Y-161477678D01*
X210311904Y-161382440D01*
X210264285Y-161334821D01*
X210169047Y-161287202D01*
%TO.C,D13*%
X94035714Y-106346130D02*
X94035714Y-105346130D01*
X94273809Y-105346130D01*
X94416666Y-105393750D01*
X94511904Y-105488988D01*
X94559523Y-105584226D01*
X94607142Y-105774702D01*
X94607142Y-105917559D01*
X94559523Y-106108035D01*
X94511904Y-106203273D01*
X94416666Y-106298511D01*
X94273809Y-106346130D01*
X94035714Y-106346130D01*
X95559523Y-106346130D02*
X94988095Y-106346130D01*
X95273809Y-106346130D02*
X95273809Y-105346130D01*
X95178571Y-105488988D01*
X95083333Y-105584226D01*
X94988095Y-105631845D01*
X95892857Y-105346130D02*
X96511904Y-105346130D01*
X96178571Y-105727083D01*
X96321428Y-105727083D01*
X96416666Y-105774702D01*
X96464285Y-105822321D01*
X96511904Y-105917559D01*
X96511904Y-106155654D01*
X96464285Y-106250892D01*
X96416666Y-106298511D01*
X96321428Y-106346130D01*
X96035714Y-106346130D01*
X95940476Y-106298511D01*
X95892857Y-106250892D01*
%TO.C,D16*%
X204366964Y-106346130D02*
X204366964Y-105346130D01*
X204605059Y-105346130D01*
X204747916Y-105393750D01*
X204843154Y-105488988D01*
X204890773Y-105584226D01*
X204938392Y-105774702D01*
X204938392Y-105917559D01*
X204890773Y-106108035D01*
X204843154Y-106203273D01*
X204747916Y-106298511D01*
X204605059Y-106346130D01*
X204366964Y-106346130D01*
X205890773Y-106346130D02*
X205319345Y-106346130D01*
X205605059Y-106346130D02*
X205605059Y-105346130D01*
X205509821Y-105488988D01*
X205414583Y-105584226D01*
X205319345Y-105631845D01*
X206747916Y-105346130D02*
X206557440Y-105346130D01*
X206462202Y-105393750D01*
X206414583Y-105441369D01*
X206319345Y-105584226D01*
X206271726Y-105774702D01*
X206271726Y-106155654D01*
X206319345Y-106250892D01*
X206366964Y-106298511D01*
X206462202Y-106346130D01*
X206652678Y-106346130D01*
X206747916Y-106298511D01*
X206795535Y-106250892D01*
X206843154Y-106155654D01*
X206843154Y-105917559D01*
X206795535Y-105822321D01*
X206747916Y-105774702D01*
X206652678Y-105727083D01*
X206462202Y-105727083D01*
X206366964Y-105774702D01*
X206319345Y-105822321D01*
X206271726Y-105917559D01*
%TO.C,D5*%
X275486904Y-138636755D02*
X275486904Y-137636755D01*
X275725000Y-137636755D01*
X275867857Y-137684375D01*
X275963095Y-137779613D01*
X276010714Y-137874851D01*
X276058333Y-138065327D01*
X276058333Y-138208184D01*
X276010714Y-138398660D01*
X275963095Y-138493898D01*
X275867857Y-138589136D01*
X275725000Y-138636755D01*
X275486904Y-138636755D01*
X276963095Y-137636755D02*
X276486904Y-137636755D01*
X276439285Y-138112946D01*
X276486904Y-138065327D01*
X276582142Y-138017708D01*
X276820238Y-138017708D01*
X276915476Y-138065327D01*
X276963095Y-138112946D01*
X277010714Y-138208184D01*
X277010714Y-138446279D01*
X276963095Y-138541517D01*
X276915476Y-138589136D01*
X276820238Y-138636755D01*
X276582142Y-138636755D01*
X276486904Y-138589136D01*
X276439285Y-138541517D01*
%TO.C,U3*%
X242125595Y-124060380D02*
X242125595Y-124869904D01*
X242173214Y-124965142D01*
X242220833Y-125012761D01*
X242316071Y-125060380D01*
X242506547Y-125060380D01*
X242601785Y-125012761D01*
X242649404Y-124965142D01*
X242697023Y-124869904D01*
X242697023Y-124060380D01*
X243077976Y-124060380D02*
X243697023Y-124060380D01*
X243363690Y-124441333D01*
X243506547Y-124441333D01*
X243601785Y-124488952D01*
X243649404Y-124536571D01*
X243697023Y-124631809D01*
X243697023Y-124869904D01*
X243649404Y-124965142D01*
X243601785Y-125012761D01*
X243506547Y-125060380D01*
X243220833Y-125060380D01*
X243125595Y-125012761D01*
X243077976Y-124965142D01*
%TO.C,D1*%
X246911904Y-106346130D02*
X246911904Y-105346130D01*
X247150000Y-105346130D01*
X247292857Y-105393750D01*
X247388095Y-105488988D01*
X247435714Y-105584226D01*
X247483333Y-105774702D01*
X247483333Y-105917559D01*
X247435714Y-106108035D01*
X247388095Y-106203273D01*
X247292857Y-106298511D01*
X247150000Y-106346130D01*
X246911904Y-106346130D01*
X248435714Y-106346130D02*
X247864285Y-106346130D01*
X248150000Y-106346130D02*
X248150000Y-105346130D01*
X248054761Y-105488988D01*
X247959523Y-105584226D01*
X247864285Y-105631845D01*
%TO.C,U2*%
X280225595Y-124060380D02*
X280225595Y-124869904D01*
X280273214Y-124965142D01*
X280320833Y-125012761D01*
X280416071Y-125060380D01*
X280606547Y-125060380D01*
X280701785Y-125012761D01*
X280749404Y-124965142D01*
X280797023Y-124869904D01*
X280797023Y-124060380D01*
X281225595Y-124155619D02*
X281273214Y-124108000D01*
X281368452Y-124060380D01*
X281606547Y-124060380D01*
X281701785Y-124108000D01*
X281749404Y-124155619D01*
X281797023Y-124250857D01*
X281797023Y-124346095D01*
X281749404Y-124488952D01*
X281177976Y-125060380D01*
X281797023Y-125060380D01*
%TO.C,D6*%
X251674404Y-156496130D02*
X251674404Y-155496130D01*
X251912500Y-155496130D01*
X252055357Y-155543750D01*
X252150595Y-155638988D01*
X252198214Y-155734226D01*
X252245833Y-155924702D01*
X252245833Y-156067559D01*
X252198214Y-156258035D01*
X252150595Y-156353273D01*
X252055357Y-156448511D01*
X251912500Y-156496130D01*
X251674404Y-156496130D01*
X253102976Y-155496130D02*
X252912500Y-155496130D01*
X252817261Y-155543750D01*
X252769642Y-155591369D01*
X252674404Y-155734226D01*
X252626785Y-155924702D01*
X252626785Y-156305654D01*
X252674404Y-156400892D01*
X252722023Y-156448511D01*
X252817261Y-156496130D01*
X253007738Y-156496130D01*
X253102976Y-156448511D01*
X253150595Y-156400892D01*
X253198214Y-156305654D01*
X253198214Y-156067559D01*
X253150595Y-155972321D01*
X253102976Y-155924702D01*
X253007738Y-155877083D01*
X252817261Y-155877083D01*
X252722023Y-155924702D01*
X252674404Y-155972321D01*
X252626785Y-156067559D01*
%TO.C,D8*%
X196508779Y-173093005D02*
X196508779Y-172093005D01*
X196746875Y-172093005D01*
X196889732Y-172140625D01*
X196984970Y-172235863D01*
X197032589Y-172331101D01*
X197080208Y-172521577D01*
X197080208Y-172664434D01*
X197032589Y-172854910D01*
X196984970Y-172950148D01*
X196889732Y-173045386D01*
X196746875Y-173093005D01*
X196508779Y-173093005D01*
X197651636Y-172521577D02*
X197556398Y-172473958D01*
X197508779Y-172426339D01*
X197461160Y-172331101D01*
X197461160Y-172283482D01*
X197508779Y-172188244D01*
X197556398Y-172140625D01*
X197651636Y-172093005D01*
X197842113Y-172093005D01*
X197937351Y-172140625D01*
X197984970Y-172188244D01*
X198032589Y-172283482D01*
X198032589Y-172331101D01*
X197984970Y-172426339D01*
X197937351Y-172473958D01*
X197842113Y-172521577D01*
X197651636Y-172521577D01*
X197556398Y-172569196D01*
X197508779Y-172616815D01*
X197461160Y-172712053D01*
X197461160Y-172902529D01*
X197508779Y-172997767D01*
X197556398Y-173045386D01*
X197651636Y-173093005D01*
X197842113Y-173093005D01*
X197937351Y-173045386D01*
X197984970Y-172997767D01*
X198032589Y-172902529D01*
X198032589Y-172712053D01*
X197984970Y-172616815D01*
X197937351Y-172569196D01*
X197842113Y-172521577D01*
%TO.C,D14*%
X132135714Y-106346130D02*
X132135714Y-105346130D01*
X132373809Y-105346130D01*
X132516666Y-105393750D01*
X132611904Y-105488988D01*
X132659523Y-105584226D01*
X132707142Y-105774702D01*
X132707142Y-105917559D01*
X132659523Y-106108035D01*
X132611904Y-106203273D01*
X132516666Y-106298511D01*
X132373809Y-106346130D01*
X132135714Y-106346130D01*
X133659523Y-106346130D02*
X133088095Y-106346130D01*
X133373809Y-106346130D02*
X133373809Y-105346130D01*
X133278571Y-105488988D01*
X133183333Y-105584226D01*
X133088095Y-105631845D01*
X134516666Y-105679464D02*
X134516666Y-106346130D01*
X134278571Y-105298511D02*
X134040476Y-106012797D01*
X134659523Y-106012797D01*
D13*
%TO.C,RN6*%
X234857500Y-124721875D02*
X234857500Y-123721875D01*
X238217500Y-124721875D02*
X238217500Y-123721875D01*
%TO.C,U7*%
X90487500Y-123893000D02*
X94087500Y-123893000D01*
X90487500Y-118423000D02*
X92687500Y-118423000D01*
X90487500Y-118423000D02*
X88287500Y-118423000D01*
X90487500Y-123893000D02*
X88287500Y-123893000D01*
%TO.C,D10*%
X145334375Y-144434375D02*
X144184375Y-144434375D01*
X145334375Y-144434375D02*
X145334375Y-143284375D01*
%TO.C,U4*%
X204787500Y-118423000D02*
X202587500Y-118423000D01*
X204787500Y-123893000D02*
X202587500Y-123893000D01*
X204787500Y-118423000D02*
X206987500Y-118423000D01*
X204787500Y-123893000D02*
X208387500Y-123893000D01*
%TO.C,U5*%
X166687500Y-118423000D02*
X164487500Y-118423000D01*
X166687500Y-123893000D02*
X164487500Y-123893000D01*
X166687500Y-118423000D02*
X168887500Y-118423000D01*
X166687500Y-123893000D02*
X170287500Y-123893000D01*
%TO.C,D15*%
X167800000Y-99643750D02*
X168950000Y-99643750D01*
X167800000Y-99643750D02*
X167800000Y-100793750D01*
%TO.C,RN1*%
X324583000Y-123833000D02*
X324583000Y-124833000D01*
X327943000Y-123833000D02*
X327943000Y-124833000D01*
%TO.C,RN9*%
X172437000Y-123721875D02*
X172437000Y-124721875D01*
X175797000Y-123721875D02*
X175797000Y-124721875D01*
%TO.C,U1*%
X319087500Y-123893000D02*
X322687500Y-123893000D01*
X319087500Y-118423000D02*
X316887500Y-118423000D01*
X319087500Y-123893000D02*
X316887500Y-123893000D01*
X319087500Y-118423000D02*
X321287500Y-118423000D01*
%TO.C,U6*%
X128587500Y-118423000D02*
X130787500Y-118423000D01*
X128587500Y-123893000D02*
X126387500Y-123893000D01*
X128587500Y-118423000D02*
X126387500Y-118423000D01*
X128587500Y-123893000D02*
X132187500Y-123893000D01*
%TO.C,RN10*%
X162017500Y-124721875D02*
X162017500Y-123721875D01*
X158657500Y-124721875D02*
X158657500Y-123721875D01*
%TO.C,RN5*%
X251616000Y-123706000D02*
X251616000Y-124706000D01*
X248256000Y-123706000D02*
X248256000Y-124706000D01*
%TO.C,D12*%
X88184375Y-144434375D02*
X87034375Y-144434375D01*
X88184375Y-144434375D02*
X88184375Y-143284375D01*
%TO.C,D4*%
X317975000Y-144434375D02*
X316825000Y-144434375D01*
X317975000Y-144434375D02*
X317975000Y-143284375D01*
%TO.C,D9*%
X170337500Y-162293750D02*
X170337500Y-161143750D01*
X170337500Y-162293750D02*
X169187500Y-162293750D01*
%TO.C,D2*%
X282100000Y-99643750D02*
X282100000Y-100793750D01*
X282100000Y-99643750D02*
X283250000Y-99643750D01*
%TO.C,D3*%
X320200000Y-99643750D02*
X320200000Y-100793750D01*
X320200000Y-99643750D02*
X321350000Y-99643750D01*
%TO.C,RN12*%
X123917500Y-124721875D02*
X123917500Y-123721875D01*
X120557500Y-124721875D02*
X120557500Y-123721875D01*
%TO.C,D11*%
X116759375Y-144434375D02*
X115609375Y-144434375D01*
X116759375Y-144434375D02*
X116759375Y-143284375D01*
%TO.C,D7*%
X228678125Y-171818750D02*
X227528125Y-171818750D01*
X228678125Y-171818750D02*
X228678125Y-170668750D01*
%TO.C,RN11*%
X137443000Y-123721875D02*
X137443000Y-124721875D01*
X134083000Y-123721875D02*
X134083000Y-124721875D01*
%TO.C,RN7*%
X213516000Y-123721875D02*
X213516000Y-124721875D01*
X210156000Y-123721875D02*
X210156000Y-124721875D01*
%TO.C,U8*%
X209550000Y-155221250D02*
X207350000Y-155221250D01*
X209550000Y-160691250D02*
X207350000Y-160691250D01*
X209550000Y-160691250D02*
X213150000Y-160691250D01*
X209550000Y-155221250D02*
X211750000Y-155221250D01*
%TO.C,D13*%
X91600000Y-99643750D02*
X91600000Y-100793750D01*
X91600000Y-99643750D02*
X92750000Y-99643750D01*
%TO.C,RN14*%
X82457500Y-124721875D02*
X82457500Y-123721875D01*
X85817500Y-124721875D02*
X85817500Y-123721875D01*
%TO.C,D16*%
X201931250Y-99643750D02*
X201931250Y-100793750D01*
X201931250Y-99643750D02*
X203081250Y-99643750D01*
%TO.C,D5*%
X279875000Y-144434375D02*
X278725000Y-144434375D01*
X279875000Y-144434375D02*
X279875000Y-143284375D01*
%TO.C,RN8*%
X200117500Y-124721875D02*
X200117500Y-123721875D01*
X196757500Y-124721875D02*
X196757500Y-123721875D01*
%TO.C,U3*%
X242887500Y-118423000D02*
X245087500Y-118423000D01*
X242887500Y-118423000D02*
X240687500Y-118423000D01*
X242887500Y-123893000D02*
X246487500Y-123893000D01*
X242887500Y-123893000D02*
X240687500Y-123893000D01*
%TO.C,RN4*%
X276317500Y-124721875D02*
X276317500Y-123721875D01*
X272957500Y-124721875D02*
X272957500Y-123721875D01*
%TO.C,RN15*%
X215236000Y-160631250D02*
X215236000Y-161631250D01*
X218596000Y-160631250D02*
X218596000Y-161631250D01*
%TO.C,RN3*%
X286483000Y-123721875D02*
X286483000Y-124721875D01*
X289843000Y-123721875D02*
X289843000Y-124721875D01*
%TO.C,RN2*%
X314354000Y-124833000D02*
X314354000Y-123833000D01*
X310994000Y-124833000D02*
X310994000Y-123833000D01*
%TO.C,D1*%
X244000000Y-99643750D02*
X244000000Y-100793750D01*
X244000000Y-99643750D02*
X245150000Y-99643750D01*
%TO.C,RN13*%
X99343000Y-123721875D02*
X99343000Y-124721875D01*
X95983000Y-123721875D02*
X95983000Y-124721875D01*
%TO.C,RN16*%
X204483125Y-161631250D02*
X204483125Y-160631250D01*
X201123125Y-161631250D02*
X201123125Y-160631250D01*
%TO.C,U2*%
X280987500Y-118423000D02*
X278787500Y-118423000D01*
X280987500Y-123893000D02*
X284587500Y-123893000D01*
X280987500Y-118423000D02*
X283187500Y-118423000D01*
X280987500Y-123893000D02*
X278787500Y-123893000D01*
%TO.C,D6*%
X256062500Y-162293750D02*
X254912500Y-162293750D01*
X256062500Y-162293750D02*
X256062500Y-161143750D01*
%TO.C,D8*%
X197721875Y-171818750D02*
X197721875Y-170668750D01*
X197721875Y-171818750D02*
X196571875Y-171818750D01*
%TO.C,D14*%
X129700000Y-99643750D02*
X130850000Y-99643750D01*
X129700000Y-99643750D02*
X129700000Y-100793750D01*
%TD*%
%LPC*%
D14*
%TO.C,U9*%
X211455000Y-92670546D03*
X211455000Y-95210546D03*
X211455000Y-97750546D03*
X211455000Y-100290546D03*
X211455000Y-102830546D03*
X211455000Y-105370546D03*
X226695000Y-105370546D03*
X226695000Y-102830546D03*
X226695000Y-100290546D03*
X226695000Y-97750546D03*
X226695000Y-95210546D03*
%TD*%
D15*
%TO.C,RN6*%
X237737500Y-123321875D03*
D16*
X236937500Y-123321875D03*
X236137500Y-123321875D03*
D15*
X235337500Y-123321875D03*
X235337500Y-125121875D03*
D16*
X236137500Y-125121875D03*
X236937500Y-125121875D03*
D15*
X237737500Y-125121875D03*
%TD*%
D17*
%TO.C,SW36*%
X170497500Y-149860000D03*
D18*
X161607500Y-152400000D03*
D17*
X164147500Y-147320000D03*
D18*
X171767500Y-152400000D03*
D19*
X166687500Y-152400000D03*
D20*
X160591500Y-147320000D03*
X174053500Y-149860000D03*
%TD*%
D18*
%TO.C,SW32*%
X190817500Y-152400000D03*
D17*
X189547500Y-149860000D03*
X183197500Y-147320000D03*
D18*
X180657500Y-152400000D03*
D19*
X185737500Y-152400000D03*
D20*
X179641500Y-147320000D03*
X193103500Y-149860000D03*
%TD*%
D21*
%TO.C,U7*%
X93350000Y-123433000D03*
X93350000Y-122783000D03*
X93350000Y-122133000D03*
X93350000Y-121483000D03*
X93350000Y-120833000D03*
X93350000Y-120183000D03*
X93350000Y-119533000D03*
X93350000Y-118883000D03*
X87625000Y-118883000D03*
X87625000Y-119533000D03*
X87625000Y-120183000D03*
X87625000Y-120833000D03*
X87625000Y-121483000D03*
X87625000Y-122133000D03*
X87625000Y-122783000D03*
X87625000Y-123433000D03*
%TD*%
D22*
%TO.C,D10*%
X139234375Y-140084375D03*
X139234375Y-143284375D03*
X144134375Y-143284375D03*
X144134375Y-140084375D03*
%TD*%
D23*
%TO.C,JP1*%
X183197500Y-104775000D03*
X185737500Y-104775000D03*
X188277500Y-104775000D03*
%TD*%
D21*
%TO.C,U4*%
X207650000Y-123433000D03*
X207650000Y-122783000D03*
X207650000Y-122133000D03*
X207650000Y-121483000D03*
X207650000Y-120833000D03*
X207650000Y-120183000D03*
X207650000Y-119533000D03*
X207650000Y-118883000D03*
X201925000Y-118883000D03*
X201925000Y-119533000D03*
X201925000Y-120183000D03*
X201925000Y-120833000D03*
X201925000Y-121483000D03*
X201925000Y-122133000D03*
X201925000Y-122783000D03*
X201925000Y-123433000D03*
%TD*%
%TO.C,U5*%
X169550000Y-123433000D03*
X169550000Y-122783000D03*
X169550000Y-122133000D03*
X169550000Y-121483000D03*
X169550000Y-120833000D03*
X169550000Y-120183000D03*
X169550000Y-119533000D03*
X169550000Y-118883000D03*
X163825000Y-118883000D03*
X163825000Y-119533000D03*
X163825000Y-120183000D03*
X163825000Y-120833000D03*
X163825000Y-121483000D03*
X163825000Y-122133000D03*
X163825000Y-122783000D03*
X163825000Y-123433000D03*
%TD*%
D18*
%TO.C,SW29*%
X205105000Y-95250000D03*
D17*
X197485000Y-90170000D03*
D19*
X200025000Y-95250000D03*
D17*
X203835000Y-92710000D03*
D18*
X194945000Y-95250000D03*
D20*
X193929000Y-90170000D03*
X207391000Y-92710000D03*
%TD*%
D24*
%TO.C,D15*%
X173900000Y-103993750D03*
X173900000Y-100793750D03*
X169000000Y-100793750D03*
X169000000Y-103993750D03*
%TD*%
D18*
%TO.C,SW48*%
X104457500Y-152400000D03*
D19*
X109537500Y-152400000D03*
D18*
X114617500Y-152400000D03*
D17*
X106997500Y-147320000D03*
X113347500Y-149860000D03*
D20*
X103441500Y-147320000D03*
X116903500Y-149860000D03*
%TD*%
D17*
%TO.C,SW4*%
X316547500Y-147320000D03*
D18*
X324167500Y-152400000D03*
D19*
X319087500Y-152400000D03*
D18*
X314007500Y-152400000D03*
D17*
X322897500Y-149860000D03*
D20*
X312991500Y-147320000D03*
X326453500Y-149860000D03*
%TD*%
D19*
%TO.C,SW6*%
X309562500Y-114300000D03*
D17*
X307022500Y-109220000D03*
D18*
X314642500Y-114300000D03*
X304482500Y-114300000D03*
D17*
X313372500Y-111760000D03*
D20*
X303466500Y-109220000D03*
X316928500Y-111760000D03*
%TD*%
D17*
%TO.C,SW37*%
X159385000Y-90170000D03*
D18*
X156845000Y-95250000D03*
D17*
X165735000Y-92710000D03*
D19*
X161925000Y-95250000D03*
D18*
X167005000Y-95250000D03*
D20*
X155829000Y-90170000D03*
X169291000Y-92710000D03*
%TD*%
D17*
%TO.C,SW45*%
X121285000Y-90170000D03*
D18*
X118745000Y-95250000D03*
D19*
X123825000Y-95250000D03*
D18*
X128905000Y-95250000D03*
D17*
X127635000Y-92710000D03*
D20*
X117729000Y-90170000D03*
X131191000Y-92710000D03*
%TD*%
D25*
%TO.C,RN1*%
X325063000Y-125233000D03*
D26*
X325863000Y-125233000D03*
X326663000Y-125233000D03*
D25*
X327463000Y-125233000D03*
X327463000Y-123433000D03*
D26*
X326663000Y-123433000D03*
X325863000Y-123433000D03*
D25*
X325063000Y-123433000D03*
%TD*%
%TO.C,RN9*%
X172917000Y-125121875D03*
D26*
X173717000Y-125121875D03*
X174517000Y-125121875D03*
D25*
X175317000Y-125121875D03*
X175317000Y-123321875D03*
D26*
X174517000Y-123321875D03*
X173717000Y-123321875D03*
D25*
X172917000Y-123321875D03*
%TD*%
D21*
%TO.C,U1*%
X321950000Y-123433000D03*
X321950000Y-122783000D03*
X321950000Y-122133000D03*
X321950000Y-121483000D03*
X321950000Y-120833000D03*
X321950000Y-120183000D03*
X321950000Y-119533000D03*
X321950000Y-118883000D03*
X316225000Y-118883000D03*
X316225000Y-119533000D03*
X316225000Y-120183000D03*
X316225000Y-120833000D03*
X316225000Y-121483000D03*
X316225000Y-122133000D03*
X316225000Y-122783000D03*
X316225000Y-123433000D03*
%TD*%
D17*
%TO.C,SW50*%
X97472500Y-109220000D03*
D19*
X100012500Y-114300000D03*
D18*
X94932500Y-114300000D03*
D17*
X103822500Y-111760000D03*
D18*
X105092500Y-114300000D03*
D20*
X93916500Y-109220000D03*
X107378500Y-111760000D03*
%TD*%
D18*
%TO.C,SW30*%
X190182500Y-114300000D03*
D17*
X192722500Y-109220000D03*
X199072500Y-111760000D03*
D18*
X200342500Y-114300000D03*
D19*
X195262500Y-114300000D03*
D20*
X189166500Y-109220000D03*
X202628500Y-111760000D03*
%TD*%
D17*
%TO.C,SW9*%
X299085000Y-92710000D03*
X292735000Y-90170000D03*
D18*
X290195000Y-95250000D03*
D19*
X295275000Y-95250000D03*
D18*
X300355000Y-95250000D03*
D20*
X289179000Y-90170000D03*
X302641000Y-92710000D03*
%TD*%
D21*
%TO.C,U6*%
X131450000Y-123433000D03*
X131450000Y-122783000D03*
X131450000Y-122133000D03*
X131450000Y-121483000D03*
X131450000Y-120833000D03*
X131450000Y-120183000D03*
X131450000Y-119533000D03*
X131450000Y-118883000D03*
X125725000Y-118883000D03*
X125725000Y-119533000D03*
X125725000Y-120183000D03*
X125725000Y-120833000D03*
X125725000Y-121483000D03*
X125725000Y-122133000D03*
X125725000Y-122783000D03*
X125725000Y-123433000D03*
%TD*%
D15*
%TO.C,RN10*%
X161537500Y-123321875D03*
D16*
X160737500Y-123321875D03*
X159937500Y-123321875D03*
D15*
X159137500Y-123321875D03*
X159137500Y-125121875D03*
D16*
X159937500Y-125121875D03*
X160737500Y-125121875D03*
D15*
X161537500Y-125121875D03*
%TD*%
D18*
%TO.C,SW61*%
X167005000Y-171450000D03*
D19*
X161925000Y-171450000D03*
D17*
X159385000Y-166370000D03*
D18*
X156845000Y-171450000D03*
D17*
X165735000Y-168910000D03*
D20*
X155829000Y-166370000D03*
X169291000Y-168910000D03*
%TD*%
D25*
%TO.C,RN5*%
X248736000Y-125106000D03*
D26*
X249536000Y-125106000D03*
X250336000Y-125106000D03*
D25*
X251136000Y-125106000D03*
X251136000Y-123306000D03*
D26*
X250336000Y-123306000D03*
X249536000Y-123306000D03*
D25*
X248736000Y-123306000D03*
%TD*%
D18*
%TO.C,SW52*%
X95567500Y-152400000D03*
D17*
X94297500Y-149860000D03*
D19*
X90487500Y-152400000D03*
D17*
X87947500Y-147320000D03*
D18*
X85407500Y-152400000D03*
D20*
X84391500Y-147320000D03*
X97853500Y-149860000D03*
%TD*%
D17*
%TO.C,SW55*%
X73660000Y-128270000D03*
D18*
X71120000Y-133350000D03*
D17*
X80010000Y-130810000D03*
D19*
X76200000Y-133350000D03*
D18*
X81280000Y-133350000D03*
D20*
X70104000Y-128270000D03*
X83566000Y-130810000D03*
%TD*%
D18*
%TO.C,SW16*%
X256857500Y-152400000D03*
X267017500Y-152400000D03*
D19*
X261937500Y-152400000D03*
D17*
X259397500Y-147320000D03*
X265747500Y-149860000D03*
D20*
X255841500Y-147320000D03*
X269303500Y-149860000D03*
%TD*%
D19*
%TO.C,SW47*%
X114300000Y-133350000D03*
D18*
X109220000Y-133350000D03*
D17*
X118110000Y-130810000D03*
D18*
X119380000Y-133350000D03*
D17*
X111760000Y-128270000D03*
D20*
X108204000Y-128270000D03*
X121666000Y-130810000D03*
%TD*%
D22*
%TO.C,D12*%
X82084375Y-140084375D03*
X82084375Y-143284375D03*
X86984375Y-143284375D03*
X86984375Y-140084375D03*
%TD*%
D17*
%TO.C,SW56*%
X75247500Y-149860000D03*
D19*
X71437500Y-152400000D03*
D17*
X68897500Y-147320000D03*
D18*
X66357500Y-152400000D03*
X76517500Y-152400000D03*
D20*
X65341500Y-147320000D03*
X78803500Y-149860000D03*
%TD*%
D22*
%TO.C,D4*%
X311875000Y-140084375D03*
X311875000Y-143284375D03*
X316775000Y-143284375D03*
X316775000Y-140084375D03*
%TD*%
D19*
%TO.C,SW46*%
X119062500Y-114300000D03*
D18*
X113982500Y-114300000D03*
X124142500Y-114300000D03*
D17*
X116522500Y-109220000D03*
X122872500Y-111760000D03*
D20*
X112966500Y-109220000D03*
X126428500Y-111760000D03*
%TD*%
D22*
%TO.C,D9*%
X164237500Y-157943750D03*
X164237500Y-161143750D03*
X169137500Y-161143750D03*
X169137500Y-157943750D03*
%TD*%
D18*
%TO.C,SW18*%
X257492500Y-114300000D03*
D17*
X249872500Y-109220000D03*
D19*
X252412500Y-114300000D03*
D18*
X247332500Y-114300000D03*
D17*
X256222500Y-111760000D03*
D20*
X246316500Y-109220000D03*
X259778500Y-111760000D03*
%TD*%
D24*
%TO.C,D2*%
X288200000Y-103993750D03*
X288200000Y-100793750D03*
X283300000Y-100793750D03*
X283300000Y-103993750D03*
%TD*%
D18*
%TO.C,SW3*%
X318770000Y-133350000D03*
D17*
X327660000Y-130810000D03*
D18*
X328930000Y-133350000D03*
D17*
X321310000Y-128270000D03*
D19*
X323850000Y-133350000D03*
D20*
X317754000Y-128270000D03*
X331216000Y-130810000D03*
%TD*%
D24*
%TO.C,D3*%
X326300000Y-103993750D03*
X326300000Y-100793750D03*
X321400000Y-100793750D03*
X321400000Y-103993750D03*
%TD*%
D19*
%TO.C,SW58*%
X238125000Y-171450000D03*
D17*
X241935000Y-168910000D03*
X235585000Y-166370000D03*
D18*
X243205000Y-171450000D03*
X233045000Y-171450000D03*
D20*
X232029000Y-166370000D03*
X245491000Y-168910000D03*
%TD*%
D18*
%TO.C,SW42*%
X143192500Y-114300000D03*
D17*
X141922500Y-111760000D03*
D18*
X133032500Y-114300000D03*
D17*
X135572500Y-109220000D03*
D19*
X138112500Y-114300000D03*
D20*
X132016500Y-109220000D03*
X145478500Y-111760000D03*
%TD*%
D17*
%TO.C,SW13*%
X280035000Y-92710000D03*
D18*
X271145000Y-95250000D03*
D19*
X276225000Y-95250000D03*
D17*
X273685000Y-90170000D03*
D18*
X281305000Y-95250000D03*
D20*
X270129000Y-90170000D03*
X283591000Y-92710000D03*
%TD*%
D17*
%TO.C,SW59*%
X207010000Y-166370000D03*
D19*
X209550000Y-171450000D03*
X221488000Y-163195000D03*
D18*
X214630000Y-171450000D03*
X204470000Y-171450000D03*
D17*
X213360000Y-168910000D03*
X197612000Y-178435000D03*
X221488000Y-178435000D03*
D19*
X197612000Y-163195000D03*
D20*
X203454000Y-166370000D03*
X216916000Y-168910000D03*
%TD*%
D18*
%TO.C,SW24*%
X228917500Y-152400000D03*
X218757500Y-152400000D03*
D17*
X227647500Y-149860000D03*
D19*
X223837500Y-152400000D03*
D17*
X221297500Y-147320000D03*
D20*
X217741500Y-147320000D03*
X231203500Y-149860000D03*
%TD*%
D18*
%TO.C,SW21*%
X233045000Y-95250000D03*
D17*
X241935000Y-92710000D03*
X235585000Y-90170000D03*
D18*
X243205000Y-95250000D03*
D19*
X238125000Y-95250000D03*
D20*
X232029000Y-90170000D03*
X245491000Y-92710000D03*
%TD*%
D18*
%TO.C,SW38*%
X152082500Y-114300000D03*
D19*
X157162500Y-114300000D03*
D17*
X160972500Y-111760000D03*
X154622500Y-109220000D03*
D18*
X162242500Y-114300000D03*
D20*
X151066500Y-109220000D03*
X164528500Y-111760000D03*
%TD*%
D18*
%TO.C,SW8*%
X294957500Y-152400000D03*
D17*
X303847500Y-149860000D03*
X297497500Y-147320000D03*
D19*
X300037500Y-152400000D03*
D18*
X305117500Y-152400000D03*
D20*
X293941500Y-147320000D03*
X307403500Y-149860000D03*
%TD*%
D15*
%TO.C,RN12*%
X123437500Y-123321875D03*
D16*
X122637500Y-123321875D03*
X121837500Y-123321875D03*
D15*
X121037500Y-123321875D03*
X121037500Y-125121875D03*
D16*
X121837500Y-125121875D03*
X122637500Y-125121875D03*
D15*
X123437500Y-125121875D03*
%TD*%
D19*
%TO.C,SW33*%
X180975000Y-95250000D03*
D18*
X175895000Y-95250000D03*
D17*
X184785000Y-92710000D03*
X178435000Y-90170000D03*
D18*
X186055000Y-95250000D03*
D20*
X174879000Y-90170000D03*
X188341000Y-92710000D03*
%TD*%
D19*
%TO.C,SW1*%
X333375000Y-95250000D03*
D17*
X337185000Y-92710000D03*
D18*
X328295000Y-95250000D03*
D17*
X330835000Y-90170000D03*
D18*
X338455000Y-95250000D03*
D20*
X327279000Y-90170000D03*
X340741000Y-92710000D03*
%TD*%
D18*
%TO.C,SW57*%
X252095000Y-171450000D03*
D17*
X260985000Y-168910000D03*
X254635000Y-166370000D03*
D19*
X257175000Y-171450000D03*
D18*
X262255000Y-171450000D03*
D20*
X251079000Y-166370000D03*
X264541000Y-168910000D03*
%TD*%
D22*
%TO.C,D11*%
X110659375Y-140084375D03*
X110659375Y-143284375D03*
X115559375Y-143284375D03*
X115559375Y-140084375D03*
%TD*%
D19*
%TO.C,SW40*%
X147637500Y-152400000D03*
D18*
X142557500Y-152400000D03*
D17*
X151447500Y-149860000D03*
X145097500Y-147320000D03*
D18*
X152717500Y-152400000D03*
D20*
X141541500Y-147320000D03*
X155003500Y-149860000D03*
%TD*%
D18*
%TO.C,SW28*%
X209867500Y-152400000D03*
X199707500Y-152400000D03*
D17*
X202247500Y-147320000D03*
D19*
X204787500Y-152400000D03*
D17*
X208597500Y-149860000D03*
D20*
X198691500Y-147320000D03*
X212153500Y-149860000D03*
%TD*%
D22*
%TO.C,D7*%
X222578125Y-167468750D03*
X222578125Y-170668750D03*
X227478125Y-170668750D03*
X227478125Y-167468750D03*
%TD*%
D25*
%TO.C,RN11*%
X134563000Y-125121875D03*
D26*
X135363000Y-125121875D03*
X136163000Y-125121875D03*
D25*
X136963000Y-125121875D03*
X136963000Y-123321875D03*
D26*
X136163000Y-123321875D03*
X135363000Y-123321875D03*
D25*
X134563000Y-123321875D03*
%TD*%
D18*
%TO.C,SW54*%
X75882500Y-114300000D03*
X86042500Y-114300000D03*
D17*
X78422500Y-109220000D03*
X84772500Y-111760000D03*
D19*
X80962500Y-114300000D03*
D20*
X74866500Y-109220000D03*
X88328500Y-111760000D03*
%TD*%
D17*
%TO.C,SW12*%
X284797500Y-149860000D03*
D18*
X275907500Y-152400000D03*
D17*
X278447500Y-147320000D03*
D19*
X280987500Y-152400000D03*
D18*
X286067500Y-152400000D03*
D20*
X274891500Y-147320000D03*
X288353500Y-149860000D03*
%TD*%
D18*
%TO.C,SW7*%
X309880000Y-133350000D03*
X299720000Y-133350000D03*
D17*
X308610000Y-130810000D03*
D19*
X304800000Y-133350000D03*
D17*
X302260000Y-128270000D03*
D20*
X298704000Y-128270000D03*
X312166000Y-130810000D03*
%TD*%
D23*
%TO.C,JP2*%
X194310000Y-104775000D03*
X196850000Y-104775000D03*
X199390000Y-104775000D03*
%TD*%
D19*
%TO.C,SW10*%
X290512500Y-114300000D03*
D18*
X285432500Y-114300000D03*
D17*
X287972500Y-109220000D03*
X294322500Y-111760000D03*
D18*
X295592500Y-114300000D03*
D20*
X284416500Y-109220000D03*
X297878500Y-111760000D03*
%TD*%
D18*
%TO.C,SW49*%
X109855000Y-95250000D03*
D17*
X102235000Y-90170000D03*
D18*
X99695000Y-95250000D03*
D17*
X108585000Y-92710000D03*
D19*
X104775000Y-95250000D03*
D20*
X98679000Y-90170000D03*
X112141000Y-92710000D03*
%TD*%
D17*
%TO.C,SW39*%
X156210000Y-130810000D03*
X149860000Y-128270000D03*
D19*
X152400000Y-133350000D03*
D18*
X147320000Y-133350000D03*
X157480000Y-133350000D03*
D20*
X146304000Y-128270000D03*
X159766000Y-130810000D03*
%TD*%
D25*
%TO.C,RN7*%
X210636000Y-125121875D03*
D26*
X211436000Y-125121875D03*
X212236000Y-125121875D03*
D25*
X213036000Y-125121875D03*
X213036000Y-123321875D03*
D26*
X212236000Y-123321875D03*
X211436000Y-123321875D03*
D25*
X210636000Y-123321875D03*
%TD*%
D17*
%TO.C,SW51*%
X92710000Y-128270000D03*
D18*
X90170000Y-133350000D03*
D17*
X99060000Y-130810000D03*
D18*
X100330000Y-133350000D03*
D19*
X95250000Y-133350000D03*
D20*
X89154000Y-128270000D03*
X102616000Y-130810000D03*
%TD*%
D21*
%TO.C,U8*%
X212412500Y-160231250D03*
X212412500Y-159581250D03*
X212412500Y-158931250D03*
X212412500Y-158281250D03*
X212412500Y-157631250D03*
X212412500Y-156981250D03*
X212412500Y-156331250D03*
X212412500Y-155681250D03*
X206687500Y-155681250D03*
X206687500Y-156331250D03*
X206687500Y-156981250D03*
X206687500Y-157631250D03*
X206687500Y-158281250D03*
X206687500Y-158931250D03*
X206687500Y-159581250D03*
X206687500Y-160231250D03*
%TD*%
D24*
%TO.C,D13*%
X97700000Y-103993750D03*
X97700000Y-100793750D03*
X92800000Y-100793750D03*
X92800000Y-103993750D03*
%TD*%
D18*
%TO.C,SW15*%
X271780000Y-133350000D03*
D17*
X270510000Y-130810000D03*
D19*
X266700000Y-133350000D03*
D18*
X261620000Y-133350000D03*
D17*
X264160000Y-128270000D03*
D20*
X260604000Y-128270000D03*
X274066000Y-130810000D03*
%TD*%
D17*
%TO.C,SW34*%
X180022500Y-111760000D03*
D18*
X181292500Y-114300000D03*
D19*
X176212500Y-114300000D03*
D17*
X173672500Y-109220000D03*
D18*
X171132500Y-114300000D03*
D20*
X170116500Y-109220000D03*
X183578500Y-111760000D03*
%TD*%
D15*
%TO.C,RN14*%
X85337500Y-123321875D03*
D16*
X84537500Y-123321875D03*
X83737500Y-123321875D03*
D15*
X82937500Y-123321875D03*
X82937500Y-125121875D03*
D16*
X83737500Y-125121875D03*
X84537500Y-125121875D03*
D15*
X85337500Y-125121875D03*
%TD*%
D24*
%TO.C,D16*%
X208031250Y-103993750D03*
X208031250Y-100793750D03*
X203131250Y-100793750D03*
X203131250Y-103993750D03*
%TD*%
D22*
%TO.C,D5*%
X273775000Y-140084375D03*
X273775000Y-143284375D03*
X278675000Y-143284375D03*
X278675000Y-140084375D03*
%TD*%
D15*
%TO.C,RN8*%
X199637500Y-123321875D03*
D16*
X198837500Y-123321875D03*
X198037500Y-123321875D03*
D15*
X197237500Y-123321875D03*
X197237500Y-125121875D03*
D16*
X198037500Y-125121875D03*
X198837500Y-125121875D03*
D15*
X199637500Y-125121875D03*
%TD*%
D21*
%TO.C,U3*%
X245750000Y-123433000D03*
X245750000Y-122783000D03*
X245750000Y-122133000D03*
X245750000Y-121483000D03*
X245750000Y-120833000D03*
X245750000Y-120183000D03*
X245750000Y-119533000D03*
X245750000Y-118883000D03*
X240025000Y-118883000D03*
X240025000Y-119533000D03*
X240025000Y-120183000D03*
X240025000Y-120833000D03*
X240025000Y-121483000D03*
X240025000Y-122133000D03*
X240025000Y-122783000D03*
X240025000Y-123433000D03*
%TD*%
D15*
%TO.C,RN4*%
X275837500Y-123321875D03*
D16*
X275037500Y-123321875D03*
X274237500Y-123321875D03*
D15*
X273437500Y-123321875D03*
X273437500Y-125121875D03*
D16*
X274237500Y-125121875D03*
X275037500Y-125121875D03*
D15*
X275837500Y-125121875D03*
%TD*%
D17*
%TO.C,SW22*%
X230822500Y-109220000D03*
D19*
X233362500Y-114300000D03*
D18*
X238442500Y-114300000D03*
X228282500Y-114300000D03*
D17*
X237172500Y-111760000D03*
D20*
X227266500Y-109220000D03*
X240728500Y-111760000D03*
%TD*%
D17*
%TO.C,SW20*%
X240347500Y-147320000D03*
X246697500Y-149860000D03*
D18*
X237807500Y-152400000D03*
D19*
X242887500Y-152400000D03*
D18*
X247967500Y-152400000D03*
D20*
X236791500Y-147320000D03*
X250253500Y-149860000D03*
%TD*%
D18*
%TO.C,SW17*%
X252095000Y-95250000D03*
D17*
X254635000Y-90170000D03*
D18*
X262255000Y-95250000D03*
D17*
X260985000Y-92710000D03*
D19*
X257175000Y-95250000D03*
D20*
X251079000Y-90170000D03*
X264541000Y-92710000D03*
%TD*%
D18*
%TO.C,SW5*%
X309245000Y-95250000D03*
D17*
X318135000Y-92710000D03*
D18*
X319405000Y-95250000D03*
D17*
X311785000Y-90170000D03*
D19*
X314325000Y-95250000D03*
D20*
X308229000Y-90170000D03*
X321691000Y-92710000D03*
%TD*%
D25*
%TO.C,RN15*%
X215716000Y-162031250D03*
D26*
X216516000Y-162031250D03*
X217316000Y-162031250D03*
D25*
X218116000Y-162031250D03*
X218116000Y-160231250D03*
D26*
X217316000Y-160231250D03*
X216516000Y-160231250D03*
D25*
X215716000Y-160231250D03*
%TD*%
%TO.C,RN3*%
X286963000Y-125121875D03*
D26*
X287763000Y-125121875D03*
X288563000Y-125121875D03*
D25*
X289363000Y-125121875D03*
X289363000Y-123321875D03*
D26*
X288563000Y-123321875D03*
X287763000Y-123321875D03*
D25*
X286963000Y-123321875D03*
%TD*%
D18*
%TO.C,SW11*%
X280670000Y-133350000D03*
X290830000Y-133350000D03*
D17*
X289560000Y-130810000D03*
X283210000Y-128270000D03*
D19*
X285750000Y-133350000D03*
D20*
X279654000Y-128270000D03*
X293116000Y-130810000D03*
%TD*%
D18*
%TO.C,SW23*%
X233680000Y-133350000D03*
D19*
X228600000Y-133350000D03*
D17*
X232410000Y-130810000D03*
X226060000Y-128270000D03*
D18*
X223520000Y-133350000D03*
D20*
X222504000Y-128270000D03*
X235966000Y-130810000D03*
%TD*%
D15*
%TO.C,RN2*%
X313874000Y-123433000D03*
D16*
X313074000Y-123433000D03*
X312274000Y-123433000D03*
D15*
X311474000Y-123433000D03*
X311474000Y-125233000D03*
D16*
X312274000Y-125233000D03*
X313074000Y-125233000D03*
D15*
X313874000Y-125233000D03*
%TD*%
D18*
%TO.C,SW41*%
X147955000Y-95250000D03*
D17*
X140335000Y-90170000D03*
D18*
X137795000Y-95250000D03*
D17*
X146685000Y-92710000D03*
D19*
X142875000Y-95250000D03*
D20*
X136779000Y-90170000D03*
X150241000Y-92710000D03*
%TD*%
D18*
%TO.C,SW35*%
X166370000Y-133350000D03*
X176530000Y-133350000D03*
D17*
X175260000Y-130810000D03*
X168910000Y-128270000D03*
D19*
X171450000Y-133350000D03*
D20*
X165354000Y-128270000D03*
X178816000Y-130810000D03*
%TD*%
D17*
%TO.C,SW43*%
X137160000Y-130810000D03*
X130810000Y-128270000D03*
D19*
X133350000Y-133350000D03*
D18*
X128270000Y-133350000D03*
X138430000Y-133350000D03*
D20*
X127254000Y-128270000D03*
X140716000Y-130810000D03*
%TD*%
D19*
%TO.C,SW60*%
X180975000Y-171450000D03*
D18*
X186055000Y-171450000D03*
D17*
X178435000Y-166370000D03*
D18*
X175895000Y-171450000D03*
D17*
X184785000Y-168910000D03*
D20*
X174879000Y-166370000D03*
X188341000Y-168910000D03*
%TD*%
D24*
%TO.C,D1*%
X250100000Y-103993750D03*
X250100000Y-100793750D03*
X245200000Y-100793750D03*
X245200000Y-103993750D03*
%TD*%
D17*
%TO.C,SW2*%
X326072500Y-109220000D03*
X332422500Y-111760000D03*
D19*
X328612500Y-114300000D03*
D18*
X333692500Y-114300000D03*
X323532500Y-114300000D03*
D20*
X322516500Y-109220000D03*
X335978500Y-111760000D03*
%TD*%
D17*
%TO.C,SW26*%
X218122500Y-111760000D03*
X211772500Y-109220000D03*
D18*
X209232500Y-114300000D03*
D19*
X214312500Y-114300000D03*
D18*
X219392500Y-114300000D03*
D20*
X208216500Y-109220000D03*
X221678500Y-111760000D03*
%TD*%
D17*
%TO.C,SW14*%
X268922500Y-109220000D03*
D18*
X276542500Y-114300000D03*
X266382500Y-114300000D03*
D17*
X275272500Y-111760000D03*
D19*
X271462500Y-114300000D03*
D20*
X265366500Y-109220000D03*
X278828500Y-111760000D03*
%TD*%
D25*
%TO.C,RN13*%
X96463000Y-125121875D03*
D26*
X97263000Y-125121875D03*
X98063000Y-125121875D03*
D25*
X98863000Y-125121875D03*
X98863000Y-123321875D03*
D26*
X98063000Y-123321875D03*
X97263000Y-123321875D03*
D25*
X96463000Y-123321875D03*
%TD*%
D15*
%TO.C,RN16*%
X204003125Y-160231250D03*
D16*
X203203125Y-160231250D03*
X202403125Y-160231250D03*
D15*
X201603125Y-160231250D03*
X201603125Y-162031250D03*
D16*
X202403125Y-162031250D03*
X203203125Y-162031250D03*
D15*
X204003125Y-162031250D03*
%TD*%
D19*
%TO.C,SW44*%
X128587500Y-152400000D03*
D17*
X132397500Y-149860000D03*
X126047500Y-147320000D03*
D18*
X123507500Y-152400000D03*
X133667500Y-152400000D03*
D20*
X122491500Y-147320000D03*
X135953500Y-149860000D03*
%TD*%
D18*
%TO.C,SW27*%
X214630000Y-133350000D03*
X204470000Y-133350000D03*
D17*
X213360000Y-130810000D03*
D19*
X209550000Y-133350000D03*
D17*
X207010000Y-128270000D03*
D20*
X203454000Y-128270000D03*
X216916000Y-130810000D03*
%TD*%
D21*
%TO.C,U2*%
X283850000Y-123433000D03*
X283850000Y-122783000D03*
X283850000Y-122133000D03*
X283850000Y-121483000D03*
X283850000Y-120833000D03*
X283850000Y-120183000D03*
X283850000Y-119533000D03*
X283850000Y-118883000D03*
X278125000Y-118883000D03*
X278125000Y-119533000D03*
X278125000Y-120183000D03*
X278125000Y-120833000D03*
X278125000Y-121483000D03*
X278125000Y-122133000D03*
X278125000Y-122783000D03*
X278125000Y-123433000D03*
%TD*%
D17*
%TO.C,SW31*%
X187960000Y-128270000D03*
D18*
X195580000Y-133350000D03*
D19*
X190500000Y-133350000D03*
D18*
X185420000Y-133350000D03*
D17*
X194310000Y-130810000D03*
D20*
X184404000Y-128270000D03*
X197866000Y-130810000D03*
%TD*%
D17*
%TO.C,SW19*%
X245110000Y-128270000D03*
D18*
X252730000Y-133350000D03*
X242570000Y-133350000D03*
D19*
X247650000Y-133350000D03*
D17*
X251460000Y-130810000D03*
D20*
X241554000Y-128270000D03*
X255016000Y-130810000D03*
%TD*%
D22*
%TO.C,D6*%
X249962500Y-157943750D03*
X249962500Y-161143750D03*
X254862500Y-161143750D03*
X254862500Y-157943750D03*
%TD*%
%TO.C,D8*%
X191621875Y-167468750D03*
X191621875Y-170668750D03*
X196521875Y-170668750D03*
X196521875Y-167468750D03*
%TD*%
D18*
%TO.C,SW25*%
X213995000Y-95250000D03*
D17*
X222885000Y-92710000D03*
X216535000Y-90170000D03*
D18*
X224155000Y-95250000D03*
D19*
X219075000Y-95250000D03*
D20*
X212979000Y-90170000D03*
X226441000Y-92710000D03*
%TD*%
D17*
%TO.C,SW53*%
X89535000Y-92710000D03*
X83185000Y-90170000D03*
D19*
X85725000Y-95250000D03*
D18*
X80645000Y-95250000D03*
X90805000Y-95250000D03*
D20*
X79629000Y-90170000D03*
X93091000Y-92710000D03*
%TD*%
D24*
%TO.C,D14*%
X135800000Y-103993750D03*
X135800000Y-100793750D03*
X130900000Y-100793750D03*
X130900000Y-103993750D03*
%TD*%
D27*
X83439000Y-140081000D03*
X112141000Y-140081000D03*
X289687000Y-104013000D03*
X209423000Y-104013000D03*
X185801000Y-106299000D03*
X310515000Y-140081000D03*
X224022401Y-167513000D03*
X193040000Y-167513000D03*
X177419000Y-106299000D03*
X99060000Y-104140000D03*
X324866000Y-104013000D03*
X180848000Y-124460000D03*
X251587000Y-104013000D03*
X251333000Y-157861000D03*
X182626000Y-140081000D03*
X272161000Y-140081000D03*
X180848000Y-125984000D03*
X195326000Y-106299000D03*
X137160000Y-104140000D03*
X180467000Y-140081000D03*
X175260000Y-104140000D03*
X165481000Y-157988000D03*
X140462000Y-140081000D03*
X251206000Y-101727000D03*
X281559000Y-103251000D03*
X320548000Y-118872000D03*
X127000000Y-124333000D03*
X317627000Y-124333000D03*
X279527000Y-124333000D03*
X241300000Y-124333000D03*
X88900000Y-124206000D03*
X165227000Y-124333000D03*
X203200000Y-124333000D03*
X243586000Y-103124000D03*
X228854000Y-103124000D03*
X289306000Y-101981000D03*
X319913000Y-103124000D03*
X328803000Y-103124000D03*
X327406000Y-101854000D03*
X309372000Y-140843000D03*
X280162000Y-140843000D03*
X136779000Y-140843000D03*
X114300000Y-140970000D03*
X85598000Y-140843000D03*
X108204000Y-140843000D03*
X91948000Y-105156000D03*
X77978000Y-142240000D03*
X72599174Y-142191550D03*
X80010000Y-142240000D03*
X129159000Y-103378000D03*
X98933000Y-101727000D03*
X137160000Y-102108000D03*
X167640000Y-103378000D03*
X184785000Y-101854000D03*
X175133000Y-101854000D03*
X120142000Y-125222000D03*
X272542000Y-125222000D03*
X163830000Y-125222000D03*
X316230000Y-125222000D03*
X196342000Y-125222000D03*
X310642000Y-125222000D03*
X290195000Y-125222000D03*
X158242000Y-125222000D03*
X81915000Y-125222000D03*
X176276000Y-125222000D03*
X125730000Y-125222000D03*
X234442000Y-125222000D03*
X99822000Y-125222000D03*
X87630000Y-125222000D03*
X206756000Y-162052000D03*
X252095000Y-125222000D03*
X201930000Y-125222000D03*
X214503000Y-162052000D03*
X278130000Y-125222000D03*
X328422000Y-125222000D03*
X213995000Y-125222000D03*
X137922000Y-125222000D03*
X240030000Y-125222000D03*
X314071000Y-127508000D03*
X315595000Y-127508000D03*
X199771000Y-126492000D03*
X201189458Y-126464221D03*
X285877000Y-123444000D03*
X133477000Y-123444000D03*
X171831000Y-123444000D03*
X219710000Y-123444000D03*
X184277000Y-123444000D03*
X188087000Y-123444000D03*
X214376000Y-152654000D03*
X209595992Y-123441782D03*
X323977000Y-123444000D03*
X95250000Y-123444000D03*
X214313704Y-160318935D03*
X247650000Y-123444000D03*
X285242000Y-122809000D03*
X213741000Y-152146000D03*
X247015000Y-122809000D03*
X208915000Y-122809000D03*
X185039000Y-122809000D03*
X170942000Y-122809000D03*
X323215000Y-122809000D03*
X219075000Y-122809000D03*
X94615000Y-122809000D03*
X187325000Y-122809000D03*
X213741000Y-159639000D03*
X132842000Y-122809000D03*
X314452000Y-118237000D03*
X225044000Y-106172000D03*
X279654000Y-118872000D03*
X314833000Y-119507000D03*
X241300000Y-118872000D03*
X276733000Y-119507000D03*
X238633000Y-119507000D03*
X203327000Y-118872000D03*
X185039000Y-118872000D03*
X187498000Y-118872000D03*
X200533000Y-119507000D03*
X165100000Y-118872000D03*
X162560000Y-119507000D03*
X126873000Y-118872000D03*
X88900000Y-118872000D03*
X124333000Y-119507000D03*
X177673000Y-155702000D03*
X86106000Y-119507000D03*
X175514000Y-155702000D03*
X204978000Y-155702000D03*
X275717000Y-127635000D03*
X277114000Y-127508000D03*
X239478497Y-126749449D03*
X237998000Y-126746000D03*
X214503000Y-105029000D03*
X214503000Y-107950000D03*
X163012348Y-126741857D03*
X161544000Y-126746000D03*
X124907986Y-126739324D03*
X123317000Y-126746000D03*
X85344000Y-126619000D03*
X86949010Y-126620829D03*
M02*
