M48
; DRILL file {KiCad (6.0.6-0)} date Tuesday, August 16, 2022 at 09:08:47 AM
; FORMAT={-:-/ absolute / inch / decimal}
; #@! TF.CreationDate,2022-08-16T09:08:47-07:00
; #@! TF.GenerationSoftware,Kicad,Pcbnew,(6.0.6-0)
; #@! TF.FileFunction,Plated,1,2,PTH
FMAT,2
INCH
; #@! TA.AperFunction,Plated,PTH,ViaDrill
T1C0.0118
; #@! TA.AperFunction,Plated,PTH,ComponentDrill
T2C0.0276
%
G90
G05
T1
X2.8582Y-5.5981
X3.07Y-5.6
X3.15Y-5.6
X3.225Y-4.93
X3.285Y-5.515
X3.36Y-4.985
X3.37Y-5.545
X3.39Y-4.705
X3.4232Y-4.9851
X3.45Y-4.93
X3.5Y-4.68
X3.5Y-4.89
X3.62Y-4.14
X3.725Y-4.835
X3.75Y-4.86
X3.895Y-4.005
X3.9Y-4.1
X3.93Y-4.93
X4.26Y-5.545
X4.415Y-5.515
X4.5Y-5.55
X4.73Y-4.93
X4.855Y-4.99
X4.895Y-4.705
X4.9176Y-4.9897
X4.95Y-4.93
X4.995Y-4.68
X5.0Y-4.895
X5.085Y-4.07
X5.23Y-4.835
X5.255Y-4.86
X5.385Y-5.545
X5.4Y-4.02
X5.4Y-4.1
X5.43Y-4.93
X5.53Y-5.515
X6.23Y-4.93
X6.36Y-4.99
X6.4Y-4.705
X6.4178Y-4.9898
X6.45Y-4.93
X6.5Y-4.68
X6.505Y-4.895
X6.515Y-6.22
X6.6Y-4.07
X6.73Y-4.835
X6.765Y-4.86
X6.895Y-4.01
X6.9Y-4.1
X6.91Y-6.13
X6.94Y-4.93
X6.985Y-4.185
X6.995Y-6.13
X7.105Y-5.515
X7.12Y-4.9
X7.12Y-4.96
X7.19Y-5.515
X7.255Y-4.86
X7.275Y-4.01
X7.285Y-4.68
X7.285Y-4.835
X7.315Y-4.185
X7.375Y-4.835
X7.3818Y-4.68
X7.405Y-4.86
X7.6Y-6.595
X7.69Y-4.185
X7.73Y-4.93
X7.865Y-4.98
X7.895Y-4.705
X7.9208Y-4.9789
X7.95Y-4.93
X8.0Y-4.895
X8.005Y-4.68
X8.07Y-6.13
X8.14Y-6.38
X8.225Y-4.835
X8.245Y-4.095
X8.2518Y-4.8599
X8.415Y-5.99
X8.415Y-6.285
X8.425Y-4.93
X8.4375Y-6.3118
X8.44Y-6.01
X8.445Y-4.135
X8.445Y-4.25
X8.445Y-6.38
X8.625Y-4.835
X8.65Y-4.86
X8.8198Y-6.595
X8.86Y-4.18
X9.01Y-4.06
X9.23Y-4.93
X9.37Y-4.99
X9.395Y-4.705
X9.4283Y-4.9901
X9.45Y-4.93
X9.5Y-4.68
X9.5Y-4.895
X9.59Y-4.06
X9.725Y-4.835
X9.75Y-4.86
X9.89Y-4.005
X9.895Y-6.215
X9.905Y-4.095
X9.925Y-4.93
X10.715Y-5.515
X10.73Y-4.93
X10.855Y-5.025
X10.895Y-4.705
X10.91Y-5.02
X10.95Y-4.93
X11.005Y-4.895
X11.01Y-4.68
X11.03Y-5.545
X11.085Y-4.065
X11.23Y-4.835
X11.255Y-4.86
X11.39Y-4.015
X11.405Y-4.095
X11.425Y-4.93
X12.18Y-5.545
X12.225Y-5.515
X12.23Y-4.93
X12.365Y-5.02
X12.38Y-4.655
X12.395Y-4.705
X12.425Y-5.02
X12.45Y-4.93
X12.505Y-4.895
X12.595Y-4.06
X12.62Y-4.68
X12.725Y-4.835
X12.755Y-4.86
X12.79Y-4.095
X12.89Y-4.01
X12.93Y-4.93
X12.945Y-4.06
T2
X7.2125Y-4.125
X7.3125Y-4.125
X7.4125Y-4.125
X7.65Y-4.125
X7.75Y-4.125
X7.85Y-4.125
X8.325Y-3.6484
X8.325Y-3.7484
X8.325Y-3.8484
X8.325Y-3.9484
X8.325Y-4.0484
X8.325Y-4.1484
X8.925Y-3.7484
X8.925Y-3.8484
X8.925Y-3.9484
X8.925Y-4.0484
X8.925Y-4.1484
T0
M30
