G04 #@! TF.GenerationSoftware,KiCad,Pcbnew,(6.0.6-0)*
G04 #@! TF.CreationDate,2022-08-15T11:25:08-07:00*
G04 #@! TF.ProjectId,purple-owl,70757270-6c65-42d6-9f77-6c2e6b696361,1.0*
G04 #@! TF.SameCoordinates,Original*
G04 #@! TF.FileFunction,Soldermask,Bot*
G04 #@! TF.FilePolarity,Negative*
%FSLAX46Y46*%
G04 Gerber Fmt 4.6, Leading zero omitted, Abs format (unit mm)*
G04 Created by KiCad (PCBNEW (6.0.6-0)) date 2022-08-15 11:25:08*
%MOMM*%
%LPD*%
G01*
G04 APERTURE LIST*
G04 Aperture macros list*
%AMRoundRect*
0 Rectangle with rounded corners*
0 $1 Rounding radius*
0 $2 $3 $4 $5 $6 $7 $8 $9 X,Y pos of 4 corners*
0 Add a 4 corners polygon primitive as box body*
4,1,4,$2,$3,$4,$5,$6,$7,$8,$9,$2,$3,0*
0 Add four circle primitives for the rounded corners*
1,1,$1+$1,$2,$3*
1,1,$1+$1,$4,$5*
1,1,$1+$1,$6,$7*
1,1,$1+$1,$8,$9*
0 Add four rect primitives between the rounded corners*
20,1,$1+$1,$2,$3,$4,$5,0*
20,1,$1+$1,$4,$5,$6,$7,0*
20,1,$1+$1,$6,$7,$8,$9,0*
20,1,$1+$1,$8,$9,$2,$3,0*%
G04 Aperture macros list end*
%ADD10C,1.600000*%
%ADD11C,3.248000*%
%ADD12C,1.901800*%
%ADD13C,4.187800*%
%ADD14RoundRect,0.450000X0.400000X-0.350000X0.400000X0.350000X-0.400000X0.350000X-0.400000X-0.350000X0*%
G04 APERTURE END LIST*
D10*
G04 #@! TO.C,U9*
X226695000Y-95210546D03*
X226695000Y-97750546D03*
X226695000Y-100290546D03*
X226695000Y-102830546D03*
X226695000Y-105370546D03*
X211455000Y-105370546D03*
X211455000Y-102830546D03*
X211455000Y-100290546D03*
X211455000Y-97750546D03*
X211455000Y-95210546D03*
X211455000Y-92670546D03*
G04 #@! TD*
D11*
G04 #@! TO.C,SW36*
X170497500Y-149860000D03*
D12*
X161607500Y-152400000D03*
D11*
X164147500Y-147320000D03*
D12*
X171767500Y-152400000D03*
D13*
X166687500Y-152400000D03*
G04 #@! TD*
D12*
G04 #@! TO.C,SW32*
X190817500Y-152400000D03*
D11*
X189547500Y-149860000D03*
X183197500Y-147320000D03*
D12*
X180657500Y-152400000D03*
D13*
X185737500Y-152400000D03*
G04 #@! TD*
D14*
G04 #@! TO.C,JP1*
X183197500Y-104775000D03*
X185737500Y-104775000D03*
X188277500Y-104775000D03*
G04 #@! TD*
D12*
G04 #@! TO.C,SW29*
X205105000Y-95250000D03*
D11*
X197485000Y-90170000D03*
D13*
X200025000Y-95250000D03*
D11*
X203835000Y-92710000D03*
D12*
X194945000Y-95250000D03*
G04 #@! TD*
G04 #@! TO.C,SW48*
X104457500Y-152400000D03*
D13*
X109537500Y-152400000D03*
D12*
X114617500Y-152400000D03*
D11*
X106997500Y-147320000D03*
X113347500Y-149860000D03*
G04 #@! TD*
G04 #@! TO.C,SW4*
X316547500Y-147320000D03*
D12*
X324167500Y-152400000D03*
D13*
X319087500Y-152400000D03*
D12*
X314007500Y-152400000D03*
D11*
X322897500Y-149860000D03*
G04 #@! TD*
D13*
G04 #@! TO.C,SW6*
X309562500Y-114300000D03*
D11*
X307022500Y-109220000D03*
D12*
X314642500Y-114300000D03*
X304482500Y-114300000D03*
D11*
X313372500Y-111760000D03*
G04 #@! TD*
G04 #@! TO.C,SW37*
X159385000Y-90170000D03*
D12*
X156845000Y-95250000D03*
D11*
X165735000Y-92710000D03*
D13*
X161925000Y-95250000D03*
D12*
X167005000Y-95250000D03*
G04 #@! TD*
D11*
G04 #@! TO.C,SW45*
X121285000Y-90170000D03*
D12*
X118745000Y-95250000D03*
D13*
X123825000Y-95250000D03*
D12*
X128905000Y-95250000D03*
D11*
X127635000Y-92710000D03*
G04 #@! TD*
G04 #@! TO.C,SW50*
X97472500Y-109220000D03*
D13*
X100012500Y-114300000D03*
D12*
X94932500Y-114300000D03*
D11*
X103822500Y-111760000D03*
D12*
X105092500Y-114300000D03*
G04 #@! TD*
G04 #@! TO.C,SW30*
X190182500Y-114300000D03*
D11*
X192722500Y-109220000D03*
X199072500Y-111760000D03*
D12*
X200342500Y-114300000D03*
D13*
X195262500Y-114300000D03*
G04 #@! TD*
D11*
G04 #@! TO.C,SW9*
X299085000Y-92710000D03*
X292735000Y-90170000D03*
D12*
X290195000Y-95250000D03*
D13*
X295275000Y-95250000D03*
D12*
X300355000Y-95250000D03*
G04 #@! TD*
G04 #@! TO.C,SW61*
X167005000Y-171450000D03*
D13*
X161925000Y-171450000D03*
D11*
X159385000Y-166370000D03*
D12*
X156845000Y-171450000D03*
D11*
X165735000Y-168910000D03*
G04 #@! TD*
D12*
G04 #@! TO.C,SW52*
X95567500Y-152400000D03*
D11*
X94297500Y-149860000D03*
D13*
X90487500Y-152400000D03*
D11*
X87947500Y-147320000D03*
D12*
X85407500Y-152400000D03*
G04 #@! TD*
D11*
G04 #@! TO.C,SW55*
X73660000Y-128270000D03*
D12*
X71120000Y-133350000D03*
D11*
X80010000Y-130810000D03*
D13*
X76200000Y-133350000D03*
D12*
X81280000Y-133350000D03*
G04 #@! TD*
G04 #@! TO.C,SW16*
X256857500Y-152400000D03*
X267017500Y-152400000D03*
D13*
X261937500Y-152400000D03*
D11*
X259397500Y-147320000D03*
X265747500Y-149860000D03*
G04 #@! TD*
D13*
G04 #@! TO.C,SW47*
X114300000Y-133350000D03*
D12*
X109220000Y-133350000D03*
D11*
X118110000Y-130810000D03*
D12*
X119380000Y-133350000D03*
D11*
X111760000Y-128270000D03*
G04 #@! TD*
G04 #@! TO.C,SW56*
X75247500Y-149860000D03*
D13*
X71437500Y-152400000D03*
D11*
X68897500Y-147320000D03*
D12*
X66357500Y-152400000D03*
X76517500Y-152400000D03*
G04 #@! TD*
D13*
G04 #@! TO.C,SW46*
X119062500Y-114300000D03*
D12*
X113982500Y-114300000D03*
X124142500Y-114300000D03*
D11*
X116522500Y-109220000D03*
X122872500Y-111760000D03*
G04 #@! TD*
D12*
G04 #@! TO.C,SW18*
X257492500Y-114300000D03*
D11*
X249872500Y-109220000D03*
D13*
X252412500Y-114300000D03*
D12*
X247332500Y-114300000D03*
D11*
X256222500Y-111760000D03*
G04 #@! TD*
D12*
G04 #@! TO.C,SW3*
X318770000Y-133350000D03*
D11*
X327660000Y-130810000D03*
D12*
X328930000Y-133350000D03*
D11*
X321310000Y-128270000D03*
D13*
X323850000Y-133350000D03*
G04 #@! TD*
G04 #@! TO.C,SW58*
X238125000Y-171450000D03*
D11*
X241935000Y-168910000D03*
X235585000Y-166370000D03*
D12*
X243205000Y-171450000D03*
X233045000Y-171450000D03*
G04 #@! TD*
G04 #@! TO.C,SW42*
X143192500Y-114300000D03*
D11*
X141922500Y-111760000D03*
D12*
X133032500Y-114300000D03*
D11*
X135572500Y-109220000D03*
D13*
X138112500Y-114300000D03*
G04 #@! TD*
D11*
G04 #@! TO.C,SW13*
X280035000Y-92710000D03*
D12*
X271145000Y-95250000D03*
D13*
X276225000Y-95250000D03*
D11*
X273685000Y-90170000D03*
D12*
X281305000Y-95250000D03*
G04 #@! TD*
D11*
G04 #@! TO.C,SW59*
X207010000Y-166370000D03*
D13*
X209550000Y-171450000D03*
X221488000Y-163195000D03*
D12*
X214630000Y-171450000D03*
X204470000Y-171450000D03*
D11*
X213360000Y-168910000D03*
X197612000Y-178435000D03*
X221488000Y-178435000D03*
D13*
X197612000Y-163195000D03*
G04 #@! TD*
D12*
G04 #@! TO.C,SW24*
X228917500Y-152400000D03*
X218757500Y-152400000D03*
D11*
X227647500Y-149860000D03*
D13*
X223837500Y-152400000D03*
D11*
X221297500Y-147320000D03*
G04 #@! TD*
D12*
G04 #@! TO.C,SW21*
X233045000Y-95250000D03*
D11*
X241935000Y-92710000D03*
X235585000Y-90170000D03*
D12*
X243205000Y-95250000D03*
D13*
X238125000Y-95250000D03*
G04 #@! TD*
D12*
G04 #@! TO.C,SW38*
X152082500Y-114300000D03*
D13*
X157162500Y-114300000D03*
D11*
X160972500Y-111760000D03*
X154622500Y-109220000D03*
D12*
X162242500Y-114300000D03*
G04 #@! TD*
G04 #@! TO.C,SW8*
X294957500Y-152400000D03*
D11*
X303847500Y-149860000D03*
X297497500Y-147320000D03*
D13*
X300037500Y-152400000D03*
D12*
X305117500Y-152400000D03*
G04 #@! TD*
D13*
G04 #@! TO.C,SW33*
X180975000Y-95250000D03*
D12*
X175895000Y-95250000D03*
D11*
X184785000Y-92710000D03*
X178435000Y-90170000D03*
D12*
X186055000Y-95250000D03*
G04 #@! TD*
D13*
G04 #@! TO.C,SW1*
X333375000Y-95250000D03*
D11*
X337185000Y-92710000D03*
D12*
X328295000Y-95250000D03*
D11*
X330835000Y-90170000D03*
D12*
X338455000Y-95250000D03*
G04 #@! TD*
G04 #@! TO.C,SW57*
X252095000Y-171450000D03*
D11*
X260985000Y-168910000D03*
X254635000Y-166370000D03*
D13*
X257175000Y-171450000D03*
D12*
X262255000Y-171450000D03*
G04 #@! TD*
D13*
G04 #@! TO.C,SW40*
X147637500Y-152400000D03*
D12*
X142557500Y-152400000D03*
D11*
X151447500Y-149860000D03*
X145097500Y-147320000D03*
D12*
X152717500Y-152400000D03*
G04 #@! TD*
G04 #@! TO.C,SW28*
X209867500Y-152400000D03*
X199707500Y-152400000D03*
D11*
X202247500Y-147320000D03*
D13*
X204787500Y-152400000D03*
D11*
X208597500Y-149860000D03*
G04 #@! TD*
D12*
G04 #@! TO.C,SW54*
X75882500Y-114300000D03*
X86042500Y-114300000D03*
D11*
X78422500Y-109220000D03*
X84772500Y-111760000D03*
D13*
X80962500Y-114300000D03*
G04 #@! TD*
D11*
G04 #@! TO.C,SW12*
X284797500Y-149860000D03*
D12*
X275907500Y-152400000D03*
D11*
X278447500Y-147320000D03*
D13*
X280987500Y-152400000D03*
D12*
X286067500Y-152400000D03*
G04 #@! TD*
G04 #@! TO.C,SW7*
X309880000Y-133350000D03*
X299720000Y-133350000D03*
D11*
X308610000Y-130810000D03*
D13*
X304800000Y-133350000D03*
D11*
X302260000Y-128270000D03*
G04 #@! TD*
D14*
G04 #@! TO.C,JP2*
X194310000Y-104775000D03*
X196850000Y-104775000D03*
X199390000Y-104775000D03*
G04 #@! TD*
D13*
G04 #@! TO.C,SW10*
X290512500Y-114300000D03*
D12*
X285432500Y-114300000D03*
D11*
X287972500Y-109220000D03*
X294322500Y-111760000D03*
D12*
X295592500Y-114300000D03*
G04 #@! TD*
G04 #@! TO.C,SW49*
X109855000Y-95250000D03*
D11*
X102235000Y-90170000D03*
D12*
X99695000Y-95250000D03*
D11*
X108585000Y-92710000D03*
D13*
X104775000Y-95250000D03*
G04 #@! TD*
D11*
G04 #@! TO.C,SW39*
X156210000Y-130810000D03*
X149860000Y-128270000D03*
D13*
X152400000Y-133350000D03*
D12*
X147320000Y-133350000D03*
X157480000Y-133350000D03*
G04 #@! TD*
D11*
G04 #@! TO.C,SW51*
X92710000Y-128270000D03*
D12*
X90170000Y-133350000D03*
D11*
X99060000Y-130810000D03*
D12*
X100330000Y-133350000D03*
D13*
X95250000Y-133350000D03*
G04 #@! TD*
D12*
G04 #@! TO.C,SW15*
X271780000Y-133350000D03*
D11*
X270510000Y-130810000D03*
D13*
X266700000Y-133350000D03*
D12*
X261620000Y-133350000D03*
D11*
X264160000Y-128270000D03*
G04 #@! TD*
G04 #@! TO.C,SW34*
X180022500Y-111760000D03*
D12*
X181292500Y-114300000D03*
D13*
X176212500Y-114300000D03*
D11*
X173672500Y-109220000D03*
D12*
X171132500Y-114300000D03*
G04 #@! TD*
D11*
G04 #@! TO.C,SW22*
X230822500Y-109220000D03*
D13*
X233362500Y-114300000D03*
D12*
X238442500Y-114300000D03*
X228282500Y-114300000D03*
D11*
X237172500Y-111760000D03*
G04 #@! TD*
G04 #@! TO.C,SW20*
X240347500Y-147320000D03*
X246697500Y-149860000D03*
D12*
X237807500Y-152400000D03*
D13*
X242887500Y-152400000D03*
D12*
X247967500Y-152400000D03*
G04 #@! TD*
G04 #@! TO.C,SW17*
X252095000Y-95250000D03*
D11*
X254635000Y-90170000D03*
D12*
X262255000Y-95250000D03*
D11*
X260985000Y-92710000D03*
D13*
X257175000Y-95250000D03*
G04 #@! TD*
D12*
G04 #@! TO.C,SW5*
X309245000Y-95250000D03*
D11*
X318135000Y-92710000D03*
D12*
X319405000Y-95250000D03*
D11*
X311785000Y-90170000D03*
D13*
X314325000Y-95250000D03*
G04 #@! TD*
D12*
G04 #@! TO.C,SW11*
X280670000Y-133350000D03*
X290830000Y-133350000D03*
D11*
X289560000Y-130810000D03*
X283210000Y-128270000D03*
D13*
X285750000Y-133350000D03*
G04 #@! TD*
D12*
G04 #@! TO.C,SW23*
X233680000Y-133350000D03*
D13*
X228600000Y-133350000D03*
D11*
X232410000Y-130810000D03*
X226060000Y-128270000D03*
D12*
X223520000Y-133350000D03*
G04 #@! TD*
G04 #@! TO.C,SW41*
X147955000Y-95250000D03*
D11*
X140335000Y-90170000D03*
D12*
X137795000Y-95250000D03*
D11*
X146685000Y-92710000D03*
D13*
X142875000Y-95250000D03*
G04 #@! TD*
D12*
G04 #@! TO.C,SW35*
X166370000Y-133350000D03*
X176530000Y-133350000D03*
D11*
X175260000Y-130810000D03*
X168910000Y-128270000D03*
D13*
X171450000Y-133350000D03*
G04 #@! TD*
D11*
G04 #@! TO.C,SW43*
X137160000Y-130810000D03*
X130810000Y-128270000D03*
D13*
X133350000Y-133350000D03*
D12*
X128270000Y-133350000D03*
X138430000Y-133350000D03*
G04 #@! TD*
D13*
G04 #@! TO.C,SW60*
X180975000Y-171450000D03*
D12*
X186055000Y-171450000D03*
D11*
X178435000Y-166370000D03*
D12*
X175895000Y-171450000D03*
D11*
X184785000Y-168910000D03*
G04 #@! TD*
G04 #@! TO.C,SW2*
X326072500Y-109220000D03*
X332422500Y-111760000D03*
D13*
X328612500Y-114300000D03*
D12*
X333692500Y-114300000D03*
X323532500Y-114300000D03*
G04 #@! TD*
D11*
G04 #@! TO.C,SW26*
X218122500Y-111760000D03*
X211772500Y-109220000D03*
D12*
X209232500Y-114300000D03*
D13*
X214312500Y-114300000D03*
D12*
X219392500Y-114300000D03*
G04 #@! TD*
D11*
G04 #@! TO.C,SW14*
X268922500Y-109220000D03*
D12*
X276542500Y-114300000D03*
X266382500Y-114300000D03*
D11*
X275272500Y-111760000D03*
D13*
X271462500Y-114300000D03*
G04 #@! TD*
G04 #@! TO.C,SW44*
X128587500Y-152400000D03*
D11*
X132397500Y-149860000D03*
X126047500Y-147320000D03*
D12*
X123507500Y-152400000D03*
X133667500Y-152400000D03*
G04 #@! TD*
G04 #@! TO.C,SW27*
X214630000Y-133350000D03*
X204470000Y-133350000D03*
D11*
X213360000Y-130810000D03*
D13*
X209550000Y-133350000D03*
D11*
X207010000Y-128270000D03*
G04 #@! TD*
G04 #@! TO.C,SW31*
X187960000Y-128270000D03*
D12*
X195580000Y-133350000D03*
D13*
X190500000Y-133350000D03*
D12*
X185420000Y-133350000D03*
D11*
X194310000Y-130810000D03*
G04 #@! TD*
G04 #@! TO.C,SW19*
X245110000Y-128270000D03*
D12*
X252730000Y-133350000D03*
X242570000Y-133350000D03*
D13*
X247650000Y-133350000D03*
D11*
X251460000Y-130810000D03*
G04 #@! TD*
D12*
G04 #@! TO.C,SW25*
X213995000Y-95250000D03*
D11*
X222885000Y-92710000D03*
X216535000Y-90170000D03*
D12*
X224155000Y-95250000D03*
D13*
X219075000Y-95250000D03*
G04 #@! TD*
D11*
G04 #@! TO.C,SW53*
X89535000Y-92710000D03*
X83185000Y-90170000D03*
D13*
X85725000Y-95250000D03*
D12*
X80645000Y-95250000D03*
X90805000Y-95250000D03*
G04 #@! TD*
M02*
