M48
; DRILL file {KiCad (6.0.6-0)} date Monday, August 15, 2022 at 11:26:33 AM
; FORMAT={3:3/ absolute / metric / suppress leading zeros}
; #@! TF.CreationDate,2022-08-15T11:26:33-07:00
; #@! TF.GenerationSoftware,Kicad,Pcbnew,(6.0.6-0)
; #@! TF.FileFunction,MixedPlating,1,2
FMAT,2
METRIC,TZ
; #@! TA.AperFunction,Plated,PTH,ViaDrill
T1C0.300
; #@! TA.AperFunction,Plated,PTH,ComponentDrill
T2C0.700
; #@! TA.AperFunction,NonPlated,NPTH,ComponentDrill
T3C1.702
; #@! TA.AperFunction,NonPlated,NPTH,ComponentDrill
T4C3.048
; #@! TA.AperFunction,NonPlated,NPTH,ComponentDrill
T5C3.988
%
G90
G05
T1
X72599Y-142192
X77978Y-142240
X80010Y-142240
X81915Y-125222
X83439Y-140081
X85344Y-126619
X85598Y-140843
X86106Y-119507
X86949Y-126621
X87630Y-125222
X88900Y-118872
X88900Y-124206
X91948Y-105156
X94615Y-122809
X95250Y-123444
X98933Y-101727
X99060Y-104140
X99822Y-125222
X108204Y-140843
X112141Y-140081
X114300Y-140970
X120142Y-125222
X123317Y-126746
X124333Y-119507
X124908Y-126739
X125730Y-125222
X126873Y-118872
X127000Y-124333
X129159Y-103378
X132842Y-122809
X133477Y-123444
X136779Y-140843
X137160Y-102108
X137160Y-104140
X137922Y-125222
X140462Y-140081
X158242Y-125222
X161544Y-126746
X162560Y-119507
X163012Y-126742
X163830Y-125222
X165100Y-118872
X165227Y-124333
X165481Y-157988
X167640Y-103378
X170942Y-122809
X171831Y-123444
X175133Y-101854
X175260Y-104140
X175514Y-155702
X176276Y-125222
X177419Y-106299
X177673Y-155702
X180467Y-140081
X180848Y-124460
X180848Y-125984
X182626Y-140081
X184277Y-123444
X184785Y-101854
X185039Y-118872
X185039Y-122809
X185801Y-106299
X187325Y-122809
X187498Y-118872
X188087Y-123444
X193040Y-167513
X195326Y-106299
X196342Y-125222
X199771Y-126492
X200533Y-119507
X201189Y-126464
X201930Y-125222
X203200Y-124333
X203327Y-118872
X204978Y-155702
X206756Y-162052
X208915Y-122809
X209423Y-104013
X209596Y-123442
X213741Y-152146
X213741Y-159639
X213995Y-125222
X214314Y-160319
X214376Y-152654
X214503Y-105029
X214503Y-107950
X214503Y-162052
X219075Y-122809
X219710Y-123444
X224022Y-167513
X225044Y-106172
X228854Y-103124
X234442Y-125222
X237998Y-126746
X238633Y-119507
X239478Y-126749
X240030Y-125222
X241300Y-118872
X241300Y-124333
X243586Y-103124
X247015Y-122809
X247650Y-123444
X251206Y-101727
X251333Y-157861
X251587Y-104013
X252095Y-125222
X272161Y-140081
X272542Y-125222
X275717Y-127635
X276733Y-119507
X277114Y-127508
X278130Y-125222
X279527Y-124333
X279654Y-118872
X280162Y-140843
X281559Y-103251
X285242Y-122809
X285877Y-123444
X289306Y-101981
X289687Y-104013
X290195Y-125222
X309372Y-140843
X310515Y-140081
X310642Y-125222
X314071Y-127508
X314452Y-118237
X314833Y-119507
X315595Y-127508
X316230Y-125222
X317627Y-124333
X319913Y-103124
X320548Y-118872
X323215Y-122809
X323977Y-123444
X324866Y-104013
X327406Y-101854
X328422Y-125222
X328803Y-103124
T2
X183198Y-104775
X185737Y-104775
X188278Y-104775
X194310Y-104775
X196850Y-104775
X199390Y-104775
X211455Y-92671
X211455Y-95211
X211455Y-97751
X211455Y-100291
X211455Y-102831
X211455Y-105371
X226695Y-95211
X226695Y-97751
X226695Y-100291
X226695Y-102831
X226695Y-105371
T3
X66358Y-152400
X71120Y-133350
X75882Y-114300
X76518Y-152400
X80645Y-95250
X81280Y-133350
X85408Y-152400
X86043Y-114300
X90170Y-133350
X90805Y-95250
X94933Y-114300
X95568Y-152400
X99695Y-95250
X100330Y-133350
X104458Y-152400
X105093Y-114300
X109220Y-133350
X109855Y-95250
X113983Y-114300
X114618Y-152400
X118745Y-95250
X119380Y-133350
X123507Y-152400
X124143Y-114300
X128270Y-133350
X128905Y-95250
X133033Y-114300
X133668Y-152400
X137795Y-95250
X138430Y-133350
X142558Y-152400
X143193Y-114300
X147320Y-133350
X147955Y-95250
X152082Y-114300
X152718Y-152400
X156845Y-95250
X156845Y-171450
X157480Y-133350
X161607Y-152400
X162243Y-114300
X166370Y-133350
X167005Y-95250
X167005Y-171450
X171133Y-114300
X171767Y-152400
X175895Y-95250
X175895Y-171450
X176530Y-133350
X180658Y-152400
X181293Y-114300
X185420Y-133350
X186055Y-95250
X186055Y-171450
X190183Y-114300
X190818Y-152400
X194945Y-95250
X195580Y-133350
X199708Y-152400
X200343Y-114300
X204470Y-133350
X204470Y-171450
X205105Y-95250
X209233Y-114300
X209867Y-152400
X213995Y-95250
X214630Y-133350
X214630Y-171450
X218758Y-152400
X219392Y-114300
X223520Y-133350
X224155Y-95250
X228283Y-114300
X228917Y-152400
X233045Y-95250
X233045Y-171450
X233680Y-133350
X237808Y-152400
X238443Y-114300
X242570Y-133350
X243205Y-95250
X243205Y-171450
X247333Y-114300
X247968Y-152400
X252095Y-95250
X252095Y-171450
X252730Y-133350
X256858Y-152400
X257493Y-114300
X261620Y-133350
X262255Y-95250
X262255Y-171450
X266383Y-114300
X267017Y-152400
X271145Y-95250
X271780Y-133350
X275908Y-152400
X276542Y-114300
X280670Y-133350
X281305Y-95250
X285433Y-114300
X286068Y-152400
X290195Y-95250
X290830Y-133350
X294958Y-152400
X295592Y-114300
X299720Y-133350
X300355Y-95250
X304483Y-114300
X305118Y-152400
X309245Y-95250
X309880Y-133350
X314008Y-152400
X314642Y-114300
X318770Y-133350
X319405Y-95250
X323533Y-114300
X324167Y-152400
X328295Y-95250
X328930Y-133350
X333693Y-114300
X338455Y-95250
T4
X68897Y-147320
X73660Y-128270
X75248Y-149860
X78423Y-109220
X80010Y-130810
X83185Y-90170
X84773Y-111760
X87948Y-147320
X89535Y-92710
X92710Y-128270
X94298Y-149860
X97473Y-109220
X99060Y-130810
X102235Y-90170
X103823Y-111760
X106998Y-147320
X108585Y-92710
X111760Y-128270
X113348Y-149860
X116523Y-109220
X118110Y-130810
X121285Y-90170
X122873Y-111760
X126048Y-147320
X127635Y-92710
X130810Y-128270
X132398Y-149860
X135573Y-109220
X137160Y-130810
X140335Y-90170
X141923Y-111760
X145098Y-147320
X146685Y-92710
X149860Y-128270
X151448Y-149860
X154623Y-109220
X156210Y-130810
X159385Y-90170
X159385Y-166370
X160973Y-111760
X164148Y-147320
X165735Y-92710
X165735Y-168910
X168910Y-128270
X170498Y-149860
X173673Y-109220
X175260Y-130810
X178435Y-90170
X178435Y-166370
X180023Y-111760
X183198Y-147320
X184785Y-92710
X184785Y-168910
X187960Y-128270
X189548Y-149860
X192723Y-109220
X194310Y-130810
X197485Y-90170
X197612Y-178435
X199073Y-111760
X202248Y-147320
X203835Y-92710
X207010Y-128270
X207010Y-166370
X208598Y-149860
X211773Y-109220
X213360Y-130810
X213360Y-168910
X216535Y-90170
X218123Y-111760
X221298Y-147320
X221488Y-178435
X222885Y-92710
X226060Y-128270
X227648Y-149860
X230823Y-109220
X232410Y-130810
X235585Y-90170
X235585Y-166370
X237173Y-111760
X240348Y-147320
X241935Y-92710
X241935Y-168910
X245110Y-128270
X246698Y-149860
X249873Y-109220
X251460Y-130810
X254635Y-90170
X254635Y-166370
X256222Y-111760
X259398Y-147320
X260985Y-92710
X260985Y-168910
X264160Y-128270
X265748Y-149860
X268923Y-109220
X270510Y-130810
X273685Y-90170
X275273Y-111760
X278448Y-147320
X280035Y-92710
X283210Y-128270
X284798Y-149860
X287972Y-109220
X289560Y-130810
X292735Y-90170
X294323Y-111760
X297498Y-147320
X299085Y-92710
X302260Y-128270
X303847Y-149860
X307023Y-109220
X308610Y-130810
X311785Y-90170
X313373Y-111760
X316548Y-147320
X318135Y-92710
X321310Y-128270
X322898Y-149860
X326073Y-109220
X327660Y-130810
X330835Y-90170
X332422Y-111760
X337185Y-92710
T5
X71438Y-152400
X76200Y-133350
X80962Y-114300
X85725Y-95250
X90488Y-152400
X95250Y-133350
X100012Y-114300
X104775Y-95250
X109538Y-152400
X114300Y-133350
X119063Y-114300
X123825Y-95250
X128588Y-152400
X133350Y-133350
X138112Y-114300
X142875Y-95250
X147638Y-152400
X152400Y-133350
X157163Y-114300
X161925Y-95250
X161925Y-171450
X166688Y-152400
X171450Y-133350
X176213Y-114300
X180975Y-95250
X180975Y-171450
X185737Y-152400
X190500Y-133350
X195263Y-114300
X197612Y-163195
X200025Y-95250
X204788Y-152400
X209550Y-133350
X209550Y-171450
X214313Y-114300
X219075Y-95250
X221488Y-163195
X223838Y-152400
X228600Y-133350
X233363Y-114300
X238125Y-95250
X238125Y-171450
X242888Y-152400
X247650Y-133350
X252413Y-114300
X257175Y-95250
X257175Y-171450
X261938Y-152400
X266700Y-133350
X271463Y-114300
X276225Y-95250
X280988Y-152400
X285750Y-133350
X290513Y-114300
X295275Y-95250
X300037Y-152400
X304800Y-133350
X309563Y-114300
X314325Y-95250
X319088Y-152400
X323850Y-133350
X328613Y-114300
X333375Y-95250
T0
M30
