G04 #@! TF.GenerationSoftware,KiCad,Pcbnew,(6.0.6-0)*
G04 #@! TF.CreationDate,2022-08-15T11:25:08-07:00*
G04 #@! TF.ProjectId,purple-owl,70757270-6c65-42d6-9f77-6c2e6b696361,1.0*
G04 #@! TF.SameCoordinates,Original*
G04 #@! TF.FileFunction,Soldermask,Top*
G04 #@! TF.FilePolarity,Negative*
%FSLAX46Y46*%
G04 Gerber Fmt 4.6, Leading zero omitted, Abs format (unit mm)*
G04 Created by KiCad (PCBNEW (6.0.6-0)) date 2022-08-15 11:25:08*
%MOMM*%
%LPD*%
G01*
G04 APERTURE LIST*
G04 Aperture macros list*
%AMRoundRect*
0 Rectangle with rounded corners*
0 $1 Rounding radius*
0 $2 $3 $4 $5 $6 $7 $8 $9 X,Y pos of 4 corners*
0 Add a 4 corners polygon primitive as box body*
4,1,4,$2,$3,$4,$5,$6,$7,$8,$9,$2,$3,0*
0 Add four circle primitives for the rounded corners*
1,1,$1+$1,$2,$3*
1,1,$1+$1,$4,$5*
1,1,$1+$1,$6,$7*
1,1,$1+$1,$8,$9*
0 Add four rect primitives between the rounded corners*
20,1,$1+$1,$2,$3,$4,$5,0*
20,1,$1+$1,$4,$5,$6,$7,0*
20,1,$1+$1,$6,$7,$8,$9,0*
20,1,$1+$1,$8,$9,$2,$3,0*%
G04 Aperture macros list end*
%ADD10C,1.600000*%
%ADD11RoundRect,0.100000X-0.250000X0.400000X-0.250000X-0.400000X0.250000X-0.400000X0.250000X0.400000X0*%
%ADD12RoundRect,0.100000X-0.200000X0.400000X-0.200000X-0.400000X0.200000X-0.400000X0.200000X0.400000X0*%
%ADD13C,3.248000*%
%ADD14C,1.901800*%
%ADD15C,4.187800*%
%ADD16RoundRect,0.354000X-1.016000X-1.016000X1.016000X-1.016000X1.016000X1.016000X-1.016000X1.016000X0*%
%ADD17RoundRect,0.200000X0.637500X0.100000X-0.637500X0.100000X-0.637500X-0.100000X0.637500X-0.100000X0*%
%ADD18RoundRect,0.100000X-0.750000X-0.500000X0.750000X-0.500000X0.750000X0.500000X-0.750000X0.500000X0*%
%ADD19RoundRect,0.450000X0.400000X-0.350000X0.400000X0.350000X-0.400000X0.350000X-0.400000X-0.350000X0*%
%ADD20RoundRect,0.100000X0.750000X0.500000X-0.750000X0.500000X-0.750000X-0.500000X0.750000X-0.500000X0*%
%ADD21RoundRect,0.100000X0.250000X-0.400000X0.250000X0.400000X-0.250000X0.400000X-0.250000X-0.400000X0*%
%ADD22RoundRect,0.100000X0.200000X-0.400000X0.200000X0.400000X-0.200000X0.400000X-0.200000X-0.400000X0*%
G04 APERTURE END LIST*
D10*
G04 #@! TO.C,U9*
X226695000Y-95210546D03*
X226695000Y-97750546D03*
X226695000Y-100290546D03*
X226695000Y-102830546D03*
X226695000Y-105370546D03*
X211455000Y-105370546D03*
X211455000Y-102830546D03*
X211455000Y-100290546D03*
X211455000Y-97750546D03*
X211455000Y-95210546D03*
X211455000Y-92670546D03*
G04 #@! TD*
D11*
G04 #@! TO.C,RN6*
X237737500Y-123321875D03*
D12*
X236937500Y-123321875D03*
X236137500Y-123321875D03*
D11*
X235337500Y-123321875D03*
X235337500Y-125121875D03*
D12*
X236137500Y-125121875D03*
X236937500Y-125121875D03*
D11*
X237737500Y-125121875D03*
G04 #@! TD*
D13*
G04 #@! TO.C,SW36*
X170497500Y-149860000D03*
D14*
X161607500Y-152400000D03*
D13*
X164147500Y-147320000D03*
D14*
X171767500Y-152400000D03*
D15*
X166687500Y-152400000D03*
D16*
X160591500Y-147320000D03*
X174053500Y-149860000D03*
G04 #@! TD*
D14*
G04 #@! TO.C,SW32*
X190817500Y-152400000D03*
D13*
X189547500Y-149860000D03*
X183197500Y-147320000D03*
D14*
X180657500Y-152400000D03*
D15*
X185737500Y-152400000D03*
D16*
X179641500Y-147320000D03*
X193103500Y-149860000D03*
G04 #@! TD*
D17*
G04 #@! TO.C,U7*
X93350000Y-123433000D03*
X93350000Y-122783000D03*
X93350000Y-122133000D03*
X93350000Y-121483000D03*
X93350000Y-120833000D03*
X93350000Y-120183000D03*
X93350000Y-119533000D03*
X93350000Y-118883000D03*
X87625000Y-118883000D03*
X87625000Y-119533000D03*
X87625000Y-120183000D03*
X87625000Y-120833000D03*
X87625000Y-121483000D03*
X87625000Y-122133000D03*
X87625000Y-122783000D03*
X87625000Y-123433000D03*
G04 #@! TD*
D18*
G04 #@! TO.C,D10*
X139234375Y-140084375D03*
X139234375Y-143284375D03*
X144134375Y-143284375D03*
X144134375Y-140084375D03*
G04 #@! TD*
D19*
G04 #@! TO.C,JP1*
X183197500Y-104775000D03*
X185737500Y-104775000D03*
X188277500Y-104775000D03*
G04 #@! TD*
D17*
G04 #@! TO.C,U4*
X207650000Y-123433000D03*
X207650000Y-122783000D03*
X207650000Y-122133000D03*
X207650000Y-121483000D03*
X207650000Y-120833000D03*
X207650000Y-120183000D03*
X207650000Y-119533000D03*
X207650000Y-118883000D03*
X201925000Y-118883000D03*
X201925000Y-119533000D03*
X201925000Y-120183000D03*
X201925000Y-120833000D03*
X201925000Y-121483000D03*
X201925000Y-122133000D03*
X201925000Y-122783000D03*
X201925000Y-123433000D03*
G04 #@! TD*
G04 #@! TO.C,U5*
X169550000Y-123433000D03*
X169550000Y-122783000D03*
X169550000Y-122133000D03*
X169550000Y-121483000D03*
X169550000Y-120833000D03*
X169550000Y-120183000D03*
X169550000Y-119533000D03*
X169550000Y-118883000D03*
X163825000Y-118883000D03*
X163825000Y-119533000D03*
X163825000Y-120183000D03*
X163825000Y-120833000D03*
X163825000Y-121483000D03*
X163825000Y-122133000D03*
X163825000Y-122783000D03*
X163825000Y-123433000D03*
G04 #@! TD*
D14*
G04 #@! TO.C,SW29*
X205105000Y-95250000D03*
D13*
X197485000Y-90170000D03*
D15*
X200025000Y-95250000D03*
D13*
X203835000Y-92710000D03*
D14*
X194945000Y-95250000D03*
D16*
X193929000Y-90170000D03*
X207391000Y-92710000D03*
G04 #@! TD*
D20*
G04 #@! TO.C,D15*
X173900000Y-103993750D03*
X173900000Y-100793750D03*
X169000000Y-100793750D03*
X169000000Y-103993750D03*
G04 #@! TD*
D14*
G04 #@! TO.C,SW48*
X104457500Y-152400000D03*
D15*
X109537500Y-152400000D03*
D14*
X114617500Y-152400000D03*
D13*
X106997500Y-147320000D03*
X113347500Y-149860000D03*
D16*
X103441500Y-147320000D03*
X116903500Y-149860000D03*
G04 #@! TD*
D13*
G04 #@! TO.C,SW4*
X316547500Y-147320000D03*
D14*
X324167500Y-152400000D03*
D15*
X319087500Y-152400000D03*
D14*
X314007500Y-152400000D03*
D13*
X322897500Y-149860000D03*
D16*
X312991500Y-147320000D03*
X326453500Y-149860000D03*
G04 #@! TD*
D15*
G04 #@! TO.C,SW6*
X309562500Y-114300000D03*
D13*
X307022500Y-109220000D03*
D14*
X314642500Y-114300000D03*
X304482500Y-114300000D03*
D13*
X313372500Y-111760000D03*
D16*
X303466500Y-109220000D03*
X316928500Y-111760000D03*
G04 #@! TD*
D13*
G04 #@! TO.C,SW37*
X159385000Y-90170000D03*
D14*
X156845000Y-95250000D03*
D13*
X165735000Y-92710000D03*
D15*
X161925000Y-95250000D03*
D14*
X167005000Y-95250000D03*
D16*
X155829000Y-90170000D03*
X169291000Y-92710000D03*
G04 #@! TD*
D13*
G04 #@! TO.C,SW45*
X121285000Y-90170000D03*
D14*
X118745000Y-95250000D03*
D15*
X123825000Y-95250000D03*
D14*
X128905000Y-95250000D03*
D13*
X127635000Y-92710000D03*
D16*
X117729000Y-90170000D03*
X131191000Y-92710000D03*
G04 #@! TD*
D21*
G04 #@! TO.C,RN1*
X325063000Y-125233000D03*
D22*
X325863000Y-125233000D03*
X326663000Y-125233000D03*
D21*
X327463000Y-125233000D03*
X327463000Y-123433000D03*
D22*
X326663000Y-123433000D03*
X325863000Y-123433000D03*
D21*
X325063000Y-123433000D03*
G04 #@! TD*
G04 #@! TO.C,RN9*
X172917000Y-125121875D03*
D22*
X173717000Y-125121875D03*
X174517000Y-125121875D03*
D21*
X175317000Y-125121875D03*
X175317000Y-123321875D03*
D22*
X174517000Y-123321875D03*
X173717000Y-123321875D03*
D21*
X172917000Y-123321875D03*
G04 #@! TD*
D17*
G04 #@! TO.C,U1*
X321950000Y-123433000D03*
X321950000Y-122783000D03*
X321950000Y-122133000D03*
X321950000Y-121483000D03*
X321950000Y-120833000D03*
X321950000Y-120183000D03*
X321950000Y-119533000D03*
X321950000Y-118883000D03*
X316225000Y-118883000D03*
X316225000Y-119533000D03*
X316225000Y-120183000D03*
X316225000Y-120833000D03*
X316225000Y-121483000D03*
X316225000Y-122133000D03*
X316225000Y-122783000D03*
X316225000Y-123433000D03*
G04 #@! TD*
D13*
G04 #@! TO.C,SW50*
X97472500Y-109220000D03*
D15*
X100012500Y-114300000D03*
D14*
X94932500Y-114300000D03*
D13*
X103822500Y-111760000D03*
D14*
X105092500Y-114300000D03*
D16*
X93916500Y-109220000D03*
X107378500Y-111760000D03*
G04 #@! TD*
D14*
G04 #@! TO.C,SW30*
X190182500Y-114300000D03*
D13*
X192722500Y-109220000D03*
X199072500Y-111760000D03*
D14*
X200342500Y-114300000D03*
D15*
X195262500Y-114300000D03*
D16*
X189166500Y-109220000D03*
X202628500Y-111760000D03*
G04 #@! TD*
D13*
G04 #@! TO.C,SW9*
X299085000Y-92710000D03*
X292735000Y-90170000D03*
D14*
X290195000Y-95250000D03*
D15*
X295275000Y-95250000D03*
D14*
X300355000Y-95250000D03*
D16*
X289179000Y-90170000D03*
X302641000Y-92710000D03*
G04 #@! TD*
D17*
G04 #@! TO.C,U6*
X131450000Y-123433000D03*
X131450000Y-122783000D03*
X131450000Y-122133000D03*
X131450000Y-121483000D03*
X131450000Y-120833000D03*
X131450000Y-120183000D03*
X131450000Y-119533000D03*
X131450000Y-118883000D03*
X125725000Y-118883000D03*
X125725000Y-119533000D03*
X125725000Y-120183000D03*
X125725000Y-120833000D03*
X125725000Y-121483000D03*
X125725000Y-122133000D03*
X125725000Y-122783000D03*
X125725000Y-123433000D03*
G04 #@! TD*
D11*
G04 #@! TO.C,RN10*
X161537500Y-123321875D03*
D12*
X160737500Y-123321875D03*
X159937500Y-123321875D03*
D11*
X159137500Y-123321875D03*
X159137500Y-125121875D03*
D12*
X159937500Y-125121875D03*
X160737500Y-125121875D03*
D11*
X161537500Y-125121875D03*
G04 #@! TD*
D14*
G04 #@! TO.C,SW61*
X167005000Y-171450000D03*
D15*
X161925000Y-171450000D03*
D13*
X159385000Y-166370000D03*
D14*
X156845000Y-171450000D03*
D13*
X165735000Y-168910000D03*
D16*
X155829000Y-166370000D03*
X169291000Y-168910000D03*
G04 #@! TD*
D21*
G04 #@! TO.C,RN5*
X248736000Y-125106000D03*
D22*
X249536000Y-125106000D03*
X250336000Y-125106000D03*
D21*
X251136000Y-125106000D03*
X251136000Y-123306000D03*
D22*
X250336000Y-123306000D03*
X249536000Y-123306000D03*
D21*
X248736000Y-123306000D03*
G04 #@! TD*
D14*
G04 #@! TO.C,SW52*
X95567500Y-152400000D03*
D13*
X94297500Y-149860000D03*
D15*
X90487500Y-152400000D03*
D13*
X87947500Y-147320000D03*
D14*
X85407500Y-152400000D03*
D16*
X84391500Y-147320000D03*
X97853500Y-149860000D03*
G04 #@! TD*
D13*
G04 #@! TO.C,SW55*
X73660000Y-128270000D03*
D14*
X71120000Y-133350000D03*
D13*
X80010000Y-130810000D03*
D15*
X76200000Y-133350000D03*
D14*
X81280000Y-133350000D03*
D16*
X70104000Y-128270000D03*
X83566000Y-130810000D03*
G04 #@! TD*
D14*
G04 #@! TO.C,SW16*
X256857500Y-152400000D03*
X267017500Y-152400000D03*
D15*
X261937500Y-152400000D03*
D13*
X259397500Y-147320000D03*
X265747500Y-149860000D03*
D16*
X255841500Y-147320000D03*
X269303500Y-149860000D03*
G04 #@! TD*
D15*
G04 #@! TO.C,SW47*
X114300000Y-133350000D03*
D14*
X109220000Y-133350000D03*
D13*
X118110000Y-130810000D03*
D14*
X119380000Y-133350000D03*
D13*
X111760000Y-128270000D03*
D16*
X108204000Y-128270000D03*
X121666000Y-130810000D03*
G04 #@! TD*
D18*
G04 #@! TO.C,D12*
X82084375Y-140084375D03*
X82084375Y-143284375D03*
X86984375Y-143284375D03*
X86984375Y-140084375D03*
G04 #@! TD*
D13*
G04 #@! TO.C,SW56*
X75247500Y-149860000D03*
D15*
X71437500Y-152400000D03*
D13*
X68897500Y-147320000D03*
D14*
X66357500Y-152400000D03*
X76517500Y-152400000D03*
D16*
X65341500Y-147320000D03*
X78803500Y-149860000D03*
G04 #@! TD*
D18*
G04 #@! TO.C,D4*
X311875000Y-140084375D03*
X311875000Y-143284375D03*
X316775000Y-143284375D03*
X316775000Y-140084375D03*
G04 #@! TD*
D15*
G04 #@! TO.C,SW46*
X119062500Y-114300000D03*
D14*
X113982500Y-114300000D03*
X124142500Y-114300000D03*
D13*
X116522500Y-109220000D03*
X122872500Y-111760000D03*
D16*
X112966500Y-109220000D03*
X126428500Y-111760000D03*
G04 #@! TD*
D18*
G04 #@! TO.C,D9*
X164237500Y-157943750D03*
X164237500Y-161143750D03*
X169137500Y-161143750D03*
X169137500Y-157943750D03*
G04 #@! TD*
D14*
G04 #@! TO.C,SW18*
X257492500Y-114300000D03*
D13*
X249872500Y-109220000D03*
D15*
X252412500Y-114300000D03*
D14*
X247332500Y-114300000D03*
D13*
X256222500Y-111760000D03*
D16*
X246316500Y-109220000D03*
X259778500Y-111760000D03*
G04 #@! TD*
D20*
G04 #@! TO.C,D2*
X288200000Y-103993750D03*
X288200000Y-100793750D03*
X283300000Y-100793750D03*
X283300000Y-103993750D03*
G04 #@! TD*
D14*
G04 #@! TO.C,SW3*
X318770000Y-133350000D03*
D13*
X327660000Y-130810000D03*
D14*
X328930000Y-133350000D03*
D13*
X321310000Y-128270000D03*
D15*
X323850000Y-133350000D03*
D16*
X317754000Y-128270000D03*
X331216000Y-130810000D03*
G04 #@! TD*
D20*
G04 #@! TO.C,D3*
X326300000Y-103993750D03*
X326300000Y-100793750D03*
X321400000Y-100793750D03*
X321400000Y-103993750D03*
G04 #@! TD*
D15*
G04 #@! TO.C,SW58*
X238125000Y-171450000D03*
D13*
X241935000Y-168910000D03*
X235585000Y-166370000D03*
D14*
X243205000Y-171450000D03*
X233045000Y-171450000D03*
D16*
X232029000Y-166370000D03*
X245491000Y-168910000D03*
G04 #@! TD*
D14*
G04 #@! TO.C,SW42*
X143192500Y-114300000D03*
D13*
X141922500Y-111760000D03*
D14*
X133032500Y-114300000D03*
D13*
X135572500Y-109220000D03*
D15*
X138112500Y-114300000D03*
D16*
X132016500Y-109220000D03*
X145478500Y-111760000D03*
G04 #@! TD*
D13*
G04 #@! TO.C,SW13*
X280035000Y-92710000D03*
D14*
X271145000Y-95250000D03*
D15*
X276225000Y-95250000D03*
D13*
X273685000Y-90170000D03*
D14*
X281305000Y-95250000D03*
D16*
X270129000Y-90170000D03*
X283591000Y-92710000D03*
G04 #@! TD*
D13*
G04 #@! TO.C,SW59*
X207010000Y-166370000D03*
D15*
X209550000Y-171450000D03*
X221488000Y-163195000D03*
D14*
X214630000Y-171450000D03*
X204470000Y-171450000D03*
D13*
X213360000Y-168910000D03*
X197612000Y-178435000D03*
X221488000Y-178435000D03*
D15*
X197612000Y-163195000D03*
D16*
X203454000Y-166370000D03*
X216916000Y-168910000D03*
G04 #@! TD*
D14*
G04 #@! TO.C,SW24*
X228917500Y-152400000D03*
X218757500Y-152400000D03*
D13*
X227647500Y-149860000D03*
D15*
X223837500Y-152400000D03*
D13*
X221297500Y-147320000D03*
D16*
X217741500Y-147320000D03*
X231203500Y-149860000D03*
G04 #@! TD*
D14*
G04 #@! TO.C,SW21*
X233045000Y-95250000D03*
D13*
X241935000Y-92710000D03*
X235585000Y-90170000D03*
D14*
X243205000Y-95250000D03*
D15*
X238125000Y-95250000D03*
D16*
X232029000Y-90170000D03*
X245491000Y-92710000D03*
G04 #@! TD*
D14*
G04 #@! TO.C,SW38*
X152082500Y-114300000D03*
D15*
X157162500Y-114300000D03*
D13*
X160972500Y-111760000D03*
X154622500Y-109220000D03*
D14*
X162242500Y-114300000D03*
D16*
X151066500Y-109220000D03*
X164528500Y-111760000D03*
G04 #@! TD*
D14*
G04 #@! TO.C,SW8*
X294957500Y-152400000D03*
D13*
X303847500Y-149860000D03*
X297497500Y-147320000D03*
D15*
X300037500Y-152400000D03*
D14*
X305117500Y-152400000D03*
D16*
X293941500Y-147320000D03*
X307403500Y-149860000D03*
G04 #@! TD*
D11*
G04 #@! TO.C,RN12*
X123437500Y-123321875D03*
D12*
X122637500Y-123321875D03*
X121837500Y-123321875D03*
D11*
X121037500Y-123321875D03*
X121037500Y-125121875D03*
D12*
X121837500Y-125121875D03*
X122637500Y-125121875D03*
D11*
X123437500Y-125121875D03*
G04 #@! TD*
D15*
G04 #@! TO.C,SW33*
X180975000Y-95250000D03*
D14*
X175895000Y-95250000D03*
D13*
X184785000Y-92710000D03*
X178435000Y-90170000D03*
D14*
X186055000Y-95250000D03*
D16*
X174879000Y-90170000D03*
X188341000Y-92710000D03*
G04 #@! TD*
D15*
G04 #@! TO.C,SW1*
X333375000Y-95250000D03*
D13*
X337185000Y-92710000D03*
D14*
X328295000Y-95250000D03*
D13*
X330835000Y-90170000D03*
D14*
X338455000Y-95250000D03*
D16*
X327279000Y-90170000D03*
X340741000Y-92710000D03*
G04 #@! TD*
D14*
G04 #@! TO.C,SW57*
X252095000Y-171450000D03*
D13*
X260985000Y-168910000D03*
X254635000Y-166370000D03*
D15*
X257175000Y-171450000D03*
D14*
X262255000Y-171450000D03*
D16*
X251079000Y-166370000D03*
X264541000Y-168910000D03*
G04 #@! TD*
D18*
G04 #@! TO.C,D11*
X110659375Y-140084375D03*
X110659375Y-143284375D03*
X115559375Y-143284375D03*
X115559375Y-140084375D03*
G04 #@! TD*
D15*
G04 #@! TO.C,SW40*
X147637500Y-152400000D03*
D14*
X142557500Y-152400000D03*
D13*
X151447500Y-149860000D03*
X145097500Y-147320000D03*
D14*
X152717500Y-152400000D03*
D16*
X141541500Y-147320000D03*
X155003500Y-149860000D03*
G04 #@! TD*
D14*
G04 #@! TO.C,SW28*
X209867500Y-152400000D03*
X199707500Y-152400000D03*
D13*
X202247500Y-147320000D03*
D15*
X204787500Y-152400000D03*
D13*
X208597500Y-149860000D03*
D16*
X198691500Y-147320000D03*
X212153500Y-149860000D03*
G04 #@! TD*
D18*
G04 #@! TO.C,D7*
X222578125Y-167468750D03*
X222578125Y-170668750D03*
X227478125Y-170668750D03*
X227478125Y-167468750D03*
G04 #@! TD*
D21*
G04 #@! TO.C,RN11*
X134563000Y-125121875D03*
D22*
X135363000Y-125121875D03*
X136163000Y-125121875D03*
D21*
X136963000Y-125121875D03*
X136963000Y-123321875D03*
D22*
X136163000Y-123321875D03*
X135363000Y-123321875D03*
D21*
X134563000Y-123321875D03*
G04 #@! TD*
D14*
G04 #@! TO.C,SW54*
X75882500Y-114300000D03*
X86042500Y-114300000D03*
D13*
X78422500Y-109220000D03*
X84772500Y-111760000D03*
D15*
X80962500Y-114300000D03*
D16*
X74866500Y-109220000D03*
X88328500Y-111760000D03*
G04 #@! TD*
D13*
G04 #@! TO.C,SW12*
X284797500Y-149860000D03*
D14*
X275907500Y-152400000D03*
D13*
X278447500Y-147320000D03*
D15*
X280987500Y-152400000D03*
D14*
X286067500Y-152400000D03*
D16*
X274891500Y-147320000D03*
X288353500Y-149860000D03*
G04 #@! TD*
D14*
G04 #@! TO.C,SW7*
X309880000Y-133350000D03*
X299720000Y-133350000D03*
D13*
X308610000Y-130810000D03*
D15*
X304800000Y-133350000D03*
D13*
X302260000Y-128270000D03*
D16*
X298704000Y-128270000D03*
X312166000Y-130810000D03*
G04 #@! TD*
D19*
G04 #@! TO.C,JP2*
X194310000Y-104775000D03*
X196850000Y-104775000D03*
X199390000Y-104775000D03*
G04 #@! TD*
D15*
G04 #@! TO.C,SW10*
X290512500Y-114300000D03*
D14*
X285432500Y-114300000D03*
D13*
X287972500Y-109220000D03*
X294322500Y-111760000D03*
D14*
X295592500Y-114300000D03*
D16*
X284416500Y-109220000D03*
X297878500Y-111760000D03*
G04 #@! TD*
D14*
G04 #@! TO.C,SW49*
X109855000Y-95250000D03*
D13*
X102235000Y-90170000D03*
D14*
X99695000Y-95250000D03*
D13*
X108585000Y-92710000D03*
D15*
X104775000Y-95250000D03*
D16*
X98679000Y-90170000D03*
X112141000Y-92710000D03*
G04 #@! TD*
D13*
G04 #@! TO.C,SW39*
X156210000Y-130810000D03*
X149860000Y-128270000D03*
D15*
X152400000Y-133350000D03*
D14*
X147320000Y-133350000D03*
X157480000Y-133350000D03*
D16*
X146304000Y-128270000D03*
X159766000Y-130810000D03*
G04 #@! TD*
D21*
G04 #@! TO.C,RN7*
X210636000Y-125121875D03*
D22*
X211436000Y-125121875D03*
X212236000Y-125121875D03*
D21*
X213036000Y-125121875D03*
X213036000Y-123321875D03*
D22*
X212236000Y-123321875D03*
X211436000Y-123321875D03*
D21*
X210636000Y-123321875D03*
G04 #@! TD*
D13*
G04 #@! TO.C,SW51*
X92710000Y-128270000D03*
D14*
X90170000Y-133350000D03*
D13*
X99060000Y-130810000D03*
D14*
X100330000Y-133350000D03*
D15*
X95250000Y-133350000D03*
D16*
X89154000Y-128270000D03*
X102616000Y-130810000D03*
G04 #@! TD*
D17*
G04 #@! TO.C,U8*
X212412500Y-160231250D03*
X212412500Y-159581250D03*
X212412500Y-158931250D03*
X212412500Y-158281250D03*
X212412500Y-157631250D03*
X212412500Y-156981250D03*
X212412500Y-156331250D03*
X212412500Y-155681250D03*
X206687500Y-155681250D03*
X206687500Y-156331250D03*
X206687500Y-156981250D03*
X206687500Y-157631250D03*
X206687500Y-158281250D03*
X206687500Y-158931250D03*
X206687500Y-159581250D03*
X206687500Y-160231250D03*
G04 #@! TD*
D20*
G04 #@! TO.C,D13*
X97700000Y-103993750D03*
X97700000Y-100793750D03*
X92800000Y-100793750D03*
X92800000Y-103993750D03*
G04 #@! TD*
D14*
G04 #@! TO.C,SW15*
X271780000Y-133350000D03*
D13*
X270510000Y-130810000D03*
D15*
X266700000Y-133350000D03*
D14*
X261620000Y-133350000D03*
D13*
X264160000Y-128270000D03*
D16*
X260604000Y-128270000D03*
X274066000Y-130810000D03*
G04 #@! TD*
D13*
G04 #@! TO.C,SW34*
X180022500Y-111760000D03*
D14*
X181292500Y-114300000D03*
D15*
X176212500Y-114300000D03*
D13*
X173672500Y-109220000D03*
D14*
X171132500Y-114300000D03*
D16*
X170116500Y-109220000D03*
X183578500Y-111760000D03*
G04 #@! TD*
D11*
G04 #@! TO.C,RN14*
X85337500Y-123321875D03*
D12*
X84537500Y-123321875D03*
X83737500Y-123321875D03*
D11*
X82937500Y-123321875D03*
X82937500Y-125121875D03*
D12*
X83737500Y-125121875D03*
X84537500Y-125121875D03*
D11*
X85337500Y-125121875D03*
G04 #@! TD*
D20*
G04 #@! TO.C,D16*
X208031250Y-103993750D03*
X208031250Y-100793750D03*
X203131250Y-100793750D03*
X203131250Y-103993750D03*
G04 #@! TD*
D18*
G04 #@! TO.C,D5*
X273775000Y-140084375D03*
X273775000Y-143284375D03*
X278675000Y-143284375D03*
X278675000Y-140084375D03*
G04 #@! TD*
D11*
G04 #@! TO.C,RN8*
X199637500Y-123321875D03*
D12*
X198837500Y-123321875D03*
X198037500Y-123321875D03*
D11*
X197237500Y-123321875D03*
X197237500Y-125121875D03*
D12*
X198037500Y-125121875D03*
X198837500Y-125121875D03*
D11*
X199637500Y-125121875D03*
G04 #@! TD*
D17*
G04 #@! TO.C,U3*
X245750000Y-123433000D03*
X245750000Y-122783000D03*
X245750000Y-122133000D03*
X245750000Y-121483000D03*
X245750000Y-120833000D03*
X245750000Y-120183000D03*
X245750000Y-119533000D03*
X245750000Y-118883000D03*
X240025000Y-118883000D03*
X240025000Y-119533000D03*
X240025000Y-120183000D03*
X240025000Y-120833000D03*
X240025000Y-121483000D03*
X240025000Y-122133000D03*
X240025000Y-122783000D03*
X240025000Y-123433000D03*
G04 #@! TD*
D11*
G04 #@! TO.C,RN4*
X275837500Y-123321875D03*
D12*
X275037500Y-123321875D03*
X274237500Y-123321875D03*
D11*
X273437500Y-123321875D03*
X273437500Y-125121875D03*
D12*
X274237500Y-125121875D03*
X275037500Y-125121875D03*
D11*
X275837500Y-125121875D03*
G04 #@! TD*
D13*
G04 #@! TO.C,SW22*
X230822500Y-109220000D03*
D15*
X233362500Y-114300000D03*
D14*
X238442500Y-114300000D03*
X228282500Y-114300000D03*
D13*
X237172500Y-111760000D03*
D16*
X227266500Y-109220000D03*
X240728500Y-111760000D03*
G04 #@! TD*
D13*
G04 #@! TO.C,SW20*
X240347500Y-147320000D03*
X246697500Y-149860000D03*
D14*
X237807500Y-152400000D03*
D15*
X242887500Y-152400000D03*
D14*
X247967500Y-152400000D03*
D16*
X236791500Y-147320000D03*
X250253500Y-149860000D03*
G04 #@! TD*
D14*
G04 #@! TO.C,SW17*
X252095000Y-95250000D03*
D13*
X254635000Y-90170000D03*
D14*
X262255000Y-95250000D03*
D13*
X260985000Y-92710000D03*
D15*
X257175000Y-95250000D03*
D16*
X251079000Y-90170000D03*
X264541000Y-92710000D03*
G04 #@! TD*
D14*
G04 #@! TO.C,SW5*
X309245000Y-95250000D03*
D13*
X318135000Y-92710000D03*
D14*
X319405000Y-95250000D03*
D13*
X311785000Y-90170000D03*
D15*
X314325000Y-95250000D03*
D16*
X308229000Y-90170000D03*
X321691000Y-92710000D03*
G04 #@! TD*
D21*
G04 #@! TO.C,RN15*
X215716000Y-162031250D03*
D22*
X216516000Y-162031250D03*
X217316000Y-162031250D03*
D21*
X218116000Y-162031250D03*
X218116000Y-160231250D03*
D22*
X217316000Y-160231250D03*
X216516000Y-160231250D03*
D21*
X215716000Y-160231250D03*
G04 #@! TD*
G04 #@! TO.C,RN3*
X286963000Y-125121875D03*
D22*
X287763000Y-125121875D03*
X288563000Y-125121875D03*
D21*
X289363000Y-125121875D03*
X289363000Y-123321875D03*
D22*
X288563000Y-123321875D03*
X287763000Y-123321875D03*
D21*
X286963000Y-123321875D03*
G04 #@! TD*
D14*
G04 #@! TO.C,SW11*
X280670000Y-133350000D03*
X290830000Y-133350000D03*
D13*
X289560000Y-130810000D03*
X283210000Y-128270000D03*
D15*
X285750000Y-133350000D03*
D16*
X279654000Y-128270000D03*
X293116000Y-130810000D03*
G04 #@! TD*
D14*
G04 #@! TO.C,SW23*
X233680000Y-133350000D03*
D15*
X228600000Y-133350000D03*
D13*
X232410000Y-130810000D03*
X226060000Y-128270000D03*
D14*
X223520000Y-133350000D03*
D16*
X222504000Y-128270000D03*
X235966000Y-130810000D03*
G04 #@! TD*
D11*
G04 #@! TO.C,RN2*
X313874000Y-123433000D03*
D12*
X313074000Y-123433000D03*
X312274000Y-123433000D03*
D11*
X311474000Y-123433000D03*
X311474000Y-125233000D03*
D12*
X312274000Y-125233000D03*
X313074000Y-125233000D03*
D11*
X313874000Y-125233000D03*
G04 #@! TD*
D14*
G04 #@! TO.C,SW41*
X147955000Y-95250000D03*
D13*
X140335000Y-90170000D03*
D14*
X137795000Y-95250000D03*
D13*
X146685000Y-92710000D03*
D15*
X142875000Y-95250000D03*
D16*
X136779000Y-90170000D03*
X150241000Y-92710000D03*
G04 #@! TD*
D14*
G04 #@! TO.C,SW35*
X166370000Y-133350000D03*
X176530000Y-133350000D03*
D13*
X175260000Y-130810000D03*
X168910000Y-128270000D03*
D15*
X171450000Y-133350000D03*
D16*
X165354000Y-128270000D03*
X178816000Y-130810000D03*
G04 #@! TD*
D13*
G04 #@! TO.C,SW43*
X137160000Y-130810000D03*
X130810000Y-128270000D03*
D15*
X133350000Y-133350000D03*
D14*
X128270000Y-133350000D03*
X138430000Y-133350000D03*
D16*
X127254000Y-128270000D03*
X140716000Y-130810000D03*
G04 #@! TD*
D15*
G04 #@! TO.C,SW60*
X180975000Y-171450000D03*
D14*
X186055000Y-171450000D03*
D13*
X178435000Y-166370000D03*
D14*
X175895000Y-171450000D03*
D13*
X184785000Y-168910000D03*
D16*
X174879000Y-166370000D03*
X188341000Y-168910000D03*
G04 #@! TD*
D20*
G04 #@! TO.C,D1*
X250100000Y-103993750D03*
X250100000Y-100793750D03*
X245200000Y-100793750D03*
X245200000Y-103993750D03*
G04 #@! TD*
D13*
G04 #@! TO.C,SW2*
X326072500Y-109220000D03*
X332422500Y-111760000D03*
D15*
X328612500Y-114300000D03*
D14*
X333692500Y-114300000D03*
X323532500Y-114300000D03*
D16*
X322516500Y-109220000D03*
X335978500Y-111760000D03*
G04 #@! TD*
D13*
G04 #@! TO.C,SW26*
X218122500Y-111760000D03*
X211772500Y-109220000D03*
D14*
X209232500Y-114300000D03*
D15*
X214312500Y-114300000D03*
D14*
X219392500Y-114300000D03*
D16*
X208216500Y-109220000D03*
X221678500Y-111760000D03*
G04 #@! TD*
D13*
G04 #@! TO.C,SW14*
X268922500Y-109220000D03*
D14*
X276542500Y-114300000D03*
X266382500Y-114300000D03*
D13*
X275272500Y-111760000D03*
D15*
X271462500Y-114300000D03*
D16*
X265366500Y-109220000D03*
X278828500Y-111760000D03*
G04 #@! TD*
D21*
G04 #@! TO.C,RN13*
X96463000Y-125121875D03*
D22*
X97263000Y-125121875D03*
X98063000Y-125121875D03*
D21*
X98863000Y-125121875D03*
X98863000Y-123321875D03*
D22*
X98063000Y-123321875D03*
X97263000Y-123321875D03*
D21*
X96463000Y-123321875D03*
G04 #@! TD*
D11*
G04 #@! TO.C,RN16*
X204003125Y-160231250D03*
D12*
X203203125Y-160231250D03*
X202403125Y-160231250D03*
D11*
X201603125Y-160231250D03*
X201603125Y-162031250D03*
D12*
X202403125Y-162031250D03*
X203203125Y-162031250D03*
D11*
X204003125Y-162031250D03*
G04 #@! TD*
D15*
G04 #@! TO.C,SW44*
X128587500Y-152400000D03*
D13*
X132397500Y-149860000D03*
X126047500Y-147320000D03*
D14*
X123507500Y-152400000D03*
X133667500Y-152400000D03*
D16*
X122491500Y-147320000D03*
X135953500Y-149860000D03*
G04 #@! TD*
D14*
G04 #@! TO.C,SW27*
X214630000Y-133350000D03*
X204470000Y-133350000D03*
D13*
X213360000Y-130810000D03*
D15*
X209550000Y-133350000D03*
D13*
X207010000Y-128270000D03*
D16*
X203454000Y-128270000D03*
X216916000Y-130810000D03*
G04 #@! TD*
D17*
G04 #@! TO.C,U2*
X283850000Y-123433000D03*
X283850000Y-122783000D03*
X283850000Y-122133000D03*
X283850000Y-121483000D03*
X283850000Y-120833000D03*
X283850000Y-120183000D03*
X283850000Y-119533000D03*
X283850000Y-118883000D03*
X278125000Y-118883000D03*
X278125000Y-119533000D03*
X278125000Y-120183000D03*
X278125000Y-120833000D03*
X278125000Y-121483000D03*
X278125000Y-122133000D03*
X278125000Y-122783000D03*
X278125000Y-123433000D03*
G04 #@! TD*
D13*
G04 #@! TO.C,SW31*
X187960000Y-128270000D03*
D14*
X195580000Y-133350000D03*
D15*
X190500000Y-133350000D03*
D14*
X185420000Y-133350000D03*
D13*
X194310000Y-130810000D03*
D16*
X184404000Y-128270000D03*
X197866000Y-130810000D03*
G04 #@! TD*
D13*
G04 #@! TO.C,SW19*
X245110000Y-128270000D03*
D14*
X252730000Y-133350000D03*
X242570000Y-133350000D03*
D15*
X247650000Y-133350000D03*
D13*
X251460000Y-130810000D03*
D16*
X241554000Y-128270000D03*
X255016000Y-130810000D03*
G04 #@! TD*
D18*
G04 #@! TO.C,D6*
X249962500Y-157943750D03*
X249962500Y-161143750D03*
X254862500Y-161143750D03*
X254862500Y-157943750D03*
G04 #@! TD*
G04 #@! TO.C,D8*
X191621875Y-167468750D03*
X191621875Y-170668750D03*
X196521875Y-170668750D03*
X196521875Y-167468750D03*
G04 #@! TD*
D14*
G04 #@! TO.C,SW25*
X213995000Y-95250000D03*
D13*
X222885000Y-92710000D03*
X216535000Y-90170000D03*
D14*
X224155000Y-95250000D03*
D15*
X219075000Y-95250000D03*
D16*
X212979000Y-90170000D03*
X226441000Y-92710000D03*
G04 #@! TD*
D13*
G04 #@! TO.C,SW53*
X89535000Y-92710000D03*
X83185000Y-90170000D03*
D15*
X85725000Y-95250000D03*
D14*
X80645000Y-95250000D03*
X90805000Y-95250000D03*
D16*
X79629000Y-90170000D03*
X93091000Y-92710000D03*
G04 #@! TD*
D20*
G04 #@! TO.C,D14*
X135800000Y-103993750D03*
X135800000Y-100793750D03*
X130900000Y-100793750D03*
X130900000Y-103993750D03*
G04 #@! TD*
M02*
