G04 #@! TF.GenerationSoftware,KiCad,Pcbnew,(6.0.6-0)*
G04 #@! TF.CreationDate,2022-08-15T11:25:08-07:00*
G04 #@! TF.ProjectId,purple-owl,70757270-6c65-42d6-9f77-6c2e6b696361,1.0*
G04 #@! TF.SameCoordinates,Original*
G04 #@! TF.FileFunction,Legend,Top*
G04 #@! TF.FilePolarity,Positive*
%FSLAX46Y46*%
G04 Gerber Fmt 4.6, Leading zero omitted, Abs format (unit mm)*
G04 Created by KiCad (PCBNEW (6.0.6-0)) date 2022-08-15 11:25:08*
%MOMM*%
%LPD*%
G01*
G04 APERTURE LIST*
%ADD10C,0.228600*%
%ADD11C,0.152400*%
%ADD12C,0.150000*%
%ADD13C,0.120000*%
G04 APERTURE END LIST*
D10*
X203520523Y-179021619D02*
X203520523Y-178005619D01*
X203907571Y-178005619D01*
X204004333Y-178054000D01*
X204052714Y-178102380D01*
X204101095Y-178199142D01*
X204101095Y-178344285D01*
X204052714Y-178441047D01*
X204004333Y-178489428D01*
X203907571Y-178537809D01*
X203520523Y-178537809D01*
X204971952Y-178344285D02*
X204971952Y-179021619D01*
X204536523Y-178344285D02*
X204536523Y-178876476D01*
X204584904Y-178973238D01*
X204681666Y-179021619D01*
X204826809Y-179021619D01*
X204923571Y-178973238D01*
X204971952Y-178924857D01*
X205455761Y-179021619D02*
X205455761Y-178344285D01*
X205455761Y-178537809D02*
X205504142Y-178441047D01*
X205552523Y-178392666D01*
X205649285Y-178344285D01*
X205746047Y-178344285D01*
X206084714Y-178344285D02*
X206084714Y-179360285D01*
X206084714Y-178392666D02*
X206181476Y-178344285D01*
X206375000Y-178344285D01*
X206471761Y-178392666D01*
X206520142Y-178441047D01*
X206568523Y-178537809D01*
X206568523Y-178828095D01*
X206520142Y-178924857D01*
X206471761Y-178973238D01*
X206375000Y-179021619D01*
X206181476Y-179021619D01*
X206084714Y-178973238D01*
X207149095Y-179021619D02*
X207052333Y-178973238D01*
X207003952Y-178876476D01*
X207003952Y-178005619D01*
X207923190Y-178973238D02*
X207826428Y-179021619D01*
X207632904Y-179021619D01*
X207536142Y-178973238D01*
X207487761Y-178876476D01*
X207487761Y-178489428D01*
X207536142Y-178392666D01*
X207632904Y-178344285D01*
X207826428Y-178344285D01*
X207923190Y-178392666D01*
X207971571Y-178489428D01*
X207971571Y-178586190D01*
X207487761Y-178682952D01*
X209374619Y-178005619D02*
X209568142Y-178005619D01*
X209664904Y-178054000D01*
X209761666Y-178150761D01*
X209810047Y-178344285D01*
X209810047Y-178682952D01*
X209761666Y-178876476D01*
X209664904Y-178973238D01*
X209568142Y-179021619D01*
X209374619Y-179021619D01*
X209277857Y-178973238D01*
X209181095Y-178876476D01*
X209132714Y-178682952D01*
X209132714Y-178344285D01*
X209181095Y-178150761D01*
X209277857Y-178054000D01*
X209374619Y-178005619D01*
X210148714Y-178344285D02*
X210342238Y-179021619D01*
X210535761Y-178537809D01*
X210729285Y-179021619D01*
X210922809Y-178344285D01*
X211455000Y-179021619D02*
X211358238Y-178973238D01*
X211309857Y-178876476D01*
X211309857Y-178005619D01*
X212519380Y-178344285D02*
X212761285Y-179021619D01*
X213003190Y-178344285D01*
X213922428Y-179021619D02*
X213341857Y-179021619D01*
X213632142Y-179021619D02*
X213632142Y-178005619D01*
X213535380Y-178150761D01*
X213438619Y-178247523D01*
X213341857Y-178295904D01*
X214357857Y-178924857D02*
X214406238Y-178973238D01*
X214357857Y-179021619D01*
X214309476Y-178973238D01*
X214357857Y-178924857D01*
X214357857Y-179021619D01*
X215035190Y-178005619D02*
X215131952Y-178005619D01*
X215228714Y-178054000D01*
X215277095Y-178102380D01*
X215325476Y-178199142D01*
X215373857Y-178392666D01*
X215373857Y-178634571D01*
X215325476Y-178828095D01*
X215277095Y-178924857D01*
X215228714Y-178973238D01*
X215131952Y-179021619D01*
X215035190Y-179021619D01*
X214938428Y-178973238D01*
X214890047Y-178924857D01*
X214841666Y-178828095D01*
X214793285Y-178634571D01*
X214793285Y-178392666D01*
X214841666Y-178199142D01*
X214890047Y-178102380D01*
X214938428Y-178054000D01*
X215035190Y-178005619D01*
D11*
X223974780Y-105650695D02*
X223703847Y-105263647D01*
X223510323Y-105650695D02*
X223510323Y-104837895D01*
X223819961Y-104837895D01*
X223897371Y-104876600D01*
X223936076Y-104915304D01*
X223974780Y-104992714D01*
X223974780Y-105108828D01*
X223936076Y-105186238D01*
X223897371Y-105224942D01*
X223819961Y-105263647D01*
X223510323Y-105263647D01*
X224748876Y-104876600D02*
X224671466Y-104837895D01*
X224555352Y-104837895D01*
X224439238Y-104876600D01*
X224361828Y-104954009D01*
X224323123Y-105031419D01*
X224284419Y-105186238D01*
X224284419Y-105302352D01*
X224323123Y-105457171D01*
X224361828Y-105534580D01*
X224439238Y-105611990D01*
X224555352Y-105650695D01*
X224632761Y-105650695D01*
X224748876Y-105611990D01*
X224787580Y-105573285D01*
X224787580Y-105302352D01*
X224632761Y-105302352D01*
X225406857Y-105224942D02*
X225522971Y-105263647D01*
X225561676Y-105302352D01*
X225600380Y-105379761D01*
X225600380Y-105495876D01*
X225561676Y-105573285D01*
X225522971Y-105611990D01*
X225445561Y-105650695D01*
X225135923Y-105650695D01*
X225135923Y-104837895D01*
X225406857Y-104837895D01*
X225484266Y-104876600D01*
X225522971Y-104915304D01*
X225561676Y-104992714D01*
X225561676Y-105070123D01*
X225522971Y-105147533D01*
X225484266Y-105186238D01*
X225406857Y-105224942D01*
X225135923Y-105224942D01*
X212951180Y-105777695D02*
X212564133Y-105777695D01*
X212564133Y-104964895D01*
X213222114Y-105777695D02*
X213222114Y-104964895D01*
X213415638Y-104964895D01*
X213531752Y-105003600D01*
X213609161Y-105081009D01*
X213647866Y-105158419D01*
X213686571Y-105313238D01*
X213686571Y-105429352D01*
X213647866Y-105584171D01*
X213609161Y-105661580D01*
X213531752Y-105738990D01*
X213415638Y-105777695D01*
X213222114Y-105777695D01*
X213003190Y-103160285D02*
X212964485Y-103198990D01*
X212848371Y-103237695D01*
X212770961Y-103237695D01*
X212654847Y-103198990D01*
X212577438Y-103121580D01*
X212538733Y-103044171D01*
X212500028Y-102889352D01*
X212500028Y-102773238D01*
X212538733Y-102618419D01*
X212577438Y-102541009D01*
X212654847Y-102463600D01*
X212770961Y-102424895D01*
X212848371Y-102424895D01*
X212964485Y-102463600D01*
X213003190Y-102502304D01*
X213738580Y-103237695D02*
X213351533Y-103237695D01*
X213351533Y-102424895D01*
X214009514Y-103237695D02*
X214009514Y-102424895D01*
X214473971Y-103237695D02*
X214125628Y-102773238D01*
X214473971Y-102424895D02*
X214009514Y-102889352D01*
X212489142Y-100697695D02*
X212489142Y-99884895D01*
X212682666Y-99884895D01*
X212798780Y-99923600D01*
X212876190Y-100001009D01*
X212914895Y-100078419D01*
X212953600Y-100233238D01*
X212953600Y-100349352D01*
X212914895Y-100504171D01*
X212876190Y-100581580D01*
X212798780Y-100658990D01*
X212682666Y-100697695D01*
X212489142Y-100697695D01*
X213263238Y-100465466D02*
X213650285Y-100465466D01*
X213185828Y-100697695D02*
X213456761Y-99884895D01*
X213727695Y-100697695D01*
X213882514Y-99884895D02*
X214346971Y-99884895D01*
X214114742Y-100697695D02*
X214114742Y-99884895D01*
X209263798Y-97255798D02*
G75*
G03*
X210618874Y-98543061I2117073J871738D01*
G01*
X210583264Y-94402926D02*
G75*
G03*
X209296000Y-95758000I871736J-2117074D01*
G01*
X208543676Y-96074895D02*
X209046838Y-96074895D01*
X208775904Y-96384533D01*
X208892019Y-96384533D01*
X208969428Y-96423238D01*
X209008133Y-96461942D01*
X209046838Y-96539352D01*
X209046838Y-96732876D01*
X209008133Y-96810285D01*
X208969428Y-96848990D01*
X208892019Y-96887695D01*
X208659790Y-96887695D01*
X208582380Y-96848990D01*
X208543676Y-96810285D01*
X209279066Y-96074895D02*
X209550000Y-96887695D01*
X209820933Y-96074895D01*
X210014457Y-96074895D02*
X210517619Y-96074895D01*
X210246685Y-96384533D01*
X210362800Y-96384533D01*
X210440209Y-96423238D01*
X210478914Y-96461942D01*
X210517619Y-96539352D01*
X210517619Y-96732876D01*
X210478914Y-96810285D01*
X210440209Y-96848990D01*
X210362800Y-96887695D01*
X210130571Y-96887695D01*
X210053161Y-96848990D01*
X210014457Y-96810285D01*
X212994723Y-92938600D02*
X212917314Y-92899895D01*
X212801200Y-92899895D01*
X212685085Y-92938600D01*
X212607676Y-93016009D01*
X212568971Y-93093419D01*
X212530266Y-93248238D01*
X212530266Y-93364352D01*
X212568971Y-93519171D01*
X212607676Y-93596580D01*
X212685085Y-93673990D01*
X212801200Y-93712695D01*
X212878609Y-93712695D01*
X212994723Y-93673990D01*
X213033428Y-93635285D01*
X213033428Y-93364352D01*
X212878609Y-93364352D01*
X213381771Y-93712695D02*
X213381771Y-92899895D01*
X213846228Y-93712695D01*
X213846228Y-92899895D01*
X214233276Y-93712695D02*
X214233276Y-92899895D01*
X214426800Y-92899895D01*
X214542914Y-92938600D01*
X214620323Y-93016009D01*
X214659028Y-93093419D01*
X214697733Y-93248238D01*
X214697733Y-93364352D01*
X214659028Y-93519171D01*
X214620323Y-93596580D01*
X214542914Y-93673990D01*
X214426800Y-93712695D01*
X214233276Y-93712695D01*
D12*
G04 #@! TO.C,U7*
X89725595Y-124060380D02*
X89725595Y-124869904D01*
X89773214Y-124965142D01*
X89820833Y-125012761D01*
X89916071Y-125060380D01*
X90106547Y-125060380D01*
X90201785Y-125012761D01*
X90249404Y-124965142D01*
X90297023Y-124869904D01*
X90297023Y-124060380D01*
X90677976Y-124060380D02*
X91344642Y-124060380D01*
X90916071Y-125060380D01*
G04 #@! TO.C,D10*
X140470089Y-138636755D02*
X140470089Y-137636755D01*
X140708184Y-137636755D01*
X140851041Y-137684375D01*
X140946279Y-137779613D01*
X140993898Y-137874851D01*
X141041517Y-138065327D01*
X141041517Y-138208184D01*
X140993898Y-138398660D01*
X140946279Y-138493898D01*
X140851041Y-138589136D01*
X140708184Y-138636755D01*
X140470089Y-138636755D01*
X141993898Y-138636755D02*
X141422470Y-138636755D01*
X141708184Y-138636755D02*
X141708184Y-137636755D01*
X141612946Y-137779613D01*
X141517708Y-137874851D01*
X141422470Y-137922470D01*
X142612946Y-137636755D02*
X142708184Y-137636755D01*
X142803422Y-137684375D01*
X142851041Y-137731994D01*
X142898660Y-137827232D01*
X142946279Y-138017708D01*
X142946279Y-138255803D01*
X142898660Y-138446279D01*
X142851041Y-138541517D01*
X142803422Y-138589136D01*
X142708184Y-138636755D01*
X142612946Y-138636755D01*
X142517708Y-138589136D01*
X142470089Y-138541517D01*
X142422470Y-138446279D01*
X142374851Y-138255803D01*
X142374851Y-138017708D01*
X142422470Y-137827232D01*
X142470089Y-137731994D01*
X142517708Y-137684375D01*
X142612946Y-137636755D01*
G04 #@! TO.C,JP1*
X184904166Y-102830380D02*
X184904166Y-103544666D01*
X184856547Y-103687523D01*
X184761309Y-103782761D01*
X184618452Y-103830380D01*
X184523214Y-103830380D01*
X185380357Y-103830380D02*
X185380357Y-102830380D01*
X185761309Y-102830380D01*
X185856547Y-102878000D01*
X185904166Y-102925619D01*
X185951785Y-103020857D01*
X185951785Y-103163714D01*
X185904166Y-103258952D01*
X185856547Y-103306571D01*
X185761309Y-103354190D01*
X185380357Y-103354190D01*
X186904166Y-103830380D02*
X186332738Y-103830380D01*
X186618452Y-103830380D02*
X186618452Y-102830380D01*
X186523214Y-102973238D01*
X186427976Y-103068476D01*
X186332738Y-103116095D01*
X182213214Y-105227380D02*
X181641785Y-105227380D01*
X181927500Y-105227380D02*
X181927500Y-104227380D01*
X181832261Y-104370238D01*
X181737023Y-104465476D01*
X181641785Y-104513095D01*
X189341166Y-104227380D02*
X189960214Y-104227380D01*
X189626880Y-104608333D01*
X189769738Y-104608333D01*
X189864976Y-104655952D01*
X189912595Y-104703571D01*
X189960214Y-104798809D01*
X189960214Y-105036904D01*
X189912595Y-105132142D01*
X189864976Y-105179761D01*
X189769738Y-105227380D01*
X189484023Y-105227380D01*
X189388785Y-105179761D01*
X189341166Y-105132142D01*
G04 #@! TO.C,U4*
X204343095Y-124166380D02*
X204343095Y-124975904D01*
X204390714Y-125071142D01*
X204438333Y-125118761D01*
X204533571Y-125166380D01*
X204724047Y-125166380D01*
X204819285Y-125118761D01*
X204866904Y-125071142D01*
X204914523Y-124975904D01*
X204914523Y-124166380D01*
X205819285Y-124499714D02*
X205819285Y-125166380D01*
X205581190Y-124118761D02*
X205343095Y-124833047D01*
X205962142Y-124833047D01*
G04 #@! TO.C,U5*
X165925595Y-124060380D02*
X165925595Y-124869904D01*
X165973214Y-124965142D01*
X166020833Y-125012761D01*
X166116071Y-125060380D01*
X166306547Y-125060380D01*
X166401785Y-125012761D01*
X166449404Y-124965142D01*
X166497023Y-124869904D01*
X166497023Y-124060380D01*
X167449404Y-124060380D02*
X166973214Y-124060380D01*
X166925595Y-124536571D01*
X166973214Y-124488952D01*
X167068452Y-124441333D01*
X167306547Y-124441333D01*
X167401785Y-124488952D01*
X167449404Y-124536571D01*
X167497023Y-124631809D01*
X167497023Y-124869904D01*
X167449404Y-124965142D01*
X167401785Y-125012761D01*
X167306547Y-125060380D01*
X167068452Y-125060380D01*
X166973214Y-125012761D01*
X166925595Y-124965142D01*
G04 #@! TO.C,D15*
X170235714Y-106346130D02*
X170235714Y-105346130D01*
X170473809Y-105346130D01*
X170616666Y-105393750D01*
X170711904Y-105488988D01*
X170759523Y-105584226D01*
X170807142Y-105774702D01*
X170807142Y-105917559D01*
X170759523Y-106108035D01*
X170711904Y-106203273D01*
X170616666Y-106298511D01*
X170473809Y-106346130D01*
X170235714Y-106346130D01*
X171759523Y-106346130D02*
X171188095Y-106346130D01*
X171473809Y-106346130D02*
X171473809Y-105346130D01*
X171378571Y-105488988D01*
X171283333Y-105584226D01*
X171188095Y-105631845D01*
X172664285Y-105346130D02*
X172188095Y-105346130D01*
X172140476Y-105822321D01*
X172188095Y-105774702D01*
X172283333Y-105727083D01*
X172521428Y-105727083D01*
X172616666Y-105774702D01*
X172664285Y-105822321D01*
X172711904Y-105917559D01*
X172711904Y-106155654D01*
X172664285Y-106250892D01*
X172616666Y-106298511D01*
X172521428Y-106346130D01*
X172283333Y-106346130D01*
X172188095Y-106298511D01*
X172140476Y-106250892D01*
G04 #@! TO.C,U1*
X318325595Y-124060380D02*
X318325595Y-124869904D01*
X318373214Y-124965142D01*
X318420833Y-125012761D01*
X318516071Y-125060380D01*
X318706547Y-125060380D01*
X318801785Y-125012761D01*
X318849404Y-124965142D01*
X318897023Y-124869904D01*
X318897023Y-124060380D01*
X319897023Y-125060380D02*
X319325595Y-125060380D01*
X319611309Y-125060380D02*
X319611309Y-124060380D01*
X319516071Y-124203238D01*
X319420833Y-124298476D01*
X319325595Y-124346095D01*
G04 #@! TO.C,U6*
X127825595Y-124060380D02*
X127825595Y-124869904D01*
X127873214Y-124965142D01*
X127920833Y-125012761D01*
X128016071Y-125060380D01*
X128206547Y-125060380D01*
X128301785Y-125012761D01*
X128349404Y-124965142D01*
X128397023Y-124869904D01*
X128397023Y-124060380D01*
X129301785Y-124060380D02*
X129111309Y-124060380D01*
X129016071Y-124108000D01*
X128968452Y-124155619D01*
X128873214Y-124298476D01*
X128825595Y-124488952D01*
X128825595Y-124869904D01*
X128873214Y-124965142D01*
X128920833Y-125012761D01*
X129016071Y-125060380D01*
X129206547Y-125060380D01*
X129301785Y-125012761D01*
X129349404Y-124965142D01*
X129397023Y-124869904D01*
X129397023Y-124631809D01*
X129349404Y-124536571D01*
X129301785Y-124488952D01*
X129206547Y-124441333D01*
X129016071Y-124441333D01*
X128920833Y-124488952D01*
X128873214Y-124536571D01*
X128825595Y-124631809D01*
G04 #@! TO.C,D12*
X83320089Y-138636755D02*
X83320089Y-137636755D01*
X83558184Y-137636755D01*
X83701041Y-137684375D01*
X83796279Y-137779613D01*
X83843898Y-137874851D01*
X83891517Y-138065327D01*
X83891517Y-138208184D01*
X83843898Y-138398660D01*
X83796279Y-138493898D01*
X83701041Y-138589136D01*
X83558184Y-138636755D01*
X83320089Y-138636755D01*
X84843898Y-138636755D02*
X84272470Y-138636755D01*
X84558184Y-138636755D02*
X84558184Y-137636755D01*
X84462946Y-137779613D01*
X84367708Y-137874851D01*
X84272470Y-137922470D01*
X85224851Y-137731994D02*
X85272470Y-137684375D01*
X85367708Y-137636755D01*
X85605803Y-137636755D01*
X85701041Y-137684375D01*
X85748660Y-137731994D01*
X85796279Y-137827232D01*
X85796279Y-137922470D01*
X85748660Y-138065327D01*
X85177232Y-138636755D01*
X85796279Y-138636755D01*
G04 #@! TO.C,D4*
X313586904Y-138636755D02*
X313586904Y-137636755D01*
X313825000Y-137636755D01*
X313967857Y-137684375D01*
X314063095Y-137779613D01*
X314110714Y-137874851D01*
X314158333Y-138065327D01*
X314158333Y-138208184D01*
X314110714Y-138398660D01*
X314063095Y-138493898D01*
X313967857Y-138589136D01*
X313825000Y-138636755D01*
X313586904Y-138636755D01*
X315015476Y-137970089D02*
X315015476Y-138636755D01*
X314777380Y-137589136D02*
X314539285Y-138303422D01*
X315158333Y-138303422D01*
G04 #@! TO.C,D9*
X165949404Y-156496130D02*
X165949404Y-155496130D01*
X166187500Y-155496130D01*
X166330357Y-155543750D01*
X166425595Y-155638988D01*
X166473214Y-155734226D01*
X166520833Y-155924702D01*
X166520833Y-156067559D01*
X166473214Y-156258035D01*
X166425595Y-156353273D01*
X166330357Y-156448511D01*
X166187500Y-156496130D01*
X165949404Y-156496130D01*
X166997023Y-156496130D02*
X167187500Y-156496130D01*
X167282738Y-156448511D01*
X167330357Y-156400892D01*
X167425595Y-156258035D01*
X167473214Y-156067559D01*
X167473214Y-155686607D01*
X167425595Y-155591369D01*
X167377976Y-155543750D01*
X167282738Y-155496130D01*
X167092261Y-155496130D01*
X166997023Y-155543750D01*
X166949404Y-155591369D01*
X166901785Y-155686607D01*
X166901785Y-155924702D01*
X166949404Y-156019940D01*
X166997023Y-156067559D01*
X167092261Y-156115178D01*
X167282738Y-156115178D01*
X167377976Y-156067559D01*
X167425595Y-156019940D01*
X167473214Y-155924702D01*
G04 #@! TO.C,D2*
X285011904Y-106346130D02*
X285011904Y-105346130D01*
X285250000Y-105346130D01*
X285392857Y-105393750D01*
X285488095Y-105488988D01*
X285535714Y-105584226D01*
X285583333Y-105774702D01*
X285583333Y-105917559D01*
X285535714Y-106108035D01*
X285488095Y-106203273D01*
X285392857Y-106298511D01*
X285250000Y-106346130D01*
X285011904Y-106346130D01*
X285964285Y-105441369D02*
X286011904Y-105393750D01*
X286107142Y-105346130D01*
X286345238Y-105346130D01*
X286440476Y-105393750D01*
X286488095Y-105441369D01*
X286535714Y-105536607D01*
X286535714Y-105631845D01*
X286488095Y-105774702D01*
X285916666Y-106346130D01*
X286535714Y-106346130D01*
G04 #@! TO.C,D3*
X323111904Y-106346130D02*
X323111904Y-105346130D01*
X323350000Y-105346130D01*
X323492857Y-105393750D01*
X323588095Y-105488988D01*
X323635714Y-105584226D01*
X323683333Y-105774702D01*
X323683333Y-105917559D01*
X323635714Y-106108035D01*
X323588095Y-106203273D01*
X323492857Y-106298511D01*
X323350000Y-106346130D01*
X323111904Y-106346130D01*
X324016666Y-105346130D02*
X324635714Y-105346130D01*
X324302380Y-105727083D01*
X324445238Y-105727083D01*
X324540476Y-105774702D01*
X324588095Y-105822321D01*
X324635714Y-105917559D01*
X324635714Y-106155654D01*
X324588095Y-106250892D01*
X324540476Y-106298511D01*
X324445238Y-106346130D01*
X324159523Y-106346130D01*
X324064285Y-106298511D01*
X324016666Y-106250892D01*
G04 #@! TO.C,D11*
X111895089Y-138636755D02*
X111895089Y-137636755D01*
X112133184Y-137636755D01*
X112276041Y-137684375D01*
X112371279Y-137779613D01*
X112418898Y-137874851D01*
X112466517Y-138065327D01*
X112466517Y-138208184D01*
X112418898Y-138398660D01*
X112371279Y-138493898D01*
X112276041Y-138589136D01*
X112133184Y-138636755D01*
X111895089Y-138636755D01*
X113418898Y-138636755D02*
X112847470Y-138636755D01*
X113133184Y-138636755D02*
X113133184Y-137636755D01*
X113037946Y-137779613D01*
X112942708Y-137874851D01*
X112847470Y-137922470D01*
X114371279Y-138636755D02*
X113799851Y-138636755D01*
X114085565Y-138636755D02*
X114085565Y-137636755D01*
X113990327Y-137779613D01*
X113895089Y-137874851D01*
X113799851Y-137922470D01*
G04 #@! TO.C,D7*
X224290029Y-166021130D02*
X224290029Y-165021130D01*
X224528125Y-165021130D01*
X224670982Y-165068750D01*
X224766220Y-165163988D01*
X224813839Y-165259226D01*
X224861458Y-165449702D01*
X224861458Y-165592559D01*
X224813839Y-165783035D01*
X224766220Y-165878273D01*
X224670982Y-165973511D01*
X224528125Y-166021130D01*
X224290029Y-166021130D01*
X225194791Y-165021130D02*
X225861458Y-165021130D01*
X225432886Y-166021130D01*
G04 #@! TO.C,JP2*
X196016666Y-102830380D02*
X196016666Y-103544666D01*
X195969047Y-103687523D01*
X195873809Y-103782761D01*
X195730952Y-103830380D01*
X195635714Y-103830380D01*
X196492857Y-103830380D02*
X196492857Y-102830380D01*
X196873809Y-102830380D01*
X196969047Y-102878000D01*
X197016666Y-102925619D01*
X197064285Y-103020857D01*
X197064285Y-103163714D01*
X197016666Y-103258952D01*
X196969047Y-103306571D01*
X196873809Y-103354190D01*
X196492857Y-103354190D01*
X197445238Y-102925619D02*
X197492857Y-102878000D01*
X197588095Y-102830380D01*
X197826190Y-102830380D01*
X197921428Y-102878000D01*
X197969047Y-102925619D01*
X198016666Y-103020857D01*
X198016666Y-103116095D01*
X197969047Y-103258952D01*
X197397619Y-103830380D01*
X198016666Y-103830380D01*
X200453666Y-104227380D02*
X201072714Y-104227380D01*
X200739380Y-104608333D01*
X200882238Y-104608333D01*
X200977476Y-104655952D01*
X201025095Y-104703571D01*
X201072714Y-104798809D01*
X201072714Y-105036904D01*
X201025095Y-105132142D01*
X200977476Y-105179761D01*
X200882238Y-105227380D01*
X200596523Y-105227380D01*
X200501285Y-105179761D01*
X200453666Y-105132142D01*
X193325714Y-105227380D02*
X192754285Y-105227380D01*
X193040000Y-105227380D02*
X193040000Y-104227380D01*
X192944761Y-104370238D01*
X192849523Y-104465476D01*
X192754285Y-104513095D01*
G04 #@! TO.C,U8*
X208788095Y-160858630D02*
X208788095Y-161668154D01*
X208835714Y-161763392D01*
X208883333Y-161811011D01*
X208978571Y-161858630D01*
X209169047Y-161858630D01*
X209264285Y-161811011D01*
X209311904Y-161763392D01*
X209359523Y-161668154D01*
X209359523Y-160858630D01*
X209978571Y-161287202D02*
X209883333Y-161239583D01*
X209835714Y-161191964D01*
X209788095Y-161096726D01*
X209788095Y-161049107D01*
X209835714Y-160953869D01*
X209883333Y-160906250D01*
X209978571Y-160858630D01*
X210169047Y-160858630D01*
X210264285Y-160906250D01*
X210311904Y-160953869D01*
X210359523Y-161049107D01*
X210359523Y-161096726D01*
X210311904Y-161191964D01*
X210264285Y-161239583D01*
X210169047Y-161287202D01*
X209978571Y-161287202D01*
X209883333Y-161334821D01*
X209835714Y-161382440D01*
X209788095Y-161477678D01*
X209788095Y-161668154D01*
X209835714Y-161763392D01*
X209883333Y-161811011D01*
X209978571Y-161858630D01*
X210169047Y-161858630D01*
X210264285Y-161811011D01*
X210311904Y-161763392D01*
X210359523Y-161668154D01*
X210359523Y-161477678D01*
X210311904Y-161382440D01*
X210264285Y-161334821D01*
X210169047Y-161287202D01*
G04 #@! TO.C,D13*
X94035714Y-106346130D02*
X94035714Y-105346130D01*
X94273809Y-105346130D01*
X94416666Y-105393750D01*
X94511904Y-105488988D01*
X94559523Y-105584226D01*
X94607142Y-105774702D01*
X94607142Y-105917559D01*
X94559523Y-106108035D01*
X94511904Y-106203273D01*
X94416666Y-106298511D01*
X94273809Y-106346130D01*
X94035714Y-106346130D01*
X95559523Y-106346130D02*
X94988095Y-106346130D01*
X95273809Y-106346130D02*
X95273809Y-105346130D01*
X95178571Y-105488988D01*
X95083333Y-105584226D01*
X94988095Y-105631845D01*
X95892857Y-105346130D02*
X96511904Y-105346130D01*
X96178571Y-105727083D01*
X96321428Y-105727083D01*
X96416666Y-105774702D01*
X96464285Y-105822321D01*
X96511904Y-105917559D01*
X96511904Y-106155654D01*
X96464285Y-106250892D01*
X96416666Y-106298511D01*
X96321428Y-106346130D01*
X96035714Y-106346130D01*
X95940476Y-106298511D01*
X95892857Y-106250892D01*
G04 #@! TO.C,D16*
X204366964Y-106346130D02*
X204366964Y-105346130D01*
X204605059Y-105346130D01*
X204747916Y-105393750D01*
X204843154Y-105488988D01*
X204890773Y-105584226D01*
X204938392Y-105774702D01*
X204938392Y-105917559D01*
X204890773Y-106108035D01*
X204843154Y-106203273D01*
X204747916Y-106298511D01*
X204605059Y-106346130D01*
X204366964Y-106346130D01*
X205890773Y-106346130D02*
X205319345Y-106346130D01*
X205605059Y-106346130D02*
X205605059Y-105346130D01*
X205509821Y-105488988D01*
X205414583Y-105584226D01*
X205319345Y-105631845D01*
X206747916Y-105346130D02*
X206557440Y-105346130D01*
X206462202Y-105393750D01*
X206414583Y-105441369D01*
X206319345Y-105584226D01*
X206271726Y-105774702D01*
X206271726Y-106155654D01*
X206319345Y-106250892D01*
X206366964Y-106298511D01*
X206462202Y-106346130D01*
X206652678Y-106346130D01*
X206747916Y-106298511D01*
X206795535Y-106250892D01*
X206843154Y-106155654D01*
X206843154Y-105917559D01*
X206795535Y-105822321D01*
X206747916Y-105774702D01*
X206652678Y-105727083D01*
X206462202Y-105727083D01*
X206366964Y-105774702D01*
X206319345Y-105822321D01*
X206271726Y-105917559D01*
G04 #@! TO.C,D5*
X275486904Y-138636755D02*
X275486904Y-137636755D01*
X275725000Y-137636755D01*
X275867857Y-137684375D01*
X275963095Y-137779613D01*
X276010714Y-137874851D01*
X276058333Y-138065327D01*
X276058333Y-138208184D01*
X276010714Y-138398660D01*
X275963095Y-138493898D01*
X275867857Y-138589136D01*
X275725000Y-138636755D01*
X275486904Y-138636755D01*
X276963095Y-137636755D02*
X276486904Y-137636755D01*
X276439285Y-138112946D01*
X276486904Y-138065327D01*
X276582142Y-138017708D01*
X276820238Y-138017708D01*
X276915476Y-138065327D01*
X276963095Y-138112946D01*
X277010714Y-138208184D01*
X277010714Y-138446279D01*
X276963095Y-138541517D01*
X276915476Y-138589136D01*
X276820238Y-138636755D01*
X276582142Y-138636755D01*
X276486904Y-138589136D01*
X276439285Y-138541517D01*
G04 #@! TO.C,U3*
X242125595Y-124060380D02*
X242125595Y-124869904D01*
X242173214Y-124965142D01*
X242220833Y-125012761D01*
X242316071Y-125060380D01*
X242506547Y-125060380D01*
X242601785Y-125012761D01*
X242649404Y-124965142D01*
X242697023Y-124869904D01*
X242697023Y-124060380D01*
X243077976Y-124060380D02*
X243697023Y-124060380D01*
X243363690Y-124441333D01*
X243506547Y-124441333D01*
X243601785Y-124488952D01*
X243649404Y-124536571D01*
X243697023Y-124631809D01*
X243697023Y-124869904D01*
X243649404Y-124965142D01*
X243601785Y-125012761D01*
X243506547Y-125060380D01*
X243220833Y-125060380D01*
X243125595Y-125012761D01*
X243077976Y-124965142D01*
G04 #@! TO.C,D1*
X246911904Y-106346130D02*
X246911904Y-105346130D01*
X247150000Y-105346130D01*
X247292857Y-105393750D01*
X247388095Y-105488988D01*
X247435714Y-105584226D01*
X247483333Y-105774702D01*
X247483333Y-105917559D01*
X247435714Y-106108035D01*
X247388095Y-106203273D01*
X247292857Y-106298511D01*
X247150000Y-106346130D01*
X246911904Y-106346130D01*
X248435714Y-106346130D02*
X247864285Y-106346130D01*
X248150000Y-106346130D02*
X248150000Y-105346130D01*
X248054761Y-105488988D01*
X247959523Y-105584226D01*
X247864285Y-105631845D01*
G04 #@! TO.C,U2*
X280225595Y-124060380D02*
X280225595Y-124869904D01*
X280273214Y-124965142D01*
X280320833Y-125012761D01*
X280416071Y-125060380D01*
X280606547Y-125060380D01*
X280701785Y-125012761D01*
X280749404Y-124965142D01*
X280797023Y-124869904D01*
X280797023Y-124060380D01*
X281225595Y-124155619D02*
X281273214Y-124108000D01*
X281368452Y-124060380D01*
X281606547Y-124060380D01*
X281701785Y-124108000D01*
X281749404Y-124155619D01*
X281797023Y-124250857D01*
X281797023Y-124346095D01*
X281749404Y-124488952D01*
X281177976Y-125060380D01*
X281797023Y-125060380D01*
G04 #@! TO.C,D6*
X251674404Y-156496130D02*
X251674404Y-155496130D01*
X251912500Y-155496130D01*
X252055357Y-155543750D01*
X252150595Y-155638988D01*
X252198214Y-155734226D01*
X252245833Y-155924702D01*
X252245833Y-156067559D01*
X252198214Y-156258035D01*
X252150595Y-156353273D01*
X252055357Y-156448511D01*
X251912500Y-156496130D01*
X251674404Y-156496130D01*
X253102976Y-155496130D02*
X252912500Y-155496130D01*
X252817261Y-155543750D01*
X252769642Y-155591369D01*
X252674404Y-155734226D01*
X252626785Y-155924702D01*
X252626785Y-156305654D01*
X252674404Y-156400892D01*
X252722023Y-156448511D01*
X252817261Y-156496130D01*
X253007738Y-156496130D01*
X253102976Y-156448511D01*
X253150595Y-156400892D01*
X253198214Y-156305654D01*
X253198214Y-156067559D01*
X253150595Y-155972321D01*
X253102976Y-155924702D01*
X253007738Y-155877083D01*
X252817261Y-155877083D01*
X252722023Y-155924702D01*
X252674404Y-155972321D01*
X252626785Y-156067559D01*
G04 #@! TO.C,D8*
X196508779Y-173093005D02*
X196508779Y-172093005D01*
X196746875Y-172093005D01*
X196889732Y-172140625D01*
X196984970Y-172235863D01*
X197032589Y-172331101D01*
X197080208Y-172521577D01*
X197080208Y-172664434D01*
X197032589Y-172854910D01*
X196984970Y-172950148D01*
X196889732Y-173045386D01*
X196746875Y-173093005D01*
X196508779Y-173093005D01*
X197651636Y-172521577D02*
X197556398Y-172473958D01*
X197508779Y-172426339D01*
X197461160Y-172331101D01*
X197461160Y-172283482D01*
X197508779Y-172188244D01*
X197556398Y-172140625D01*
X197651636Y-172093005D01*
X197842113Y-172093005D01*
X197937351Y-172140625D01*
X197984970Y-172188244D01*
X198032589Y-172283482D01*
X198032589Y-172331101D01*
X197984970Y-172426339D01*
X197937351Y-172473958D01*
X197842113Y-172521577D01*
X197651636Y-172521577D01*
X197556398Y-172569196D01*
X197508779Y-172616815D01*
X197461160Y-172712053D01*
X197461160Y-172902529D01*
X197508779Y-172997767D01*
X197556398Y-173045386D01*
X197651636Y-173093005D01*
X197842113Y-173093005D01*
X197937351Y-173045386D01*
X197984970Y-172997767D01*
X198032589Y-172902529D01*
X198032589Y-172712053D01*
X197984970Y-172616815D01*
X197937351Y-172569196D01*
X197842113Y-172521577D01*
G04 #@! TO.C,D14*
X132135714Y-106346130D02*
X132135714Y-105346130D01*
X132373809Y-105346130D01*
X132516666Y-105393750D01*
X132611904Y-105488988D01*
X132659523Y-105584226D01*
X132707142Y-105774702D01*
X132707142Y-105917559D01*
X132659523Y-106108035D01*
X132611904Y-106203273D01*
X132516666Y-106298511D01*
X132373809Y-106346130D01*
X132135714Y-106346130D01*
X133659523Y-106346130D02*
X133088095Y-106346130D01*
X133373809Y-106346130D02*
X133373809Y-105346130D01*
X133278571Y-105488988D01*
X133183333Y-105584226D01*
X133088095Y-105631845D01*
X134516666Y-105679464D02*
X134516666Y-106346130D01*
X134278571Y-105298511D02*
X134040476Y-106012797D01*
X134659523Y-106012797D01*
D13*
G04 #@! TO.C,RN6*
X234857500Y-124721875D02*
X234857500Y-123721875D01*
X238217500Y-124721875D02*
X238217500Y-123721875D01*
G04 #@! TO.C,U7*
X90487500Y-123893000D02*
X94087500Y-123893000D01*
X90487500Y-118423000D02*
X92687500Y-118423000D01*
X90487500Y-118423000D02*
X88287500Y-118423000D01*
X90487500Y-123893000D02*
X88287500Y-123893000D01*
G04 #@! TO.C,D10*
X145334375Y-144434375D02*
X144184375Y-144434375D01*
X145334375Y-144434375D02*
X145334375Y-143284375D01*
G04 #@! TO.C,U4*
X204787500Y-118423000D02*
X202587500Y-118423000D01*
X204787500Y-123893000D02*
X202587500Y-123893000D01*
X204787500Y-118423000D02*
X206987500Y-118423000D01*
X204787500Y-123893000D02*
X208387500Y-123893000D01*
G04 #@! TO.C,U5*
X166687500Y-118423000D02*
X164487500Y-118423000D01*
X166687500Y-123893000D02*
X164487500Y-123893000D01*
X166687500Y-118423000D02*
X168887500Y-118423000D01*
X166687500Y-123893000D02*
X170287500Y-123893000D01*
G04 #@! TO.C,D15*
X167800000Y-99643750D02*
X168950000Y-99643750D01*
X167800000Y-99643750D02*
X167800000Y-100793750D01*
G04 #@! TO.C,RN1*
X324583000Y-123833000D02*
X324583000Y-124833000D01*
X327943000Y-123833000D02*
X327943000Y-124833000D01*
G04 #@! TO.C,RN9*
X172437000Y-123721875D02*
X172437000Y-124721875D01*
X175797000Y-123721875D02*
X175797000Y-124721875D01*
G04 #@! TO.C,U1*
X319087500Y-123893000D02*
X322687500Y-123893000D01*
X319087500Y-118423000D02*
X316887500Y-118423000D01*
X319087500Y-123893000D02*
X316887500Y-123893000D01*
X319087500Y-118423000D02*
X321287500Y-118423000D01*
G04 #@! TO.C,U6*
X128587500Y-118423000D02*
X130787500Y-118423000D01*
X128587500Y-123893000D02*
X126387500Y-123893000D01*
X128587500Y-118423000D02*
X126387500Y-118423000D01*
X128587500Y-123893000D02*
X132187500Y-123893000D01*
G04 #@! TO.C,RN10*
X162017500Y-124721875D02*
X162017500Y-123721875D01*
X158657500Y-124721875D02*
X158657500Y-123721875D01*
G04 #@! TO.C,RN5*
X251616000Y-123706000D02*
X251616000Y-124706000D01*
X248256000Y-123706000D02*
X248256000Y-124706000D01*
G04 #@! TO.C,D12*
X88184375Y-144434375D02*
X87034375Y-144434375D01*
X88184375Y-144434375D02*
X88184375Y-143284375D01*
G04 #@! TO.C,D4*
X317975000Y-144434375D02*
X316825000Y-144434375D01*
X317975000Y-144434375D02*
X317975000Y-143284375D01*
G04 #@! TO.C,D9*
X170337500Y-162293750D02*
X170337500Y-161143750D01*
X170337500Y-162293750D02*
X169187500Y-162293750D01*
G04 #@! TO.C,D2*
X282100000Y-99643750D02*
X282100000Y-100793750D01*
X282100000Y-99643750D02*
X283250000Y-99643750D01*
G04 #@! TO.C,D3*
X320200000Y-99643750D02*
X320200000Y-100793750D01*
X320200000Y-99643750D02*
X321350000Y-99643750D01*
G04 #@! TO.C,RN12*
X123917500Y-124721875D02*
X123917500Y-123721875D01*
X120557500Y-124721875D02*
X120557500Y-123721875D01*
G04 #@! TO.C,D11*
X116759375Y-144434375D02*
X115609375Y-144434375D01*
X116759375Y-144434375D02*
X116759375Y-143284375D01*
G04 #@! TO.C,D7*
X228678125Y-171818750D02*
X227528125Y-171818750D01*
X228678125Y-171818750D02*
X228678125Y-170668750D01*
G04 #@! TO.C,RN11*
X137443000Y-123721875D02*
X137443000Y-124721875D01*
X134083000Y-123721875D02*
X134083000Y-124721875D01*
G04 #@! TO.C,RN7*
X213516000Y-123721875D02*
X213516000Y-124721875D01*
X210156000Y-123721875D02*
X210156000Y-124721875D01*
G04 #@! TO.C,U8*
X209550000Y-155221250D02*
X207350000Y-155221250D01*
X209550000Y-160691250D02*
X207350000Y-160691250D01*
X209550000Y-160691250D02*
X213150000Y-160691250D01*
X209550000Y-155221250D02*
X211750000Y-155221250D01*
G04 #@! TO.C,D13*
X91600000Y-99643750D02*
X91600000Y-100793750D01*
X91600000Y-99643750D02*
X92750000Y-99643750D01*
G04 #@! TO.C,RN14*
X82457500Y-124721875D02*
X82457500Y-123721875D01*
X85817500Y-124721875D02*
X85817500Y-123721875D01*
G04 #@! TO.C,D16*
X201931250Y-99643750D02*
X201931250Y-100793750D01*
X201931250Y-99643750D02*
X203081250Y-99643750D01*
G04 #@! TO.C,D5*
X279875000Y-144434375D02*
X278725000Y-144434375D01*
X279875000Y-144434375D02*
X279875000Y-143284375D01*
G04 #@! TO.C,RN8*
X200117500Y-124721875D02*
X200117500Y-123721875D01*
X196757500Y-124721875D02*
X196757500Y-123721875D01*
G04 #@! TO.C,U3*
X242887500Y-118423000D02*
X245087500Y-118423000D01*
X242887500Y-118423000D02*
X240687500Y-118423000D01*
X242887500Y-123893000D02*
X246487500Y-123893000D01*
X242887500Y-123893000D02*
X240687500Y-123893000D01*
G04 #@! TO.C,RN4*
X276317500Y-124721875D02*
X276317500Y-123721875D01*
X272957500Y-124721875D02*
X272957500Y-123721875D01*
G04 #@! TO.C,RN15*
X215236000Y-160631250D02*
X215236000Y-161631250D01*
X218596000Y-160631250D02*
X218596000Y-161631250D01*
G04 #@! TO.C,RN3*
X286483000Y-123721875D02*
X286483000Y-124721875D01*
X289843000Y-123721875D02*
X289843000Y-124721875D01*
G04 #@! TO.C,RN2*
X314354000Y-124833000D02*
X314354000Y-123833000D01*
X310994000Y-124833000D02*
X310994000Y-123833000D01*
G04 #@! TO.C,D1*
X244000000Y-99643750D02*
X244000000Y-100793750D01*
X244000000Y-99643750D02*
X245150000Y-99643750D01*
G04 #@! TO.C,RN13*
X99343000Y-123721875D02*
X99343000Y-124721875D01*
X95983000Y-123721875D02*
X95983000Y-124721875D01*
G04 #@! TO.C,RN16*
X204483125Y-161631250D02*
X204483125Y-160631250D01*
X201123125Y-161631250D02*
X201123125Y-160631250D01*
G04 #@! TO.C,U2*
X280987500Y-118423000D02*
X278787500Y-118423000D01*
X280987500Y-123893000D02*
X284587500Y-123893000D01*
X280987500Y-118423000D02*
X283187500Y-118423000D01*
X280987500Y-123893000D02*
X278787500Y-123893000D01*
G04 #@! TO.C,D6*
X256062500Y-162293750D02*
X254912500Y-162293750D01*
X256062500Y-162293750D02*
X256062500Y-161143750D01*
G04 #@! TO.C,D8*
X197721875Y-171818750D02*
X197721875Y-170668750D01*
X197721875Y-171818750D02*
X196571875Y-171818750D01*
G04 #@! TO.C,D14*
X129700000Y-99643750D02*
X130850000Y-99643750D01*
X129700000Y-99643750D02*
X129700000Y-100793750D01*
G04 #@! TD*
M02*
